%FSLAX25Y25*%
%MOIN*%
G70*
G01*
G75*
%ADD10R,0.16535X0.05315*%
%ADD11R,0.14173X0.05000*%
G04:AMPARAMS|DCode=12|XSize=14.96mil|YSize=55.12mil|CornerRadius=3.74mil|HoleSize=0mil|Usage=FLASHONLY|Rotation=270.000|XOffset=0mil|YOffset=0mil|HoleType=Round|Shape=RoundedRectangle|*
%AMROUNDEDRECTD12*
21,1,0.01496,0.04764,0,0,270.0*
21,1,0.00748,0.05512,0,0,270.0*
1,1,0.00748,-0.02382,-0.00374*
1,1,0.00748,-0.02382,0.00374*
1,1,0.00748,0.02382,0.00374*
1,1,0.00748,0.02382,-0.00374*
%
%ADD12ROUNDEDRECTD12*%
%ADD13R,0.04331X0.06693*%
%ADD14R,0.39370X0.27559*%
%ADD15R,0.03543X0.02756*%
%ADD16R,0.11811X0.04567*%
%ADD17R,0.11811X0.07874*%
%ADD18R,0.20000X0.15000*%
%ADD19C,0.01000*%
%ADD20C,0.01969*%
%ADD21C,0.05906*%
%ADD22R,0.05906X0.05906*%
%ADD23R,0.09843X0.09843*%
%ADD24R,0.05906X0.05906*%
%ADD25C,0.06000*%
%ADD26O,0.07874X0.15748*%
%ADD27O,0.15748X0.07874*%
%ADD28O,0.08661X0.17323*%
%ADD29C,0.02000*%
%ADD30C,0.00787*%
%ADD31C,0.00900*%
%ADD32C,0.00591*%
%ADD33C,0.00200*%
%ADD34C,0.01500*%
%ADD35C,0.00700*%
%ADD36C,0.00500*%
%ADD37C,0.01181*%
D19*
X386438Y146927D02*
X386538D01*
X388017Y77719D02*
X388117D01*
X207110Y141106D02*
Y170634D01*
X245890Y141185D02*
Y170713D01*
X219000Y141500D02*
X234000D01*
X123390Y45366D02*
Y74894D01*
X84610Y45287D02*
Y74815D01*
X96500Y74500D02*
X111500D01*
X3937Y167126D02*
X13937D01*
Y137185D02*
Y167126D01*
X3937Y137185D02*
X13937D01*
X3937Y182126D02*
X193937D01*
X3937Y122126D02*
X193937D01*
X257500Y132500D02*
Y147047D01*
X312618D01*
X35039Y103150D02*
Y105118D01*
Y61024D02*
Y62992D01*
X0Y103150D02*
X57087D01*
X0Y62992D02*
X57087D01*
X139764Y36457D02*
Y86457D01*
X164764Y26457D02*
X269764D01*
X299764Y36457D02*
Y86457D01*
X164764Y96457D02*
X269764D01*
X69000Y50999D02*
X72999D01*
X70999Y52998D02*
Y49000D01*
X71001Y19500D02*
Y23499D01*
X221500Y161498D02*
Y155500D01*
X224499D01*
X225499Y156500D01*
Y160498D01*
X224499Y161498D01*
X221500D01*
X227498Y160498D02*
X228498Y161498D01*
X230497D01*
X231497Y160498D01*
Y159499D01*
X230497Y158499D01*
X229497D01*
X230497D01*
X231497Y157499D01*
Y156500D01*
X230497Y155500D01*
X228498D01*
X227498Y156500D01*
X99000Y63498D02*
Y57500D01*
X101999D01*
X102999Y58500D01*
Y62498D01*
X101999Y63498D01*
X99000D01*
X104998Y57500D02*
X106997D01*
X105998D01*
Y63498D01*
X104998Y62498D01*
X368000Y109998D02*
Y105000D01*
X370499D01*
X371332Y105833D01*
Y106666D01*
X370499Y107499D01*
X368000D01*
X370499D01*
X371332Y108332D01*
Y109165D01*
X370499Y109998D01*
X368000D01*
X372998Y105000D02*
Y108332D01*
X374664Y109998D01*
X376331Y108332D01*
Y105000D01*
Y107499D01*
X372998D01*
X381329Y109165D02*
X380496Y109998D01*
X378830D01*
X377997Y109165D01*
Y105833D01*
X378830Y105000D01*
X380496D01*
X381329Y105833D01*
X382995Y109998D02*
Y105000D01*
Y106666D01*
X386327Y109998D01*
X383828Y107499D01*
X386327Y105000D01*
X391326Y109165D02*
X390493Y109998D01*
X388827D01*
X387994Y109165D01*
Y108332D01*
X388827Y107499D01*
X390493D01*
X391326Y106666D01*
Y105833D01*
X390493Y105000D01*
X388827D01*
X387994Y105833D01*
X396324Y109165D02*
X395491Y109998D01*
X393825D01*
X392992Y109165D01*
Y105833D01*
X393825Y105000D01*
X395491D01*
X396324Y105833D01*
X397990Y105000D02*
Y108332D01*
X399656Y109998D01*
X401323Y108332D01*
Y105000D01*
Y107499D01*
X397990D01*
X402989Y109998D02*
X406321D01*
X404655D01*
Y105000D01*
X407987Y109998D02*
X411319D01*
X409653D01*
Y105000D01*
X416318Y109998D02*
X412985D01*
Y105000D01*
X416318D01*
X412985Y107499D02*
X414652D01*
X417984Y105000D02*
Y109998D01*
X420483D01*
X421316Y109165D01*
Y107499D01*
X420483Y106666D01*
X417984D01*
X419650D02*
X421316Y105000D01*
X427981D02*
Y109998D01*
X429647Y108332D01*
X431313Y109998D01*
Y105000D01*
X436311Y109165D02*
X435478Y109998D01*
X433812D01*
X432979Y109165D01*
Y108332D01*
X433812Y107499D01*
X435478D01*
X436311Y106666D01*
Y105833D01*
X435478Y105000D01*
X433812D01*
X432979Y105833D01*
X441310Y109165D02*
X440477Y109998D01*
X438810D01*
X437977Y109165D01*
Y105833D01*
X438810Y105000D01*
X440477D01*
X441310Y105833D01*
Y107499D01*
X439643D01*
X28500Y194500D02*
Y200498D01*
X31499D01*
X32499Y199498D01*
Y197499D01*
X31499Y196499D01*
X28500D01*
X30499D02*
X32499Y194500D01*
X34498D02*
Y198499D01*
X36497Y200498D01*
X38497Y198499D01*
Y194500D01*
Y197499D01*
X34498D01*
X44495Y199498D02*
X43495Y200498D01*
X41496D01*
X40496Y199498D01*
Y198499D01*
X41496Y197499D01*
X43495D01*
X44495Y196499D01*
Y195500D01*
X43495Y194500D01*
X41496D01*
X40496Y195500D01*
X46494Y194500D02*
Y200498D01*
X49493D01*
X50493Y199498D01*
Y197499D01*
X49493Y196499D01*
X46494D01*
X52492Y200498D02*
Y194500D01*
X55491D01*
X56491Y195500D01*
Y196499D01*
X55491Y197499D01*
X52492D01*
X55491D01*
X56491Y198499D01*
Y199498D01*
X55491Y200498D01*
X52492D01*
X62489D02*
X58490D01*
Y194500D01*
X62489D01*
X58490Y197499D02*
X60490D01*
X64488Y194500D02*
Y200498D01*
X67487D01*
X68487Y199498D01*
Y197499D01*
X67487Y196499D01*
X64488D01*
X66488D02*
X68487Y194500D01*
X70486D02*
Y200498D01*
X73485D01*
X74485Y199498D01*
Y197499D01*
X73485Y196499D01*
X70486D01*
X72486D02*
X74485Y194500D01*
X76485Y200498D02*
Y199498D01*
X78484Y197499D01*
X80483Y199498D01*
Y200498D01*
X78484Y197499D02*
Y194500D01*
X88481D02*
Y200498D01*
X91480D01*
X92479Y199498D01*
Y197499D01*
X91480Y196499D01*
X88481D01*
X94479Y200498D02*
X96478D01*
X95478D01*
Y194500D01*
X94479D01*
X96478D01*
X105475D02*
Y200498D01*
X108474D01*
X109474Y199498D01*
Y197499D01*
X108474Y196499D01*
X105475D01*
X111473Y200498D02*
X113472D01*
X112473D01*
Y194500D01*
X111473D01*
X113472D01*
X120470Y199498D02*
X119471Y200498D01*
X117471D01*
X116472Y199498D01*
Y195500D01*
X117471Y194500D01*
X119471D01*
X120470Y195500D01*
X125469Y200498D02*
X123469D01*
X122470Y199498D01*
Y195500D01*
X123469Y194500D01*
X125469D01*
X126468Y195500D01*
Y199498D01*
X125469Y200498D01*
X152000Y7500D02*
Y13498D01*
X154999D01*
X155999Y12498D01*
Y10499D01*
X154999Y9499D01*
X152000D01*
X160997Y13498D02*
X158998D01*
X157998Y12498D01*
Y8500D01*
X158998Y7500D01*
X160997D01*
X161997Y8500D01*
Y12498D01*
X160997Y13498D01*
X163996D02*
Y7500D01*
X165996Y9499D01*
X167995Y7500D01*
Y13498D01*
X173993D02*
X169994D01*
Y7500D01*
X173993D01*
X169994Y10499D02*
X171994D01*
X175992Y7500D02*
Y13498D01*
X178991D01*
X179991Y12498D01*
Y10499D01*
X178991Y9499D01*
X175992D01*
X177992D02*
X179991Y7500D01*
X187988D02*
Y13498D01*
X189988Y11499D01*
X191987Y13498D01*
Y7500D01*
X193986D02*
Y11499D01*
X195986Y13498D01*
X197985Y11499D01*
Y7500D01*
Y10499D01*
X193986D01*
X199985Y7500D02*
Y13498D01*
X203983Y7500D01*
Y13498D01*
X205982Y7500D02*
Y11499D01*
X207982Y13498D01*
X209981Y11499D01*
Y7500D01*
Y10499D01*
X205982D01*
X215979Y12498D02*
X214980Y13498D01*
X212980D01*
X211981Y12498D01*
Y8500D01*
X212980Y7500D01*
X214980D01*
X215979Y8500D01*
Y10499D01*
X213980D01*
X221977Y13498D02*
X217979D01*
Y7500D01*
X221977D01*
X217979Y10499D02*
X219978D01*
X223977Y7500D02*
Y13498D01*
X225976Y11499D01*
X227975Y13498D01*
Y7500D01*
X233974Y13498D02*
X229975D01*
Y7500D01*
X233974D01*
X229975Y10499D02*
X231974D01*
X235973Y7500D02*
Y13498D01*
X239971Y7500D01*
Y13498D01*
X241971D02*
X245970D01*
X243970D01*
Y7500D01*
X253967D02*
Y13498D01*
X255966Y11499D01*
X257966Y13498D01*
Y7500D01*
X262964Y13498D02*
X260965D01*
X259965Y12498D01*
Y8500D01*
X260965Y7500D01*
X262964D01*
X263964Y8500D01*
Y12498D01*
X262964Y13498D01*
X265963D02*
Y7500D01*
X268962D01*
X269962Y8500D01*
Y12498D01*
X268962Y13498D01*
X265963D01*
X271961D02*
Y8500D01*
X272961Y7500D01*
X274960D01*
X275960Y8500D01*
Y13498D01*
X277959D02*
Y7500D01*
X281958D01*
X287956Y13498D02*
X283957D01*
Y7500D01*
X287956D01*
X283957Y10499D02*
X285957D01*
X199764Y67455D02*
Y61457D01*
X201763Y63456D01*
X203763Y61457D01*
Y67455D01*
X205762Y61457D02*
Y67455D01*
X208761D01*
X209761Y66455D01*
Y64456D01*
X208761Y63456D01*
X205762D01*
X211760Y61457D02*
Y67455D01*
X213759Y65455D01*
X215759Y67455D01*
Y61457D01*
X226755D02*
Y67455D01*
X223756Y64456D01*
X227755D01*
X229754Y66455D02*
X230754Y67455D01*
X232753D01*
X233753Y66455D01*
Y62456D01*
X232753Y61457D01*
X230754D01*
X229754Y62456D01*
Y66455D01*
X238751Y61457D02*
Y67455D01*
X235752Y64456D01*
X239751D01*
D29*
X332898Y36500D02*
X332788Y37479D01*
X332463Y38408D01*
X331939Y39242D01*
X331242Y39939D01*
X330408Y40463D01*
X329479Y40788D01*
X328500Y40898D01*
X336893Y36500D02*
X336832Y37512D01*
X336649Y38509D01*
X336348Y39476D01*
X335932Y40400D01*
X335407Y41268D01*
X334782Y42066D01*
X334066Y42782D01*
X333268Y43407D01*
X332400Y43932D01*
X331476Y44348D01*
X330509Y44649D01*
X329512Y44832D01*
X328500Y44893D01*
X341000Y36500D02*
X340962Y37481D01*
X340846Y38455D01*
X340655Y39418D01*
X340388Y40363D01*
X340049Y41284D01*
X339638Y42175D01*
X339158Y43031D01*
X338613Y43847D01*
X338005Y44618D01*
X337339Y45339D01*
X336618Y46005D01*
X335847Y46613D01*
X335031Y47158D01*
X334175Y47638D01*
X333283Y48048D01*
X332363Y48388D01*
X331418Y48655D01*
X330455Y48846D01*
X329481Y48961D01*
X328500Y49000D01*
X328500Y63898D02*
X328538Y62918D01*
X328654Y61943D01*
X328845Y60980D01*
X329112Y60036D01*
X329451Y59115D01*
X329862Y58223D01*
X330342Y57367D01*
X330887Y56551D01*
X331495Y55780D01*
X332161Y55059D01*
X332882Y54393D01*
X333653Y53786D01*
X334469Y53240D01*
X335325Y52761D01*
X336216Y52350D01*
X337137Y52010D01*
X338082Y51744D01*
X339045Y51552D01*
X340019Y51437D01*
X341000Y51398D01*
X332607Y63898D02*
X332668Y62887D01*
X332851Y61890D01*
X333152Y60922D01*
X333568Y59998D01*
X334093Y59130D01*
X334718Y58333D01*
X335434Y57616D01*
X336232Y56991D01*
X337100Y56467D01*
X338024Y56051D01*
X338991Y55749D01*
X339988Y55566D01*
X341000Y55505D01*
X336602Y63898D02*
X336712Y62920D01*
X337037Y61990D01*
X337561Y61156D01*
X338258Y60460D01*
X339092Y59936D01*
X340021Y59610D01*
X341000Y59500D01*
X323500Y64000D02*
X324457Y64190D01*
X325268Y64732D01*
X325810Y65543D01*
X326000Y66500D01*
X325810Y67457D01*
X325268Y68268D01*
X324457Y68810D01*
X323500Y69000D01*
X322543Y68810D01*
X321732Y68268D01*
X321190Y67457D01*
X321000Y66500D01*
X321190Y65543D01*
X321732Y64732D01*
X322543Y64190D01*
X323500Y64000D01*
X347500Y45000D02*
X421000D01*
X323500Y33000D02*
Y64000D01*
X314500Y33000D02*
X421000D01*
X214000Y124000D02*
Y140122D01*
X239000Y124000D02*
Y140201D01*
X116500Y75878D02*
Y92000D01*
X91500Y75799D02*
Y92000D01*
D30*
X429055Y72953D02*
X428268D01*
X429055D01*
X428933Y143500D02*
X428146D01*
X428933D01*
X62992Y41339D02*
X62205D01*
X62992D01*
X365000Y102500D02*
Y112500D01*
X345000D02*
X365000D01*
X431457Y76772D02*
Y79921D01*
Y65748D02*
Y68898D01*
X446457Y76772D02*
Y79921D01*
Y65748D02*
Y68898D01*
X414563Y140075D02*
X417713D01*
X414563Y145980D02*
X417713D01*
X414764Y69882D02*
X417913D01*
X414764Y75787D02*
X417913D01*
X66000Y26500D02*
Y46500D01*
Y26500D02*
X76000D01*
Y46500D01*
X66000D02*
X76000D01*
X345000Y102500D02*
Y112500D01*
Y102500D02*
X365000D01*
X431335Y147319D02*
Y150469D01*
Y136295D02*
Y139445D01*
X446335Y147319D02*
Y150469D01*
Y136295D02*
Y139445D01*
X382516Y127240D02*
Y128815D01*
X379760Y127240D02*
Y128815D01*
X394Y59055D02*
X56693D01*
X51772Y23622D02*
X56693D01*
Y31693D01*
X394Y23622D02*
X34055D01*
X394D02*
Y59055D01*
X56693Y50984D02*
Y59055D01*
X364063Y133575D02*
X367213D01*
X364063Y139480D02*
X367213D01*
X364063Y148575D02*
X367213D01*
X364063Y154480D02*
X367213D01*
X364925Y67047D02*
X368075D01*
X364925Y72953D02*
X368075D01*
X364925Y79547D02*
X368075D01*
X364925Y85453D02*
X368075D01*
X385236Y58268D02*
Y59842D01*
X382480Y58268D02*
Y59842D01*
X260453Y136416D02*
Y134317D01*
X261502Y133268D01*
X262552Y134317D01*
Y136416D01*
X265176Y133268D02*
X264126D01*
X263601Y133792D01*
Y134842D01*
X264126Y135367D01*
X265176D01*
X265700Y134842D01*
Y134317D01*
X263601D01*
X266750Y135367D02*
Y133268D01*
Y134317D01*
X267275Y134842D01*
X267799Y135367D01*
X268324D01*
X269899Y133268D02*
X271473D01*
X271998Y133792D01*
X271473Y134317D01*
X270423D01*
X269899Y134842D01*
X270423Y135367D01*
X271998D01*
X273047Y133268D02*
X274097D01*
X273572D01*
Y135367D01*
X273047D01*
X276196Y133268D02*
X277245D01*
X277770Y133792D01*
Y134842D01*
X277245Y135367D01*
X276196D01*
X275671Y134842D01*
Y133792D01*
X276196Y133268D01*
X278819D02*
Y135367D01*
X280394D01*
X280919Y134842D01*
Y133268D01*
X287216D02*
X285117D01*
X287216Y135367D01*
Y135892D01*
X286691Y136416D01*
X285642D01*
X285117Y135892D01*
X260453Y143306D02*
X262552D01*
X261502D01*
Y140157D01*
X263601D02*
Y142256D01*
X264651Y143306D01*
X265700Y142256D01*
Y140157D01*
Y141732D01*
X263601D01*
X268849Y142781D02*
X268324Y143306D01*
X267275D01*
X266750Y142781D01*
Y140682D01*
X267275Y140157D01*
X268324D01*
X268849Y140682D01*
Y141732D01*
X267799D01*
X273047Y143306D02*
Y140157D01*
X277770D02*
Y143306D01*
X279344D01*
X279869Y142781D01*
Y141732D01*
X279344Y141207D01*
X277770D01*
X278819D02*
X279869Y140157D01*
X283018Y143306D02*
X280919D01*
Y140157D01*
X283018D01*
X280919Y141732D02*
X281968D01*
X286166Y143306D02*
X284067D01*
Y141732D01*
X285117D01*
X284067D01*
Y140157D01*
X287216Y143306D02*
Y140157D01*
X289315D01*
X292463Y143306D02*
X290364D01*
Y140157D01*
X292463D01*
X290364Y141732D02*
X291414D01*
X295612Y142781D02*
X295087Y143306D01*
X294038D01*
X293513Y142781D01*
Y140682D01*
X294038Y140157D01*
X295087D01*
X295612Y140682D01*
X296661Y143306D02*
X298761D01*
X297711D01*
Y140157D01*
X301384Y143306D02*
X300335D01*
X299810Y142781D01*
Y140682D01*
X300335Y140157D01*
X301384D01*
X301909Y140682D01*
Y142781D01*
X301384Y143306D01*
X302959Y140157D02*
Y143306D01*
X304533D01*
X305058Y142781D01*
Y141732D01*
X304533Y141207D01*
X302959D01*
X304008D02*
X305058Y140157D01*
D31*
X366000Y102500D02*
X443000D01*
X366000Y112500D02*
X443000D01*
D32*
X385232Y137122D02*
X397043D01*
X385232Y148933D02*
X397043D01*
X386811Y79724D02*
X398622D01*
X386811Y67913D02*
X398622D01*
X274732Y28392D02*
X273420D01*
X272764Y27736D01*
Y25113D01*
X273420Y24457D01*
X274732D01*
X275388Y25113D01*
Y27736D01*
X274732Y28392D01*
X276699D02*
Y25113D01*
X277356Y24457D01*
X278667D01*
X279323Y25113D01*
Y28392D01*
X280635D02*
X283259D01*
X281947D01*
Y24457D01*
X284571Y26425D02*
X287195D01*
X285883Y27736D02*
Y25113D01*
X274732Y98392D02*
X273420D01*
X272764Y97737D01*
Y95113D01*
X273420Y94457D01*
X274732D01*
X275388Y95113D01*
Y97737D01*
X274732Y98392D01*
X276699D02*
Y95113D01*
X277356Y94457D01*
X278667D01*
X279323Y95113D01*
Y98392D01*
X280635D02*
X283259D01*
X281947D01*
Y94457D01*
X284571Y96425D02*
X287195D01*
X152764Y98392D02*
X154076D01*
X153420D01*
Y94457D01*
X152764D01*
X154076D01*
X156044D02*
Y98392D01*
X158667Y94457D01*
Y98392D01*
X159979Y96425D02*
X162603D01*
X152764Y28392D02*
X154076D01*
X153420D01*
Y24457D01*
X152764D01*
X154076D01*
X156044D02*
Y28392D01*
X158667Y24457D01*
Y28392D01*
X159979Y26425D02*
X162603D01*
X161291Y27736D02*
Y25113D01*
D33*
X262500Y162000D02*
X266500D01*
X261700Y162200D02*
X267300D01*
X293100Y162400D02*
X293900D01*
X273300D02*
X286700D01*
X260700D02*
X268300D01*
X293100Y162600D02*
X293900D01*
X273300D02*
X286700D01*
X260300D02*
X268700D01*
X293100Y162800D02*
X293900D01*
X273300D02*
X286700D01*
X259700D02*
X269100D01*
X293100Y163000D02*
X293900D01*
X273300D02*
X286700D01*
X259300D02*
X269500D01*
X293100Y163200D02*
X293900D01*
X273300D02*
X286700D01*
X259100D02*
X269700D01*
X293100Y163400D02*
X293900D01*
X273300D02*
X286700D01*
X258700D02*
X270100D01*
X293100Y163600D02*
X293900D01*
X273300D02*
X286700D01*
X258500D02*
X270300D01*
X293100Y163800D02*
X293900D01*
X273300D02*
X286700D01*
X258300D02*
X270500D01*
X293100Y164000D02*
X293900D01*
X273300D02*
X286700D01*
X258100D02*
X270700D01*
X293100Y164200D02*
X293900D01*
X273300D02*
X286700D01*
X257900D02*
X270900D01*
X293100Y164400D02*
X293900D01*
X273300D02*
X286700D01*
X257700D02*
X271100D01*
X293100Y164600D02*
X293900D01*
X273300D02*
X286700D01*
X257500D02*
X271300D01*
X293100Y164800D02*
X293900D01*
X273300D02*
X286700D01*
X257500D02*
X271300D01*
X293100Y165000D02*
X293900D01*
X273300D02*
X286700D01*
X257300D02*
X271500D01*
X293100Y165200D02*
X293900D01*
X273300D02*
X286700D01*
X257100D02*
X271500D01*
X293100Y165400D02*
X293900D01*
X273300D02*
X286700D01*
X265900D02*
X271700D01*
X257100D02*
X263300D01*
X293100Y165600D02*
X293900D01*
X273300D02*
X286700D01*
X266500D02*
X271900D01*
X256900D02*
X262700D01*
X293100Y165800D02*
X293900D01*
X273300D02*
X286700D01*
X266900D02*
X271900D01*
X256900D02*
X262300D01*
X293100Y166000D02*
X293900D01*
X273300D02*
X277700D01*
X267300D02*
X271900D01*
X256700D02*
X261900D01*
X293100Y166200D02*
X293900D01*
X273300D02*
X277700D01*
X267500D02*
X272100D01*
X256700D02*
X261700D01*
X345100Y166400D02*
X346500D01*
X341900D02*
X343300D01*
X337900D02*
X339700D01*
X334300D02*
X335100D01*
X331700D02*
X332900D01*
X326700D02*
X328300D01*
X321700D02*
X322900D01*
X318100D02*
X319300D01*
X312900D02*
X314500D01*
X306300D02*
X307700D01*
X301900D02*
X303500D01*
X293100D02*
X293900D01*
X273300D02*
X277700D01*
X267700D02*
X272100D01*
X256500D02*
X261500D01*
X345100Y166600D02*
X346500D01*
X341900D02*
X343300D01*
X337500D02*
X340100D01*
X333900D02*
X335300D01*
X331300D02*
X333300D01*
X326300D02*
X328900D01*
X321500D02*
X323100D01*
X318100D02*
X319500D01*
X312300D02*
X314900D01*
X306300D02*
X307700D01*
X301300D02*
X303900D01*
X293100D02*
X293900D01*
X273300D02*
X277700D01*
X267900D02*
X272100D01*
X256500D02*
X261100D01*
X345100Y166800D02*
X346500D01*
X341900D02*
X343500D01*
X337300D02*
X340300D01*
X333900D02*
X335300D01*
X331100D02*
X333500D01*
X325900D02*
X329100D01*
X321500D02*
X323100D01*
X318100D02*
X319700D01*
X311900D02*
X315300D01*
X306300D02*
X307700D01*
X301100D02*
X304100D01*
X293100D02*
X293900D01*
X273300D02*
X277700D01*
X267900D02*
X272100D01*
X256500D02*
X261100D01*
X345100Y167000D02*
X346500D01*
X341900D02*
X343500D01*
X336700D02*
X340900D01*
X330700D02*
X335300D01*
X325500D02*
X329500D01*
X321300D02*
X323300D01*
X317900D02*
X319700D01*
X311500D02*
X315700D01*
X306300D02*
X307700D01*
X300700D02*
X304500D01*
X293100D02*
X293900D01*
X273300D02*
X277700D01*
X267900D02*
X272100D01*
X256500D02*
X260900D01*
X345100Y167200D02*
X346500D01*
X341900D02*
X343500D01*
X336700D02*
X340900D01*
X330700D02*
X335300D01*
X325300D02*
X329700D01*
X321300D02*
X323300D01*
X317900D02*
X319700D01*
X311300D02*
X315900D01*
X306300D02*
X307700D01*
X300500D02*
X304700D01*
X293100D02*
X293900D01*
X273300D02*
X277700D01*
X267900D02*
X272100D01*
X256500D02*
X260900D01*
X345100Y167400D02*
X346500D01*
X341900D02*
X343500D01*
X336700D02*
X340900D01*
X330500D02*
X335300D01*
X325300D02*
X329700D01*
X321300D02*
X323300D01*
X317700D02*
X319700D01*
X311100D02*
X315900D01*
X306300D02*
X307700D01*
X300500D02*
X304900D01*
X293100D02*
X293900D01*
X273300D02*
X277700D01*
X267900D02*
X272100D01*
X256500D02*
X260700D01*
X345100Y167600D02*
X346500D01*
X341900D02*
X343500D01*
X336300D02*
X340900D01*
X330500D02*
X335300D01*
X325100D02*
X329700D01*
X321100D02*
X323300D01*
X317700D02*
X319900D01*
X311100D02*
X316100D01*
X306300D02*
X307700D01*
X300300D02*
X305100D01*
X293100D02*
X293900D01*
X273300D02*
X277700D01*
X267900D02*
X272100D01*
X256500D02*
X260700D01*
X345100Y167800D02*
X346500D01*
X341900D02*
X343500D01*
X339500D02*
X340700D01*
X336300D02*
X338300D01*
X333100D02*
X335300D01*
X330500D02*
X332300D01*
X328300D02*
X329500D01*
X325100D02*
X327100D01*
X321100D02*
X323500D01*
X317700D02*
X319900D01*
X311300D02*
X316100D01*
X306300D02*
X307700D01*
X303100D02*
X305100D01*
X300100D02*
X302100D01*
X293100D02*
X293900D01*
X273300D02*
X277700D01*
X267900D02*
X272300D01*
X256500D02*
X260700D01*
X345100Y168000D02*
X346500D01*
X341900D02*
X343500D01*
X339900D02*
X340500D01*
X336100D02*
X337900D01*
X333500D02*
X335300D01*
X330300D02*
X332100D01*
X328700D02*
X329300D01*
X324900D02*
X326700D01*
X321100D02*
X323500D01*
X317500D02*
X320100D01*
X314500D02*
X316300D01*
X311300D02*
X312900D01*
X306300D02*
X307700D01*
X303500D02*
X305100D01*
X300100D02*
X301900D01*
X293100D02*
X293900D01*
X273300D02*
X277700D01*
X267900D02*
X272300D01*
X256500D02*
X260700D01*
X345100Y168200D02*
X346500D01*
X341900D02*
X343500D01*
X336100D02*
X337700D01*
X333700D02*
X335300D01*
X330300D02*
X331900D01*
X324900D02*
X326500D01*
X321100D02*
X323700D01*
X317500D02*
X320100D01*
X314700D02*
X316300D01*
X311500D02*
X312500D01*
X306300D02*
X307700D01*
X303500D02*
X305300D01*
X299900D02*
X301700D01*
X293100D02*
X293900D01*
X273300D02*
X277700D01*
X267900D02*
X272100D01*
X256500D02*
X260700D01*
X345100Y168400D02*
X346500D01*
X341900D02*
X343500D01*
X336100D02*
X337700D01*
X333700D02*
X335300D01*
X330300D02*
X331900D01*
X324900D02*
X326500D01*
X321100D02*
X323700D01*
X317500D02*
X320100D01*
X314700D02*
X316300D01*
X311700D02*
X312300D01*
X306300D02*
X307700D01*
X303700D02*
X305300D01*
X299900D02*
X301700D01*
X293100D02*
X293900D01*
X273300D02*
X277700D01*
X267700D02*
X272100D01*
X256500D02*
X260700D01*
X345100Y168600D02*
X346500D01*
X341900D02*
X343500D01*
X336100D02*
X337700D01*
X333700D02*
X335300D01*
X330300D02*
X331900D01*
X324900D02*
X326300D01*
X320900D02*
X323700D01*
X317500D02*
X320100D01*
X314900D02*
X316500D01*
X306300D02*
X307700D01*
X303700D02*
X305300D01*
X299900D02*
X301500D01*
X293100D02*
X293900D01*
X273300D02*
X277700D01*
X267300D02*
X272100D01*
X256500D02*
X260700D01*
X345100Y168800D02*
X346500D01*
X341900D02*
X343500D01*
X336100D02*
X337700D01*
X333700D02*
X335300D01*
X330100D02*
X331900D01*
X324900D02*
X326500D01*
X322300D02*
X323700D01*
X320900D02*
X322100D01*
X317300D02*
X320300D01*
X314700D02*
X316500D01*
X306300D02*
X307700D01*
X303700D02*
X305300D01*
X299900D02*
X301500D01*
X293100D02*
X293900D01*
X273300D02*
X277700D01*
X267300D02*
X272100D01*
X345100Y169000D02*
X346500D01*
X341900D02*
X343500D01*
X336100D02*
X340900D01*
X333700D02*
X335300D01*
X330100D02*
X331900D01*
X324700D02*
X329700D01*
X322300D02*
X323900D01*
X320700D02*
X322100D01*
X319100D02*
X320300D01*
X317300D02*
X318700D01*
X314700D02*
X316500D01*
X306300D02*
X307700D01*
X303700D02*
X305300D01*
X299900D02*
X301500D01*
X293100D02*
X293900D01*
X273300D02*
X277700D01*
X266900D02*
X272100D01*
X345100Y169200D02*
X346500D01*
X341900D02*
X343500D01*
X336100D02*
X341100D01*
X333700D02*
X335300D01*
X330100D02*
X331700D01*
X324700D02*
X329900D01*
X322300D02*
X323900D01*
X320700D02*
X322100D01*
X319100D02*
X320500D01*
X317100D02*
X318700D01*
X314500D02*
X316500D01*
X306300D02*
X307700D01*
X303700D02*
X305300D01*
X299900D02*
X301500D01*
X293100D02*
X293900D01*
X273300D02*
X277700D01*
X266500D02*
X272100D01*
X345100Y169400D02*
X346500D01*
X341900D02*
X343500D01*
X336100D02*
X341100D01*
X333700D02*
X335300D01*
X330100D02*
X331900D01*
X324700D02*
X329900D01*
X322500D02*
X323900D01*
X320700D02*
X322100D01*
X319100D02*
X320500D01*
X317100D02*
X318700D01*
X314300D02*
X316300D01*
X306300D02*
X307700D01*
X303700D02*
X305300D01*
X299900D02*
X301500D01*
X293100D02*
X293900D01*
X273300D02*
X277700D01*
X266100D02*
X272100D01*
X345100Y169600D02*
X346500D01*
X341900D02*
X343500D01*
X335900D02*
X341100D01*
X333700D02*
X335300D01*
X330100D02*
X331900D01*
X324900D02*
X329900D01*
X322500D02*
X324100D01*
X320700D02*
X321900D01*
X319100D02*
X320500D01*
X317100D02*
X318500D01*
X313500D02*
X316300D01*
X306300D02*
X307700D01*
X303700D02*
X305300D01*
X299900D02*
X301500D01*
X293100D02*
X293900D01*
X273300D02*
X277700D01*
X265300D02*
X272100D01*
X345100Y169800D02*
X346500D01*
X341900D02*
X343500D01*
X336100D02*
X341100D01*
X333700D02*
X335300D01*
X330300D02*
X331900D01*
X324900D02*
X329900D01*
X322700D02*
X324100D01*
X319100D02*
X321900D01*
X317100D02*
X318500D01*
X312900D02*
X316300D01*
X306300D02*
X307700D01*
X303700D02*
X305300D01*
X299900D02*
X301500D01*
X293100D02*
X293900D01*
X273300D02*
X277700D01*
X264700D02*
X271900D01*
X345100Y170000D02*
X346500D01*
X341900D02*
X343500D01*
X339500D02*
X341100D01*
X336100D02*
X337700D01*
X333700D02*
X335300D01*
X330300D02*
X331900D01*
X328300D02*
X329900D01*
X324900D02*
X326500D01*
X322700D02*
X324100D01*
X319300D02*
X321900D01*
X316900D02*
X318500D01*
X312500D02*
X316100D01*
X306300D02*
X307700D01*
X303700D02*
X305300D01*
X299900D02*
X301700D01*
X293100D02*
X293900D01*
X273300D02*
X277700D01*
X263700D02*
X271900D01*
X344900Y170200D02*
X346500D01*
X341900D02*
X343500D01*
X339500D02*
X341100D01*
X336100D02*
X337700D01*
X333700D02*
X335300D01*
X330300D02*
X332100D01*
X328300D02*
X329900D01*
X324900D02*
X326500D01*
X322700D02*
X324300D01*
X319300D02*
X321700D01*
X316900D02*
X318500D01*
X312100D02*
X315900D01*
X306300D02*
X307700D01*
X303500D02*
X305300D01*
X299900D02*
X301700D01*
X293100D02*
X293900D01*
X273300D02*
X285900D01*
X263100D02*
X271700D01*
X344900Y170400D02*
X346500D01*
X341900D02*
X343500D01*
X339500D02*
X340900D01*
X336100D02*
X337700D01*
X333700D02*
X335300D01*
X330300D02*
X332100D01*
X328300D02*
X329700D01*
X324900D02*
X326500D01*
X322700D02*
X324300D01*
X319500D02*
X321700D01*
X316900D02*
X318500D01*
X311900D02*
X315900D01*
X306300D02*
X307700D01*
X303500D02*
X305100D01*
X300100D02*
X301900D01*
X293100D02*
X293900D01*
X273300D02*
X286100D01*
X262500D02*
X271700D01*
X344700Y170600D02*
X346500D01*
X341900D02*
X343900D01*
X339300D02*
X340900D01*
X336300D02*
X338100D01*
X333500D02*
X335300D01*
X330500D02*
X332300D01*
X327900D02*
X329700D01*
X325100D02*
X326900D01*
X322700D02*
X324300D01*
X319500D02*
X321700D01*
X316700D02*
X318300D01*
X311700D02*
X315500D01*
X306300D02*
X307700D01*
X303100D02*
X305100D01*
X300100D02*
X302100D01*
X293100D02*
X293900D01*
X273300D02*
X286100D01*
X261500D02*
X271500D01*
X341900Y170800D02*
X346500D01*
X338900D02*
X340900D01*
X336300D02*
X338300D01*
X330500D02*
X335300D01*
X327700D02*
X329500D01*
X325100D02*
X327100D01*
X322900D02*
X324300D01*
X319700D02*
X321700D01*
X316700D02*
X318300D01*
X311700D02*
X315100D01*
X305900D02*
X309100D01*
X300300D02*
X305100D01*
X293100D02*
X293900D01*
X273300D02*
X286100D01*
X261100D02*
X271500D01*
X341900Y171000D02*
X346500D01*
X336500D02*
X340700D01*
X330700D02*
X335300D01*
X325300D02*
X329500D01*
X322900D02*
X324500D01*
X319700D02*
X321500D01*
X316700D02*
X318300D01*
X311500D02*
X314500D01*
X305700D02*
X309300D01*
X300500D02*
X304900D01*
X293100D02*
X293900D01*
X273300D02*
X286100D01*
X260500D02*
X271100D01*
X341900Y171200D02*
X346300D01*
X336700D02*
X340500D01*
X330700D02*
X335300D01*
X325300D02*
X329300D01*
X322900D02*
X324500D01*
X319700D02*
X321500D01*
X316500D02*
X318100D01*
X311500D02*
X313900D01*
X305500D02*
X309300D01*
X300500D02*
X304700D01*
X293100D02*
X293900D01*
X273300D02*
X286100D01*
X259900D02*
X271100D01*
X341900Y171400D02*
X346300D01*
X336700D02*
X340500D01*
X330900D02*
X335300D01*
X325500D02*
X329300D01*
X323100D02*
X324700D01*
X319700D02*
X321500D01*
X316500D02*
X318100D01*
X311300D02*
X313500D01*
X305300D02*
X309300D01*
X300700D02*
X304500D01*
X293100D02*
X293900D01*
X273300D02*
X286100D01*
X259700D02*
X270900D01*
X341900Y171600D02*
X345900D01*
X337300D02*
X340100D01*
X331300D02*
X335300D01*
X325900D02*
X328900D01*
X323100D02*
X324700D01*
X319700D02*
X321300D01*
X316500D02*
X318100D01*
X311300D02*
X313100D01*
X305500D02*
X309300D01*
X301100D02*
X304100D01*
X293100D02*
X293900D01*
X273300D02*
X286100D01*
X259100D02*
X270700D01*
X343700Y171800D02*
X345900D01*
X341900D02*
X343100D01*
X337500D02*
X339900D01*
X331500D02*
X335300D01*
X326300D02*
X328700D01*
X323300D02*
X324700D01*
X319900D02*
X321300D01*
X316500D02*
X318100D01*
X311300D02*
X313100D01*
X305500D02*
X309100D01*
X301300D02*
X303900D01*
X293100D02*
X293900D01*
X273300D02*
X286100D01*
X259100D02*
X270500D01*
X344100Y172000D02*
X345300D01*
X341900D02*
X342700D01*
X337900D02*
X339300D01*
X333700D02*
X335300D01*
X331900D02*
X333300D01*
X326700D02*
X328100D01*
X323500D02*
X324500D01*
X320100D02*
X321100D01*
X316500D02*
X317700D01*
X311300D02*
X312900D01*
X306300D02*
X307700D01*
X301900D02*
X303500D01*
X293100D02*
X293900D01*
X273300D02*
X286100D01*
X258700D02*
X270300D01*
X333700Y172200D02*
X335300D01*
X311300D02*
X313100D01*
X306300D02*
X307700D01*
X293100D02*
X293900D01*
X273300D02*
X286100D01*
X258500D02*
X269900D01*
X333700Y172400D02*
X335300D01*
X315100D02*
X315900D01*
X311300D02*
X313100D01*
X306300D02*
X307700D01*
X293100D02*
X293900D01*
X273300D02*
X286100D01*
X258300D02*
X269700D01*
X333700Y172600D02*
X335300D01*
X314500D02*
X315900D01*
X311500D02*
X313500D01*
X306300D02*
X307900D01*
X293100D02*
X293900D01*
X273300D02*
X286100D01*
X258100D02*
X269100D01*
X333700Y172800D02*
X335300D01*
X311500D02*
X316100D01*
X306300D02*
X308100D01*
X293100D02*
X293900D01*
X273300D02*
X286100D01*
X257900D02*
X268900D01*
X333700Y173000D02*
X335300D01*
X311700D02*
X316100D01*
X306300D02*
X308300D01*
X293100D02*
X293900D01*
X273300D02*
X286100D01*
X257700D02*
X268300D01*
X333700Y173200D02*
X335300D01*
X311900D02*
X316300D01*
X306500D02*
X309300D01*
X293100D02*
X293900D01*
X273300D02*
X286100D01*
X257500D02*
X267500D01*
X333700Y173400D02*
X335300D01*
X311900D02*
X316300D01*
X306700D02*
X309300D01*
X293100D02*
X293900D01*
X273300D02*
X286100D01*
X257500D02*
X266900D01*
X333700Y173600D02*
X335300D01*
X312300D02*
X315900D01*
X306700D02*
X309300D01*
X293100D02*
X293900D01*
X273300D02*
X286100D01*
X257500D02*
X265900D01*
X333700Y173800D02*
X335300D01*
X312500D02*
X315500D01*
X306900D02*
X309300D01*
X293100D02*
X293900D01*
X273300D02*
X277700D01*
X257300D02*
X265300D01*
X333700Y174000D02*
X335300D01*
X312700D02*
X315300D01*
X307300D02*
X309300D01*
X293100D02*
X293900D01*
X273300D02*
X277700D01*
X257300D02*
X264700D01*
X333700Y174200D02*
X335300D01*
X293100D02*
X293900D01*
X273300D02*
X277700D01*
X257100D02*
X263700D01*
X293100Y174400D02*
X293900D01*
X273300D02*
X277700D01*
X257100D02*
X263100D01*
X293100Y174600D02*
X293900D01*
X273300D02*
X277700D01*
X257100D02*
X262500D01*
X293100Y174800D02*
X293900D01*
X273300D02*
X277700D01*
X257100D02*
X262100D01*
X293100Y175000D02*
X293900D01*
X273300D02*
X277700D01*
X257100D02*
X261700D01*
X293100Y175200D02*
X293900D01*
X273300D02*
X277700D01*
X267500D02*
X271500D01*
X257100D02*
X261500D01*
X293100Y175400D02*
X293900D01*
X273300D02*
X277700D01*
X267300D02*
X271500D01*
X257100D02*
X261300D01*
X293100Y175600D02*
X293900D01*
X273300D02*
X277700D01*
X267300D02*
X271500D01*
X257100D02*
X261300D01*
X293100Y175800D02*
X293900D01*
X273300D02*
X277700D01*
X267300D02*
X271500D01*
X257100D02*
X261100D01*
X293100Y176000D02*
X293900D01*
X273300D02*
X277700D01*
X267300D02*
X271500D01*
X257100D02*
X261100D01*
X293100Y176200D02*
X293900D01*
X273300D02*
X277700D01*
X267300D02*
X271500D01*
X257100D02*
X261100D01*
X293100Y176400D02*
X293900D01*
X273300D02*
X277700D01*
X267100D02*
X271500D01*
X257100D02*
X261100D01*
X293100Y176600D02*
X293900D01*
X273300D02*
X277700D01*
X267100D02*
X271500D01*
X257100D02*
X261300D01*
X293100Y176800D02*
X293900D01*
X273300D02*
X277700D01*
X266900D02*
X271500D01*
X257100D02*
X261300D01*
X293100Y177000D02*
X293900D01*
X273300D02*
X277700D01*
X266700D02*
X271500D01*
X257100D02*
X261500D01*
X293100Y177200D02*
X293900D01*
X273300D02*
X277700D01*
X266500D02*
X271500D01*
X257100D02*
X261700D01*
X293100Y177400D02*
X293900D01*
X273300D02*
X286700D01*
X266300D02*
X271300D01*
X257100D02*
X261900D01*
X293100Y177600D02*
X293900D01*
X273300D02*
X286700D01*
X266100D02*
X271300D01*
X257300D02*
X262100D01*
X339900Y177800D02*
X342300D01*
X335300D02*
X337700D01*
X331100D02*
X333100D01*
X327900D02*
X329100D01*
X325100D02*
X327300D01*
X321300D02*
X323300D01*
X317700D02*
X319300D01*
X314500D02*
X316700D01*
X309500D02*
X311900D01*
X306700D02*
X308300D01*
X303500D02*
X305100D01*
X300500D02*
X302100D01*
X293100D02*
X293900D01*
X273300D02*
X286700D01*
X265300D02*
X271100D01*
X257300D02*
X262700D01*
X339500Y178000D02*
X342500D01*
X334900D02*
X338100D01*
X330900D02*
X333500D01*
X327700D02*
X329100D01*
X324900D02*
X327500D01*
X321100D02*
X323700D01*
X317700D02*
X319300D01*
X314500D02*
X316900D01*
X309300D02*
X312300D01*
X306700D02*
X308300D01*
X303500D02*
X305100D01*
X300500D02*
X302100D01*
X293100D02*
X293900D01*
X273300D02*
X286700D01*
X264500D02*
X271100D01*
X257500D02*
X263300D01*
X339300Y178200D02*
X342700D01*
X334700D02*
X338300D01*
X330700D02*
X333500D01*
X324900D02*
X329100D01*
X321100D02*
X323700D01*
X317700D02*
X319300D01*
X314300D02*
X317100D01*
X308900D02*
X312500D01*
X306700D02*
X308300D01*
X303500D02*
X305100D01*
X300500D02*
X302100D01*
X293100D02*
X293900D01*
X273300D02*
X286700D01*
X257500D02*
X271100D01*
X339100Y178400D02*
X342900D01*
X334500D02*
X338700D01*
X330500D02*
X333500D01*
X324500D02*
X329100D01*
X320700D02*
X323700D01*
X317700D02*
X319300D01*
X314100D02*
X317100D01*
X308700D02*
X312700D01*
X306700D02*
X308300D01*
X303500D02*
X305100D01*
X300500D02*
X302100D01*
X293100D02*
X293900D01*
X273300D02*
X286700D01*
X257700D02*
X270900D01*
X339100Y178600D02*
X343100D01*
X334300D02*
X338700D01*
X330500D02*
X333300D01*
X324500D02*
X329100D01*
X320700D02*
X323700D01*
X317700D02*
X319300D01*
X314100D02*
X316900D01*
X308900D02*
X312900D01*
X306700D02*
X308300D01*
X303500D02*
X305100D01*
X300500D02*
X302100D01*
X293100D02*
X293900D01*
X273300D02*
X286700D01*
X257700D02*
X270900D01*
X341300Y178800D02*
X343100D01*
X339300D02*
X340700D01*
X334100D02*
X338700D01*
X330500D02*
X333100D01*
X324300D02*
X329100D01*
X320700D02*
X323500D01*
X317700D02*
X319300D01*
X313900D02*
X316700D01*
X311100D02*
X312900D01*
X309100D02*
X310500D01*
X306700D02*
X308300D01*
X303500D02*
X305100D01*
X300500D02*
X302100D01*
X293100D02*
X293900D01*
X273300D02*
X286700D01*
X257900D02*
X270500D01*
X341700Y179000D02*
X343300D01*
X339300D02*
X340300D01*
X337100D02*
X338500D01*
X334100D02*
X336100D01*
X332500D02*
X333100D01*
X330500D02*
X332100D01*
X326900D02*
X329100D01*
X324300D02*
X326100D01*
X322700D02*
X323300D01*
X320700D02*
X322300D01*
X317700D02*
X319300D01*
X316100D02*
X316700D01*
X313900D02*
X315700D01*
X311300D02*
X312900D01*
X309100D02*
X310100D01*
X306700D02*
X308300D01*
X303500D02*
X305100D01*
X300500D02*
X302100D01*
X293100D02*
X293900D01*
X273300D02*
X286700D01*
X258100D02*
X270500D01*
X341700Y179200D02*
X343300D01*
X339500D02*
X340100D01*
X337500D02*
X338300D01*
X333900D02*
X335700D01*
X330500D02*
X332100D01*
X327300D02*
X329100D01*
X324300D02*
X325900D01*
X320700D02*
X322300D01*
X317700D02*
X319300D01*
X313900D02*
X315500D01*
X311500D02*
X312900D01*
X309300D02*
X309700D01*
X306700D02*
X308300D01*
X303500D02*
X305100D01*
X300500D02*
X302100D01*
X293100D02*
X293900D01*
X273300D02*
X286700D01*
X258100D02*
X270300D01*
X341700Y179400D02*
X343300D01*
X333900D02*
X335500D01*
X330500D02*
X332100D01*
X327500D02*
X329100D01*
X324300D02*
X325900D01*
X320700D02*
X322300D01*
X317700D02*
X319300D01*
X313900D02*
X315500D01*
X311300D02*
X312900D01*
X306700D02*
X308300D01*
X303500D02*
X305100D01*
X300500D02*
X302100D01*
X293100D02*
X293900D01*
X273300D02*
X286700D01*
X258500D02*
X270100D01*
X341500Y179600D02*
X343300D01*
X333900D02*
X335500D01*
X330500D02*
X332100D01*
X327500D02*
X329100D01*
X324300D02*
X325900D01*
X320700D02*
X322300D01*
X317700D02*
X319300D01*
X313900D02*
X315500D01*
X311300D02*
X312900D01*
X306700D02*
X308300D01*
X303500D02*
X305100D01*
X300500D02*
X302100D01*
X293100D02*
X293900D01*
X273300D02*
X286700D01*
X258500D02*
X269900D01*
X340900Y179800D02*
X343300D01*
X333700D02*
X335300D01*
X330500D02*
X332100D01*
X327500D02*
X329100D01*
X324300D02*
X325900D01*
X320700D02*
X322300D01*
X317700D02*
X319300D01*
X313900D02*
X315500D01*
X310500D02*
X312900D01*
X306700D02*
X308300D01*
X303500D02*
X305100D01*
X300500D02*
X302100D01*
X293100D02*
X293900D01*
X273300D02*
X286700D01*
X258900D02*
X269700D01*
X340300Y180000D02*
X343300D01*
X333700D02*
X335300D01*
X330500D02*
X332100D01*
X327500D02*
X329100D01*
X324300D02*
X325900D01*
X320700D02*
X322300D01*
X317700D02*
X319300D01*
X313900D02*
X315500D01*
X310100D02*
X312900D01*
X306700D02*
X308300D01*
X303500D02*
X305100D01*
X300500D02*
X302100D01*
X293100D02*
X293900D01*
X273300D02*
X286700D01*
X259100D02*
X269500D01*
X339900Y180200D02*
X343100D01*
X333700D02*
X338700D01*
X330500D02*
X332100D01*
X327500D02*
X329100D01*
X324300D02*
X325900D01*
X320700D02*
X322300D01*
X317700D02*
X319300D01*
X313900D02*
X315500D01*
X309700D02*
X312900D01*
X306700D02*
X308300D01*
X303500D02*
X305100D01*
X300500D02*
X302100D01*
X293100D02*
X293900D01*
X273300D02*
X286700D01*
X259300D02*
X269300D01*
X339700Y180400D02*
X342900D01*
X333700D02*
X338700D01*
X330500D02*
X332100D01*
X327500D02*
X329100D01*
X324300D02*
X325900D01*
X320700D02*
X322300D01*
X317700D02*
X319300D01*
X313900D02*
X315500D01*
X309300D02*
X312700D01*
X306700D02*
X308300D01*
X303500D02*
X305100D01*
X300500D02*
X302100D01*
X293100D02*
X293900D01*
X273300D02*
X286700D01*
X259700D02*
X268900D01*
X339500Y180600D02*
X342900D01*
X333700D02*
X338700D01*
X330500D02*
X332100D01*
X327500D02*
X329100D01*
X324300D02*
X325900D01*
X320700D02*
X322300D01*
X317700D02*
X319300D01*
X313900D02*
X315500D01*
X309300D02*
X312500D01*
X306700D02*
X308300D01*
X303500D02*
X305100D01*
X300500D02*
X302100D01*
X293100D02*
X293900D01*
X273300D02*
X286700D01*
X260100D02*
X268500D01*
X339300Y180800D02*
X342300D01*
X333700D02*
X338700D01*
X330500D02*
X332100D01*
X327500D02*
X329100D01*
X324300D02*
X325900D01*
X320700D02*
X322300D01*
X317700D02*
X319300D01*
X313900D02*
X315500D01*
X309100D02*
X312100D01*
X306700D02*
X308300D01*
X303500D02*
X305100D01*
X300500D02*
X302100D01*
X293100D02*
X293900D01*
X273300D02*
X286700D01*
X260700D02*
X267900D01*
X339300Y181000D02*
X341900D01*
X333700D02*
X338700D01*
X330500D02*
X332100D01*
X327500D02*
X329100D01*
X324300D02*
X325900D01*
X320700D02*
X322300D01*
X317700D02*
X319300D01*
X313900D02*
X315500D01*
X308900D02*
X311700D01*
X306700D02*
X308300D01*
X303500D02*
X305100D01*
X300500D02*
X302100D01*
X293100D02*
X293900D01*
X273300D02*
X286700D01*
X261100D02*
X267500D01*
X339300Y181200D02*
X341500D01*
X333700D02*
X338700D01*
X330500D02*
X332100D01*
X327500D02*
X329100D01*
X324300D02*
X325900D01*
X320700D02*
X322300D01*
X317700D02*
X319300D01*
X313900D02*
X315500D01*
X308900D02*
X311100D01*
X306700D02*
X308300D01*
X303500D02*
X305100D01*
X300500D02*
X302100D01*
X293100D02*
X293900D01*
X261500D02*
X266900D01*
X339300Y181400D02*
X340900D01*
X337300D02*
X338700D01*
X333900D02*
X335500D01*
X330500D02*
X332100D01*
X327500D02*
X329100D01*
X324300D02*
X325900D01*
X320700D02*
X322300D01*
X317700D02*
X319300D01*
X313900D02*
X315500D01*
X308900D02*
X310700D01*
X306700D02*
X308300D01*
X303500D02*
X305100D01*
X300500D02*
X302100D01*
X293100D02*
X293900D01*
X265300D02*
X265500D01*
X263100D02*
X265100D01*
X339300Y181600D02*
X340700D01*
X337300D02*
X338700D01*
X333900D02*
X335500D01*
X330500D02*
X332100D01*
X327500D02*
X329100D01*
X324300D02*
X325900D01*
X320700D02*
X322300D01*
X317700D02*
X319300D01*
X313900D02*
X315500D01*
X308900D02*
X310500D01*
X306700D02*
X308300D01*
X303500D02*
X305100D01*
X300500D02*
X302100D01*
X293100D02*
X293900D01*
X342300Y181800D02*
X342500D01*
X339300D02*
X340700D01*
X337100D02*
X338700D01*
X334100D02*
X335700D01*
X330500D02*
X332100D01*
X327500D02*
X329100D01*
X324300D02*
X325900D01*
X320700D02*
X322300D01*
X317700D02*
X319300D01*
X313900D02*
X315500D01*
X312100D02*
X312300D01*
X308900D02*
X310500D01*
X306700D02*
X308300D01*
X303500D02*
X305300D01*
X300500D02*
X302100D01*
X293100D02*
X293900D01*
X341700Y182000D02*
X342900D01*
X339300D02*
X341100D01*
X336700D02*
X338500D01*
X334100D02*
X336100D01*
X329900D02*
X333300D01*
X327500D02*
X329100D01*
X324300D02*
X325900D01*
X320100D02*
X323700D01*
X317700D02*
X319300D01*
X313500D02*
X316900D01*
X311300D02*
X312700D01*
X308900D02*
X310900D01*
X303500D02*
X308300D01*
X300500D02*
X302100D01*
X293100D02*
X293900D01*
X281700D02*
X286700D01*
X275100D02*
X279500D01*
X269100D02*
X273500D01*
X257300D02*
X261700D01*
X339300Y182200D02*
X343100D01*
X334100D02*
X338500D01*
X329700D02*
X333300D01*
X327500D02*
X329100D01*
X324300D02*
X325900D01*
X319900D02*
X323700D01*
X317700D02*
X319300D01*
X313300D02*
X316900D01*
X309100D02*
X312900D01*
X303500D02*
X308100D01*
X300500D02*
X302100D01*
X293100D02*
X293900D01*
X281700D02*
X286700D01*
X275100D02*
X279500D01*
X269100D02*
X273500D01*
X257300D02*
X261700D01*
X339500Y182400D02*
X343100D01*
X334300D02*
X338300D01*
X329700D02*
X333300D01*
X327500D02*
X329100D01*
X324300D02*
X325900D01*
X319900D02*
X323700D01*
X317700D02*
X319300D01*
X313300D02*
X316900D01*
X309300D02*
X312900D01*
X303500D02*
X308100D01*
X300500D02*
X302100D01*
X293100D02*
X293900D01*
X281700D02*
X286700D01*
X275100D02*
X279500D01*
X268900D02*
X273500D01*
X257300D02*
X261700D01*
X339500Y182600D02*
X343100D01*
X334500D02*
X338100D01*
X329700D02*
X333300D01*
X327500D02*
X329100D01*
X324300D02*
X325900D01*
X319900D02*
X323700D01*
X317700D02*
X319300D01*
X313300D02*
X316900D01*
X309300D02*
X312900D01*
X303500D02*
X307900D01*
X300500D02*
X302100D01*
X293100D02*
X293900D01*
X281700D02*
X286700D01*
X275100D02*
X279500D01*
X268900D02*
X273300D01*
X257300D02*
X261700D01*
X339700Y182800D02*
X342900D01*
X334700D02*
X337900D01*
X329700D02*
X333300D01*
X327500D02*
X329100D01*
X324300D02*
X325900D01*
X319900D02*
X323700D01*
X317700D02*
X319300D01*
X313300D02*
X316900D01*
X309500D02*
X312700D01*
X303500D02*
X307700D01*
X300500D02*
X302100D01*
X293100D02*
X293900D01*
X281700D02*
X286700D01*
X275100D02*
X279500D01*
X268900D02*
X273300D01*
X257300D02*
X261700D01*
X340100Y183000D02*
X342500D01*
X335100D02*
X337700D01*
X329700D02*
X333300D01*
X327500D02*
X329100D01*
X324300D02*
X325900D01*
X320100D02*
X323700D01*
X317700D02*
X319300D01*
X313300D02*
X316900D01*
X309900D02*
X312300D01*
X305300D02*
X307500D01*
X303500D02*
X304700D01*
X300500D02*
X302100D01*
X293100D02*
X293900D01*
X281700D02*
X286700D01*
X275100D02*
X279500D01*
X268900D02*
X273100D01*
X257300D02*
X261700D01*
X340500Y183200D02*
X342300D01*
X335500D02*
X337100D01*
X330500D02*
X332100D01*
X327500D02*
X329100D01*
X324300D02*
X325700D01*
X320700D02*
X322300D01*
X317700D02*
X319300D01*
X314100D02*
X315500D01*
X310300D02*
X311900D01*
X305700D02*
X307100D01*
X303500D02*
X304500D01*
X300500D02*
X302100D01*
X293100D02*
X293900D01*
X281700D02*
X286700D01*
X275100D02*
X279500D01*
X268900D02*
X273100D01*
X257300D02*
X261700D01*
X330500Y183400D02*
X332100D01*
X320900D02*
X322300D01*
X314100D02*
X315500D01*
X300500D02*
X302100D01*
X293100D02*
X293900D01*
X281700D02*
X286700D01*
X275100D02*
X279500D01*
X268900D02*
X273100D01*
X257300D02*
X261700D01*
X330500Y183600D02*
X332100D01*
X320900D02*
X322300D01*
X314100D02*
X315500D01*
X300500D02*
X302100D01*
X293100D02*
X293900D01*
X281700D02*
X286700D01*
X275100D02*
X279500D01*
X268900D02*
X273100D01*
X257300D02*
X261700D01*
X330500Y183800D02*
X332100D01*
X320900D02*
X322300D01*
X318100D02*
X319100D01*
X314300D02*
X315500D01*
X300500D02*
X302100D01*
X293100D02*
X293900D01*
X281700D02*
X286700D01*
X275100D02*
X279500D01*
X268900D02*
X273100D01*
X257300D02*
X261700D01*
X330700Y184000D02*
X332100D01*
X320900D02*
X322300D01*
X317700D02*
X319300D01*
X314300D02*
X315500D01*
X300500D02*
X302100D01*
X293100D02*
X293900D01*
X281700D02*
X286700D01*
X275100D02*
X279500D01*
X268700D02*
X272900D01*
X257300D02*
X261700D01*
X330700Y184200D02*
X332100D01*
X320900D02*
X322300D01*
X317500D02*
X319500D01*
X314300D02*
X315500D01*
X300500D02*
X302100D01*
X293100D02*
X293900D01*
X281700D02*
X286700D01*
X275100D02*
X279500D01*
X268700D02*
X272900D01*
X257300D02*
X261700D01*
X330700Y184400D02*
X332100D01*
X321100D02*
X322300D01*
X317500D02*
X319500D01*
X314300D02*
X315500D01*
X300500D02*
X302100D01*
X293100D02*
X293900D01*
X281700D02*
X286700D01*
X275100D02*
X279500D01*
X268700D02*
X272900D01*
X257300D02*
X261700D01*
X330900Y184600D02*
X332100D01*
X321100D02*
X322300D01*
X317500D02*
X319500D01*
X314500D02*
X315500D01*
X300500D02*
X302100D01*
X293100D02*
X293900D01*
X281700D02*
X286700D01*
X275100D02*
X279500D01*
X268700D02*
X272900D01*
X257300D02*
X261700D01*
X330900Y184800D02*
X331900D01*
X321300D02*
X322100D01*
X317500D02*
X319500D01*
X314500D02*
X315500D01*
X300500D02*
X302100D01*
X293100D02*
X293900D01*
X281700D02*
X286700D01*
X275100D02*
X279500D01*
X268700D02*
X272900D01*
X257300D02*
X261700D01*
X317700Y185000D02*
X319300D01*
X300500D02*
X302100D01*
X293100D02*
X293900D01*
X281700D02*
X286700D01*
X275100D02*
X279500D01*
X268700D02*
X272900D01*
X257300D02*
X261700D01*
X317700Y185200D02*
X319300D01*
X300500D02*
X302100D01*
X293100D02*
X293900D01*
X281700D02*
X286700D01*
X275100D02*
X279500D01*
X268700D02*
X272900D01*
X257300D02*
X261700D01*
X318100Y185400D02*
X318900D01*
X293100D02*
X293900D01*
X281700D02*
X286700D01*
X275100D02*
X279500D01*
X268700D02*
X272900D01*
X257300D02*
X261700D01*
X293100Y185600D02*
X293900D01*
X281700D02*
X286700D01*
X275100D02*
X279500D01*
X268700D02*
X272900D01*
X257300D02*
X261700D01*
X293100Y185800D02*
X293900D01*
X281700D02*
X286700D01*
X275100D02*
X279500D01*
X268500D02*
X272700D01*
X257300D02*
X261700D01*
X293100Y186000D02*
X293900D01*
X281700D02*
X286700D01*
X275100D02*
X279500D01*
X268500D02*
X272700D01*
X257300D02*
X261700D01*
X293100Y186200D02*
X293900D01*
X281700D02*
X286700D01*
X275100D02*
X279500D01*
X268500D02*
X272700D01*
X257300D02*
X261700D01*
X293100Y186400D02*
X293900D01*
X281700D02*
X286700D01*
X275100D02*
X279500D01*
X268500D02*
X272700D01*
X257300D02*
X261700D01*
X293100Y186600D02*
X293900D01*
X281700D02*
X286700D01*
X275100D02*
X279500D01*
X268500D02*
X272700D01*
X257300D02*
X261700D01*
X293100Y186800D02*
X293900D01*
X281700D02*
X286700D01*
X275100D02*
X279500D01*
X268500D02*
X272700D01*
X257300D02*
X261700D01*
X293100Y187000D02*
X293900D01*
X275100D02*
X279500D01*
X268500D02*
X272700D01*
X257300D02*
X261700D01*
X293100Y187200D02*
X293900D01*
X275100D02*
X279500D01*
X268500D02*
X272700D01*
X257300D02*
X261700D01*
X293100Y187400D02*
X293900D01*
X275100D02*
X279500D01*
X268300D02*
X272700D01*
X257300D02*
X261700D01*
X293100Y187600D02*
X293900D01*
X275100D02*
X279500D01*
X268300D02*
X272500D01*
X257300D02*
X261700D01*
X293100Y187800D02*
X293900D01*
X275100D02*
X279500D01*
X268100D02*
X272500D01*
X257300D02*
X261700D01*
X293100Y188000D02*
X293900D01*
X275100D02*
X279500D01*
X268100D02*
X272500D01*
X257300D02*
X261700D01*
X293100Y188200D02*
X293900D01*
X275100D02*
X279500D01*
X267900D02*
X272500D01*
X257300D02*
X261700D01*
X293100Y188400D02*
X293900D01*
X275100D02*
X279500D01*
X267700D02*
X272500D01*
X257300D02*
X261700D01*
X293100Y188600D02*
X293900D01*
X275100D02*
X279500D01*
X267500D02*
X272500D01*
X257300D02*
X261700D01*
X293100Y188800D02*
X293900D01*
X275100D02*
X279500D01*
X267300D02*
X272300D01*
X257300D02*
X261700D01*
X339900Y189000D02*
X341300D01*
X336700D02*
X338100D01*
X334900D02*
X335100D01*
X333100D02*
X334700D01*
X327700D02*
X329100D01*
X325700D02*
X326700D01*
X322900D02*
X324700D01*
X318100D02*
X320300D01*
X313100D02*
X314700D01*
X308500D02*
X310300D01*
X304900D02*
X306500D01*
X300500D02*
X301900D01*
X293100D02*
X293900D01*
X275100D02*
X279500D01*
X266900D02*
X272100D01*
X257300D02*
X261700D01*
X339900Y189200D02*
X341500D01*
X336700D02*
X338300D01*
X332500D02*
X335500D01*
X327500D02*
X329100D01*
X325300D02*
X326700D01*
X322500D02*
X325100D01*
X317700D02*
X320900D01*
X312300D02*
X315500D01*
X307700D02*
X310900D01*
X304500D02*
X306500D01*
X300500D02*
X302100D01*
X293100D02*
X293900D01*
X275100D02*
X279500D01*
X257300D02*
X272100D01*
X339900Y189400D02*
X341500D01*
X336700D02*
X338300D01*
X332300D02*
X335700D01*
X327500D02*
X329300D01*
X322300D02*
X326700D01*
X317500D02*
X321100D01*
X312100D02*
X315700D01*
X307700D02*
X311300D01*
X304300D02*
X306300D01*
X300500D02*
X302100D01*
X293100D02*
X293900D01*
X275100D02*
X279500D01*
X257300D02*
X272100D01*
X339900Y189600D02*
X341500D01*
X336700D02*
X338300D01*
X332100D02*
X336100D01*
X327500D02*
X329300D01*
X322300D02*
X326700D01*
X317100D02*
X321500D01*
X311900D02*
X315900D01*
X307300D02*
X311500D01*
X304100D02*
X306100D01*
X300500D02*
X302100D01*
X293100D02*
X293900D01*
X275100D02*
X279500D01*
X257300D02*
X271900D01*
X339900Y189800D02*
X341500D01*
X336700D02*
X338300D01*
X331900D02*
X336100D01*
X327500D02*
X329300D01*
X322100D02*
X326700D01*
X317100D02*
X321500D01*
X311900D02*
X315900D01*
X307300D02*
X311500D01*
X304100D02*
X306100D01*
X300500D02*
X302100D01*
X293100D02*
X293900D01*
X275100D02*
X279500D01*
X257300D02*
X271700D01*
X339900Y190000D02*
X341500D01*
X336700D02*
X338300D01*
X331900D02*
X336100D01*
X327500D02*
X329300D01*
X322100D02*
X326700D01*
X317100D02*
X321500D01*
X312100D02*
X315900D01*
X307100D02*
X311500D01*
X303900D02*
X305900D01*
X300500D02*
X302100D01*
X293100D02*
X293900D01*
X275100D02*
X279500D01*
X257300D02*
X271700D01*
X339900Y190200D02*
X341500D01*
X336700D02*
X338300D01*
X334700D02*
X335900D01*
X331700D02*
X333700D01*
X327500D02*
X329300D01*
X324900D02*
X326700D01*
X322100D02*
X323700D01*
X319900D02*
X321300D01*
X319100D02*
X319500D01*
X316700D02*
X318900D01*
X314500D02*
X316100D01*
X312300D02*
X313300D01*
X309900D02*
X311500D01*
X309300D02*
X309500D01*
X306900D02*
X308900D01*
X303700D02*
X305700D01*
X300500D02*
X302100D01*
X293100D02*
X293900D01*
X275100D02*
X279500D01*
X257300D02*
X271500D01*
X339900Y190400D02*
X341500D01*
X336700D02*
X338300D01*
X334900D02*
X335700D01*
X331500D02*
X333500D01*
X327500D02*
X329300D01*
X324900D02*
X326700D01*
X321900D02*
X323500D01*
X320100D02*
X321100D01*
X316700D02*
X318500D01*
X314500D02*
X316100D01*
X312300D02*
X312900D01*
X310300D02*
X311300D01*
X306700D02*
X308700D01*
X303500D02*
X305700D01*
X300500D02*
X302100D01*
X293100D02*
X293900D01*
X275100D02*
X279500D01*
X257300D02*
X271100D01*
X339900Y190600D02*
X341500D01*
X336700D02*
X338300D01*
X331500D02*
X333300D01*
X327500D02*
X329300D01*
X325100D02*
X326700D01*
X322100D02*
X323500D01*
X316700D02*
X318300D01*
X314500D02*
X316100D01*
X306700D02*
X308300D01*
X303500D02*
X305500D01*
X300500D02*
X302100D01*
X293100D02*
X293900D01*
X275100D02*
X279500D01*
X257300D02*
X270700D01*
X339900Y190800D02*
X341500D01*
X336700D02*
X338300D01*
X331500D02*
X333100D01*
X327500D02*
X329300D01*
X325100D02*
X326700D01*
X322100D02*
X323700D01*
X316500D02*
X318100D01*
X314500D02*
X316100D01*
X306700D02*
X308300D01*
X303300D02*
X305300D01*
X300500D02*
X302100D01*
X293100D02*
X293900D01*
X275100D02*
X279500D01*
X257300D02*
X270500D01*
X339900Y191000D02*
X341500D01*
X336700D02*
X338300D01*
X331500D02*
X333100D01*
X327500D02*
X329300D01*
X325100D02*
X326700D01*
X322100D02*
X324100D01*
X316500D02*
X318100D01*
X314100D02*
X316100D01*
X306700D02*
X308300D01*
X303300D02*
X305100D01*
X300500D02*
X302100D01*
X293100D02*
X293900D01*
X275100D02*
X279500D01*
X257300D02*
X270500D01*
X339900Y191200D02*
X341500D01*
X336700D02*
X338300D01*
X331500D02*
X333100D01*
X327500D02*
X329300D01*
X322300D02*
X326700D01*
X316500D02*
X318100D01*
X313300D02*
X316100D01*
X306700D02*
X308300D01*
X303100D02*
X305100D01*
X300500D02*
X302100D01*
X293100D02*
X293900D01*
X275100D02*
X279500D01*
X257300D02*
X270900D01*
X339900Y191400D02*
X341500D01*
X336700D02*
X338300D01*
X331500D02*
X333100D01*
X327500D02*
X329300D01*
X322300D02*
X326700D01*
X316500D02*
X321300D01*
X312900D02*
X315900D01*
X306700D02*
X311300D01*
X303100D02*
X304900D01*
X300500D02*
X302100D01*
X293100D02*
X293900D01*
X275100D02*
X279500D01*
X257300D02*
X271300D01*
X339900Y191600D02*
X341500D01*
X336700D02*
X338300D01*
X331500D02*
X333100D01*
X327500D02*
X329300D01*
X322700D02*
X326700D01*
X316500D02*
X321500D01*
X312500D02*
X315900D01*
X306700D02*
X311700D01*
X302900D02*
X304700D01*
X300500D02*
X302100D01*
X293100D02*
X293900D01*
X275100D02*
X279500D01*
X257300D02*
X271500D01*
X339900Y191800D02*
X341500D01*
X336700D02*
X338300D01*
X331500D02*
X333100D01*
X327500D02*
X329300D01*
X322900D02*
X326700D01*
X316500D02*
X321500D01*
X312300D02*
X315700D01*
X306500D02*
X311700D01*
X300500D02*
X304700D01*
X293100D02*
X293900D01*
X275100D02*
X279500D01*
X257300D02*
X271700D01*
X339900Y192000D02*
X341500D01*
X336700D02*
X338300D01*
X331500D02*
X333100D01*
X327500D02*
X329300D01*
X323300D02*
X326700D01*
X316500D02*
X321500D01*
X312300D02*
X315500D01*
X306700D02*
X311700D01*
X300500D02*
X304500D01*
X293100D02*
X293900D01*
X275100D02*
X279500D01*
X257300D02*
X271900D01*
X339900Y192200D02*
X341500D01*
X336700D02*
X338300D01*
X331500D02*
X333100D01*
X327500D02*
X329100D01*
X324900D02*
X326700D01*
X316500D02*
X321500D01*
X312100D02*
X314900D01*
X306700D02*
X311700D01*
X300500D02*
X304500D01*
X293100D02*
X293900D01*
X275100D02*
X279500D01*
X257300D02*
X272100D01*
X339900Y192400D02*
X341500D01*
X336700D02*
X338300D01*
X331500D02*
X333100D01*
X327500D02*
X329300D01*
X325100D02*
X326700D01*
X316500D02*
X321500D01*
X312100D02*
X314300D01*
X306700D02*
X311700D01*
X300500D02*
X304700D01*
X293100D02*
X293900D01*
X275100D02*
X279500D01*
X266100D02*
X272100D01*
X257300D02*
X261700D01*
X339900Y192600D02*
X341500D01*
X336700D02*
X338300D01*
X331500D02*
X333100D01*
X327500D02*
X329300D01*
X325100D02*
X326700D01*
X320100D02*
X321500D01*
X316500D02*
X318100D01*
X312100D02*
X313900D01*
X310300D02*
X311700D01*
X306700D02*
X308300D01*
X300500D02*
X305100D01*
X293100D02*
X293900D01*
X275100D02*
X279500D01*
X267500D02*
X272300D01*
X257300D02*
X261700D01*
X339900Y192800D02*
X341500D01*
X336700D02*
X338300D01*
X331500D02*
X333300D01*
X327500D02*
X329500D01*
X325100D02*
X326700D01*
X322700D02*
X323300D01*
X320100D02*
X321500D01*
X316500D02*
X318300D01*
X312100D02*
X313500D01*
X310100D02*
X311500D01*
X306700D02*
X308300D01*
X300500D02*
X305300D01*
X293100D02*
X293900D01*
X275100D02*
X279500D01*
X267700D02*
X272500D01*
X257300D02*
X261700D01*
X339900Y193000D02*
X341300D01*
X336700D02*
X338500D01*
X335100D02*
X335700D01*
X331500D02*
X333500D01*
X330500D02*
X330900D01*
X327500D02*
X329900D01*
X324900D02*
X326700D01*
X322500D02*
X323700D01*
X319900D02*
X321500D01*
X316700D02*
X318300D01*
X312100D02*
X313500D01*
X309900D02*
X311500D01*
X306700D02*
X308500D01*
X300500D02*
X305300D01*
X293100D02*
X293900D01*
X275100D02*
X279500D01*
X267900D02*
X272500D01*
X257300D02*
X261700D01*
X336700Y193200D02*
X341300D01*
X334500D02*
X335900D01*
X331700D02*
X333900D01*
X327500D02*
X331100D01*
X322300D02*
X326500D01*
X319500D02*
X321300D01*
X316900D02*
X318700D01*
X314500D02*
X315900D01*
X312100D02*
X313900D01*
X309700D02*
X311300D01*
X306900D02*
X308900D01*
X303500D02*
X305500D01*
X300500D02*
X302100D01*
X293100D02*
X293900D01*
X275100D02*
X279500D01*
X268100D02*
X272500D01*
X257300D02*
X261700D01*
X336700Y193400D02*
X341300D01*
X331900D02*
X335900D01*
X327500D02*
X331100D01*
X322300D02*
X326500D01*
X316900D02*
X321100D01*
X312100D02*
X315900D01*
X307100D02*
X311300D01*
X303700D02*
X305700D01*
X300500D02*
X302100D01*
X293100D02*
X293900D01*
X275100D02*
X279500D01*
X268300D02*
X272700D01*
X257300D02*
X261700D01*
X336700Y193600D02*
X341300D01*
X332100D02*
X336100D01*
X327500D02*
X331100D01*
X322300D02*
X326300D01*
X317100D02*
X321100D01*
X312300D02*
X315900D01*
X307100D02*
X311300D01*
X303900D02*
X305700D01*
X300500D02*
X302100D01*
X293100D02*
X293900D01*
X275100D02*
X279500D01*
X268300D02*
X272700D01*
X257300D02*
X261700D01*
X336700Y193800D02*
X341100D01*
X332100D02*
X336100D01*
X327500D02*
X331100D01*
X322500D02*
X326300D01*
X317300D02*
X320900D01*
X312300D02*
X315900D01*
X307300D02*
X311100D01*
X304100D02*
X305700D01*
X300500D02*
X302100D01*
X293100D02*
X293900D01*
X275100D02*
X279500D01*
X268500D02*
X272900D01*
X257300D02*
X261700D01*
X336700Y194000D02*
X340900D01*
X332300D02*
X335900D01*
X329100D02*
X331100D01*
X327500D02*
X328900D01*
X322700D02*
X326100D01*
X317500D02*
X320700D01*
X312500D02*
X315900D01*
X307500D02*
X310900D01*
X304100D02*
X305700D01*
X300500D02*
X302100D01*
X293100D02*
X293900D01*
X275100D02*
X279500D01*
X268500D02*
X272900D01*
X257300D02*
X261700D01*
X336700Y194200D02*
X340700D01*
X332700D02*
X335500D01*
X329500D02*
X331300D01*
X327500D02*
X328900D01*
X323100D02*
X325900D01*
X317900D02*
X320500D01*
X312900D02*
X315500D01*
X307900D02*
X310500D01*
X304100D02*
X305700D01*
X300500D02*
X302100D01*
X293100D02*
X293900D01*
X275100D02*
X279500D01*
X268500D02*
X272900D01*
X257300D02*
X261700D01*
X338700Y194400D02*
X340300D01*
X336700D02*
X338300D01*
X333100D02*
X335100D01*
X329700D02*
X331100D01*
X327700D02*
X328900D01*
X323500D02*
X325500D01*
X318100D02*
X320100D01*
X313300D02*
X315100D01*
X308300D02*
X310100D01*
X304100D02*
X305700D01*
X300500D02*
X302100D01*
X293100D02*
X293900D01*
X275100D02*
X279500D01*
X268500D02*
X272900D01*
X257300D02*
X261700D01*
X336700Y194600D02*
X338300D01*
X304100D02*
X305700D01*
X300500D02*
X302100D01*
X293100D02*
X293900D01*
X275100D02*
X279500D01*
X268500D02*
X272900D01*
X257300D02*
X261700D01*
X336700Y194800D02*
X338300D01*
X303900D02*
X305700D01*
X300500D02*
X302100D01*
X293100D02*
X293900D01*
X275100D02*
X279500D01*
X268500D02*
X273100D01*
X257300D02*
X261700D01*
X336700Y195000D02*
X338300D01*
X303700D02*
X305700D01*
X300500D02*
X302100D01*
X293100D02*
X293900D01*
X275100D02*
X279500D01*
X268500D02*
X273100D01*
X257300D02*
X261700D01*
X336700Y195200D02*
X338300D01*
X303300D02*
X305700D01*
X300500D02*
X303100D01*
X293100D02*
X293900D01*
X275100D02*
X279500D01*
X268500D02*
X273100D01*
X257300D02*
X261700D01*
X336700Y195400D02*
X338300D01*
X300500D02*
X305500D01*
X293100D02*
X293900D01*
X275100D02*
X279500D01*
X268500D02*
X273100D01*
X257300D02*
X261700D01*
X336700Y195600D02*
X338300D01*
X300500D02*
X305500D01*
X293100D02*
X293900D01*
X275100D02*
X279500D01*
X268500D02*
X273100D01*
X257300D02*
X261700D01*
X336700Y195800D02*
X338300D01*
X300500D02*
X305100D01*
X293100D02*
X293900D01*
X275100D02*
X279500D01*
X268500D02*
X273100D01*
X257300D02*
X261700D01*
X336700Y196000D02*
X338300D01*
X300500D02*
X305100D01*
X293100D02*
X293900D01*
X275100D02*
X279500D01*
X268500D02*
X273100D01*
X257300D02*
X261700D01*
X336700Y196200D02*
X338300D01*
X300500D02*
X304700D01*
X293100D02*
X293900D01*
X275100D02*
X279500D01*
X268300D02*
X272900D01*
X257300D02*
X261700D01*
X336700Y196400D02*
X338300D01*
X300500D02*
X304100D01*
X293100D02*
X293900D01*
X275100D02*
X279500D01*
X268300D02*
X272900D01*
X257300D02*
X261700D01*
X336700Y196600D02*
X338300D01*
X300500D02*
X303300D01*
X293100D02*
X293900D01*
X275100D02*
X279500D01*
X268100D02*
X272900D01*
X257300D02*
X261700D01*
X293100Y196800D02*
X293900D01*
X275100D02*
X279500D01*
X267700D02*
X272900D01*
X257300D02*
X261700D01*
X293100Y197000D02*
X293900D01*
X275100D02*
X279500D01*
X267500D02*
X272900D01*
X257300D02*
X261700D01*
X293100Y197200D02*
X293900D01*
X275100D02*
X279500D01*
X267100D02*
X272700D01*
X257300D02*
X261700D01*
X293100Y197400D02*
X293900D01*
X275100D02*
X279500D01*
X257300D02*
X272700D01*
X293100Y197600D02*
X293900D01*
X275100D02*
X279500D01*
X257300D02*
X272500D01*
X293100Y197800D02*
X293900D01*
X275100D02*
X279500D01*
X257300D02*
X272500D01*
X293100Y198000D02*
X293900D01*
X275100D02*
X279500D01*
X257300D02*
X272500D01*
X293100Y198200D02*
X293900D01*
X275100D02*
X279500D01*
X257300D02*
X272300D01*
X293100Y198400D02*
X293900D01*
X275100D02*
X279500D01*
X257300D02*
X272100D01*
X293100Y198600D02*
X293900D01*
X275100D02*
X279500D01*
X257300D02*
X272100D01*
X293100Y198800D02*
X293900D01*
X275100D02*
X279500D01*
X257300D02*
X271900D01*
X293100Y199000D02*
X293900D01*
X275100D02*
X279500D01*
X257300D02*
X271700D01*
X293100Y199200D02*
X293900D01*
X275100D02*
X279500D01*
X257300D02*
X271500D01*
X293100Y199400D02*
X293900D01*
X275100D02*
X279500D01*
X257300D02*
X271300D01*
X293100Y199600D02*
X293900D01*
X275100D02*
X279500D01*
X257300D02*
X271100D01*
X293100Y199800D02*
X293900D01*
X275100D02*
X279500D01*
X257300D02*
X270900D01*
X293100Y200000D02*
X293900D01*
X275100D02*
X279500D01*
X257300D02*
X270500D01*
X293100Y200200D02*
X293900D01*
X275100D02*
X279500D01*
X257300D02*
X270100D01*
X293100Y200400D02*
X293900D01*
X275100D02*
X279500D01*
X257300D02*
X269500D01*
X293100Y200600D02*
X293900D01*
X275100D02*
X279500D01*
X257300D02*
X268900D01*
D34*
X350000Y41998D02*
Y36000D01*
Y38999D01*
X353999D01*
Y41998D01*
Y36000D01*
X355998Y41998D02*
Y37000D01*
X356998Y36000D01*
X358997D01*
X359997Y37000D01*
Y41998D01*
X361996Y36000D02*
Y41998D01*
X363996Y39999D01*
X365995Y41998D01*
Y36000D01*
X367994D02*
Y39999D01*
X369993Y41998D01*
X371993Y39999D01*
Y36000D01*
Y38999D01*
X367994D01*
X373992Y36000D02*
Y41998D01*
X377991Y36000D01*
Y41998D01*
X383989Y40998D02*
X382989Y41998D01*
X380990D01*
X379990Y40998D01*
Y39999D01*
X380990Y38999D01*
X382989D01*
X383989Y37999D01*
Y37000D01*
X382989Y36000D01*
X380990D01*
X379990Y37000D01*
X389987Y40998D02*
X388987Y41998D01*
X386988D01*
X385988Y40998D01*
Y37000D01*
X386988Y36000D01*
X388987D01*
X389987Y37000D01*
X391986Y36000D02*
Y39999D01*
X393986Y41998D01*
X395985Y39999D01*
Y36000D01*
Y38999D01*
X391986D01*
X397985Y41998D02*
X401983D01*
X399984D01*
Y36000D01*
X403982Y41998D02*
X407981D01*
X405982D01*
Y36000D01*
X413979Y41998D02*
X409981D01*
Y36000D01*
X413979D01*
X409981Y38999D02*
X411980D01*
X415979Y36000D02*
Y41998D01*
X418978D01*
X419977Y40998D01*
Y38999D01*
X418978Y37999D01*
X415979D01*
X417978D02*
X419977Y36000D01*
D35*
X403000Y52500D02*
Y55499D01*
X404499Y56999D01*
X405999Y55499D01*
Y52500D01*
Y54749D01*
X403000D01*
X407499Y52500D02*
Y56999D01*
X410498Y52500D01*
Y56999D01*
X411997D02*
X414996D01*
X413497D01*
Y52500D01*
X419495Y56999D02*
X416496D01*
Y52500D01*
X419495D01*
X416496Y54749D02*
X417995D01*
X420994Y52500D02*
Y56999D01*
X423993Y52500D01*
Y56999D01*
X425493Y52500D02*
Y56999D01*
X428492Y52500D01*
Y56999D01*
X429991Y52500D02*
Y55499D01*
X431491Y56999D01*
X432990Y55499D01*
Y52500D01*
Y54749D01*
X429991D01*
X438988Y52500D02*
X440488D01*
X439738D01*
Y56999D01*
X438988Y56249D01*
X78000Y51000D02*
X82499D01*
Y48751D01*
X81749Y48001D01*
X80249D01*
X79500Y48751D01*
Y51000D01*
X82499Y46501D02*
Y45002D01*
Y45752D01*
X78000D01*
Y46501D01*
Y45002D01*
Y42753D02*
X82499D01*
X78000Y39754D01*
X82499D01*
X78000Y33756D02*
X82499D01*
Y31506D01*
X81749Y30757D01*
X80249D01*
X79500Y31506D01*
Y33756D01*
X82499Y29257D02*
X78000D01*
X79500Y27757D01*
X78000Y26258D01*
X82499D01*
X78000Y24758D02*
X82499D01*
Y22509D01*
X81749Y21759D01*
X80249D01*
X79500Y22509D01*
Y24758D01*
Y23259D02*
X78000Y21759D01*
X403500Y159500D02*
Y162499D01*
X404999Y163999D01*
X406499Y162499D01*
Y159500D01*
Y161749D01*
X403500D01*
X407999Y159500D02*
Y163999D01*
X410998Y159500D01*
Y163999D01*
X412497D02*
X415496D01*
X413997D01*
Y159500D01*
X419995Y163999D02*
X416996D01*
Y159500D01*
X419995D01*
X416996Y161749D02*
X418495D01*
X421494Y159500D02*
Y163999D01*
X424493Y159500D01*
Y163999D01*
X425993Y159500D02*
Y163999D01*
X428992Y159500D01*
Y163999D01*
X430491Y159500D02*
Y162499D01*
X431991Y163999D01*
X433490Y162499D01*
Y159500D01*
Y161749D01*
X430491D01*
X442487Y159500D02*
X439488D01*
X442487Y162499D01*
Y163249D01*
X441738Y163999D01*
X440238D01*
X439488Y163249D01*
X22500Y12249D02*
X24000Y13749D01*
X25499Y12249D01*
X34496Y14499D02*
X32997D01*
X33746D01*
Y10750D01*
X32997Y10000D01*
X32247D01*
X31497Y10750D01*
X35996Y10000D02*
Y12999D01*
X37495Y14499D01*
X38995Y12999D01*
Y10000D01*
Y12249D01*
X35996D01*
X43493Y13749D02*
X42744Y14499D01*
X41244D01*
X40494Y13749D01*
Y10750D01*
X41244Y10000D01*
X42744D01*
X43493Y10750D01*
X44993Y14499D02*
Y10000D01*
Y11500D01*
X47992Y14499D01*
X45742Y12249D01*
X47992Y10000D01*
X53990D02*
Y14499D01*
X56239D01*
X56989Y13749D01*
Y12249D01*
X56239Y11500D01*
X53990D01*
X58488Y14499D02*
Y10000D01*
X59988Y11500D01*
X61487Y10000D01*
Y14499D01*
X62987Y10000D02*
Y14499D01*
X65236D01*
X65986Y13749D01*
Y12249D01*
X65236Y11500D01*
X62987D01*
X64486D02*
X65986Y10000D01*
X77499Y103000D02*
X73750D01*
X73000Y102250D01*
Y100751D01*
X73750Y100001D01*
X77499D01*
X76749Y95502D02*
X77499Y96252D01*
Y97752D01*
X76749Y98501D01*
X75999D01*
X75249Y97752D01*
Y96252D01*
X74499Y95502D01*
X73750D01*
X73000Y96252D01*
Y97752D01*
X73750Y98501D01*
X77499Y94003D02*
X73000D01*
Y91754D01*
X73750Y91004D01*
X74499D01*
X75249Y91754D01*
Y94003D01*
Y91754D01*
X75999Y91004D01*
X76749D01*
X77499Y91754D01*
Y94003D01*
X72250Y89504D02*
Y86505D01*
X76749Y82007D02*
X77499Y82757D01*
Y84256D01*
X76749Y85006D01*
X73750D01*
X73000Y84256D01*
Y82757D01*
X73750Y82007D01*
X73000Y76009D02*
X77499D01*
Y73759D01*
X76749Y73010D01*
X75249D01*
X74499Y73759D01*
Y76009D01*
X77499Y71510D02*
X73000D01*
X74499Y70011D01*
X73000Y68511D01*
X77499D01*
X73000Y67012D02*
X77499D01*
Y64762D01*
X76749Y64013D01*
X75249D01*
X74499Y64762D01*
Y67012D01*
Y65512D02*
X73000Y64013D01*
D36*
X385500Y153499D02*
Y150500D01*
Y151999D01*
X387499D01*
Y153499D01*
Y150500D01*
X388499D02*
Y153499D01*
X389499Y152499D01*
X390498Y153499D01*
Y150500D01*
X393497Y152999D02*
X392998Y153499D01*
X391998D01*
X391498Y152999D01*
Y151000D01*
X391998Y150500D01*
X392998D01*
X393497Y151000D01*
X396496Y150500D02*
X394497D01*
X396496Y152499D01*
Y152999D01*
X395997Y153499D01*
X394997D01*
X394497Y152999D01*
X387000Y84499D02*
Y81500D01*
Y82999D01*
X388999D01*
Y84499D01*
Y81500D01*
X389999D02*
Y84499D01*
X390999Y83499D01*
X391998Y84499D01*
Y81500D01*
X394997Y83999D02*
X394498Y84499D01*
X393498D01*
X392998Y83999D01*
Y82000D01*
X393498Y81500D01*
X394498D01*
X394997Y82000D01*
X395997Y81500D02*
X396997D01*
X396497D01*
Y84499D01*
X395997Y83999D01*
X410999Y137499D02*
X410499Y137999D01*
X409500D01*
X409000Y137499D01*
Y135500D01*
X409500Y135000D01*
X410499D01*
X410999Y135500D01*
X413998Y135000D02*
X411999D01*
X413998Y136999D01*
Y137499D01*
X413498Y137999D01*
X412499D01*
X411999Y137499D01*
X410999Y66999D02*
X410499Y67499D01*
X409500D01*
X409000Y66999D01*
Y65000D01*
X409500Y64500D01*
X410499D01*
X410999Y65000D01*
X413998Y67499D02*
X411999D01*
Y66000D01*
X412999Y66499D01*
X413498D01*
X413998Y66000D01*
Y65000D01*
X413498Y64500D01*
X412499D01*
X411999Y65000D01*
X359999Y158999D02*
X359500Y159499D01*
X358500D01*
X358000Y158999D01*
Y157000D01*
X358500Y156500D01*
X359500D01*
X359999Y157000D01*
X360999Y156500D02*
X361999D01*
X361499D01*
Y159499D01*
X360999Y158999D01*
X359999Y130999D02*
X359500Y131499D01*
X358500D01*
X358000Y130999D01*
Y129000D01*
X358500Y128500D01*
X359500D01*
X359999Y129000D01*
X360999Y130999D02*
X361499Y131499D01*
X362498D01*
X362998Y130999D01*
Y130499D01*
X362498Y129999D01*
X361999D01*
X362498D01*
X362998Y129500D01*
Y129000D01*
X362498Y128500D01*
X361499D01*
X360999Y129000D01*
X384500Y123500D02*
Y126499D01*
X385999D01*
X386499Y125999D01*
Y124999D01*
X385999Y124500D01*
X384500D01*
X385500D02*
X386499Y123500D01*
X389498D02*
X387499D01*
X389498Y125499D01*
Y125999D01*
X388999Y126499D01*
X387999D01*
X387499Y125999D01*
X360999Y89999D02*
X360500Y90499D01*
X359500D01*
X359000Y89999D01*
Y88000D01*
X359500Y87500D01*
X360500D01*
X360999Y88000D01*
X363498Y87500D02*
Y90499D01*
X361999Y88999D01*
X363998D01*
X360999Y64499D02*
X360500Y64999D01*
X359500D01*
X359000Y64499D01*
Y62500D01*
X359500Y62000D01*
X360500D01*
X360999Y62500D01*
X363998Y64999D02*
X362999Y64499D01*
X361999Y63499D01*
Y62500D01*
X362499Y62000D01*
X363498D01*
X363998Y62500D01*
Y63000D01*
X363498Y63499D01*
X361999D01*
X387000Y54500D02*
Y57499D01*
X388499D01*
X388999Y56999D01*
Y55999D01*
X388499Y55500D01*
X387000D01*
X388000D02*
X388999Y54500D01*
X389999D02*
X390999D01*
X390499D01*
Y57499D01*
X389999Y56999D01*
D37*
X257500Y155116D02*
Y150000D01*
X260058D01*
X260911Y150853D01*
Y151706D01*
X260058Y152558D01*
X257500D01*
X260058D01*
X260911Y153411D01*
Y154264D01*
X260058Y155116D01*
X257500D01*
X262616Y150000D02*
Y153411D01*
X264322Y155116D01*
X266027Y153411D01*
Y150000D01*
Y152558D01*
X262616D01*
X271144Y154264D02*
X270291Y155116D01*
X268586D01*
X267733Y154264D01*
Y150853D01*
X268586Y150000D01*
X270291D01*
X271144Y150853D01*
X272849Y155116D02*
Y150000D01*
Y151706D01*
X276260Y155116D01*
X273702Y152558D01*
X276260Y150000D01*
X281377Y154264D02*
X280524Y155116D01*
X278819D01*
X277966Y154264D01*
Y153411D01*
X278819Y152558D01*
X280524D01*
X281377Y151706D01*
Y150853D01*
X280524Y150000D01*
X278819D01*
X277966Y150853D01*
X286493Y154264D02*
X285641Y155116D01*
X283935D01*
X283082Y154264D01*
Y150853D01*
X283935Y150000D01*
X285641D01*
X286493Y150853D01*
X288199Y150000D02*
Y153411D01*
X289904Y155116D01*
X291610Y153411D01*
Y150000D01*
Y152558D01*
X288199D01*
X293315Y155116D02*
X296726D01*
X295021D01*
Y150000D01*
X298432Y155116D02*
X301843D01*
X300137D01*
Y150000D01*
X306959Y155116D02*
X303548D01*
Y150000D01*
X306959D01*
X303548Y152558D02*
X305254D01*
X308665Y150000D02*
Y155116D01*
X311223D01*
X312076Y154264D01*
Y152558D01*
X311223Y151706D01*
X308665D01*
X310370D02*
X312076Y150000D01*
M02*
