M48
;Layer_Color=9474304
;FILE_FORMAT=2:4
INCH,TZ
;TYPE=PLATED
T1F00S00C0.0300
T2F00S00C0.0354
T5F00S00C0.0827
T6F00S00C0.1220
%
T01
X6394Y11713
X7394
X8394
X9394
X10394
X11394
X12394
X13394
X14394
X15394
X16394
X17394
X18394
X19394
Y18713
X18394
X17394
X16394
X15394
X14394
X13394
X12394
X11394
X10394
X9394
X8394
X7394
X6394
X5394
X4394
X3394
X2394
X1394
X394
Y11713
X1394
X2394
X3394
X4394
X5394
T02
X7100Y3150
Y4150
X35000Y10750
X36000
T05
X19146Y12968
Y17457
X642
Y12968
T06
X1484Y1484
X36917
Y20185
X1484
M30
