%FSLAX25Y25*%
%MOIN*%
G70*
G01*
G75*
G04 Layer_Color=16711935*
%ADD10R,0.16535X0.05315*%
%ADD11R,0.14173X0.05000*%
G04:AMPARAMS|DCode=12|XSize=14.96mil|YSize=55.12mil|CornerRadius=3.74mil|HoleSize=0mil|Usage=FLASHONLY|Rotation=270.000|XOffset=0mil|YOffset=0mil|HoleType=Round|Shape=RoundedRectangle|*
%AMROUNDEDRECTD12*
21,1,0.01496,0.04764,0,0,270.0*
21,1,0.00748,0.05512,0,0,270.0*
1,1,0.00748,-0.02382,-0.00374*
1,1,0.00748,-0.02382,0.00374*
1,1,0.00748,0.02382,0.00374*
1,1,0.00748,0.02382,-0.00374*
%
%ADD12ROUNDEDRECTD12*%
%ADD13R,0.04331X0.06693*%
%ADD14R,0.39370X0.27559*%
%ADD15R,0.03543X0.02756*%
%ADD16R,0.11811X0.04567*%
%ADD17R,0.11811X0.07874*%
%ADD18R,0.20000X0.15000*%
%ADD19C,0.01000*%
%ADD20C,0.01969*%
%ADD21C,0.05906*%
%ADD22R,0.05906X0.05906*%
%ADD23R,0.09843X0.09843*%
%ADD24R,0.05906X0.05906*%
%ADD25C,0.06000*%
%ADD26O,0.07874X0.15748*%
%ADD27O,0.15748X0.07874*%
%ADD28O,0.08661X0.17323*%
%ADD29C,0.02000*%
%ADD30C,0.00787*%
%ADD31C,0.00900*%
%ADD32C,0.00591*%
%ADD33C,0.00200*%
%ADD34C,0.01500*%
%ADD35C,0.00700*%
%ADD36C,0.00500*%
%ADD37C,0.01181*%
%ADD38R,0.17335X0.06115*%
%ADD39R,0.14973X0.05800*%
G04:AMPARAMS|DCode=40|XSize=22.96mil|YSize=63.12mil|CornerRadius=7.74mil|HoleSize=0mil|Usage=FLASHONLY|Rotation=270.000|XOffset=0mil|YOffset=0mil|HoleType=Round|Shape=RoundedRectangle|*
%AMROUNDEDRECTD40*
21,1,0.02296,0.04764,0,0,270.0*
21,1,0.00748,0.06312,0,0,270.0*
1,1,0.01548,-0.02382,-0.00374*
1,1,0.01548,-0.02382,0.00374*
1,1,0.01548,0.02382,0.00374*
1,1,0.01548,0.02382,-0.00374*
%
%ADD40ROUNDEDRECTD40*%
%ADD41R,0.05131X0.07493*%
%ADD42R,0.40170X0.28359*%
%ADD43R,0.04343X0.03556*%
%ADD44R,0.12611X0.05367*%
%ADD45R,0.12611X0.08674*%
%ADD46R,0.20800X0.15800*%
%ADD47C,0.06706*%
%ADD48R,0.06706X0.06706*%
%ADD49R,0.10642X0.10642*%
%ADD50R,0.06706X0.06706*%
%ADD51C,0.06800*%
%ADD52O,0.08674X0.16548*%
%ADD53O,0.16548X0.08674*%
%ADD54O,0.09461X0.18123*%
%ADD55C,0.00394*%
%ADD56C,0.00500*%
D30*
X429055Y72953D02*
X428268D01*
X429055D01*
X428933Y143500D02*
X428146D01*
X428933D01*
X62992Y41339D02*
X62205D01*
X62992D01*
D55*
X431457Y85335D02*
X446457Y85295D01*
X431457Y60335D02*
Y85335D01*
Y60335D02*
X446457Y60374D01*
Y85295D02*
Y92520D01*
Y60374D02*
Y85295D01*
Y53150D02*
Y60374D01*
X483937D01*
Y85295D01*
X446457D02*
X483937D01*
X422831Y139484D02*
Y146571D01*
X409445Y139484D02*
Y146571D01*
Y139484D02*
X422831D01*
X409445Y146571D02*
X422831D01*
X423032Y69291D02*
Y76378D01*
X409646Y69291D02*
Y76378D01*
Y69291D02*
X423032D01*
X409646Y76378D02*
X423032D01*
X431335Y155882D02*
X446335Y155842D01*
X431335Y130882D02*
Y155882D01*
Y130882D02*
X446335Y130921D01*
Y155842D02*
Y163067D01*
Y130921D02*
Y155842D01*
Y123697D02*
Y130921D01*
X483815D01*
Y155842D01*
X446335D02*
X483815D01*
X383008Y124681D02*
Y131374D01*
X379268Y124681D02*
Y131374D01*
X383008D01*
X379268Y124681D02*
X383008D01*
X394Y59055D02*
X56693D01*
Y23622D02*
Y59055D01*
X394Y23622D02*
X56693D01*
X394D02*
Y59055D01*
X372331Y132984D02*
Y140071D01*
X358945Y132984D02*
Y140071D01*
Y132984D02*
X372331D01*
X358945Y140071D02*
X372331D01*
Y147984D02*
Y155071D01*
X358945Y147984D02*
Y155071D01*
Y147984D02*
X372331D01*
X358945Y155071D02*
X372331D01*
X373193Y66457D02*
Y73543D01*
X359807Y66457D02*
Y73543D01*
Y66457D02*
X373193D01*
X359807Y73543D02*
X373193D01*
Y78957D02*
Y86043D01*
X359807Y78957D02*
Y86043D01*
Y78957D02*
X373193D01*
X359807Y86043D02*
X373193D01*
X385728Y55709D02*
Y62402D01*
X381988Y55709D02*
Y62402D01*
X385728D01*
X381988Y55709D02*
X385728D01*
D56*
X445676Y89780D02*
X443276D01*
Y90979D01*
X443676Y91379D01*
X444476D01*
X444876Y90979D01*
Y89780D01*
X443676Y93778D02*
X443276Y93379D01*
Y92579D01*
X443676Y92179D01*
X445276D01*
X445676Y92579D01*
Y93379D01*
X445276Y93778D01*
X443276Y94578D02*
X445676D01*
Y95778D01*
X445276Y96178D01*
X444876D01*
X444476Y95778D01*
Y94578D01*
Y95778D01*
X444076Y96178D01*
X443676D01*
X443276Y95778D01*
Y94578D01*
Y100976D02*
Y99376D01*
X445676D01*
Y100976D01*
X444476Y99376D02*
Y100176D01*
X443276Y101776D02*
X445676D01*
Y102975D01*
X445276Y103375D01*
X443676D01*
X443276Y102975D01*
Y101776D01*
X443676Y105774D02*
X443276Y105375D01*
Y104575D01*
X443676Y104175D01*
X445276D01*
X445676Y104575D01*
Y105375D01*
X445276Y105774D01*
X444476D01*
Y104975D01*
X443276Y108174D02*
Y106574D01*
X445676D01*
Y108174D01*
X444476Y106574D02*
Y107374D01*
X445553Y160327D02*
X443154D01*
Y161527D01*
X443554Y161926D01*
X444354D01*
X444754Y161527D01*
Y160327D01*
X443554Y164326D02*
X443154Y163926D01*
Y163126D01*
X443554Y162726D01*
X445154D01*
X445553Y163126D01*
Y163926D01*
X445154Y164326D01*
X443154Y165125D02*
X445553D01*
Y166325D01*
X445154Y166725D01*
X444754D01*
X444354Y166325D01*
Y165125D01*
Y166325D01*
X443954Y166725D01*
X443554D01*
X443154Y166325D01*
Y165125D01*
Y171523D02*
Y169924D01*
X445553D01*
Y171523D01*
X444354Y169924D02*
Y170723D01*
X443154Y172323D02*
X445553D01*
Y173523D01*
X445154Y173923D01*
X443554D01*
X443154Y173523D01*
Y172323D01*
X443554Y176322D02*
X443154Y175922D01*
Y175122D01*
X443554Y174722D01*
X445154D01*
X445553Y175122D01*
Y175922D01*
X445154Y176322D01*
X444354D01*
Y175522D01*
X443154Y178721D02*
Y177121D01*
X445553D01*
Y178721D01*
X444354Y177121D02*
Y177921D01*
M02*
