%FSLAX25Y25*%
%MOIN*%
G70*
G01*
G75*
G04 Layer_Color=8388736*
%ADD10R,0.16535X0.05315*%
%ADD11R,0.14173X0.05000*%
G04:AMPARAMS|DCode=12|XSize=14.96mil|YSize=55.12mil|CornerRadius=3.74mil|HoleSize=0mil|Usage=FLASHONLY|Rotation=270.000|XOffset=0mil|YOffset=0mil|HoleType=Round|Shape=RoundedRectangle|*
%AMROUNDEDRECTD12*
21,1,0.01496,0.04764,0,0,270.0*
21,1,0.00748,0.05512,0,0,270.0*
1,1,0.00748,-0.02382,-0.00374*
1,1,0.00748,-0.02382,0.00374*
1,1,0.00748,0.02382,0.00374*
1,1,0.00748,0.02382,-0.00374*
%
%ADD12ROUNDEDRECTD12*%
%ADD13R,0.04331X0.06693*%
%ADD14R,0.39370X0.27559*%
%ADD15R,0.03543X0.02756*%
%ADD16R,0.11811X0.04567*%
%ADD17R,0.11811X0.07874*%
%ADD18R,0.20000X0.15000*%
%ADD19C,0.01000*%
%ADD20C,0.01969*%
%ADD21C,0.05906*%
%ADD22R,0.05906X0.05906*%
%ADD23R,0.09843X0.09843*%
%ADD24R,0.05906X0.05906*%
%ADD25C,0.06000*%
%ADD26O,0.07874X0.15748*%
%ADD27O,0.15748X0.07874*%
%ADD28O,0.08661X0.17323*%
%ADD29C,0.02000*%
%ADD30C,0.00787*%
%ADD31C,0.00900*%
%ADD32C,0.00591*%
%ADD33C,0.00200*%
%ADD34C,0.01500*%
%ADD35C,0.00700*%
%ADD36C,0.00500*%
%ADD37C,0.01181*%
%ADD38R,0.17335X0.06115*%
%ADD39R,0.14973X0.05800*%
G04:AMPARAMS|DCode=40|XSize=22.96mil|YSize=63.12mil|CornerRadius=7.74mil|HoleSize=0mil|Usage=FLASHONLY|Rotation=270.000|XOffset=0mil|YOffset=0mil|HoleType=Round|Shape=RoundedRectangle|*
%AMROUNDEDRECTD40*
21,1,0.02296,0.04764,0,0,270.0*
21,1,0.00748,0.06312,0,0,270.0*
1,1,0.01548,-0.02382,-0.00374*
1,1,0.01548,-0.02382,0.00374*
1,1,0.01548,0.02382,0.00374*
1,1,0.01548,0.02382,-0.00374*
%
%ADD40ROUNDEDRECTD40*%
%ADD41R,0.05131X0.07493*%
%ADD42R,0.40170X0.28359*%
%ADD43R,0.04343X0.03556*%
%ADD44R,0.12611X0.05367*%
%ADD45R,0.12611X0.08674*%
%ADD46R,0.20800X0.15800*%
%ADD47C,0.06706*%
%ADD48R,0.06706X0.06706*%
%ADD49R,0.10642X0.10642*%
%ADD50R,0.06706X0.06706*%
%ADD51C,0.06800*%
%ADD52O,0.08674X0.16548*%
%ADD53O,0.16548X0.08674*%
%ADD54O,0.09461X0.18123*%
D38*
X438189Y83957D02*
D03*
Y61713D02*
D03*
X438067Y154504D02*
D03*
Y132260D02*
D03*
D39*
X438976Y72835D02*
D03*
X438854Y143382D02*
D03*
D40*
X399996Y141748D02*
D03*
Y139189D02*
D03*
Y144307D02*
D03*
Y146866D02*
D03*
X382279Y139189D02*
D03*
Y141748D02*
D03*
Y146866D02*
D03*
Y144307D02*
D03*
X383858Y75098D02*
D03*
Y77658D02*
D03*
Y72539D02*
D03*
Y69980D02*
D03*
X401575Y77658D02*
D03*
Y75098D02*
D03*
Y69980D02*
D03*
Y72539D02*
D03*
D41*
X421453Y143027D02*
D03*
X410823D02*
D03*
X421654Y72835D02*
D03*
X411024D02*
D03*
X370953Y136528D02*
D03*
X360323D02*
D03*
X370953Y151528D02*
D03*
X360323D02*
D03*
X371815Y70000D02*
D03*
X361185D02*
D03*
X371815Y82500D02*
D03*
X361185D02*
D03*
D42*
X226500Y186500D02*
D03*
X104000Y29500D02*
D03*
D43*
X381138Y130980D02*
D03*
Y125075D02*
D03*
X383858Y62008D02*
D03*
Y56102D02*
D03*
D44*
X62992Y86614D02*
D03*
Y79921D02*
D03*
D45*
Y94882D02*
D03*
Y71260D02*
D03*
D46*
X139764Y96457D02*
D03*
Y26457D02*
D03*
X299764D02*
D03*
Y96457D02*
D03*
D47*
X71000Y41500D02*
D03*
X360000Y107500D02*
D03*
D48*
X71000Y31500D02*
D03*
D49*
X239000Y116500D02*
D03*
X214000D02*
D03*
X91500Y99500D02*
D03*
X116500D02*
D03*
D50*
X350000Y107500D02*
D03*
D51*
X14839Y14839D02*
D03*
Y201847D02*
D03*
X6417Y129685D02*
D03*
Y174567D02*
D03*
X191457D02*
D03*
Y129685D02*
D03*
X3937Y117126D02*
D03*
X13937D02*
D03*
X133937D02*
D03*
X143937D02*
D03*
X153937D02*
D03*
X163937D02*
D03*
X173937D02*
D03*
X183937D02*
D03*
X193937D02*
D03*
Y187126D02*
D03*
X183937D02*
D03*
X173937D02*
D03*
X163937D02*
D03*
X153937D02*
D03*
X143937D02*
D03*
X133937D02*
D03*
X123937D02*
D03*
X113937D02*
D03*
X103937D02*
D03*
X93937D02*
D03*
X83937D02*
D03*
X73937D02*
D03*
X63937D02*
D03*
X53937D02*
D03*
X43937D02*
D03*
X33937D02*
D03*
X23937D02*
D03*
X13937D02*
D03*
X3937D02*
D03*
X23937Y117126D02*
D03*
X33937D02*
D03*
X43937D02*
D03*
X53937D02*
D03*
X63937D02*
D03*
X73937D02*
D03*
X83937D02*
D03*
X93937D02*
D03*
X103937D02*
D03*
X113937D02*
D03*
X123937D02*
D03*
X369169Y14839D02*
D03*
Y201847D02*
D03*
D52*
X29528Y41339D02*
D03*
D53*
X42913Y22441D02*
D03*
D54*
X54331Y41339D02*
D03*
M02*
