%FSLAX25Y25*%
%MOIN*%
G70*
G01*
G75*
G04 Layer_Physical_Order=2*
G04 Layer_Color=16711680*
%ADD10R,0.16535X0.05315*%
%ADD11R,0.14173X0.05000*%
G04:AMPARAMS|DCode=12|XSize=14.96mil|YSize=55.12mil|CornerRadius=3.74mil|HoleSize=0mil|Usage=FLASHONLY|Rotation=270.000|XOffset=0mil|YOffset=0mil|HoleType=Round|Shape=RoundedRectangle|*
%AMROUNDEDRECTD12*
21,1,0.01496,0.04764,0,0,270.0*
21,1,0.00748,0.05512,0,0,270.0*
1,1,0.00748,-0.02382,-0.00374*
1,1,0.00748,-0.02382,0.00374*
1,1,0.00748,0.02382,0.00374*
1,1,0.00748,0.02382,-0.00374*
%
%ADD12ROUNDEDRECTD12*%
%ADD13R,0.04331X0.06693*%
%ADD14R,0.39370X0.27559*%
%ADD15R,0.03543X0.02756*%
%ADD16R,0.11811X0.04567*%
%ADD17R,0.11811X0.07874*%
%ADD18R,0.20000X0.15000*%
%ADD19C,0.01000*%
%ADD20C,0.01969*%
%ADD21C,0.05906*%
%ADD22R,0.05906X0.05906*%
%ADD23R,0.09843X0.09843*%
%ADD24R,0.05906X0.05906*%
%ADD25C,0.06000*%
%ADD26O,0.07874X0.15748*%
%ADD27O,0.15748X0.07874*%
%ADD28O,0.08661X0.17323*%
G36*
X428799Y153201D02*
Y150847D01*
X431153D01*
X439000Y143000D01*
Y135917D01*
X438567D01*
Y132260D01*
Y128602D01*
X439000D01*
Y87614D01*
X438689D01*
Y83957D01*
Y80299D01*
X439000D01*
Y73000D01*
X431370Y65370D01*
X428921D01*
Y62921D01*
X381000Y15000D01*
X380839Y14839D01*
X376306D01*
X376169Y16231D01*
X375763Y17570D01*
X375103Y18803D01*
X374216Y19885D01*
X373134Y20773D01*
X371900Y21432D01*
X370562Y21838D01*
X369169Y21975D01*
X367777Y21838D01*
X366438Y21432D01*
X365204Y20773D01*
X364123Y19885D01*
X363235Y18803D01*
X362576Y17570D01*
X362170Y16231D01*
X362033Y14839D01*
X21975D01*
X21838Y16231D01*
X21432Y17570D01*
X20773Y18803D01*
X19885Y19885D01*
X18803Y20773D01*
X17570Y21432D01*
X16231Y21838D01*
X14839Y21975D01*
Y62509D01*
X55137D01*
X55722Y62626D01*
X56218Y62957D01*
X56550Y63453D01*
X56666Y64039D01*
Y102424D01*
X56550Y103010D01*
X56218Y103506D01*
X55722Y103837D01*
X55137Y103954D01*
X14839D01*
Y113210D01*
X14981Y113229D01*
X15954Y113632D01*
X16790Y114273D01*
X17431Y115109D01*
X17834Y116082D01*
X17971Y117126D01*
X17834Y118170D01*
X17431Y119143D01*
X16790Y119979D01*
X15954Y120620D01*
X14981Y121023D01*
X14839Y121042D01*
Y183210D01*
X14981Y183229D01*
X15954Y183632D01*
X16790Y184273D01*
X17431Y185109D01*
X17834Y186082D01*
X17971Y187126D01*
X17834Y188170D01*
X17431Y189143D01*
X16790Y189979D01*
X15954Y190620D01*
X14981Y191023D01*
X14839Y191042D01*
Y194710D01*
X16231Y194847D01*
X17570Y195253D01*
X18803Y195913D01*
X19885Y196800D01*
X20773Y197881D01*
X21432Y199115D01*
X21838Y200454D01*
X21975Y201847D01*
X362033D01*
X362170Y200454D01*
X362576Y199115D01*
X363235Y197881D01*
X364123Y196800D01*
X365204Y195913D01*
X366438Y195253D01*
X367777Y194847D01*
X369169Y194710D01*
X370562Y194847D01*
X371900Y195253D01*
X373134Y195913D01*
X374216Y196800D01*
X375103Y197881D01*
X375763Y199115D01*
X376169Y200454D01*
X376306Y201847D01*
X380153D01*
X428799Y153201D01*
D02*
G37*
%LPC*%
G36*
X93937Y121160D02*
X92893Y121023D01*
X91920Y120620D01*
X91084Y119979D01*
X90443Y119143D01*
X90040Y118170D01*
X89903Y117126D01*
X90040Y116082D01*
X90443Y115109D01*
X91084Y114273D01*
X91920Y113632D01*
X92893Y113229D01*
X93937Y113092D01*
X94981Y113229D01*
X95954Y113632D01*
X96790Y114273D01*
X97431Y115109D01*
X97834Y116082D01*
X97971Y117126D01*
X97834Y118170D01*
X97431Y119143D01*
X96790Y119979D01*
X95954Y120620D01*
X94981Y121023D01*
X93937Y121160D01*
D02*
G37*
G36*
X83937D02*
X82893Y121023D01*
X81920Y120620D01*
X81084Y119979D01*
X80443Y119143D01*
X80040Y118170D01*
X79902Y117126D01*
X80040Y116082D01*
X80443Y115109D01*
X81084Y114273D01*
X81920Y113632D01*
X82893Y113229D01*
X83937Y113092D01*
X84981Y113229D01*
X85954Y113632D01*
X86790Y114273D01*
X87431Y115109D01*
X87834Y116082D01*
X87972Y117126D01*
X87834Y118170D01*
X87431Y119143D01*
X86790Y119979D01*
X85954Y120620D01*
X84981Y121023D01*
X83937Y121160D01*
D02*
G37*
G36*
X103937D02*
X102893Y121023D01*
X101920Y120620D01*
X101084Y119979D01*
X100443Y119143D01*
X100040Y118170D01*
X99902Y117126D01*
X100040Y116082D01*
X100443Y115109D01*
X101084Y114273D01*
X101920Y113632D01*
X102893Y113229D01*
X103937Y113092D01*
X104981Y113229D01*
X105954Y113632D01*
X106790Y114273D01*
X107431Y115109D01*
X107834Y116082D01*
X107972Y117126D01*
X107834Y118170D01*
X107431Y119143D01*
X106790Y119979D01*
X105954Y120620D01*
X104981Y121023D01*
X103937Y121160D01*
D02*
G37*
G36*
X133937D02*
X132893Y121023D01*
X131920Y120620D01*
X131084Y119979D01*
X130443Y119143D01*
X130040Y118170D01*
X129903Y117126D01*
X130040Y116082D01*
X130443Y115109D01*
X131084Y114273D01*
X131920Y113632D01*
X132893Y113229D01*
X133937Y113092D01*
X134981Y113229D01*
X135954Y113632D01*
X136790Y114273D01*
X137431Y115109D01*
X137834Y116082D01*
X137971Y117126D01*
X137834Y118170D01*
X137431Y119143D01*
X136790Y119979D01*
X135954Y120620D01*
X134981Y121023D01*
X133937Y121160D01*
D02*
G37*
G36*
X113937D02*
X112893Y121023D01*
X111920Y120620D01*
X111084Y119979D01*
X110443Y119143D01*
X110040Y118170D01*
X109903Y117126D01*
X110040Y116082D01*
X110443Y115109D01*
X111084Y114273D01*
X111920Y113632D01*
X112893Y113229D01*
X113937Y113092D01*
X114981Y113229D01*
X115954Y113632D01*
X116790Y114273D01*
X117431Y115109D01*
X117834Y116082D01*
X117972Y117126D01*
X117834Y118170D01*
X117431Y119143D01*
X116790Y119979D01*
X115954Y120620D01*
X114981Y121023D01*
X113937Y121160D01*
D02*
G37*
G36*
X63937D02*
X62893Y121023D01*
X61920Y120620D01*
X61084Y119979D01*
X60443Y119143D01*
X60040Y118170D01*
X59903Y117126D01*
X60040Y116082D01*
X60443Y115109D01*
X61084Y114273D01*
X61920Y113632D01*
X62893Y113229D01*
X63937Y113092D01*
X64981Y113229D01*
X65954Y113632D01*
X66790Y114273D01*
X67431Y115109D01*
X67834Y116082D01*
X67971Y117126D01*
X67834Y118170D01*
X67431Y119143D01*
X66790Y119979D01*
X65954Y120620D01*
X64981Y121023D01*
X63937Y121160D01*
D02*
G37*
G36*
X244921Y122421D02*
X233079D01*
Y110579D01*
X244921D01*
Y122421D01*
D02*
G37*
G36*
X219921D02*
X208079D01*
Y110579D01*
X219921D01*
Y122421D01*
D02*
G37*
G36*
X33937Y121160D02*
X32893Y121023D01*
X31920Y120620D01*
X31084Y119979D01*
X30443Y119143D01*
X30040Y118170D01*
X29902Y117126D01*
X30040Y116082D01*
X30443Y115109D01*
X31084Y114273D01*
X31920Y113632D01*
X32893Y113229D01*
X33937Y113092D01*
X34981Y113229D01*
X35954Y113632D01*
X36790Y114273D01*
X37431Y115109D01*
X37834Y116082D01*
X37971Y117126D01*
X37834Y118170D01*
X37431Y119143D01*
X36790Y119979D01*
X35954Y120620D01*
X34981Y121023D01*
X33937Y121160D01*
D02*
G37*
G36*
X53937D02*
X52893Y121023D01*
X51920Y120620D01*
X51084Y119979D01*
X50443Y119143D01*
X50040Y118170D01*
X49902Y117126D01*
X50040Y116082D01*
X50443Y115109D01*
X51084Y114273D01*
X51920Y113632D01*
X52893Y113229D01*
X53937Y113092D01*
X54981Y113229D01*
X55954Y113632D01*
X56790Y114273D01*
X57431Y115109D01*
X57834Y116082D01*
X57972Y117126D01*
X57834Y118170D01*
X57431Y119143D01*
X56790Y119979D01*
X55954Y120620D01*
X54981Y121023D01*
X53937Y121160D01*
D02*
G37*
G36*
X43937D02*
X42893Y121023D01*
X41920Y120620D01*
X41084Y119979D01*
X40443Y119143D01*
X40040Y118170D01*
X39902Y117126D01*
X40040Y116082D01*
X40443Y115109D01*
X41084Y114273D01*
X41920Y113632D01*
X42893Y113229D01*
X43937Y113092D01*
X44981Y113229D01*
X45954Y113632D01*
X46790Y114273D01*
X47431Y115109D01*
X47834Y116082D01*
X47971Y117126D01*
X47834Y118170D01*
X47431Y119143D01*
X46790Y119979D01*
X45954Y120620D01*
X44981Y121023D01*
X43937Y121160D01*
D02*
G37*
G36*
X73437Y116626D02*
X69968D01*
X70040Y116082D01*
X70443Y115109D01*
X71084Y114273D01*
X71920Y113632D01*
X72893Y113229D01*
X73437Y113157D01*
Y116626D01*
D02*
G37*
G36*
X27906D02*
X24437D01*
Y113157D01*
X24981Y113229D01*
X25954Y113632D01*
X26790Y114273D01*
X27431Y115109D01*
X27834Y116082D01*
X27906Y116626D01*
D02*
G37*
G36*
X77906D02*
X74437D01*
Y113157D01*
X74981Y113229D01*
X75954Y113632D01*
X76790Y114273D01*
X77431Y115109D01*
X77834Y116082D01*
X77906Y116626D01*
D02*
G37*
G36*
X127906D02*
X124437D01*
Y113157D01*
X124981Y113229D01*
X125954Y113632D01*
X126790Y114273D01*
X127431Y115109D01*
X127834Y116082D01*
X127906Y116626D01*
D02*
G37*
G36*
X123437D02*
X119968D01*
X120040Y116082D01*
X120443Y115109D01*
X121084Y114273D01*
X121920Y113632D01*
X122893Y113229D01*
X123437Y113157D01*
Y116626D01*
D02*
G37*
G36*
X23437D02*
X19968D01*
X20040Y116082D01*
X20443Y115109D01*
X21084Y114273D01*
X21920Y113632D01*
X22893Y113229D01*
X23437Y113157D01*
Y116626D01*
D02*
G37*
G36*
X153937Y121160D02*
X152893Y121023D01*
X151920Y120620D01*
X151084Y119979D01*
X150443Y119143D01*
X150040Y118170D01*
X149902Y117126D01*
X150040Y116082D01*
X150443Y115109D01*
X151084Y114273D01*
X151920Y113632D01*
X152893Y113229D01*
X153937Y113092D01*
X154981Y113229D01*
X155954Y113632D01*
X156790Y114273D01*
X157431Y115109D01*
X157834Y116082D01*
X157972Y117126D01*
X157834Y118170D01*
X157431Y119143D01*
X156790Y119979D01*
X155954Y120620D01*
X154981Y121023D01*
X153937Y121160D01*
D02*
G37*
G36*
X143937D02*
X142893Y121023D01*
X141920Y120620D01*
X141084Y119979D01*
X140443Y119143D01*
X140040Y118170D01*
X139902Y117126D01*
X140040Y116082D01*
X140443Y115109D01*
X141084Y114273D01*
X141920Y113632D01*
X142893Y113229D01*
X143937Y113092D01*
X144981Y113229D01*
X145954Y113632D01*
X146790Y114273D01*
X147431Y115109D01*
X147834Y116082D01*
X147971Y117126D01*
X147834Y118170D01*
X147431Y119143D01*
X146790Y119979D01*
X145954Y120620D01*
X144981Y121023D01*
X143937Y121160D01*
D02*
G37*
G36*
X163937D02*
X162893Y121023D01*
X161920Y120620D01*
X161084Y119979D01*
X160443Y119143D01*
X160040Y118170D01*
X159903Y117126D01*
X160040Y116082D01*
X160443Y115109D01*
X161084Y114273D01*
X161920Y113632D01*
X162893Y113229D01*
X163937Y113092D01*
X164981Y113229D01*
X165954Y113632D01*
X166790Y114273D01*
X167431Y115109D01*
X167834Y116082D01*
X167972Y117126D01*
X167834Y118170D01*
X167431Y119143D01*
X166790Y119979D01*
X165954Y120620D01*
X164981Y121023D01*
X163937Y121160D01*
D02*
G37*
G36*
X193937D02*
X192893Y121023D01*
X191920Y120620D01*
X191084Y119979D01*
X190443Y119143D01*
X190040Y118170D01*
X189902Y117126D01*
X190040Y116082D01*
X190443Y115109D01*
X191084Y114273D01*
X191920Y113632D01*
X192893Y113229D01*
X193937Y113092D01*
X194981Y113229D01*
X195954Y113632D01*
X196790Y114273D01*
X197431Y115109D01*
X197834Y116082D01*
X197971Y117126D01*
X197834Y118170D01*
X197431Y119143D01*
X196790Y119979D01*
X195954Y120620D01*
X194981Y121023D01*
X193937Y121160D01*
D02*
G37*
G36*
X183937D02*
X182893Y121023D01*
X181920Y120620D01*
X181084Y119979D01*
X180443Y119143D01*
X180040Y118170D01*
X179903Y117126D01*
X180040Y116082D01*
X180443Y115109D01*
X181084Y114273D01*
X181920Y113632D01*
X182893Y113229D01*
X183937Y113092D01*
X184981Y113229D01*
X185954Y113632D01*
X186790Y114273D01*
X187431Y115109D01*
X187834Y116082D01*
X187971Y117126D01*
X187834Y118170D01*
X187431Y119143D01*
X186790Y119979D01*
X185954Y120620D01*
X184981Y121023D01*
X183937Y121160D01*
D02*
G37*
G36*
X74953Y35453D02*
X71500D01*
Y32000D01*
X74953D01*
Y35453D01*
D02*
G37*
G36*
X70500D02*
X67047D01*
Y32000D01*
X70500D01*
Y35453D01*
D02*
G37*
G36*
X29028Y40839D02*
X24548D01*
Y37402D01*
X24718Y36113D01*
X25215Y34912D01*
X26006Y33880D01*
X27038Y33089D01*
X28239Y32592D01*
X29028Y32488D01*
Y40839D01*
D02*
G37*
G36*
X54331Y51046D02*
X52939Y50863D01*
X51642Y50326D01*
X50529Y49471D01*
X49674Y48358D01*
X49137Y47061D01*
X48954Y45669D01*
Y37008D01*
X49137Y35616D01*
X49674Y34319D01*
X50529Y33206D01*
X51642Y32351D01*
X52939Y31814D01*
X54331Y31631D01*
X55722Y31814D01*
X57019Y32351D01*
X58133Y33206D01*
X58987Y34319D01*
X59524Y35616D01*
X59707Y37008D01*
Y39316D01*
X67694D01*
X68181Y38681D01*
X69007Y38047D01*
X69968Y37649D01*
X71000Y37513D01*
X72032Y37649D01*
X72993Y38047D01*
X73819Y38681D01*
X74453Y39507D01*
X74851Y40468D01*
X74987Y41500D01*
X74851Y42532D01*
X74453Y43493D01*
X73819Y44319D01*
X72993Y44953D01*
X72032Y45351D01*
X71000Y45487D01*
X69968Y45351D01*
X69007Y44953D01*
X68181Y44319D01*
X67547Y43493D01*
X67493Y43362D01*
X59707D01*
Y45669D01*
X59524Y47061D01*
X58987Y48358D01*
X58133Y49471D01*
X57019Y50326D01*
X55722Y50863D01*
X54331Y51046D01*
D02*
G37*
G36*
X34507Y40839D02*
X30028D01*
Y32488D01*
X30816Y32592D01*
X32017Y33089D01*
X33049Y33880D01*
X33840Y34912D01*
X34337Y36113D01*
X34507Y37402D01*
Y40839D01*
D02*
G37*
G36*
X74953Y31000D02*
X71500D01*
Y27547D01*
X74953D01*
Y31000D01*
D02*
G37*
G36*
X51764Y21941D02*
X43413D01*
Y17461D01*
X46850D01*
X48139Y17631D01*
X49340Y18128D01*
X50371Y18920D01*
X51163Y19951D01*
X51660Y21152D01*
X51764Y21941D01*
D02*
G37*
G36*
X42413D02*
X34063D01*
X34166Y21152D01*
X34664Y19951D01*
X35455Y18920D01*
X36487Y18128D01*
X37688Y17631D01*
X38976Y17461D01*
X42413D01*
Y21941D01*
D02*
G37*
G36*
Y27421D02*
X38976D01*
X37688Y27251D01*
X36487Y26753D01*
X35455Y25962D01*
X34664Y24931D01*
X34166Y23730D01*
X34063Y22941D01*
X42413D01*
Y27421D01*
D02*
G37*
G36*
X70500Y31000D02*
X67047D01*
Y27547D01*
X70500D01*
Y31000D01*
D02*
G37*
G36*
X46850Y27421D02*
X43413D01*
Y22941D01*
X51764D01*
X51660Y23730D01*
X51163Y24931D01*
X50371Y25962D01*
X49340Y26753D01*
X48139Y27251D01*
X46850Y27421D01*
D02*
G37*
G36*
X359500Y107000D02*
X356079D01*
X356149Y106468D01*
X356547Y105507D01*
X357181Y104681D01*
X358007Y104047D01*
X358968Y103649D01*
X359500Y103579D01*
Y107000D01*
D02*
G37*
G36*
X353953Y111453D02*
X346047D01*
Y103547D01*
X353953D01*
Y111453D01*
D02*
G37*
G36*
X363921Y107000D02*
X360500D01*
Y103579D01*
X361032Y103649D01*
X361993Y104047D01*
X362819Y104681D01*
X363453Y105507D01*
X363851Y106468D01*
X363921Y107000D01*
D02*
G37*
G36*
X360500Y111421D02*
Y108000D01*
X363921D01*
X363851Y108532D01*
X363453Y109493D01*
X362819Y110319D01*
X361993Y110953D01*
X361032Y111351D01*
X360500Y111421D01*
D02*
G37*
G36*
X359500D02*
X358968Y111351D01*
X358007Y110953D01*
X357181Y110319D01*
X356547Y109493D01*
X356149Y108532D01*
X356079Y108000D01*
X359500D01*
Y111421D01*
D02*
G37*
G36*
X122421Y105421D02*
X110579D01*
Y93579D01*
X122421D01*
Y105421D01*
D02*
G37*
G36*
X30028Y50189D02*
Y41839D01*
X34507D01*
Y45276D01*
X34337Y46564D01*
X33840Y47765D01*
X33049Y48797D01*
X32017Y49588D01*
X30816Y50086D01*
X30028Y50189D01*
D02*
G37*
G36*
X29028D02*
X28239Y50086D01*
X27038Y49588D01*
X26006Y48797D01*
X25215Y47765D01*
X24718Y46564D01*
X24548Y45276D01*
Y41839D01*
X29028D01*
Y50189D01*
D02*
G37*
G36*
X437689Y83457D02*
X428921D01*
Y80299D01*
X437689D01*
Y83457D01*
D02*
G37*
G36*
X97421Y105421D02*
X85579D01*
Y93579D01*
X97421D01*
Y105421D01*
D02*
G37*
G36*
X437689Y87614D02*
X428921D01*
Y84457D01*
X437689D01*
Y87614D01*
D02*
G37*
G36*
X27906Y186626D02*
X24437D01*
Y183157D01*
X24981Y183229D01*
X25954Y183632D01*
X26790Y184273D01*
X27431Y185109D01*
X27834Y186082D01*
X27906Y186626D01*
D02*
G37*
G36*
X23437D02*
X19968D01*
X20040Y186082D01*
X20443Y185109D01*
X21084Y184273D01*
X21920Y183632D01*
X22893Y183229D01*
X23437Y183157D01*
Y186626D01*
D02*
G37*
G36*
X73437D02*
X69968D01*
X70040Y186082D01*
X70443Y185109D01*
X71084Y184273D01*
X71920Y183632D01*
X72893Y183229D01*
X73437Y183157D01*
Y186626D01*
D02*
G37*
G36*
X123437D02*
X119968D01*
X120040Y186082D01*
X120443Y185109D01*
X121084Y184273D01*
X121920Y183632D01*
X122893Y183229D01*
X123437Y183157D01*
Y186626D01*
D02*
G37*
G36*
X77906D02*
X74437D01*
Y183157D01*
X74981Y183229D01*
X75954Y183632D01*
X76790Y184273D01*
X77431Y185109D01*
X77834Y186082D01*
X77906Y186626D01*
D02*
G37*
G36*
X193937Y191161D02*
X192893Y191023D01*
X191920Y190620D01*
X191084Y189979D01*
X190443Y189143D01*
X190040Y188170D01*
X189902Y187126D01*
X190040Y186082D01*
X190443Y185109D01*
X191084Y184273D01*
X191920Y183632D01*
X192893Y183229D01*
X193937Y183091D01*
X194981Y183229D01*
X195954Y183632D01*
X196790Y184273D01*
X197431Y185109D01*
X197834Y186082D01*
X197971Y187126D01*
X197834Y188170D01*
X197431Y189143D01*
X196790Y189979D01*
X195954Y190620D01*
X194981Y191023D01*
X193937Y191161D01*
D02*
G37*
G36*
X143937D02*
X142893Y191023D01*
X141920Y190620D01*
X141084Y189979D01*
X140443Y189143D01*
X140040Y188170D01*
X139902Y187126D01*
X140040Y186082D01*
X140443Y185109D01*
X141084Y184273D01*
X141920Y183632D01*
X142893Y183229D01*
X143937Y183091D01*
X144981Y183229D01*
X145954Y183632D01*
X146790Y184273D01*
X147431Y185109D01*
X147834Y186082D01*
X147971Y187126D01*
X147834Y188170D01*
X147431Y189143D01*
X146790Y189979D01*
X145954Y190620D01*
X144981Y191023D01*
X143937Y191161D01*
D02*
G37*
G36*
X133937D02*
X132893Y191023D01*
X131920Y190620D01*
X131084Y189979D01*
X130443Y189143D01*
X130040Y188170D01*
X129903Y187126D01*
X130040Y186082D01*
X130443Y185109D01*
X131084Y184273D01*
X131920Y183632D01*
X132893Y183229D01*
X133937Y183091D01*
X134981Y183229D01*
X135954Y183632D01*
X136790Y184273D01*
X137431Y185109D01*
X137834Y186082D01*
X137971Y187126D01*
X137834Y188170D01*
X137431Y189143D01*
X136790Y189979D01*
X135954Y190620D01*
X134981Y191023D01*
X133937Y191161D01*
D02*
G37*
G36*
X153937D02*
X152893Y191023D01*
X151920Y190620D01*
X151084Y189979D01*
X150443Y189143D01*
X150040Y188170D01*
X149902Y187126D01*
X150040Y186082D01*
X150443Y185109D01*
X151084Y184273D01*
X151920Y183632D01*
X152893Y183229D01*
X153937Y183091D01*
X154981Y183229D01*
X155954Y183632D01*
X156790Y184273D01*
X157431Y185109D01*
X157834Y186082D01*
X157972Y187126D01*
X157834Y188170D01*
X157431Y189143D01*
X156790Y189979D01*
X155954Y190620D01*
X154981Y191023D01*
X153937Y191161D01*
D02*
G37*
G36*
X183937D02*
X182893Y191023D01*
X181920Y190620D01*
X181084Y189979D01*
X180443Y189143D01*
X180040Y188170D01*
X179903Y187126D01*
X180040Y186082D01*
X180443Y185109D01*
X181084Y184273D01*
X181920Y183632D01*
X182893Y183229D01*
X183937Y183091D01*
X184981Y183229D01*
X185954Y183632D01*
X186790Y184273D01*
X187431Y185109D01*
X187834Y186082D01*
X187971Y187126D01*
X187834Y188170D01*
X187431Y189143D01*
X186790Y189979D01*
X185954Y190620D01*
X184981Y191023D01*
X183937Y191161D01*
D02*
G37*
G36*
X163937D02*
X162893Y191023D01*
X161920Y190620D01*
X161084Y189979D01*
X160443Y189143D01*
X160040Y188170D01*
X159903Y187126D01*
X160040Y186082D01*
X160443Y185109D01*
X161084Y184273D01*
X161920Y183632D01*
X162893Y183229D01*
X163937Y183091D01*
X164981Y183229D01*
X165954Y183632D01*
X166790Y184273D01*
X167431Y185109D01*
X167834Y186082D01*
X167972Y187126D01*
X167834Y188170D01*
X167431Y189143D01*
X166790Y189979D01*
X165954Y190620D01*
X164981Y191023D01*
X163937Y191161D01*
D02*
G37*
G36*
X123437Y191095D02*
X122893Y191023D01*
X121920Y190620D01*
X121084Y189979D01*
X120443Y189143D01*
X120040Y188170D01*
X119968Y187626D01*
X123437D01*
Y191095D01*
D02*
G37*
G36*
X74437D02*
Y187626D01*
X77906D01*
X77834Y188170D01*
X77431Y189143D01*
X76790Y189979D01*
X75954Y190620D01*
X74981Y191023D01*
X74437Y191095D01*
D02*
G37*
G36*
X124437D02*
Y187626D01*
X127906D01*
X127834Y188170D01*
X127431Y189143D01*
X126790Y189979D01*
X125954Y190620D01*
X124981Y191023D01*
X124437Y191095D01*
D02*
G37*
G36*
X174437D02*
Y187626D01*
X177906D01*
X177834Y188170D01*
X177431Y189143D01*
X176790Y189979D01*
X175954Y190620D01*
X174981Y191023D01*
X174437Y191095D01*
D02*
G37*
G36*
X173437D02*
X172893Y191023D01*
X171920Y190620D01*
X171084Y189979D01*
X170443Y189143D01*
X170040Y188170D01*
X169968Y187626D01*
X173437D01*
Y191095D01*
D02*
G37*
G36*
X73437D02*
X72893Y191023D01*
X71920Y190620D01*
X71084Y189979D01*
X70443Y189143D01*
X70040Y188170D01*
X69968Y187626D01*
X73437D01*
Y191095D01*
D02*
G37*
G36*
X173437Y186626D02*
X169968D01*
X170040Y186082D01*
X170443Y185109D01*
X171084Y184273D01*
X171920Y183632D01*
X172893Y183229D01*
X173437Y183157D01*
Y186626D01*
D02*
G37*
G36*
X127906D02*
X124437D01*
Y183157D01*
X124981Y183229D01*
X125954Y183632D01*
X126790Y184273D01*
X127431Y185109D01*
X127834Y186082D01*
X127906Y186626D01*
D02*
G37*
G36*
X177906D02*
X174437D01*
Y183157D01*
X174981Y183229D01*
X175954Y183632D01*
X176790Y184273D01*
X177431Y185109D01*
X177834Y186082D01*
X177906Y186626D01*
D02*
G37*
G36*
X24437Y191095D02*
Y187626D01*
X27906D01*
X27834Y188170D01*
X27431Y189143D01*
X26790Y189979D01*
X25954Y190620D01*
X24981Y191023D01*
X24437Y191095D01*
D02*
G37*
G36*
X23437D02*
X22893Y191023D01*
X21920Y190620D01*
X21084Y189979D01*
X20443Y189143D01*
X20040Y188170D01*
X19968Y187626D01*
X23437D01*
Y191095D01*
D02*
G37*
G36*
X124437Y121095D02*
Y117626D01*
X127906D01*
X127834Y118170D01*
X127431Y119143D01*
X126790Y119979D01*
X125954Y120620D01*
X124981Y121023D01*
X124437Y121095D01*
D02*
G37*
G36*
X123437D02*
X122893Y121023D01*
X121920Y120620D01*
X121084Y119979D01*
X120443Y119143D01*
X120040Y118170D01*
X119968Y117626D01*
X123437D01*
Y121095D01*
D02*
G37*
G36*
X173437D02*
X172893Y121023D01*
X171920Y120620D01*
X171084Y119979D01*
X170443Y119143D01*
X170040Y118170D01*
X169968Y117626D01*
X173437D01*
Y121095D01*
D02*
G37*
G36*
X191457Y134863D02*
X190117Y134687D01*
X188868Y134169D01*
X187795Y133347D01*
X186972Y132274D01*
X186455Y131025D01*
X186278Y129685D01*
X186455Y128345D01*
X186972Y127096D01*
X187795Y126023D01*
X188868Y125201D01*
X190117Y124683D01*
X191457Y124507D01*
X192797Y124683D01*
X194046Y125201D01*
X195118Y126023D01*
X195941Y127096D01*
X196458Y128345D01*
X196635Y129685D01*
X196458Y131025D01*
X195941Y132274D01*
X195118Y133347D01*
X194046Y134169D01*
X192797Y134687D01*
X191457Y134863D01*
D02*
G37*
G36*
X174437Y121095D02*
Y117626D01*
X177906D01*
X177834Y118170D01*
X177431Y119143D01*
X176790Y119979D01*
X175954Y120620D01*
X174981Y121023D01*
X174437Y121095D01*
D02*
G37*
G36*
X74437D02*
Y117626D01*
X77906D01*
X77834Y118170D01*
X77431Y119143D01*
X76790Y119979D01*
X75954Y120620D01*
X74981Y121023D01*
X74437Y121095D01*
D02*
G37*
G36*
X177906Y116626D02*
X174437D01*
Y113157D01*
X174981Y113229D01*
X175954Y113632D01*
X176790Y114273D01*
X177431Y115109D01*
X177834Y116082D01*
X177906Y116626D01*
D02*
G37*
G36*
X173437D02*
X169968D01*
X170040Y116082D01*
X170443Y115109D01*
X171084Y114273D01*
X171920Y113632D01*
X172893Y113229D01*
X173437Y113157D01*
Y116626D01*
D02*
G37*
G36*
X23437Y121095D02*
X22893Y121023D01*
X21920Y120620D01*
X21084Y119979D01*
X20443Y119143D01*
X20040Y118170D01*
X19968Y117626D01*
X23437D01*
Y121095D01*
D02*
G37*
G36*
X73437D02*
X72893Y121023D01*
X71920Y120620D01*
X71084Y119979D01*
X70443Y119143D01*
X70040Y118170D01*
X69968Y117626D01*
X73437D01*
Y121095D01*
D02*
G37*
G36*
X24437D02*
Y117626D01*
X27906D01*
X27834Y118170D01*
X27431Y119143D01*
X26790Y119979D01*
X25954Y120620D01*
X24981Y121023D01*
X24437Y121095D01*
D02*
G37*
G36*
X83937Y191161D02*
X82893Y191023D01*
X81920Y190620D01*
X81084Y189979D01*
X80443Y189143D01*
X80040Y188170D01*
X79902Y187126D01*
X80040Y186082D01*
X80443Y185109D01*
X81084Y184273D01*
X81920Y183632D01*
X82893Y183229D01*
X83937Y183091D01*
X84981Y183229D01*
X85954Y183632D01*
X86790Y184273D01*
X87431Y185109D01*
X87834Y186082D01*
X87972Y187126D01*
X87834Y188170D01*
X87431Y189143D01*
X86790Y189979D01*
X85954Y190620D01*
X84981Y191023D01*
X83937Y191161D01*
D02*
G37*
G36*
X63937D02*
X62893Y191023D01*
X61920Y190620D01*
X61084Y189979D01*
X60443Y189143D01*
X60040Y188170D01*
X59903Y187126D01*
X60040Y186082D01*
X60443Y185109D01*
X61084Y184273D01*
X61920Y183632D01*
X62893Y183229D01*
X63937Y183091D01*
X64981Y183229D01*
X65954Y183632D01*
X66790Y184273D01*
X67431Y185109D01*
X67834Y186082D01*
X67971Y187126D01*
X67834Y188170D01*
X67431Y189143D01*
X66790Y189979D01*
X65954Y190620D01*
X64981Y191023D01*
X63937Y191161D01*
D02*
G37*
G36*
X93937D02*
X92893Y191023D01*
X91920Y190620D01*
X91084Y189979D01*
X90443Y189143D01*
X90040Y188170D01*
X89903Y187126D01*
X90040Y186082D01*
X90443Y185109D01*
X91084Y184273D01*
X91920Y183632D01*
X92893Y183229D01*
X93937Y183091D01*
X94981Y183229D01*
X95954Y183632D01*
X96790Y184273D01*
X97431Y185109D01*
X97834Y186082D01*
X97971Y187126D01*
X97834Y188170D01*
X97431Y189143D01*
X96790Y189979D01*
X95954Y190620D01*
X94981Y191023D01*
X93937Y191161D01*
D02*
G37*
G36*
X113937D02*
X112893Y191023D01*
X111920Y190620D01*
X111084Y189979D01*
X110443Y189143D01*
X110040Y188170D01*
X109903Y187126D01*
X110040Y186082D01*
X110443Y185109D01*
X111084Y184273D01*
X111920Y183632D01*
X112893Y183229D01*
X113937Y183091D01*
X114981Y183229D01*
X115954Y183632D01*
X116790Y184273D01*
X117431Y185109D01*
X117834Y186082D01*
X117972Y187126D01*
X117834Y188170D01*
X117431Y189143D01*
X116790Y189979D01*
X115954Y190620D01*
X114981Y191023D01*
X113937Y191161D01*
D02*
G37*
G36*
X103937D02*
X102893Y191023D01*
X101920Y190620D01*
X101084Y189979D01*
X100443Y189143D01*
X100040Y188170D01*
X99902Y187126D01*
X100040Y186082D01*
X100443Y185109D01*
X101084Y184273D01*
X101920Y183632D01*
X102893Y183229D01*
X103937Y183091D01*
X104981Y183229D01*
X105954Y183632D01*
X106790Y184273D01*
X107431Y185109D01*
X107834Y186082D01*
X107972Y187126D01*
X107834Y188170D01*
X107431Y189143D01*
X106790Y189979D01*
X105954Y190620D01*
X104981Y191023D01*
X103937Y191161D01*
D02*
G37*
G36*
X53937D02*
X52893Y191023D01*
X51920Y190620D01*
X51084Y189979D01*
X50443Y189143D01*
X50040Y188170D01*
X49902Y187126D01*
X50040Y186082D01*
X50443Y185109D01*
X51084Y184273D01*
X51920Y183632D01*
X52893Y183229D01*
X53937Y183091D01*
X54981Y183229D01*
X55954Y183632D01*
X56790Y184273D01*
X57431Y185109D01*
X57834Y186082D01*
X57972Y187126D01*
X57834Y188170D01*
X57431Y189143D01*
X56790Y189979D01*
X55954Y190620D01*
X54981Y191023D01*
X53937Y191161D01*
D02*
G37*
G36*
X437567Y135917D02*
X428799D01*
Y132760D01*
X437567D01*
Y135917D01*
D02*
G37*
G36*
Y131760D02*
X428799D01*
Y128602D01*
X437567D01*
Y131760D01*
D02*
G37*
G36*
X191457Y179745D02*
X190117Y179569D01*
X188868Y179051D01*
X187795Y178228D01*
X186972Y177156D01*
X186455Y175907D01*
X186278Y174567D01*
X186455Y173227D01*
X186972Y171978D01*
X187795Y170905D01*
X188868Y170082D01*
X190117Y169565D01*
X191457Y169389D01*
X192797Y169565D01*
X194046Y170082D01*
X195118Y170905D01*
X195941Y171978D01*
X196458Y173227D01*
X196635Y174567D01*
X196458Y175907D01*
X195941Y177156D01*
X195118Y178228D01*
X194046Y179051D01*
X192797Y179569D01*
X191457Y179745D01*
D02*
G37*
G36*
X43937Y191161D02*
X42893Y191023D01*
X41920Y190620D01*
X41084Y189979D01*
X40443Y189143D01*
X40040Y188170D01*
X39902Y187126D01*
X40040Y186082D01*
X40443Y185109D01*
X41084Y184273D01*
X41920Y183632D01*
X42893Y183229D01*
X43937Y183091D01*
X44981Y183229D01*
X45954Y183632D01*
X46790Y184273D01*
X47431Y185109D01*
X47834Y186082D01*
X47971Y187126D01*
X47834Y188170D01*
X47431Y189143D01*
X46790Y189979D01*
X45954Y190620D01*
X44981Y191023D01*
X43937Y191161D01*
D02*
G37*
G36*
X33937D02*
X32893Y191023D01*
X31920Y190620D01*
X31084Y189979D01*
X30443Y189143D01*
X30040Y188170D01*
X29902Y187126D01*
X30040Y186082D01*
X30443Y185109D01*
X31084Y184273D01*
X31920Y183632D01*
X32893Y183229D01*
X33937Y183091D01*
X34981Y183229D01*
X35954Y183632D01*
X36790Y184273D01*
X37431Y185109D01*
X37834Y186082D01*
X37971Y187126D01*
X37834Y188170D01*
X37431Y189143D01*
X36790Y189979D01*
X35954Y190620D01*
X34981Y191023D01*
X33937Y191161D01*
D02*
G37*
%LPD*%
D10*
X438189Y83957D02*
D03*
Y61713D02*
D03*
X438067Y154504D02*
D03*
Y132260D02*
D03*
D20*
X54331Y41339D02*
X70839D01*
D21*
X71000Y41500D02*
D03*
X360000Y107500D02*
D03*
D22*
X71000Y31500D02*
D03*
D23*
X239000Y116500D02*
D03*
X214000D02*
D03*
X91500Y99500D02*
D03*
X116500D02*
D03*
D24*
X350000Y107500D02*
D03*
D25*
X14839Y14839D02*
D03*
Y201847D02*
D03*
X6417Y129685D02*
D03*
Y174567D02*
D03*
X191457D02*
D03*
Y129685D02*
D03*
X3937Y117126D02*
D03*
X13937D02*
D03*
X133937D02*
D03*
X143937D02*
D03*
X153937D02*
D03*
X163937D02*
D03*
X173937D02*
D03*
X183937D02*
D03*
X193937D02*
D03*
Y187126D02*
D03*
X183937D02*
D03*
X173937D02*
D03*
X163937D02*
D03*
X153937D02*
D03*
X143937D02*
D03*
X133937D02*
D03*
X123937D02*
D03*
X113937D02*
D03*
X103937D02*
D03*
X93937D02*
D03*
X83937D02*
D03*
X73937D02*
D03*
X63937D02*
D03*
X53937D02*
D03*
X43937D02*
D03*
X33937D02*
D03*
X23937D02*
D03*
X13937D02*
D03*
X3937D02*
D03*
X23937Y117126D02*
D03*
X33937D02*
D03*
X43937D02*
D03*
X53937D02*
D03*
X63937D02*
D03*
X73937D02*
D03*
X83937D02*
D03*
X93937D02*
D03*
X103937D02*
D03*
X113937D02*
D03*
X123937D02*
D03*
X369169Y14839D02*
D03*
Y201847D02*
D03*
D26*
X29528Y41339D02*
D03*
D27*
X42913Y22441D02*
D03*
D28*
X54331Y41339D02*
D03*
M02*
