%FSLAX24Y24*%
%MOIN*%
G70*
G01*
G75*
G04 Layer_Physical_Order=1*
G04 Layer_Color=255*
G04:AMPARAMS|DCode=10|XSize=100mil|YSize=50mil|CornerRadius=12.5mil|HoleSize=0mil|Usage=FLASHONLY|Rotation=90.000|XOffset=0mil|YOffset=0mil|HoleType=Round|Shape=RoundedRectangle|*
%AMROUNDEDRECTD10*
21,1,0.1000,0.0250,0,0,90.0*
21,1,0.0750,0.0500,0,0,90.0*
1,1,0.0250,0.0125,0.0375*
1,1,0.0250,0.0125,-0.0375*
1,1,0.0250,-0.0125,-0.0375*
1,1,0.0250,-0.0125,0.0375*
%
%ADD10ROUNDEDRECTD10*%
%ADD11R,0.2000X0.1500*%
%ADD12R,0.1181X0.0457*%
%ADD13R,0.1181X0.0787*%
%ADD14R,0.3937X0.2756*%
%ADD15C,0.0197*%
%ADD16C,0.0100*%
%ADD17C,0.0200*%
%ADD18C,0.0100*%
%ADD19C,0.0200*%
%ADD20C,0.0591*%
%ADD21R,0.0591X0.0591*%
%ADD22O,0.0787X0.1575*%
%ADD23O,0.1575X0.0787*%
%ADD24O,0.0866X0.1732*%
%ADD25C,0.0600*%
%ADD26C,0.0787*%
G36*
X50481Y18562D02*
X50522Y18428D01*
X50588Y18304D01*
X50676Y18196D01*
X50785Y18107D01*
X50908Y18041D01*
X51042Y18001D01*
X51181Y17987D01*
X51320Y18001D01*
X51454Y18041D01*
X51578Y18107D01*
X51686Y18196D01*
X51686Y18196D01*
X54302Y15579D01*
X54290Y15522D01*
X54233Y15484D01*
X54202Y15480D01*
X52594Y17088D01*
X52545Y17121D01*
X52486Y17133D01*
X47730D01*
X47671Y17121D01*
X47622Y17088D01*
X46982Y16448D01*
X46949Y16399D01*
X46937Y16340D01*
Y7723D01*
X41667Y2453D01*
X38361D01*
X38344Y2503D01*
X38385Y2535D01*
X38449Y2618D01*
X38490Y2716D01*
X38503Y2820D01*
X38490Y2924D01*
X38449Y3022D01*
X38385Y3105D01*
X38302Y3169D01*
X38204Y3210D01*
X38100Y3223D01*
X37996Y3210D01*
X37898Y3169D01*
X37815Y3105D01*
X37751Y3022D01*
X37710Y2924D01*
X37697Y2820D01*
X37710Y2716D01*
X37751Y2618D01*
X37815Y2535D01*
X37856Y2503D01*
X37839Y2453D01*
X34841D01*
X34788Y2488D01*
X34710Y2504D01*
X34632Y2488D01*
X34566Y2444D01*
X34522Y2378D01*
X34506Y2300D01*
X34522Y2222D01*
X34566Y2156D01*
X34632Y2112D01*
X34710Y2096D01*
X34788Y2112D01*
X34841Y2147D01*
X37795D01*
X37808Y2097D01*
X37751Y2022D01*
X37710Y1924D01*
X37703Y1870D01*
X38497D01*
X38490Y1924D01*
X38449Y2022D01*
X38392Y2097D01*
X38405Y2147D01*
X41730D01*
X41789Y2159D01*
X41838Y2192D01*
X47198Y7552D01*
X47231Y7601D01*
X47243Y7660D01*
Y16277D01*
X47347Y16380D01*
X47407Y16370D01*
X47436Y16326D01*
X47502Y16282D01*
X47580Y16266D01*
X47658Y16282D01*
X47711Y16317D01*
X50312D01*
X50339Y16267D01*
X50326Y16200D01*
X50342Y16122D01*
X50377Y16069D01*
Y15547D01*
X50307Y15533D01*
X50233Y15484D01*
X50183Y15409D01*
X50166Y15321D01*
Y14571D01*
X50183Y14484D01*
X50233Y14409D01*
X50307Y14359D01*
X50395Y14342D01*
X50645D01*
X50733Y14359D01*
X50807Y14409D01*
X50857Y14484D01*
X50874Y14571D01*
Y15321D01*
X50857Y15409D01*
X50807Y15484D01*
X50733Y15533D01*
X50683Y15543D01*
Y16069D01*
X50718Y16122D01*
X50734Y16200D01*
X50721Y16267D01*
X50748Y16317D01*
X51537D01*
X51817Y16037D01*
Y14537D01*
X51767Y14510D01*
X51733Y14533D01*
X51645Y14551D01*
X51563D01*
Y15719D01*
X51598Y15772D01*
X51614Y15850D01*
X51598Y15928D01*
X51554Y15994D01*
X51488Y16038D01*
X51410Y16054D01*
X51332Y16038D01*
X51266Y15994D01*
X51222Y15928D01*
X51206Y15850D01*
X51222Y15772D01*
X51257Y15719D01*
Y14500D01*
X51233Y14484D01*
X51183Y14409D01*
X51166Y14321D01*
Y13571D01*
X51183Y13484D01*
X51233Y13409D01*
X51307Y13359D01*
X51395Y13342D01*
X51645D01*
X51733Y13359D01*
X51767Y13382D01*
X51817Y13356D01*
Y8520D01*
X51829Y8461D01*
X51862Y8412D01*
X53297Y6977D01*
Y5821D01*
X53262Y5768D01*
X53246Y5690D01*
X53262Y5612D01*
X53306Y5546D01*
X53372Y5502D01*
X53408Y5494D01*
X53403Y5444D01*
X53395D01*
X53307Y5427D01*
X53233Y5377D01*
X53183Y5303D01*
X53166Y5215D01*
Y4465D01*
X53183Y4377D01*
X53233Y4303D01*
X53307Y4253D01*
X53395Y4236D01*
X53645D01*
X53733Y4253D01*
X53807Y4303D01*
X53857Y4377D01*
X53874Y4465D01*
Y5215D01*
X53857Y5303D01*
X53807Y5377D01*
X53733Y5427D01*
X53645Y5444D01*
X53497D01*
X53492Y5494D01*
X53528Y5502D01*
X53594Y5546D01*
X53638Y5612D01*
X53654Y5690D01*
X53638Y5768D01*
X53603Y5821D01*
Y7040D01*
X53591Y7099D01*
X53558Y7148D01*
X52123Y8583D01*
Y14529D01*
X52173Y14534D01*
X52183Y14484D01*
X52233Y14409D01*
X52307Y14359D01*
X52395Y14342D01*
X52645D01*
X52733Y14359D01*
X52807Y14409D01*
X52857Y14484D01*
X52874Y14571D01*
Y15321D01*
X52857Y15409D01*
X52807Y15484D01*
X52733Y15533D01*
X52673Y15545D01*
Y16110D01*
X52663Y16159D01*
X52661Y16169D01*
X52628Y16218D01*
X52065Y16781D01*
X52085Y16827D01*
X52423D01*
X54166Y15084D01*
Y14571D01*
X54183Y14484D01*
X54233Y14409D01*
X54307Y14359D01*
X54395Y14342D01*
X54645D01*
X54733Y14359D01*
X54807Y14409D01*
X54857Y14484D01*
X54874Y14571D01*
Y14942D01*
X54921Y14961D01*
X55302Y14579D01*
X55290Y14522D01*
X55233Y14484D01*
X55183Y14409D01*
X55166Y14321D01*
Y13571D01*
X55183Y13484D01*
X55233Y13409D01*
X55307Y13359D01*
X55395Y13342D01*
X55550D01*
Y12198D01*
X55504Y12179D01*
X53874Y13808D01*
Y14321D01*
X53857Y14409D01*
X53807Y14484D01*
X53733Y14533D01*
X53645Y14551D01*
X53395D01*
X53307Y14533D01*
X53233Y14484D01*
X53183Y14409D01*
X53166Y14321D01*
Y13571D01*
X53183Y13484D01*
X53233Y13409D01*
X53307Y13359D01*
X53395Y13342D01*
X53645D01*
X53733Y13359D01*
X53807Y13409D01*
X53838Y13412D01*
X55550Y11700D01*
Y6540D01*
Y5444D01*
X55395D01*
X55307Y5427D01*
X55233Y5377D01*
X55183Y5303D01*
X55166Y5215D01*
Y4702D01*
X51987Y1523D01*
X38439D01*
X38415Y1573D01*
X38449Y1618D01*
X38490Y1716D01*
X38497Y1770D01*
X37703D01*
X37710Y1716D01*
X37751Y1618D01*
X37785Y1573D01*
X37761Y1523D01*
X34898D01*
X34884Y1544D01*
X34818Y1588D01*
X34740Y1604D01*
X34662Y1588D01*
X34596Y1544D01*
X34552Y1478D01*
X34536Y1400D01*
X34552Y1322D01*
X34596Y1256D01*
X34662Y1212D01*
X34740Y1196D01*
X34818Y1212D01*
X34826Y1217D01*
X37870D01*
X37895Y1172D01*
X37895Y1167D01*
X37815Y1105D01*
X37751Y1022D01*
X37710Y924D01*
X37697Y820D01*
X37710Y716D01*
X37751Y618D01*
X37808Y543D01*
X37795Y493D01*
X34851D01*
X34798Y528D01*
X34720Y544D01*
X34642Y528D01*
X34576Y484D01*
X34532Y418D01*
X34516Y340D01*
X34532Y262D01*
X34576Y196D01*
X34642Y152D01*
X34720Y136D01*
X34798Y152D01*
X34851Y187D01*
X37839D01*
X37856Y137D01*
X37815Y105D01*
X37751Y22D01*
X37742Y0D01*
X31562D01*
X31542Y46D01*
X32328Y832D01*
X32361Y881D01*
X32373Y940D01*
Y7580D01*
X32361Y7639D01*
X32328Y7688D01*
X31608Y8408D01*
X31559Y8441D01*
X31500Y8453D01*
X31361D01*
X31344Y8503D01*
X31385Y8535D01*
X31449Y8618D01*
X31490Y8716D01*
X31503Y8820D01*
X31490Y8924D01*
X31449Y9022D01*
X31385Y9105D01*
X31302Y9169D01*
X31204Y9210D01*
X31100Y9223D01*
X30996Y9210D01*
X30947Y9190D01*
X30418Y9718D01*
X30369Y9751D01*
X30310Y9763D01*
X26883D01*
X21401Y15177D01*
X21388Y15238D01*
X21344Y15304D01*
X21278Y15348D01*
X21200Y15364D01*
X21122Y15348D01*
X21056Y15304D01*
X21012Y15238D01*
X20996Y15160D01*
X21012Y15082D01*
X21056Y15016D01*
X21122Y14972D01*
X21186Y14959D01*
X26713Y9501D01*
X26737Y9485D01*
X26761Y9469D01*
X26762Y9469D01*
X26762Y9468D01*
X26791Y9463D01*
X26820Y9457D01*
X30247D01*
X30731Y8973D01*
X30710Y8924D01*
X30697Y8820D01*
X30710Y8716D01*
X30751Y8618D01*
X30815Y8535D01*
X30856Y8503D01*
X30839Y8453D01*
X30760D01*
X30701Y8441D01*
X30652Y8408D01*
X30016Y7772D01*
X29970Y7792D01*
Y8360D01*
X27770D01*
Y7623D01*
X27663D01*
X19550Y15736D01*
X19570Y15782D01*
X23458D01*
Y18701D01*
X26573D01*
X27985Y17289D01*
Y16715D01*
X28775D01*
Y17505D01*
X28201D01*
X27052Y18655D01*
X27071Y18701D01*
X29598D01*
Y16120D01*
X29613Y16043D01*
X29657Y15977D01*
X30710Y14924D01*
X30697Y14820D01*
X30710Y14716D01*
X30751Y14618D01*
X30815Y14535D01*
X30898Y14471D01*
X30996Y14430D01*
X31100Y14417D01*
X31204Y14430D01*
X31302Y14471D01*
X31385Y14535D01*
X31449Y14618D01*
X31490Y14716D01*
X31503Y14820D01*
X31490Y14924D01*
X31449Y15022D01*
X31385Y15105D01*
X31302Y15169D01*
X31204Y15210D01*
X31100Y15223D01*
X30996Y15210D01*
X30002Y16204D01*
Y18701D01*
X30716D01*
X30751Y18618D01*
X30815Y18535D01*
X30898Y18471D01*
X30996Y18430D01*
X31100Y18417D01*
X31204Y18430D01*
X31302Y18471D01*
X31385Y18535D01*
X31449Y18618D01*
X31484Y18701D01*
X37716D01*
X37751Y18618D01*
X37815Y18535D01*
X37898Y18471D01*
X37996Y18430D01*
X38100Y18417D01*
X38204Y18430D01*
X38302Y18471D01*
X38385Y18535D01*
X38449Y18618D01*
X38484Y18701D01*
X39683D01*
X45921Y12463D01*
X45926Y12456D01*
X45992Y12412D01*
X46070Y12396D01*
X46148Y12412D01*
X46214Y12456D01*
X46258Y12522D01*
X46274Y12600D01*
X46258Y12678D01*
X46214Y12744D01*
X46207Y12749D01*
X40302Y18655D01*
X40321Y18701D01*
X50467D01*
X50481Y18562D01*
D02*
G37*
G36*
X19322Y16030D02*
X19275Y16011D01*
X18349Y16937D01*
X18370Y16986D01*
X18383Y17090D01*
X18370Y17194D01*
X18329Y17292D01*
X18265Y17375D01*
X18182Y17439D01*
X18084Y17480D01*
X17980Y17493D01*
X17876Y17480D01*
X17778Y17439D01*
X17695Y17375D01*
X17631Y17292D01*
X17590Y17194D01*
X17577Y17090D01*
X17590Y16986D01*
X17631Y16888D01*
X17695Y16805D01*
X17714Y16790D01*
X17697Y16743D01*
X17543D01*
X17349Y16937D01*
X17370Y16986D01*
X17383Y17090D01*
X17370Y17194D01*
X17329Y17292D01*
X17265Y17375D01*
X17182Y17439D01*
X17084Y17480D01*
X16980Y17493D01*
X16876Y17480D01*
X16778Y17439D01*
X16695Y17375D01*
X16631Y17292D01*
X16590Y17194D01*
X16577Y17090D01*
X16590Y16986D01*
X16631Y16888D01*
X16695Y16805D01*
X16778Y16741D01*
X16876Y16700D01*
X16980Y16687D01*
X17084Y16700D01*
X17133Y16720D01*
X17372Y16482D01*
X17421Y16449D01*
X17480Y16437D01*
X17737D01*
X17780Y16393D01*
X17758Y16348D01*
X17732Y16352D01*
X17598Y16334D01*
X17473Y16283D01*
X17366Y16200D01*
X17284Y16093D01*
X17232Y15968D01*
X17214Y15834D01*
X17232Y15700D01*
X17284Y15575D01*
X17366Y15468D01*
X17473Y15386D01*
X17598Y15334D01*
X17732Y15316D01*
X17866Y15334D01*
X17991Y15386D01*
X18098Y15468D01*
X18180Y15575D01*
X18232Y15700D01*
X18250Y15834D01*
X18246Y15860D01*
X18291Y15883D01*
X21875Y12299D01*
X21855Y12253D01*
X20033D01*
X15350Y16937D01*
X15370Y16986D01*
X15383Y17090D01*
X15370Y17194D01*
X15329Y17292D01*
X15265Y17375D01*
X15182Y17439D01*
X15084Y17480D01*
X14980Y17493D01*
X14876Y17480D01*
X14778Y17439D01*
X14695Y17375D01*
X14631Y17292D01*
X14590Y17194D01*
X14577Y17090D01*
X14590Y16986D01*
X14631Y16888D01*
X14695Y16805D01*
X14778Y16741D01*
X14876Y16700D01*
X14980Y16687D01*
X15084Y16700D01*
X15133Y16720D01*
X19755Y12099D01*
X19735Y12053D01*
X19233D01*
X14349Y16937D01*
X14370Y16986D01*
X14383Y17090D01*
X14370Y17194D01*
X14329Y17292D01*
X14265Y17375D01*
X14182Y17439D01*
X14084Y17480D01*
X13980Y17493D01*
X13876Y17480D01*
X13778Y17439D01*
X13695Y17375D01*
X13631Y17292D01*
X13590Y17194D01*
X13577Y17090D01*
X13590Y16986D01*
X13631Y16888D01*
X13695Y16805D01*
X13778Y16741D01*
X13876Y16700D01*
X13980Y16687D01*
X14084Y16700D01*
X14133Y16720D01*
X18955Y11899D01*
X18935Y11853D01*
X18433D01*
X13349Y16937D01*
X13370Y16986D01*
X13383Y17090D01*
X13370Y17194D01*
X13329Y17292D01*
X13265Y17375D01*
X13182Y17439D01*
X13084Y17480D01*
X12980Y17493D01*
X12876Y17480D01*
X12778Y17439D01*
X12695Y17375D01*
X12631Y17292D01*
X12590Y17194D01*
X12577Y17090D01*
X12590Y16986D01*
X12631Y16888D01*
X12695Y16805D01*
X12778Y16741D01*
X12876Y16700D01*
X12980Y16687D01*
X13084Y16700D01*
X13133Y16720D01*
X18019Y11835D01*
X17991Y11794D01*
X17866Y11846D01*
X17732Y11864D01*
X17598Y11846D01*
X17473Y11794D01*
X17366Y11712D01*
X17284Y11605D01*
X17232Y11480D01*
X17214Y11346D01*
X17232Y11212D01*
X17284Y11087D01*
X17366Y10980D01*
X17473Y10897D01*
X17598Y10846D01*
X17732Y10828D01*
X17866Y10846D01*
X17991Y10897D01*
X18098Y10980D01*
X18180Y11087D01*
X18232Y11212D01*
X18250Y11346D01*
X18232Y11480D01*
X18180Y11605D01*
X18221Y11633D01*
X18262Y11592D01*
X18311Y11559D01*
X18370Y11547D01*
X22118D01*
X22983Y10682D01*
X22950Y10644D01*
X22889Y10691D01*
X22769Y10741D01*
X22640Y10758D01*
X22511Y10741D01*
X22391Y10691D01*
X22288Y10612D01*
X22209Y10509D01*
X22159Y10389D01*
X22142Y10260D01*
X22159Y10131D01*
X22209Y10011D01*
X22288Y9908D01*
X22391Y9829D01*
X22436Y9810D01*
Y7640D01*
X22452Y7562D01*
X22496Y7496D01*
X27770Y2222D01*
Y560D01*
X29970D01*
Y2260D01*
X28308D01*
X22844Y7724D01*
Y9810D01*
X22889Y9829D01*
X22992Y9908D01*
X23071Y10011D01*
X23121Y10131D01*
X23138Y10260D01*
X23121Y10389D01*
X23071Y10509D01*
X23024Y10570D01*
X23062Y10603D01*
X28953Y4712D01*
X29003Y4679D01*
X29061Y4667D01*
X30730D01*
X30751Y4618D01*
X30815Y4535D01*
X30898Y4471D01*
X30996Y4430D01*
X31100Y4417D01*
X31204Y4430D01*
X31302Y4471D01*
X31385Y4535D01*
X31417Y4576D01*
X31467Y4559D01*
Y4403D01*
X31253Y4189D01*
X31204Y4210D01*
X31100Y4223D01*
X30996Y4210D01*
X30898Y4169D01*
X30815Y4105D01*
X30751Y4022D01*
X30710Y3924D01*
X30697Y3820D01*
X30710Y3716D01*
X30751Y3618D01*
X30815Y3535D01*
X30898Y3471D01*
X30996Y3430D01*
X31100Y3417D01*
X31204Y3430D01*
X31302Y3471D01*
X31385Y3535D01*
X31449Y3618D01*
X31490Y3716D01*
X31503Y3820D01*
X31490Y3924D01*
X31470Y3973D01*
X31621Y4125D01*
X31667Y4105D01*
Y3603D01*
X31253Y3189D01*
X31204Y3210D01*
X31100Y3223D01*
X30996Y3210D01*
X30898Y3169D01*
X30815Y3105D01*
X30751Y3022D01*
X30710Y2924D01*
X30697Y2820D01*
X30710Y2716D01*
X30751Y2618D01*
X30815Y2535D01*
X30898Y2471D01*
X30996Y2430D01*
X31100Y2417D01*
X31204Y2430D01*
X31302Y2471D01*
X31385Y2535D01*
X31449Y2618D01*
X31490Y2716D01*
X31503Y2820D01*
X31490Y2924D01*
X31470Y2973D01*
X31821Y3325D01*
X31867Y3305D01*
Y1803D01*
X31253Y1190D01*
X31204Y1210D01*
X31100Y1223D01*
X30996Y1210D01*
X30898Y1169D01*
X30815Y1105D01*
X30751Y1022D01*
X30710Y924D01*
X30697Y820D01*
X30710Y716D01*
X30751Y618D01*
X30815Y535D01*
X30898Y471D01*
X30996Y430D01*
X31100Y417D01*
X31204Y430D01*
X31302Y471D01*
X31385Y535D01*
X31449Y618D01*
X31490Y716D01*
X31503Y820D01*
X31490Y924D01*
X31470Y973D01*
X32021Y1525D01*
X32067Y1505D01*
Y1003D01*
X31253Y190D01*
X31204Y210D01*
X31100Y223D01*
X30996Y210D01*
X30898Y169D01*
X30815Y105D01*
X30751Y22D01*
X30742Y0D01*
X714D01*
X700Y139D01*
X659Y273D01*
X593Y397D01*
X505Y505D01*
X397Y593D01*
X273Y659D01*
X139Y700D01*
X0Y714D01*
Y4767D01*
X4080D01*
X4139Y4779D01*
X4188Y4812D01*
X4221Y4861D01*
X4233Y4920D01*
Y5186D01*
X5026D01*
X5106Y5106D01*
Y2902D01*
X5028Y2842D01*
X4965Y2759D01*
X4925Y2663D01*
X4911Y2560D01*
X4925Y2457D01*
X4965Y2361D01*
X5028Y2278D01*
X5111Y2215D01*
X5207Y2175D01*
X5310Y2161D01*
X5413Y2175D01*
X5509Y2215D01*
X5592Y2278D01*
X5655Y2361D01*
X5695Y2457D01*
X5709Y2560D01*
X5695Y2663D01*
X5655Y2759D01*
X5592Y2842D01*
X5514Y2902D01*
Y5190D01*
X5511Y5205D01*
Y5476D01*
X5990D01*
X6068Y5492D01*
X6134Y5536D01*
X7624Y7026D01*
X7668Y7092D01*
X7684Y7170D01*
Y8520D01*
X7729Y8539D01*
X7832Y8618D01*
X7911Y8721D01*
X7961Y8841D01*
X7978Y8970D01*
X7961Y9099D01*
X7911Y9219D01*
X7832Y9322D01*
X7810Y9339D01*
X7827Y9386D01*
X9633D01*
X9650Y9339D01*
X9628Y9322D01*
X9549Y9219D01*
X9499Y9099D01*
X9482Y8970D01*
X9499Y8841D01*
X9549Y8721D01*
X9628Y8618D01*
X9731Y8539D01*
X9776Y8520D01*
Y6720D01*
X9792Y6642D01*
X9836Y6576D01*
X12666Y3746D01*
Y2260D01*
X11770D01*
Y560D01*
X13970D01*
Y2260D01*
X13074D01*
Y3830D01*
X13058Y3908D01*
X13014Y3974D01*
X10184Y6804D01*
Y8520D01*
X10229Y8539D01*
X10332Y8618D01*
X10411Y8721D01*
X10461Y8841D01*
X10478Y8970D01*
X10461Y9099D01*
X10411Y9219D01*
X10332Y9322D01*
X10310Y9339D01*
X10327Y9386D01*
X19470D01*
X19548Y9402D01*
X19614Y9446D01*
X19966Y9798D01*
X20011Y9779D01*
X20140Y9762D01*
X20269Y9779D01*
X20389Y9829D01*
X20492Y9908D01*
X20571Y10011D01*
X20621Y10131D01*
X20638Y10260D01*
X20621Y10389D01*
X20571Y10509D01*
X20492Y10612D01*
X20389Y10691D01*
X20269Y10741D01*
X20140Y10758D01*
X20011Y10741D01*
X19891Y10691D01*
X19788Y10612D01*
X19709Y10509D01*
X19659Y10389D01*
X19642Y10260D01*
X19659Y10131D01*
X19678Y10086D01*
X19386Y9794D01*
X18320D01*
X18295Y9844D01*
X18329Y9888D01*
X18370Y9986D01*
X18383Y10090D01*
X18370Y10194D01*
X18329Y10292D01*
X18265Y10375D01*
X18182Y10439D01*
X18084Y10480D01*
X17980Y10493D01*
X17876Y10480D01*
X17778Y10439D01*
X17695Y10375D01*
X17631Y10292D01*
X17590Y10194D01*
X17577Y10090D01*
X17590Y9986D01*
X17631Y9888D01*
X17665Y9844D01*
X17640Y9794D01*
X17320D01*
X17295Y9844D01*
X17329Y9888D01*
X17370Y9986D01*
X17383Y10090D01*
X17370Y10194D01*
X17329Y10292D01*
X17265Y10375D01*
X17182Y10439D01*
X17084Y10480D01*
X16980Y10493D01*
X16876Y10480D01*
X16778Y10439D01*
X16695Y10375D01*
X16631Y10292D01*
X16590Y10194D01*
X16577Y10090D01*
X16590Y9986D01*
X16631Y9888D01*
X16665Y9844D01*
X16640Y9794D01*
X16320D01*
X16295Y9844D01*
X16329Y9888D01*
X16370Y9986D01*
X16377Y10040D01*
X15583D01*
X15590Y9986D01*
X15631Y9888D01*
X15665Y9844D01*
X15640Y9794D01*
X15320D01*
X15295Y9844D01*
X15329Y9888D01*
X15370Y9986D01*
X15383Y10090D01*
X15370Y10194D01*
X15329Y10292D01*
X15265Y10375D01*
X15182Y10439D01*
X15084Y10480D01*
X14980Y10493D01*
X14876Y10480D01*
X14778Y10439D01*
X14695Y10375D01*
X14631Y10292D01*
X14590Y10194D01*
X14577Y10090D01*
X14590Y9986D01*
X14631Y9888D01*
X14665Y9844D01*
X14640Y9794D01*
X14320D01*
X14295Y9844D01*
X14329Y9888D01*
X14370Y9986D01*
X14383Y10090D01*
X14370Y10194D01*
X14329Y10292D01*
X14265Y10375D01*
X14182Y10439D01*
X14084Y10480D01*
X13980Y10493D01*
X13876Y10480D01*
X13778Y10439D01*
X13695Y10375D01*
X13631Y10292D01*
X13590Y10194D01*
X13577Y10090D01*
X13590Y9986D01*
X13631Y9888D01*
X13665Y9844D01*
X13640Y9794D01*
X13320D01*
X13295Y9844D01*
X13329Y9888D01*
X13370Y9986D01*
X13383Y10090D01*
X13370Y10194D01*
X13329Y10292D01*
X13265Y10375D01*
X13182Y10439D01*
X13084Y10480D01*
X12980Y10493D01*
X12876Y10480D01*
X12778Y10439D01*
X12695Y10375D01*
X12631Y10292D01*
X12590Y10194D01*
X12577Y10090D01*
X12590Y9986D01*
X12631Y9888D01*
X12665Y9844D01*
X12640Y9794D01*
X12320D01*
X12295Y9844D01*
X12329Y9888D01*
X12370Y9986D01*
X12383Y10090D01*
X12370Y10194D01*
X12329Y10292D01*
X12265Y10375D01*
X12182Y10439D01*
X12084Y10480D01*
X11980Y10493D01*
X11876Y10480D01*
X11778Y10439D01*
X11695Y10375D01*
X11631Y10292D01*
X11590Y10194D01*
X11577Y10090D01*
X11590Y9986D01*
X11631Y9888D01*
X11665Y9844D01*
X11640Y9794D01*
X11320D01*
X11295Y9844D01*
X11329Y9888D01*
X11370Y9986D01*
X11377Y10040D01*
X10583D01*
X10590Y9986D01*
X10631Y9888D01*
X10665Y9844D01*
X10640Y9794D01*
X10320D01*
X10295Y9844D01*
X10329Y9888D01*
X10370Y9986D01*
X10383Y10090D01*
X10370Y10194D01*
X10329Y10292D01*
X10265Y10375D01*
X10182Y10439D01*
X10084Y10480D01*
X9980Y10493D01*
X9876Y10480D01*
X9778Y10439D01*
X9695Y10375D01*
X9631Y10292D01*
X9590Y10194D01*
X9577Y10090D01*
X9590Y9986D01*
X9631Y9888D01*
X9665Y9844D01*
X9640Y9794D01*
X9320D01*
X9295Y9844D01*
X9329Y9888D01*
X9370Y9986D01*
X9383Y10090D01*
X9370Y10194D01*
X9329Y10292D01*
X9265Y10375D01*
X9182Y10439D01*
X9084Y10480D01*
X8980Y10493D01*
X8876Y10480D01*
X8778Y10439D01*
X8695Y10375D01*
X8631Y10292D01*
X8590Y10194D01*
X8577Y10090D01*
X8590Y9986D01*
X8631Y9888D01*
X8665Y9844D01*
X8640Y9794D01*
X8320D01*
X8295Y9844D01*
X8329Y9888D01*
X8370Y9986D01*
X8383Y10090D01*
X8370Y10194D01*
X8329Y10292D01*
X8265Y10375D01*
X8182Y10439D01*
X8084Y10480D01*
X7980Y10493D01*
X7876Y10480D01*
X7778Y10439D01*
X7695Y10375D01*
X7631Y10292D01*
X7590Y10194D01*
X7577Y10090D01*
X7590Y9986D01*
X7631Y9888D01*
X7665Y9844D01*
X7640Y9794D01*
X7320D01*
X7295Y9844D01*
X7329Y9888D01*
X7370Y9986D01*
X7383Y10090D01*
X7370Y10194D01*
X7329Y10292D01*
X7265Y10375D01*
X7182Y10439D01*
X7084Y10480D01*
X6980Y10493D01*
X6876Y10480D01*
X6778Y10439D01*
X6695Y10375D01*
X6631Y10292D01*
X6590Y10194D01*
X6577Y10090D01*
X6590Y9986D01*
X6631Y9888D01*
X6665Y9844D01*
X6640Y9794D01*
X6320D01*
X6295Y9844D01*
X6329Y9888D01*
X6370Y9986D01*
X6377Y10040D01*
X5583D01*
X5590Y9986D01*
X5631Y9888D01*
X5665Y9844D01*
X5640Y9794D01*
X5320D01*
X5295Y9844D01*
X5329Y9888D01*
X5370Y9986D01*
X5383Y10090D01*
X5370Y10194D01*
X5329Y10292D01*
X5265Y10375D01*
X5182Y10439D01*
X5084Y10480D01*
X4980Y10493D01*
X4876Y10480D01*
X4778Y10439D01*
X4695Y10375D01*
X4631Y10292D01*
X4590Y10194D01*
X4577Y10090D01*
X4590Y9986D01*
X4631Y9888D01*
X4665Y9844D01*
X4640Y9794D01*
X4320D01*
X4295Y9844D01*
X4329Y9888D01*
X4370Y9986D01*
X4383Y10090D01*
X4370Y10194D01*
X4329Y10292D01*
X4265Y10375D01*
X4182Y10439D01*
X4084Y10480D01*
X3980Y10493D01*
X3876Y10480D01*
X3778Y10439D01*
X3695Y10375D01*
X3631Y10292D01*
X3590Y10194D01*
X3577Y10090D01*
X3590Y9986D01*
X3631Y9888D01*
X3665Y9844D01*
X3640Y9794D01*
X3320D01*
X3295Y9844D01*
X3329Y9888D01*
X3370Y9986D01*
X3383Y10090D01*
X3370Y10194D01*
X3329Y10292D01*
X3265Y10375D01*
X3182Y10439D01*
X3084Y10480D01*
X2980Y10493D01*
X2876Y10480D01*
X2778Y10439D01*
X2695Y10375D01*
X2631Y10292D01*
X2590Y10194D01*
X2577Y10090D01*
X2590Y9986D01*
X2631Y9888D01*
X2665Y9844D01*
X2640Y9794D01*
X2320D01*
X2295Y9844D01*
X2329Y9888D01*
X2370Y9986D01*
X2383Y10090D01*
X2370Y10194D01*
X2329Y10292D01*
X2265Y10375D01*
X2182Y10439D01*
X2084Y10480D01*
X1980Y10493D01*
X1876Y10480D01*
X1778Y10439D01*
X1695Y10375D01*
X1631Y10292D01*
X1590Y10194D01*
X1577Y10090D01*
X1590Y9986D01*
X1631Y9888D01*
X1665Y9844D01*
X1640Y9794D01*
X1320D01*
X1295Y9844D01*
X1329Y9888D01*
X1370Y9986D01*
X1377Y10040D01*
X980D01*
Y10090D01*
X930D01*
Y10487D01*
X876Y10480D01*
X778Y10439D01*
X734Y10405D01*
X684Y10430D01*
Y16590D01*
X668Y16668D01*
X624Y16734D01*
X370Y16988D01*
X383Y17090D01*
X370Y17194D01*
X329Y17292D01*
X265Y17375D01*
X182Y17439D01*
X84Y17480D01*
X0Y17491D01*
Y17987D01*
X139Y18001D01*
X273Y18041D01*
X397Y18107D01*
X505Y18196D01*
X593Y18304D01*
X659Y18428D01*
X700Y18562D01*
X714Y18701D01*
X4239D01*
X4258Y18655D01*
X3084Y17480D01*
X2980Y17493D01*
X2876Y17480D01*
X2778Y17439D01*
X2695Y17375D01*
X2631Y17292D01*
X2590Y17194D01*
X2577Y17090D01*
X2590Y16986D01*
X2631Y16888D01*
X2695Y16805D01*
X2778Y16741D01*
X2876Y16700D01*
X2980Y16687D01*
X3084Y16700D01*
X3182Y16741D01*
X3265Y16805D01*
X3329Y16888D01*
X3370Y16986D01*
X3383Y17090D01*
X3370Y17194D01*
X4877Y18701D01*
X13309D01*
X13328Y18655D01*
X12133Y17459D01*
X12084Y17480D01*
X11980Y17493D01*
X11876Y17480D01*
X11778Y17439D01*
X11695Y17375D01*
X11631Y17292D01*
X11590Y17194D01*
X11577Y17090D01*
X11590Y16986D01*
X11631Y16888D01*
X11695Y16805D01*
X11778Y16741D01*
X11876Y16700D01*
X11980Y16687D01*
X12084Y16700D01*
X12182Y16741D01*
X12265Y16805D01*
X12329Y16888D01*
X12370Y16986D01*
X12383Y17090D01*
X12370Y17194D01*
X12349Y17243D01*
X13807Y18701D01*
X19322D01*
Y16030D01*
D02*
G37*
G36*
X30785Y7067D02*
X30751Y7022D01*
X30710Y6924D01*
X30703Y6870D01*
X31100D01*
Y6770D01*
X30703D01*
X30710Y6716D01*
X30751Y6618D01*
X30815Y6535D01*
X30895Y6473D01*
X30895Y6468D01*
X30870Y6423D01*
X28241D01*
X27593Y7071D01*
X27612Y7117D01*
X30761D01*
X30785Y7067D01*
D02*
G37*
G36*
X276Y9750D02*
Y9740D01*
X292Y9662D01*
X336Y9596D01*
X486Y9446D01*
X552Y9402D01*
X630Y9386D01*
X7133D01*
X7150Y9339D01*
X7128Y9322D01*
X7049Y9219D01*
X6999Y9099D01*
X6982Y8970D01*
X6999Y8841D01*
X7049Y8721D01*
X7128Y8618D01*
X7231Y8539D01*
X7276Y8520D01*
Y7254D01*
X5905Y5884D01*
X5511D01*
Y6174D01*
X5511D01*
Y6218D01*
X5511D01*
Y6874D01*
X5511D01*
Y6887D01*
X5511D01*
Y7544D01*
X5511D01*
Y7548D01*
X5511D01*
Y7992D01*
X4821D01*
Y8042D01*
X4771D01*
Y8536D01*
X4233D01*
Y8759D01*
X4221Y8817D01*
X4188Y8867D01*
X4139Y8900D01*
X4080Y8912D01*
X0D01*
Y9689D01*
X84Y9700D01*
X182Y9741D01*
X226Y9775D01*
X276Y9750D01*
D02*
G37*
%LPC*%
G36*
X5511Y8536D02*
X4871D01*
Y8092D01*
X5511D01*
Y8536D01*
D02*
G37*
G36*
X13970Y8360D02*
X12920D01*
Y7560D01*
X13970D01*
Y8360D01*
D02*
G37*
G36*
Y9260D02*
X12920D01*
Y8460D01*
X13970D01*
Y9260D01*
D02*
G37*
G36*
X28820D02*
X27770D01*
Y8460D01*
X28820D01*
Y9260D01*
D02*
G37*
G36*
X38100Y9223D02*
X37996Y9210D01*
X37898Y9169D01*
X37815Y9105D01*
X37751Y9022D01*
X37710Y8924D01*
X37697Y8820D01*
X37710Y8716D01*
X37751Y8618D01*
X37815Y8535D01*
X37898Y8471D01*
X37996Y8430D01*
X38100Y8417D01*
X38204Y8430D01*
X38302Y8471D01*
X38385Y8535D01*
X38449Y8618D01*
X38490Y8716D01*
X38503Y8820D01*
X38490Y8924D01*
X38449Y9022D01*
X38385Y9105D01*
X38302Y9169D01*
X38204Y9210D01*
X38100Y9223D01*
D02*
G37*
G36*
X12820Y9260D02*
X11770D01*
Y8460D01*
X12820D01*
Y9260D01*
D02*
G37*
G36*
X38050Y7217D02*
X37996Y7210D01*
X37898Y7169D01*
X37815Y7105D01*
X37751Y7022D01*
X37710Y6924D01*
X37703Y6870D01*
X38050D01*
Y7217D01*
D02*
G37*
G36*
X38497Y6770D02*
X38150D01*
Y6423D01*
X38204Y6430D01*
X38302Y6471D01*
X38385Y6535D01*
X38449Y6618D01*
X38490Y6716D01*
X38497Y6770D01*
D02*
G37*
G36*
X38050D02*
X37703D01*
X37710Y6716D01*
X37751Y6618D01*
X37815Y6535D01*
X37898Y6471D01*
X37996Y6430D01*
X38050Y6423D01*
Y6770D01*
D02*
G37*
G36*
X12820Y8360D02*
X11770D01*
Y7560D01*
X12820D01*
Y8360D01*
D02*
G37*
G36*
X38100Y8223D02*
X37996Y8210D01*
X37898Y8169D01*
X37815Y8105D01*
X37751Y8022D01*
X37710Y7924D01*
X37697Y7820D01*
X37710Y7716D01*
X37751Y7618D01*
X37815Y7535D01*
X37898Y7471D01*
X37996Y7430D01*
X38100Y7417D01*
X38204Y7430D01*
X38302Y7471D01*
X38385Y7535D01*
X38449Y7618D01*
X38490Y7716D01*
X38503Y7820D01*
X38490Y7924D01*
X38449Y8022D01*
X38385Y8105D01*
X38302Y8169D01*
X38204Y8210D01*
X38100Y8223D01*
D02*
G37*
G36*
X38150Y7217D02*
Y6870D01*
X38497D01*
X38490Y6924D01*
X38449Y7022D01*
X38385Y7105D01*
X38302Y7169D01*
X38204Y7210D01*
X38150Y7217D01*
D02*
G37*
G36*
X29970Y9260D02*
X28920D01*
Y8460D01*
X29970D01*
Y9260D01*
D02*
G37*
G36*
X16030Y10487D02*
Y10140D01*
X16377D01*
X16370Y10194D01*
X16329Y10292D01*
X16265Y10375D01*
X16182Y10439D01*
X16084Y10480D01*
X16030Y10487D01*
D02*
G37*
G36*
X15930D02*
X15876Y10480D01*
X15778Y10439D01*
X15695Y10375D01*
X15631Y10292D01*
X15590Y10194D01*
X15583Y10140D01*
X15930D01*
Y10487D01*
D02*
G37*
G36*
X11030D02*
Y10140D01*
X11377D01*
X11370Y10194D01*
X11329Y10292D01*
X11265Y10375D01*
X11182Y10439D01*
X11084Y10480D01*
X11030Y10487D01*
D02*
G37*
G36*
X31100Y11223D02*
X30996Y11210D01*
X30898Y11169D01*
X30815Y11105D01*
X30751Y11022D01*
X30710Y10924D01*
X30697Y10820D01*
X30710Y10716D01*
X30751Y10618D01*
X30815Y10535D01*
X30898Y10471D01*
X30996Y10430D01*
X31100Y10417D01*
X31204Y10430D01*
X31302Y10471D01*
X31385Y10535D01*
X31449Y10618D01*
X31490Y10716D01*
X31503Y10820D01*
X31490Y10924D01*
X31449Y11022D01*
X31385Y11105D01*
X31302Y11169D01*
X31204Y11210D01*
X31100Y11223D01*
D02*
G37*
G36*
X31497Y11770D02*
X31150D01*
Y11423D01*
X31204Y11430D01*
X31302Y11471D01*
X31385Y11535D01*
X31449Y11618D01*
X31490Y11716D01*
X31497Y11770D01*
D02*
G37*
G36*
X31050D02*
X30703D01*
X30710Y11716D01*
X30751Y11618D01*
X30815Y11535D01*
X30898Y11471D01*
X30996Y11430D01*
X31050Y11423D01*
Y11770D01*
D02*
G37*
G36*
X38100Y11223D02*
X37996Y11210D01*
X37898Y11169D01*
X37815Y11105D01*
X37751Y11022D01*
X37710Y10924D01*
X37697Y10820D01*
X37710Y10716D01*
X37751Y10618D01*
X37815Y10535D01*
X37898Y10471D01*
X37996Y10430D01*
X38100Y10417D01*
X38204Y10430D01*
X38302Y10471D01*
X38385Y10535D01*
X38449Y10618D01*
X38490Y10716D01*
X38503Y10820D01*
X38490Y10924D01*
X38449Y11022D01*
X38385Y11105D01*
X38302Y11169D01*
X38204Y11210D01*
X38100Y11223D01*
D02*
G37*
G36*
Y10223D02*
X37996Y10210D01*
X37898Y10169D01*
X37815Y10105D01*
X37751Y10022D01*
X37710Y9924D01*
X37697Y9820D01*
X37710Y9716D01*
X37751Y9618D01*
X37815Y9535D01*
X37898Y9471D01*
X37996Y9430D01*
X38100Y9417D01*
X38204Y9430D01*
X38302Y9471D01*
X38385Y9535D01*
X38449Y9618D01*
X38490Y9716D01*
X38503Y9820D01*
X38490Y9924D01*
X38449Y10022D01*
X38385Y10105D01*
X38302Y10169D01*
X38204Y10210D01*
X38100Y10223D01*
D02*
G37*
G36*
X31100D02*
X30996Y10210D01*
X30898Y10169D01*
X30815Y10105D01*
X30751Y10022D01*
X30710Y9924D01*
X30697Y9820D01*
X30710Y9716D01*
X30751Y9618D01*
X30815Y9535D01*
X30898Y9471D01*
X30996Y9430D01*
X31100Y9417D01*
X31204Y9430D01*
X31302Y9471D01*
X31385Y9535D01*
X31449Y9618D01*
X31490Y9716D01*
X31503Y9820D01*
X31490Y9924D01*
X31449Y10022D01*
X31385Y10105D01*
X31302Y10169D01*
X31204Y10210D01*
X31100Y10223D01*
D02*
G37*
G36*
X49645Y14551D02*
X49395D01*
X49307Y14533D01*
X49233Y14484D01*
X49183Y14409D01*
X49166Y14321D01*
Y13571D01*
X49183Y13484D01*
X49233Y13409D01*
X49268Y13386D01*
Y9208D01*
X49266Y9200D01*
X49282Y9122D01*
X49326Y9056D01*
X49392Y9012D01*
X49470Y8996D01*
X49548Y9012D01*
X49614Y9056D01*
X49658Y9122D01*
X49674Y9200D01*
X49672Y9208D01*
Y13347D01*
X49733Y13359D01*
X49807Y13409D01*
X49857Y13484D01*
X49874Y13571D01*
Y14321D01*
X49857Y14409D01*
X49807Y14484D01*
X49733Y14533D01*
X49645Y14551D01*
D02*
G37*
G36*
X1030Y10487D02*
Y10140D01*
X1377D01*
X1370Y10194D01*
X1329Y10292D01*
X1265Y10375D01*
X1182Y10439D01*
X1084Y10480D01*
X1030Y10487D01*
D02*
G37*
G36*
X10930D02*
X10876Y10480D01*
X10778Y10439D01*
X10695Y10375D01*
X10631Y10292D01*
X10590Y10194D01*
X10583Y10140D01*
X10930D01*
Y10487D01*
D02*
G37*
G36*
X6030D02*
Y10140D01*
X6377D01*
X6370Y10194D01*
X6329Y10292D01*
X6265Y10375D01*
X6182Y10439D01*
X6084Y10480D01*
X6030Y10487D01*
D02*
G37*
G36*
X5930D02*
X5876Y10480D01*
X5778Y10439D01*
X5695Y10375D01*
X5631Y10292D01*
X5590Y10194D01*
X5583Y10140D01*
X5930D01*
Y10487D01*
D02*
G37*
G36*
X48645Y6444D02*
X48570D01*
Y5890D01*
X48874D01*
Y6215D01*
X48857Y6303D01*
X48807Y6377D01*
X48733Y6427D01*
X48645Y6444D01*
D02*
G37*
G36*
X5260Y1955D02*
X4915D01*
Y1610D01*
X5260D01*
Y1955D01*
D02*
G37*
G36*
X31497Y1770D02*
X31150D01*
Y1423D01*
X31204Y1430D01*
X31302Y1471D01*
X31385Y1535D01*
X31449Y1618D01*
X31490Y1716D01*
X31497Y1770D01*
D02*
G37*
G36*
X31050D02*
X30703D01*
X30710Y1716D01*
X30751Y1618D01*
X30815Y1535D01*
X30898Y1471D01*
X30996Y1430D01*
X31050Y1423D01*
Y1770D01*
D02*
G37*
G36*
X5705Y1955D02*
X5360D01*
Y1610D01*
X5705D01*
Y1955D01*
D02*
G37*
G36*
X1936Y2540D02*
X1488D01*
Y1705D01*
X1567Y1715D01*
X1687Y1765D01*
X1791Y1844D01*
X1870Y1947D01*
X1919Y2067D01*
X1936Y2196D01*
Y2540D01*
D02*
G37*
G36*
X1388D02*
X940D01*
Y2196D01*
X957Y2067D01*
X1007Y1947D01*
X1086Y1844D01*
X1189Y1765D01*
X1310Y1715D01*
X1388Y1705D01*
Y2540D01*
D02*
G37*
G36*
X3919Y3561D02*
X3780Y3542D01*
X3650Y3489D01*
X3539Y3403D01*
X3453Y3292D01*
X3399Y3162D01*
X3381Y3023D01*
Y2157D01*
X3399Y2018D01*
X3453Y1888D01*
X3539Y1777D01*
X3650Y1691D01*
X3780Y1638D01*
X3919Y1619D01*
X4058Y1638D01*
X4188Y1691D01*
X4299Y1777D01*
X4384Y1888D01*
X4438Y2018D01*
X4456Y2157D01*
Y3023D01*
X4438Y3162D01*
X4384Y3292D01*
X4299Y3403D01*
X4188Y3489D01*
X4058Y3542D01*
X3919Y3561D01*
D02*
G37*
G36*
X10798Y3448D02*
X6661D01*
Y492D01*
X10798D01*
Y3448D01*
D02*
G37*
G36*
X3662Y650D02*
X2827D01*
Y202D01*
X3171D01*
X3300Y219D01*
X3420Y269D01*
X3523Y348D01*
X3602Y451D01*
X3652Y571D01*
X3662Y650D01*
D02*
G37*
G36*
X2727D02*
X1892D01*
X1902Y571D01*
X1952Y451D01*
X2031Y348D01*
X2134Y269D01*
X2254Y219D01*
X2383Y202D01*
X2727D01*
Y650D01*
D02*
G37*
G36*
Y1198D02*
X2383D01*
X2254Y1181D01*
X2134Y1131D01*
X2031Y1052D01*
X1952Y949D01*
X1902Y829D01*
X1892Y750D01*
X2727D01*
Y1198D01*
D02*
G37*
G36*
X5705Y1510D02*
X5360D01*
Y1165D01*
X5705D01*
Y1510D01*
D02*
G37*
G36*
X5260D02*
X4915D01*
Y1165D01*
X5260D01*
Y1510D01*
D02*
G37*
G36*
X3171Y1198D02*
X2827D01*
Y750D01*
X3662D01*
X3652Y829D01*
X3602Y949D01*
X3523Y1052D01*
X3420Y1131D01*
X3300Y1181D01*
X3171Y1198D01*
D02*
G37*
G36*
X31050Y2217D02*
X30996Y2210D01*
X30898Y2169D01*
X30815Y2105D01*
X30751Y2022D01*
X30710Y1924D01*
X30703Y1870D01*
X31050D01*
Y2217D01*
D02*
G37*
G36*
X50645Y6444D02*
X50395D01*
X50307Y6427D01*
X50233Y6377D01*
X50183Y6303D01*
X50166Y6215D01*
Y5465D01*
X50183Y5377D01*
X50233Y5303D01*
X50307Y5253D01*
X50395Y5236D01*
X50645D01*
X50733Y5253D01*
X50807Y5303D01*
X50857Y5377D01*
X50874Y5465D01*
Y6215D01*
X50857Y6303D01*
X50807Y6377D01*
X50733Y6427D01*
X50645Y6444D01*
D02*
G37*
G36*
X48874Y5790D02*
X48570D01*
Y5236D01*
X48645D01*
X48733Y5253D01*
X48807Y5303D01*
X48857Y5377D01*
X48874Y5465D01*
Y5790D01*
D02*
G37*
G36*
X48470D02*
X48166D01*
Y5465D01*
X48183Y5377D01*
X48233Y5303D01*
X48307Y5253D01*
X48395Y5236D01*
X48470D01*
Y5790D01*
D02*
G37*
G36*
X52645Y6444D02*
X52395D01*
X52307Y6427D01*
X52233Y6377D01*
X52183Y6303D01*
X52166Y6215D01*
Y5465D01*
X52183Y5377D01*
X52233Y5303D01*
X52307Y5253D01*
X52395Y5236D01*
X52645D01*
X52733Y5253D01*
X52807Y5303D01*
X52857Y5377D01*
X52874Y5465D01*
Y6215D01*
X52857Y6303D01*
X52807Y6377D01*
X52733Y6427D01*
X52645Y6444D01*
D02*
G37*
G36*
X48470D02*
X48395D01*
X48307Y6427D01*
X48233Y6377D01*
X48183Y6303D01*
X48166Y6215D01*
Y5890D01*
X48470D01*
Y6444D01*
D02*
G37*
G36*
X38100Y6223D02*
X37996Y6210D01*
X37898Y6169D01*
X37815Y6105D01*
X37751Y6022D01*
X37710Y5924D01*
X37697Y5820D01*
X37710Y5716D01*
X37751Y5618D01*
X37815Y5535D01*
X37898Y5471D01*
X37996Y5430D01*
X38100Y5417D01*
X38204Y5430D01*
X38302Y5471D01*
X38385Y5535D01*
X38449Y5618D01*
X38490Y5716D01*
X38503Y5820D01*
X38490Y5924D01*
X38449Y6022D01*
X38385Y6105D01*
X38302Y6169D01*
X38204Y6210D01*
X38100Y6223D01*
D02*
G37*
G36*
X54645Y6444D02*
X54395D01*
X54307Y6427D01*
X54233Y6377D01*
X54183Y6303D01*
X54166Y6215D01*
Y5465D01*
X54183Y5377D01*
X54233Y5303D01*
X54307Y5253D01*
X54395Y5236D01*
X54645D01*
X54733Y5253D01*
X54807Y5303D01*
X54857Y5377D01*
X54874Y5465D01*
Y6215D01*
X54857Y6303D01*
X54807Y6377D01*
X54733Y6427D01*
X54645Y6444D01*
D02*
G37*
G36*
X1488Y3475D02*
Y2640D01*
X1936D01*
Y2984D01*
X1919Y3113D01*
X1870Y3233D01*
X1791Y3336D01*
X1687Y3415D01*
X1567Y3465D01*
X1488Y3475D01*
D02*
G37*
G36*
X1388D02*
X1310Y3465D01*
X1189Y3415D01*
X1086Y3336D01*
X1007Y3233D01*
X957Y3113D01*
X940Y2984D01*
Y2640D01*
X1388D01*
Y3475D01*
D02*
G37*
G36*
X31150Y2217D02*
Y1870D01*
X31497D01*
X31490Y1924D01*
X31449Y2022D01*
X31385Y2105D01*
X31302Y2169D01*
X31204Y2210D01*
X31150Y2217D01*
D02*
G37*
G36*
X38100Y4223D02*
X37996Y4210D01*
X37898Y4169D01*
X37815Y4105D01*
X37751Y4022D01*
X37710Y3924D01*
X37697Y3820D01*
X37710Y3716D01*
X37751Y3618D01*
X37815Y3535D01*
X37898Y3471D01*
X37996Y3430D01*
X38100Y3417D01*
X38204Y3430D01*
X38302Y3471D01*
X38385Y3535D01*
X38449Y3618D01*
X38490Y3716D01*
X38503Y3820D01*
X38490Y3924D01*
X38449Y4022D01*
X38385Y4105D01*
X38302Y4169D01*
X38204Y4210D01*
X38100Y4223D01*
D02*
G37*
G36*
Y5223D02*
X37996Y5210D01*
X37898Y5169D01*
X37815Y5105D01*
X37751Y5022D01*
X37710Y4924D01*
X37697Y4820D01*
X37710Y4716D01*
X37751Y4618D01*
X37815Y4535D01*
X37898Y4471D01*
X37996Y4430D01*
X38100Y4417D01*
X38204Y4430D01*
X38302Y4471D01*
X38385Y4535D01*
X38449Y4618D01*
X38490Y4716D01*
X38503Y4820D01*
X38490Y4924D01*
X38449Y5022D01*
X38385Y5105D01*
X38302Y5169D01*
X38204Y5210D01*
X38100Y5223D01*
D02*
G37*
G36*
X51645Y5444D02*
X51395D01*
X51307Y5427D01*
X51233Y5377D01*
X51183Y5303D01*
X51166Y5215D01*
Y4465D01*
X51183Y4377D01*
X51233Y4303D01*
X51307Y4253D01*
X51395Y4236D01*
X51645D01*
X51733Y4253D01*
X51807Y4303D01*
X51857Y4377D01*
X51874Y4465D01*
Y5215D01*
X51857Y5303D01*
X51807Y5377D01*
X51733Y5427D01*
X51645Y5444D01*
D02*
G37*
G36*
X49645D02*
X49395D01*
X49307Y5427D01*
X49233Y5377D01*
X49183Y5303D01*
X49166Y5215D01*
Y4465D01*
X49183Y4377D01*
X49233Y4303D01*
X49307Y4253D01*
X49395Y4236D01*
X49645D01*
X49733Y4253D01*
X49807Y4303D01*
X49857Y4377D01*
X49874Y4465D01*
Y5215D01*
X49857Y5303D01*
X49807Y5377D01*
X49733Y5427D01*
X49645Y5444D01*
D02*
G37*
G36*
X38050Y17217D02*
X37996Y17210D01*
X37898Y17169D01*
X37815Y17105D01*
X37751Y17022D01*
X37710Y16924D01*
X37703Y16870D01*
X38050D01*
Y17217D01*
D02*
G37*
G36*
X31150D02*
Y16870D01*
X31497D01*
X31490Y16924D01*
X31449Y17022D01*
X31385Y17105D01*
X31302Y17169D01*
X31204Y17210D01*
X31150Y17217D01*
D02*
G37*
G36*
X31050D02*
X30996Y17210D01*
X30898Y17169D01*
X30815Y17105D01*
X30751Y17022D01*
X30710Y16924D01*
X30703Y16870D01*
X31050D01*
Y17217D01*
D02*
G37*
G36*
X38150D02*
Y16870D01*
X38497D01*
X38490Y16924D01*
X38449Y17022D01*
X38385Y17105D01*
X38302Y17169D01*
X38204Y17210D01*
X38150Y17217D01*
D02*
G37*
G36*
X5930Y17487D02*
X5876Y17480D01*
X5778Y17439D01*
X5695Y17375D01*
X5631Y17292D01*
X5590Y17194D01*
X5583Y17140D01*
X5930D01*
Y17487D01*
D02*
G37*
G36*
X1030D02*
Y17140D01*
X1377D01*
X1370Y17194D01*
X1329Y17292D01*
X1265Y17375D01*
X1182Y17439D01*
X1084Y17480D01*
X1030Y17487D01*
D02*
G37*
G36*
X930D02*
X876Y17480D01*
X778Y17439D01*
X695Y17375D01*
X631Y17292D01*
X590Y17194D01*
X583Y17140D01*
X930D01*
Y17487D01*
D02*
G37*
G36*
X10930Y17040D02*
X10583D01*
X10590Y16986D01*
X10631Y16888D01*
X10695Y16805D01*
X10778Y16741D01*
X10876Y16700D01*
X10930Y16693D01*
Y17040D01*
D02*
G37*
G36*
X6377D02*
X6030D01*
Y16693D01*
X6084Y16700D01*
X6182Y16741D01*
X6265Y16805D01*
X6329Y16888D01*
X6370Y16986D01*
X6377Y17040D01*
D02*
G37*
G36*
X5930D02*
X5583D01*
X5590Y16986D01*
X5631Y16888D01*
X5695Y16805D01*
X5778Y16741D01*
X5876Y16700D01*
X5930Y16693D01*
Y17040D01*
D02*
G37*
G36*
X11377D02*
X11030D01*
Y16693D01*
X11084Y16700D01*
X11182Y16741D01*
X11265Y16805D01*
X11329Y16888D01*
X11370Y16986D01*
X11377Y17040D01*
D02*
G37*
G36*
X26055Y17505D02*
X25265D01*
Y16715D01*
X26055D01*
Y17505D01*
D02*
G37*
G36*
X16377Y17040D02*
X16030D01*
Y16693D01*
X16084Y16700D01*
X16182Y16741D01*
X16265Y16805D01*
X16329Y16888D01*
X16370Y16986D01*
X16377Y17040D01*
D02*
G37*
G36*
X15930D02*
X15583D01*
X15590Y16986D01*
X15631Y16888D01*
X15695Y16805D01*
X15778Y16741D01*
X15876Y16700D01*
X15930Y16693D01*
Y17040D01*
D02*
G37*
G36*
X6030Y17487D02*
Y17140D01*
X6377D01*
X6370Y17194D01*
X6329Y17292D01*
X6265Y17375D01*
X6182Y17439D01*
X6084Y17480D01*
X6030Y17487D01*
D02*
G37*
G36*
X28772Y18060D02*
X28430D01*
Y17718D01*
X28483Y17725D01*
X28579Y17765D01*
X28662Y17828D01*
X28725Y17911D01*
X28765Y18007D01*
X28772Y18060D01*
D02*
G37*
G36*
X28330D02*
X27988D01*
X27995Y18007D01*
X28035Y17911D01*
X28098Y17828D01*
X28181Y17765D01*
X28277Y17725D01*
X28330Y17718D01*
Y18060D01*
D02*
G37*
G36*
X26052D02*
X25710D01*
Y17718D01*
X25763Y17725D01*
X25859Y17765D01*
X25942Y17828D01*
X26005Y17911D01*
X26045Y18007D01*
X26052Y18060D01*
D02*
G37*
G36*
X25610Y18502D02*
X25557Y18495D01*
X25461Y18455D01*
X25378Y18392D01*
X25315Y18309D01*
X25275Y18213D01*
X25268Y18160D01*
X25610D01*
Y18502D01*
D02*
G37*
G36*
X28430D02*
Y18160D01*
X28772D01*
X28765Y18213D01*
X28725Y18309D01*
X28662Y18392D01*
X28579Y18455D01*
X28483Y18495D01*
X28430Y18502D01*
D02*
G37*
G36*
X28330D02*
X28277Y18495D01*
X28181Y18455D01*
X28098Y18392D01*
X28035Y18309D01*
X27995Y18213D01*
X27988Y18160D01*
X28330D01*
Y18502D01*
D02*
G37*
G36*
X25710D02*
Y18160D01*
X26052D01*
X26045Y18213D01*
X26005Y18309D01*
X25942Y18392D01*
X25859Y18455D01*
X25763Y18495D01*
X25710Y18502D01*
D02*
G37*
G36*
X15930Y17487D02*
X15876Y17480D01*
X15778Y17439D01*
X15695Y17375D01*
X15631Y17292D01*
X15590Y17194D01*
X15583Y17140D01*
X15930D01*
Y17487D01*
D02*
G37*
G36*
X11030D02*
Y17140D01*
X11377D01*
X11370Y17194D01*
X11329Y17292D01*
X11265Y17375D01*
X11182Y17439D01*
X11084Y17480D01*
X11030Y17487D01*
D02*
G37*
G36*
X10930D02*
X10876Y17480D01*
X10778Y17439D01*
X10695Y17375D01*
X10631Y17292D01*
X10590Y17194D01*
X10583Y17140D01*
X10930D01*
Y17487D01*
D02*
G37*
G36*
X16030D02*
Y17140D01*
X16377D01*
X16370Y17194D01*
X16329Y17292D01*
X16265Y17375D01*
X16182Y17439D01*
X16084Y17480D01*
X16030Y17487D01*
D02*
G37*
G36*
X25610Y18060D02*
X25268D01*
X25275Y18007D01*
X25315Y17911D01*
X25378Y17828D01*
X25461Y17765D01*
X25557Y17725D01*
X25610Y17718D01*
Y18060D01*
D02*
G37*
G36*
X38100Y18223D02*
X37996Y18210D01*
X37898Y18169D01*
X37815Y18105D01*
X37751Y18022D01*
X37710Y17924D01*
X37697Y17820D01*
X37710Y17716D01*
X37751Y17618D01*
X37815Y17535D01*
X37898Y17471D01*
X37996Y17430D01*
X38100Y17417D01*
X38204Y17430D01*
X38302Y17471D01*
X38385Y17535D01*
X38449Y17618D01*
X38490Y17716D01*
X38503Y17820D01*
X38490Y17924D01*
X38449Y18022D01*
X38385Y18105D01*
X38302Y18169D01*
X38204Y18210D01*
X38100Y18223D01*
D02*
G37*
G36*
X31100D02*
X30996Y18210D01*
X30898Y18169D01*
X30815Y18105D01*
X30751Y18022D01*
X30710Y17924D01*
X30697Y17820D01*
X30710Y17716D01*
X30751Y17618D01*
X30815Y17535D01*
X30898Y17471D01*
X30996Y17430D01*
X31100Y17417D01*
X31204Y17430D01*
X31302Y17471D01*
X31385Y17535D01*
X31449Y17618D01*
X31490Y17716D01*
X31503Y17820D01*
X31490Y17924D01*
X31449Y18022D01*
X31385Y18105D01*
X31302Y18169D01*
X31204Y18210D01*
X31100Y18223D01*
D02*
G37*
G36*
X1377Y17040D02*
X1030D01*
Y16693D01*
X1084Y16700D01*
X1182Y16741D01*
X1265Y16805D01*
X1329Y16888D01*
X1370Y16986D01*
X1377Y17040D01*
D02*
G37*
G36*
X38100Y14223D02*
X37996Y14210D01*
X37898Y14169D01*
X37815Y14105D01*
X37751Y14022D01*
X37710Y13924D01*
X37697Y13820D01*
X37710Y13716D01*
X37751Y13618D01*
X37815Y13535D01*
X37898Y13471D01*
X37996Y13430D01*
X38100Y13417D01*
X38204Y13430D01*
X38302Y13471D01*
X38385Y13535D01*
X38449Y13618D01*
X38490Y13716D01*
X38503Y13820D01*
X38490Y13924D01*
X38449Y14022D01*
X38385Y14105D01*
X38302Y14169D01*
X38204Y14210D01*
X38100Y14223D01*
D02*
G37*
G36*
X31100D02*
X30996Y14210D01*
X30898Y14169D01*
X30815Y14105D01*
X30751Y14022D01*
X30710Y13924D01*
X30697Y13820D01*
X30710Y13716D01*
X30751Y13618D01*
X30815Y13535D01*
X30898Y13471D01*
X30996Y13430D01*
X31100Y13417D01*
X31204Y13430D01*
X31302Y13471D01*
X31385Y13535D01*
X31449Y13618D01*
X31490Y13716D01*
X31503Y13820D01*
X31490Y13924D01*
X31449Y14022D01*
X31385Y14105D01*
X31302Y14169D01*
X31204Y14210D01*
X31100Y14223D01*
D02*
G37*
G36*
X38100Y13223D02*
X37996Y13210D01*
X37898Y13169D01*
X37815Y13105D01*
X37751Y13022D01*
X37710Y12924D01*
X37697Y12820D01*
X37710Y12716D01*
X37751Y12618D01*
X37815Y12535D01*
X37898Y12471D01*
X37996Y12430D01*
X38100Y12417D01*
X38204Y12430D01*
X38302Y12471D01*
X38385Y12535D01*
X38449Y12618D01*
X38490Y12716D01*
X38503Y12820D01*
X38490Y12924D01*
X38449Y13022D01*
X38385Y13105D01*
X38302Y13169D01*
X38204Y13210D01*
X38100Y13223D01*
D02*
G37*
G36*
X48470Y14896D02*
X48166D01*
Y14571D01*
X48183Y14484D01*
X48233Y14409D01*
X48307Y14359D01*
X48395Y14342D01*
X48470D01*
Y14896D01*
D02*
G37*
G36*
Y15551D02*
X48395D01*
X48307Y15533D01*
X48233Y15484D01*
X48183Y15409D01*
X48166Y15321D01*
Y14996D01*
X48470D01*
Y15551D01*
D02*
G37*
G36*
X38100Y15223D02*
X37996Y15210D01*
X37898Y15169D01*
X37815Y15105D01*
X37751Y15022D01*
X37710Y14924D01*
X37697Y14820D01*
X37710Y14716D01*
X37751Y14618D01*
X37815Y14535D01*
X37898Y14471D01*
X37996Y14430D01*
X38100Y14417D01*
X38204Y14430D01*
X38302Y14471D01*
X38385Y14535D01*
X38449Y14618D01*
X38490Y14716D01*
X38503Y14820D01*
X38490Y14924D01*
X38449Y15022D01*
X38385Y15105D01*
X38302Y15169D01*
X38204Y15210D01*
X38100Y15223D01*
D02*
G37*
G36*
X48874Y14896D02*
X48570D01*
Y14342D01*
X48645D01*
X48733Y14359D01*
X48807Y14409D01*
X48857Y14484D01*
X48874Y14571D01*
Y14896D01*
D02*
G37*
G36*
X31050Y12217D02*
X30996Y12210D01*
X30898Y12169D01*
X30815Y12105D01*
X30751Y12022D01*
X30710Y11924D01*
X30703Y11870D01*
X31050D01*
Y12217D01*
D02*
G37*
G36*
X38497Y11770D02*
X38150D01*
Y11423D01*
X38204Y11430D01*
X38302Y11471D01*
X38385Y11535D01*
X38449Y11618D01*
X38490Y11716D01*
X38497Y11770D01*
D02*
G37*
G36*
X38050D02*
X37703D01*
X37710Y11716D01*
X37751Y11618D01*
X37815Y11535D01*
X37898Y11471D01*
X37996Y11430D01*
X38050Y11423D01*
Y11770D01*
D02*
G37*
G36*
X31150Y12217D02*
Y11870D01*
X31497D01*
X31490Y11924D01*
X31449Y12022D01*
X31385Y12105D01*
X31302Y12169D01*
X31204Y12210D01*
X31150Y12217D01*
D02*
G37*
G36*
X31100Y13223D02*
X30996Y13210D01*
X30898Y13169D01*
X30815Y13105D01*
X30751Y13022D01*
X30710Y12924D01*
X30697Y12820D01*
X30710Y12716D01*
X30751Y12618D01*
X30815Y12535D01*
X30898Y12471D01*
X30996Y12430D01*
X31100Y12417D01*
X31204Y12430D01*
X31302Y12471D01*
X31385Y12535D01*
X31449Y12618D01*
X31490Y12716D01*
X31503Y12820D01*
X31490Y12924D01*
X31449Y13022D01*
X31385Y13105D01*
X31302Y13169D01*
X31204Y13210D01*
X31100Y13223D01*
D02*
G37*
G36*
X38150Y12217D02*
Y11870D01*
X38497D01*
X38490Y11924D01*
X38449Y12022D01*
X38385Y12105D01*
X38302Y12169D01*
X38204Y12210D01*
X38150Y12217D01*
D02*
G37*
G36*
X38050D02*
X37996Y12210D01*
X37898Y12169D01*
X37815Y12105D01*
X37751Y12022D01*
X37710Y11924D01*
X37703Y11870D01*
X38050D01*
Y12217D01*
D02*
G37*
G36*
X48645Y15551D02*
X48570D01*
Y14996D01*
X48874D01*
Y15321D01*
X48857Y15409D01*
X48807Y15484D01*
X48733Y15533D01*
X48645Y15551D01*
D02*
G37*
G36*
X6980Y17493D02*
X6876Y17480D01*
X6778Y17439D01*
X6695Y17375D01*
X6631Y17292D01*
X6590Y17194D01*
X6577Y17090D01*
X6590Y16986D01*
X6631Y16888D01*
X6695Y16805D01*
X6778Y16741D01*
X6876Y16700D01*
X6980Y16687D01*
X7084Y16700D01*
X7182Y16741D01*
X7265Y16805D01*
X7329Y16888D01*
X7370Y16986D01*
X7383Y17090D01*
X7370Y17194D01*
X7329Y17292D01*
X7265Y17375D01*
X7182Y17439D01*
X7084Y17480D01*
X6980Y17493D01*
D02*
G37*
G36*
X4980D02*
X4876Y17480D01*
X4778Y17439D01*
X4695Y17375D01*
X4631Y17292D01*
X4590Y17194D01*
X4577Y17090D01*
X4590Y16986D01*
X4631Y16888D01*
X4695Y16805D01*
X4778Y16741D01*
X4876Y16700D01*
X4980Y16687D01*
X5084Y16700D01*
X5182Y16741D01*
X5265Y16805D01*
X5329Y16888D01*
X5370Y16986D01*
X5383Y17090D01*
X5370Y17194D01*
X5329Y17292D01*
X5265Y17375D01*
X5182Y17439D01*
X5084Y17480D01*
X4980Y17493D01*
D02*
G37*
G36*
X3980D02*
X3876Y17480D01*
X3778Y17439D01*
X3695Y17375D01*
X3631Y17292D01*
X3590Y17194D01*
X3577Y17090D01*
X3590Y16986D01*
X3631Y16888D01*
X3695Y16805D01*
X3778Y16741D01*
X3876Y16700D01*
X3980Y16687D01*
X4084Y16700D01*
X4182Y16741D01*
X4265Y16805D01*
X4329Y16888D01*
X4370Y16986D01*
X4383Y17090D01*
X4370Y17194D01*
X4329Y17292D01*
X4265Y17375D01*
X4182Y17439D01*
X4084Y17480D01*
X3980Y17493D01*
D02*
G37*
G36*
X7980D02*
X7876Y17480D01*
X7778Y17439D01*
X7695Y17375D01*
X7631Y17292D01*
X7590Y17194D01*
X7577Y17090D01*
X7590Y16986D01*
X7631Y16888D01*
X7695Y16805D01*
X7778Y16741D01*
X7876Y16700D01*
X7980Y16687D01*
X8084Y16700D01*
X8182Y16741D01*
X8265Y16805D01*
X8329Y16888D01*
X8370Y16986D01*
X8383Y17090D01*
X8370Y17194D01*
X8329Y17292D01*
X8265Y17375D01*
X8182Y17439D01*
X8084Y17480D01*
X7980Y17493D01*
D02*
G37*
G36*
X930Y17040D02*
X583D01*
X590Y16986D01*
X631Y16888D01*
X695Y16805D01*
X778Y16741D01*
X876Y16700D01*
X930Y16693D01*
Y17040D01*
D02*
G37*
G36*
X9980Y17493D02*
X9876Y17480D01*
X9778Y17439D01*
X9695Y17375D01*
X9631Y17292D01*
X9590Y17194D01*
X9577Y17090D01*
X9590Y16986D01*
X9631Y16888D01*
X9695Y16805D01*
X9778Y16741D01*
X9876Y16700D01*
X9980Y16687D01*
X10084Y16700D01*
X10182Y16741D01*
X10265Y16805D01*
X10329Y16888D01*
X10370Y16986D01*
X10383Y17090D01*
X10370Y17194D01*
X10329Y17292D01*
X10265Y17375D01*
X10182Y17439D01*
X10084Y17480D01*
X9980Y17493D01*
D02*
G37*
G36*
X8980D02*
X8876Y17480D01*
X8778Y17439D01*
X8695Y17375D01*
X8631Y17292D01*
X8590Y17194D01*
X8577Y17090D01*
X8590Y16986D01*
X8631Y16888D01*
X8695Y16805D01*
X8778Y16741D01*
X8876Y16700D01*
X8980Y16687D01*
X9084Y16700D01*
X9182Y16741D01*
X9265Y16805D01*
X9329Y16888D01*
X9370Y16986D01*
X9383Y17090D01*
X9370Y17194D01*
X9329Y17292D01*
X9265Y17375D01*
X9182Y17439D01*
X9084Y17480D01*
X8980Y17493D01*
D02*
G37*
G36*
X31050Y16770D02*
X30703D01*
X30710Y16716D01*
X30751Y16618D01*
X30815Y16535D01*
X30898Y16471D01*
X30996Y16430D01*
X31050Y16423D01*
Y16770D01*
D02*
G37*
G36*
X38100Y16223D02*
X37996Y16210D01*
X37898Y16169D01*
X37815Y16105D01*
X37751Y16022D01*
X37710Y15924D01*
X37697Y15820D01*
X37710Y15716D01*
X37751Y15618D01*
X37815Y15535D01*
X37898Y15471D01*
X37996Y15430D01*
X38100Y15417D01*
X38204Y15430D01*
X38302Y15471D01*
X38385Y15535D01*
X38449Y15618D01*
X38490Y15716D01*
X38503Y15820D01*
X38490Y15924D01*
X38449Y16022D01*
X38385Y16105D01*
X38302Y16169D01*
X38204Y16210D01*
X38100Y16223D01*
D02*
G37*
G36*
X31100D02*
X30996Y16210D01*
X30898Y16169D01*
X30815Y16105D01*
X30751Y16022D01*
X30710Y15924D01*
X30697Y15820D01*
X30710Y15716D01*
X30751Y15618D01*
X30815Y15535D01*
X30898Y15471D01*
X30996Y15430D01*
X31100Y15417D01*
X31204Y15430D01*
X31302Y15471D01*
X31385Y15535D01*
X31449Y15618D01*
X31490Y15716D01*
X31503Y15820D01*
X31490Y15924D01*
X31449Y16022D01*
X31385Y16105D01*
X31302Y16169D01*
X31204Y16210D01*
X31100Y16223D01*
D02*
G37*
G36*
X31497Y16770D02*
X31150D01*
Y16423D01*
X31204Y16430D01*
X31302Y16471D01*
X31385Y16535D01*
X31449Y16618D01*
X31490Y16716D01*
X31497Y16770D01*
D02*
G37*
G36*
X1980Y17493D02*
X1876Y17480D01*
X1778Y17439D01*
X1695Y17375D01*
X1631Y17292D01*
X1590Y17194D01*
X1577Y17090D01*
X1590Y16986D01*
X1631Y16888D01*
X1695Y16805D01*
X1778Y16741D01*
X1876Y16700D01*
X1980Y16687D01*
X2084Y16700D01*
X2182Y16741D01*
X2265Y16805D01*
X2329Y16888D01*
X2370Y16986D01*
X2383Y17090D01*
X2370Y17194D01*
X2329Y17292D01*
X2265Y17375D01*
X2182Y17439D01*
X2084Y17480D01*
X1980Y17493D01*
D02*
G37*
G36*
X38497Y16770D02*
X38150D01*
Y16423D01*
X38204Y16430D01*
X38302Y16471D01*
X38385Y16535D01*
X38449Y16618D01*
X38490Y16716D01*
X38497Y16770D01*
D02*
G37*
G36*
X38050D02*
X37703D01*
X37710Y16716D01*
X37751Y16618D01*
X37815Y16535D01*
X37898Y16471D01*
X37996Y16430D01*
X38050Y16423D01*
Y16770D01*
D02*
G37*
%LPD*%
D10*
X48520Y5840D02*
D03*
X50520D02*
D03*
X52520D02*
D03*
X54520D02*
D03*
X49520Y4840D02*
D03*
X51520D02*
D03*
X53520D02*
D03*
X55520D02*
D03*
Y13946D02*
D03*
X54520Y14946D02*
D03*
X52520D02*
D03*
X50520D02*
D03*
X48520D02*
D03*
X53520Y13946D02*
D03*
X51520D02*
D03*
X49520D02*
D03*
D11*
X12870Y8410D02*
D03*
Y1410D02*
D03*
X28870D02*
D03*
Y8410D02*
D03*
D12*
X4821Y7215D02*
D03*
Y6546D02*
D03*
D13*
Y8042D02*
D03*
Y5680D02*
D03*
D14*
X8730Y1970D02*
D03*
X21390Y17260D02*
D03*
D15*
X29800Y19470D02*
X39200D01*
X5360D02*
X29800D01*
Y16120D02*
Y19470D01*
Y16120D02*
X31100Y14820D01*
X49470Y13896D02*
X49520Y13946D01*
X49470Y9200D02*
Y13896D01*
X39200Y19470D02*
X46070Y12600D01*
X2980Y17090D02*
X5360Y19470D01*
D16*
X28177Y6270D02*
X31286D01*
X22347Y12100D02*
X28177Y6270D01*
X28894Y5270D02*
X31430D01*
X22264Y11900D02*
X28894Y5270D01*
X29061Y4820D02*
X31100D01*
X22181Y11700D02*
X29061Y4820D01*
X26450Y19040D02*
X28380Y17110D01*
X13930Y19040D02*
X26450D01*
X11980Y17090D02*
X13930Y19040D01*
X52486Y16980D02*
X54520Y14946D01*
X47090Y16340D02*
X47730Y16980D01*
X52486D01*
X47090Y7660D02*
Y16340D01*
X41730Y2300D02*
X47090Y7660D01*
X50530Y14956D02*
Y16200D01*
X53450Y5690D02*
Y7040D01*
X51970Y8520D02*
X53450Y7040D01*
X51970Y8520D02*
Y16100D01*
X51600Y16470D02*
X51970Y16100D01*
X47580Y16470D02*
X51600D01*
X52520Y14946D02*
Y16110D01*
X51900Y16730D02*
X52520Y16110D01*
X49930Y16730D02*
X51900D01*
X50520Y14946D02*
X50530Y14956D01*
X51410Y14056D02*
X51520Y13946D01*
X51410Y14056D02*
Y15850D01*
X53520Y13946D02*
X56200Y11266D01*
Y4140D02*
Y11266D01*
X53230Y1170D02*
X56200Y4140D01*
X50510Y1170D02*
X53230D01*
X49680Y340D02*
X50510Y1170D01*
X34720Y340D02*
X49680D01*
X34740Y1370D02*
X52050D01*
X55520Y4840D01*
X34740Y1370D02*
Y1400D01*
X34710Y2300D02*
X41730D01*
X30310Y9610D02*
X31100Y8820D01*
X26820Y9610D02*
X30310D01*
X21200Y15160D02*
X26820Y9610D01*
X32220Y940D02*
Y7580D01*
X31500Y8300D02*
X32220Y7580D01*
X31100Y-180D02*
X32220Y940D01*
X30760Y8300D02*
X31500D01*
X29930Y7470D02*
X30760Y8300D01*
X27600Y7470D02*
X29930D01*
X18370Y11700D02*
X22181D01*
X19170Y11900D02*
X22264D01*
X19970Y12100D02*
X22347D01*
X27460Y7270D02*
X31286D01*
X22430Y12300D02*
X27460Y7270D01*
X22090Y12300D02*
X22430D01*
X17980Y17090D02*
X27600Y7470D01*
X31100Y820D02*
X32020Y1740D01*
Y6536D01*
X31286Y7270D02*
X32020Y6536D01*
X17800Y16590D02*
X22090Y12300D01*
X17480Y16590D02*
X17800D01*
X16980Y17090D02*
X17480Y16590D01*
X31100Y2820D02*
X31820Y3540D01*
Y5736D01*
X31286Y6270D02*
X31820Y5736D01*
X14980Y17090D02*
X19970Y12100D01*
X13980Y17090D02*
X19170Y11900D01*
X12980Y17090D02*
X18370Y11700D01*
X31100Y3820D02*
X31620Y4340D01*
Y5080D01*
X31430Y5270D02*
X31620Y5080D01*
D17*
X5310Y2560D02*
Y5190D01*
X-20Y17090D02*
X480Y16590D01*
Y9740D02*
Y16590D01*
Y9740D02*
X630Y9590D01*
X19470D01*
X20140Y10260D01*
X22640Y7640D02*
Y10260D01*
Y7640D02*
X28870Y1410D01*
X12870D02*
Y3830D01*
X9980Y6720D02*
X12870Y3830D01*
X9980Y6720D02*
Y8970D01*
X7480Y7170D02*
Y8970D01*
X5990Y5680D02*
X7480Y7170D01*
X4821Y5680D02*
X5990D01*
X4821D02*
X5310Y5190D01*
D18*
X47580Y16470D02*
D03*
D19*
X4821Y7992D02*
D03*
X49470Y9200D02*
D03*
X46070Y12600D02*
D03*
X50520Y14980D02*
D03*
X52520Y14930D02*
D03*
X51520Y13946D02*
D03*
X53450Y5690D02*
D03*
X47580Y16470D02*
D03*
X49930Y16730D02*
D03*
X50530Y16200D02*
D03*
X51410Y15850D02*
D03*
X34720Y340D02*
D03*
X34740Y1400D02*
D03*
X34710Y2300D02*
D03*
X21200Y15160D02*
D03*
D20*
X28380Y18110D02*
D03*
X25660D02*
D03*
X5310Y2560D02*
D03*
D21*
X28380Y17110D02*
D03*
X25660D02*
D03*
X5310Y1560D02*
D03*
D22*
X1438Y2590D02*
D03*
D23*
X2777Y700D02*
D03*
D24*
X3919Y2590D02*
D03*
D25*
X51181Y18701D02*
D03*
Y0D02*
D03*
X0D02*
D03*
Y18701D02*
D03*
X-772Y11346D02*
D03*
Y15834D02*
D03*
X17732D02*
D03*
Y11346D02*
D03*
X-1020Y10090D02*
D03*
X-20D02*
D03*
X11980D02*
D03*
X12980D02*
D03*
X13980D02*
D03*
X14980D02*
D03*
X15980D02*
D03*
X16980D02*
D03*
X17980D02*
D03*
Y17090D02*
D03*
X16980D02*
D03*
X15980D02*
D03*
X14980D02*
D03*
X13980D02*
D03*
X12980D02*
D03*
X11980D02*
D03*
X10980D02*
D03*
X9980D02*
D03*
X8980D02*
D03*
X7980D02*
D03*
X6980D02*
D03*
X5980D02*
D03*
X4980D02*
D03*
X3980D02*
D03*
X2980D02*
D03*
X1980D02*
D03*
X980D02*
D03*
X-20D02*
D03*
X-1020D02*
D03*
X980Y10090D02*
D03*
X1980D02*
D03*
X2980D02*
D03*
X3980D02*
D03*
X4980D02*
D03*
X5980D02*
D03*
X6980D02*
D03*
X7980D02*
D03*
X8980D02*
D03*
X9980D02*
D03*
X10980D02*
D03*
X38100Y16820D02*
D03*
X31100Y5820D02*
D03*
Y7820D02*
D03*
X38100Y4820D02*
D03*
Y5820D02*
D03*
Y10820D02*
D03*
Y12820D02*
D03*
Y13820D02*
D03*
Y14820D02*
D03*
Y15820D02*
D03*
Y17820D02*
D03*
Y18820D02*
D03*
X31100Y9820D02*
D03*
Y10820D02*
D03*
Y11820D02*
D03*
Y12820D02*
D03*
Y13820D02*
D03*
Y15820D02*
D03*
Y18820D02*
D03*
Y17820D02*
D03*
Y6820D02*
D03*
Y8820D02*
D03*
Y14820D02*
D03*
Y16820D02*
D03*
X38100Y11820D02*
D03*
Y9820D02*
D03*
Y8820D02*
D03*
Y7820D02*
D03*
Y6820D02*
D03*
Y3820D02*
D03*
Y2820D02*
D03*
Y1820D02*
D03*
Y820D02*
D03*
Y-180D02*
D03*
X31100D02*
D03*
Y820D02*
D03*
Y1820D02*
D03*
Y2820D02*
D03*
Y3820D02*
D03*
Y4820D02*
D03*
D26*
X9980Y8970D02*
D03*
X7480D02*
D03*
X20140Y10260D02*
D03*
X22640D02*
D03*
M02*
