%FSLAX24Y24*%
%MOIN*%
G70*
G01*
G75*
G04 Layer_Color=8421504*
G04:AMPARAMS|DCode=10|XSize=100mil|YSize=50mil|CornerRadius=12.5mil|HoleSize=0mil|Usage=FLASHONLY|Rotation=90.000|XOffset=0mil|YOffset=0mil|HoleType=Round|Shape=RoundedRectangle|*
%AMROUNDEDRECTD10*
21,1,0.1000,0.0250,0,0,90.0*
21,1,0.0750,0.0500,0,0,90.0*
1,1,0.0250,0.0125,0.0375*
1,1,0.0250,0.0125,-0.0375*
1,1,0.0250,-0.0125,-0.0375*
1,1,0.0250,-0.0125,0.0375*
%
%ADD10ROUNDEDRECTD10*%
%ADD11R,0.2000X0.1500*%
%ADD12R,0.1181X0.0457*%
%ADD13R,0.1181X0.0787*%
%ADD14R,0.3937X0.2756*%
%ADD15C,0.0197*%
%ADD16C,0.0100*%
%ADD17C,0.0200*%
%ADD18C,0.0100*%
%ADD19C,0.0200*%
%ADD20C,0.0591*%
%ADD21R,0.0591X0.0591*%
%ADD22O,0.0787X0.1575*%
%ADD23O,0.1575X0.0787*%
%ADD24O,0.0866X0.1732*%
%ADD25C,0.0600*%
%ADD26C,0.0787*%
%ADD27C,0.0079*%
%ADD28C,0.0300*%
%ADD29C,0.0090*%
%ADD30C,0.0020*%
%ADD31C,0.0118*%
%ADD32C,0.0059*%
%ADD33C,0.0070*%
D10*
X48520Y5840D02*
D03*
X50520D02*
D03*
X52520D02*
D03*
X54520D02*
D03*
X49520Y4840D02*
D03*
X51520D02*
D03*
X53520D02*
D03*
X55520D02*
D03*
Y13946D02*
D03*
X54520Y14946D02*
D03*
X52520D02*
D03*
X50520D02*
D03*
X48520D02*
D03*
X53520Y13946D02*
D03*
X51520D02*
D03*
X49520D02*
D03*
D11*
X12870Y8410D02*
D03*
Y1410D02*
D03*
X28870D02*
D03*
Y8410D02*
D03*
D12*
X4821Y7215D02*
D03*
Y6546D02*
D03*
D13*
Y8042D02*
D03*
Y5680D02*
D03*
D14*
X8730Y1970D02*
D03*
X21390Y17260D02*
D03*
M02*
