M48
;Layer_Color=9474304
;FILE_FORMAT=2:4
INCH,TZ
;TYPE=PLATED
T1F00S00C0.0100
T2F00S00C0.0300
T3F00S00C0.0354
T5F00S00C0.0472
T6F00S00C0.0827
T7F00S00C0.1220
%
T01
X4821Y7992
X34710Y2300
X34740Y1400
X34720Y340
X49470Y9200
X46070Y12600
X53450Y5690
X52520Y14930
X51520Y13946
X51410Y15850
X50530Y16200
X49930Y16730
X50520Y14980
X47580Y16470
X21200Y15160
T02
X-1020Y10090
X-20
X980
X1980
X2980
X3980
X4980
X5980
X6980
X7980
X8980
X9980
X10980
X11980
X12980
X13980
X14980
X15980
X16980
X17980
X31100Y9820
Y10820
Y11820
Y12820
Y8820
Y7820
Y6820
Y5820
Y4820
Y3820
Y2820
Y1820
Y820
Y-180
X38100
Y820
Y1820
Y2820
Y3820
Y4820
Y5820
Y6820
Y7820
Y8820
Y9820
Y10820
Y11820
Y12820
Y13820
Y14820
Y15820
Y16820
Y17820
Y18820
X31100
Y17820
Y16820
Y15820
Y14820
Y13820
X17980Y17090
X16980
X15980
X14980
X13980
X12980
X11980
X10980
X9980
X8980
X7980
X6980
X5980
X4980
X3980
X2980
X1980
X980
X-20
X-1020
T03
X5310Y1560
Y2560
X25660Y17110
Y18110
X28380
Y17110
T05
X7480Y8970
X9980
X20140Y10260
X22640
T06
X-772Y11346
X17732
Y15834
X-772
T07
X0Y0
X51181
Y18701
X0
M30
