%FSLAX24Y24*%
%MOIN*%
G70*
G01*
G75*
G04:AMPARAMS|DCode=10|XSize=100mil|YSize=50mil|CornerRadius=12.5mil|HoleSize=0mil|Usage=FLASHONLY|Rotation=90.000|XOffset=0mil|YOffset=0mil|HoleType=Round|Shape=RoundedRectangle|*
%AMROUNDEDRECTD10*
21,1,0.1000,0.0250,0,0,90.0*
21,1,0.0750,0.0500,0,0,90.0*
1,1,0.0250,0.0125,0.0375*
1,1,0.0250,0.0125,-0.0375*
1,1,0.0250,-0.0125,-0.0375*
1,1,0.0250,-0.0125,0.0375*
%
%ADD10ROUNDEDRECTD10*%
%ADD11R,0.2000X0.1500*%
%ADD12R,0.1181X0.0457*%
%ADD13R,0.1181X0.0787*%
%ADD14R,0.3937X0.2756*%
%ADD15C,0.0197*%
%ADD16C,0.0100*%
%ADD17C,0.0200*%
%ADD18C,0.0100*%
%ADD19C,0.0200*%
%ADD20C,0.0591*%
%ADD21R,0.0591X0.0591*%
%ADD22O,0.0787X0.1575*%
%ADD23O,0.1575X0.0787*%
%ADD24O,0.0866X0.1732*%
%ADD25C,0.0600*%
%ADD26C,0.0787*%
%ADD27C,0.0079*%
%ADD28C,0.0300*%
%ADD29C,0.0090*%
%ADD30C,0.0020*%
%ADD31C,0.0118*%
%ADD32C,0.0059*%
%ADD33C,0.0070*%
D16*
X43655Y2068D02*
Y7580D01*
X42200D02*
X43655D01*
X58965Y5342D02*
Y14446D01*
X47020Y6090D02*
X47770Y5340D01*
X47020Y6090D02*
Y14446D01*
X12870Y2410D02*
Y7410D01*
X15370Y1410D02*
X25870D01*
X28870Y2410D02*
Y7410D01*
X15370Y8410D02*
X25870D01*
X2025Y8869D02*
Y9066D01*
Y4656D02*
Y4853D01*
X-1479Y8869D02*
X4230D01*
X-1479Y4853D02*
X4230D01*
X-1020Y15090D02*
X-20D01*
Y12096D02*
Y15090D01*
X-1020Y12096D02*
X-20D01*
X-1020Y16590D02*
X17980D01*
X-1020Y10590D02*
X17980D01*
X10669Y3557D02*
Y6509D01*
X6791Y3549D02*
Y6502D01*
X7980Y6470D02*
X9480D01*
X19451Y12721D02*
Y15673D01*
X23329Y12729D02*
Y15681D01*
X20640Y12760D02*
X22140D01*
X32350Y13820D02*
X36850D01*
Y3820D02*
Y13820D01*
X32350Y3820D02*
X36850D01*
X32350D02*
Y13820D01*
X31600Y-180D02*
Y18820D01*
X37600Y-180D02*
Y18820D01*
X33106Y17820D02*
Y18820D01*
Y17820D02*
X36100D01*
Y18820D01*
X45970Y14400D02*
X46570D01*
Y14100D01*
X46470Y14000D01*
X46270D01*
X46170Y14100D01*
Y14400D01*
Y14200D02*
X45970Y14000D01*
Y13800D02*
X46370D01*
X46570Y13600D01*
X46370Y13400D01*
X45970D01*
X46270D01*
Y13800D01*
X46570Y13200D02*
X45970D01*
Y12900D01*
X46070Y12801D01*
X46470D01*
X46570Y12900D01*
Y13200D01*
Y12601D02*
Y12401D01*
Y12501D01*
X45970D01*
Y12601D01*
Y12401D01*
X46570Y11801D02*
Y12001D01*
X46470Y12101D01*
X46070D01*
X45970Y12001D01*
Y11801D01*
X46070Y11701D01*
X46470D01*
X46570Y11801D01*
X45970Y10301D02*
X46570D01*
Y10001D01*
X46470Y9901D01*
X46270D01*
X46170Y10001D01*
Y10301D01*
Y10101D02*
X45970Y9901D01*
X46570Y9302D02*
Y9702D01*
X45970D01*
Y9302D01*
X46270Y9702D02*
Y9502D01*
X46470Y8702D02*
X46570Y8802D01*
Y9002D01*
X46470Y9102D01*
X46070D01*
X45970Y9002D01*
Y8802D01*
X46070Y8702D01*
X46570Y8102D02*
Y8502D01*
X45970D01*
Y8102D01*
X46270Y8502D02*
Y8302D01*
X46570Y7902D02*
Y7702D01*
Y7802D01*
X45970D01*
Y7902D01*
Y7702D01*
X46570Y7402D02*
X46170D01*
X45970Y7202D01*
X46170Y7002D01*
X46570D01*
Y6403D02*
Y6802D01*
X45970D01*
Y6403D01*
X46270Y6802D02*
Y6603D01*
X45970Y6203D02*
X46570D01*
Y5903D01*
X46470Y5803D01*
X46270D01*
X46170Y5903D01*
Y6203D01*
Y6003D02*
X45970Y5803D01*
X47920Y11940D02*
Y12240D01*
X47820Y12340D01*
X47620D01*
X47520Y12240D01*
Y11940D01*
X47920Y11340D02*
Y11640D01*
X47820Y11740D01*
X47620D01*
X47520Y11640D01*
Y11340D01*
Y11140D02*
X48120D01*
Y10840D01*
X48020Y10741D01*
X47820D01*
X47720Y10840D01*
Y11140D01*
Y10940D02*
X47520Y10741D01*
X48120Y10141D02*
Y10541D01*
X47820D01*
Y10341D01*
Y10541D01*
X47520D01*
X47420Y9941D02*
Y9541D01*
X48020Y8941D02*
X48120Y9041D01*
Y9241D01*
X48020Y9341D01*
X47620D01*
X47520Y9241D01*
Y9041D01*
X47620Y8941D01*
X47520Y8741D02*
Y8541D01*
Y8641D01*
X48120D01*
Y8741D01*
X47520Y8241D02*
Y8041D01*
Y8141D01*
X47920D01*
Y8241D01*
Y7342D02*
Y7642D01*
X47820Y7741D01*
X47620D01*
X47520Y7642D01*
Y7342D01*
Y7142D02*
X48120D01*
X47720D02*
X47920Y6842D01*
X47720Y7142D02*
X47520Y6842D01*
X28600Y15980D02*
X28700Y16080D01*
Y16280D01*
X28600Y16380D01*
X28200D01*
X28100Y16280D01*
Y16080D01*
X28200Y15980D01*
X28100Y15780D02*
X28500D01*
X28700Y15580D01*
X28500Y15380D01*
X28100D01*
X28400D01*
Y15780D01*
X28100Y15180D02*
X28700D01*
Y14880D01*
X28600Y14781D01*
X28400D01*
X28300Y14880D01*
Y15180D01*
Y14980D02*
X28100Y14781D01*
Y14581D02*
X28700D01*
Y14281D01*
X28600Y14181D01*
X28400D01*
X28300Y14281D01*
Y14581D01*
Y14381D02*
X28100Y14181D01*
Y13381D02*
X28500D01*
X28700Y13181D01*
X28500Y12981D01*
X28100D01*
X28400D01*
Y13381D01*
X28600Y12381D02*
X28700Y12481D01*
Y12681D01*
X28600Y12781D01*
X28200D01*
X28100Y12681D01*
Y12481D01*
X28200Y12381D01*
X28700Y12181D02*
Y11781D01*
Y11981D01*
X28100D01*
X28700Y11582D02*
Y11382D01*
Y11482D01*
X28100D01*
Y11582D01*
Y11382D01*
X28700Y11082D02*
X28300D01*
X28100Y10882D01*
X28300Y10682D01*
X28700D01*
Y10082D02*
Y10482D01*
X28100D01*
Y10082D01*
X28400Y10482D02*
Y10282D01*
X25360Y16390D02*
X25960D01*
X25760Y16190D01*
X25960Y15990D01*
X25360D01*
X25860Y15390D02*
X25960Y15490D01*
Y15690D01*
X25860Y15790D01*
X25760D01*
X25660Y15690D01*
Y15490D01*
X25560Y15390D01*
X25460D01*
X25360Y15490D01*
Y15690D01*
X25460Y15790D01*
X25860Y14791D02*
X25960Y14890D01*
Y15090D01*
X25860Y15190D01*
X25460D01*
X25360Y15090D01*
Y14890D01*
X25460Y14791D01*
X25660D01*
Y14990D01*
X25360Y13991D02*
X25960D01*
Y13691D01*
X25860Y13591D01*
X25660D01*
X25560Y13691D01*
Y13991D01*
Y13791D02*
X25360Y13591D01*
X25960Y12991D02*
Y13391D01*
X25360D01*
Y12991D01*
X25660Y13391D02*
Y13191D01*
X25860Y12391D02*
X25960Y12491D01*
Y12691D01*
X25860Y12791D01*
X25460D01*
X25360Y12691D01*
Y12491D01*
X25460Y12391D01*
X25960Y11791D02*
Y12191D01*
X25360D01*
Y11791D01*
X25660Y12191D02*
Y11991D01*
X25960Y11592D02*
Y11392D01*
Y11492D01*
X25360D01*
Y11592D01*
Y11392D01*
X25960Y11092D02*
X25560D01*
X25360Y10892D01*
X25560Y10692D01*
X25960D01*
Y10092D02*
Y10492D01*
X25360D01*
Y10092D01*
X25660Y10492D02*
Y10292D01*
X14090Y-470D02*
Y130D01*
X14390D01*
X14490Y30D01*
Y-170D01*
X14390Y-270D01*
X14090D01*
X14990Y130D02*
X14790D01*
X14690Y30D01*
Y-370D01*
X14790Y-470D01*
X14990D01*
X15090Y-370D01*
Y30D01*
X14990Y130D01*
X15290D02*
Y-470D01*
X15490Y-270D01*
X15689Y-470D01*
Y130D01*
X16289D02*
X15889D01*
Y-470D01*
X16289D01*
X15889Y-170D02*
X16089D01*
X16489Y-470D02*
Y130D01*
X16789D01*
X16889Y30D01*
Y-170D01*
X16789Y-270D01*
X16489D01*
X16689D02*
X16889Y-470D01*
X17689D02*
Y130D01*
X17889Y-70D01*
X18089Y130D01*
Y-470D01*
X18289D02*
Y-70D01*
X18489Y130D01*
X18689Y-70D01*
Y-470D01*
Y-170D01*
X18289D01*
X18888Y-470D02*
Y130D01*
X19288Y-470D01*
Y130D01*
X19488Y-470D02*
Y-70D01*
X19688Y130D01*
X19888Y-70D01*
Y-470D01*
Y-170D01*
X19488D01*
X20488Y30D02*
X20388Y130D01*
X20188D01*
X20088Y30D01*
Y-370D01*
X20188Y-470D01*
X20388D01*
X20488Y-370D01*
Y-170D01*
X20288D01*
X21088Y130D02*
X20688D01*
Y-470D01*
X21088D01*
X20688Y-170D02*
X20888D01*
X21288Y-470D02*
Y130D01*
X21488Y-70D01*
X21688Y130D01*
Y-470D01*
X22287Y130D02*
X21887D01*
Y-470D01*
X22287D01*
X21887Y-170D02*
X22087D01*
X22487Y-470D02*
Y130D01*
X22887Y-470D01*
Y130D01*
X23087D02*
X23487D01*
X23287D01*
Y-470D01*
X24287D02*
Y130D01*
X24487Y-70D01*
X24687Y130D01*
Y-470D01*
X25186Y130D02*
X24986D01*
X24887Y30D01*
Y-370D01*
X24986Y-470D01*
X25186D01*
X25286Y-370D01*
Y30D01*
X25186Y130D01*
X25486D02*
Y-470D01*
X25786D01*
X25886Y-370D01*
Y30D01*
X25786Y130D01*
X25486D01*
X26086D02*
Y-370D01*
X26186Y-470D01*
X26386D01*
X26486Y-370D01*
Y130D01*
X26686D02*
Y-470D01*
X27086D01*
X27686Y130D02*
X27286D01*
Y-470D01*
X27686D01*
X27286Y-170D02*
X27486D01*
X18870Y5510D02*
Y4910D01*
X19070Y5110D01*
X19270Y4910D01*
Y5510D01*
X19470Y4910D02*
Y5510D01*
X19770D01*
X19870Y5410D01*
Y5210D01*
X19770Y5110D01*
X19470D01*
X20070Y4910D02*
Y5510D01*
X20270Y5310D01*
X20469Y5510D01*
Y4910D01*
X21569D02*
Y5510D01*
X21269Y5210D01*
X21669D01*
X21869Y5410D02*
X21969Y5510D01*
X22169D01*
X22269Y5410D01*
Y5010D01*
X22169Y4910D01*
X21969D01*
X21869Y5010D01*
Y5410D01*
X22769Y4910D02*
Y5510D01*
X22469Y5210D01*
X22869D01*
X5310Y360D02*
Y760D01*
X5110Y3510D02*
X5510D01*
X5310Y3710D02*
Y3310D01*
X8220Y5340D02*
Y4740D01*
X8520D01*
X8620Y4840D01*
Y5240D01*
X8520Y5340D01*
X8220D01*
X8820Y4740D02*
X9020D01*
X8920D01*
Y5340D01*
X8820Y5240D01*
X20850Y14370D02*
Y13770D01*
X21150D01*
X21250Y13870D01*
Y14270D01*
X21150Y14370D01*
X20850D01*
X21850Y13770D02*
X21450D01*
X21850Y14170D01*
Y14270D01*
X21750Y14370D01*
X21550D01*
X21450Y14270D01*
X1000Y18370D02*
Y18970D01*
X1300D01*
X1400Y18870D01*
Y18670D01*
X1300Y18570D01*
X1000D01*
X1200D02*
X1400Y18370D01*
X1600D02*
Y18770D01*
X1800Y18970D01*
X2000Y18770D01*
Y18370D01*
Y18670D01*
X1600D01*
X2599Y18870D02*
X2500Y18970D01*
X2300D01*
X2200Y18870D01*
Y18770D01*
X2300Y18670D01*
X2500D01*
X2599Y18570D01*
Y18470D01*
X2500Y18370D01*
X2300D01*
X2200Y18470D01*
X2799Y18370D02*
Y18970D01*
X3099D01*
X3199Y18870D01*
Y18670D01*
X3099Y18570D01*
X2799D01*
X3399Y18970D02*
Y18370D01*
X3699D01*
X3799Y18470D01*
Y18570D01*
X3699Y18670D01*
X3399D01*
X3699D01*
X3799Y18770D01*
Y18870D01*
X3699Y18970D01*
X3399D01*
X4399D02*
X3999D01*
Y18370D01*
X4399D01*
X3999Y18670D02*
X4199D01*
X4599Y18370D02*
Y18970D01*
X4899D01*
X4999Y18870D01*
Y18670D01*
X4899Y18570D01*
X4599D01*
X4799D02*
X4999Y18370D01*
X5199D02*
Y18970D01*
X5499D01*
X5599Y18870D01*
Y18670D01*
X5499Y18570D01*
X5199D01*
X5399D02*
X5599Y18370D01*
X5798Y18970D02*
Y18870D01*
X5998Y18670D01*
X6198Y18870D01*
Y18970D01*
X5998Y18670D02*
Y18370D01*
X6998D02*
Y18970D01*
X7298D01*
X7398Y18870D01*
Y18670D01*
X7298Y18570D01*
X6998D01*
X7598Y18970D02*
X7798D01*
X7698D01*
Y18370D01*
X7598D01*
X7798D01*
X8698D02*
Y18970D01*
X8997D01*
X9097Y18870D01*
Y18670D01*
X8997Y18570D01*
X8698D01*
X9297Y18970D02*
X9497D01*
X9397D01*
Y18370D01*
X9297D01*
X9497D01*
X10197Y18870D02*
X10097Y18970D01*
X9897D01*
X9797Y18870D01*
Y18470D01*
X9897Y18370D01*
X10097D01*
X10197Y18470D01*
X10697Y18970D02*
X10497D01*
X10397Y18870D01*
Y18470D01*
X10497Y18370D01*
X10697D01*
X10797Y18470D01*
Y18870D01*
X10697Y18970D01*
X38760Y19020D02*
X39360D01*
Y18720D01*
X39260Y18620D01*
X39060D01*
X38960Y18720D01*
Y19020D01*
X39360Y18420D02*
Y18220D01*
Y18320D01*
X38760D01*
Y18420D01*
Y18220D01*
X39260Y17520D02*
X39360Y17620D01*
Y17820D01*
X39260Y17920D01*
X38860D01*
X38760Y17820D01*
Y17620D01*
X38860Y17520D01*
X39360Y17021D02*
Y17221D01*
X39260Y17321D01*
X38860D01*
X38760Y17221D01*
Y17021D01*
X38860Y16921D01*
X39260D01*
X39360Y17021D01*
Y16121D02*
X38760D01*
Y15821D01*
X38860Y15721D01*
X39260D01*
X39360Y15821D01*
Y16121D01*
Y15521D02*
Y15321D01*
Y15421D01*
X38760D01*
Y15521D01*
Y15321D01*
X39260Y14621D02*
X39360Y14721D01*
Y14921D01*
X39260Y15021D01*
X39160D01*
X39060Y14921D01*
Y14721D01*
X38960Y14621D01*
X38860D01*
X38760Y14721D01*
Y14921D01*
X38860Y15021D01*
X38760Y14421D02*
X39360D01*
Y14122D01*
X39260Y14022D01*
X39060D01*
X38960Y14122D01*
Y14421D01*
X39360Y13822D02*
X38760D01*
Y13422D01*
Y13222D02*
X39160D01*
X39360Y13022D01*
X39160Y12822D01*
X38760D01*
X39060D01*
Y13222D01*
X39360Y12622D02*
X39260D01*
X39060Y12422D01*
X39260Y12222D01*
X39360D01*
X39060Y12422D02*
X38760D01*
D17*
X9980Y6608D02*
Y8478D01*
X7480Y6600D02*
Y8470D01*
X20140Y10752D02*
Y12622D01*
X22640Y10760D02*
Y12630D01*
D27*
X4785Y2590D02*
X4706D01*
X4785D01*
X28880Y16610D02*
Y18610D01*
X27880Y16610D02*
X28880D01*
X27880D02*
Y18610D01*
X28880D01*
X25160Y16610D02*
Y18610D01*
Y16610D02*
X26160D01*
Y18610D01*
X25160D02*
X26160D01*
X-1475Y4362D02*
X4155D01*
X3663Y818D02*
X4155D01*
Y1625D01*
X-1475Y818D02*
X1891D01*
X-1475D02*
Y4362D01*
X4155Y3555D02*
Y4362D01*
X4810Y1060D02*
Y3060D01*
Y1060D02*
X5810D01*
Y3060D01*
X4810D02*
X5810D01*
X43228Y7075D02*
X43281Y7127D01*
Y7232D01*
X43228Y7285D01*
X43018D01*
X42966Y7232D01*
Y7127D01*
X43018Y7075D01*
X42966Y6970D02*
X43176D01*
X43281Y6865D01*
X43176Y6760D01*
X42966D01*
X43123D01*
Y6970D01*
X42966Y6655D02*
X43281D01*
Y6498D01*
X43228Y6445D01*
X43123D01*
X43071Y6498D01*
Y6655D01*
Y6550D02*
X42966Y6445D01*
Y6340D02*
X43281D01*
Y6183D01*
X43228Y6130D01*
X43123D01*
X43071Y6183D01*
Y6340D01*
Y6235D02*
X42966Y6130D01*
X43281Y6025D02*
Y5920D01*
Y5973D01*
X42966D01*
Y6025D01*
Y5920D01*
X43281Y5553D02*
Y5763D01*
X42966D01*
Y5553D01*
X43123Y5763D02*
Y5658D01*
X42966Y5448D02*
X43281D01*
Y5291D01*
X43228Y5238D01*
X43123D01*
X43071Y5291D01*
Y5448D01*
Y5343D02*
X42966Y5238D01*
X43281Y4818D02*
X42966D01*
Y4346D02*
X43281D01*
Y4189D01*
X43228Y4136D01*
X43123D01*
X43071Y4189D01*
Y4346D01*
Y4241D02*
X42966Y4136D01*
X43281Y3821D02*
Y4031D01*
X42966D01*
Y3821D01*
X43123Y4031D02*
Y3926D01*
X43228Y3506D02*
X43281Y3559D01*
Y3664D01*
X43228Y3716D01*
X43018D01*
X42966Y3664D01*
Y3559D01*
X43018Y3506D01*
X43281Y3192D02*
Y3401D01*
X42966D01*
Y3192D01*
X43123Y3401D02*
Y3297D01*
X43281Y3087D02*
Y2982D01*
Y3034D01*
X42966D01*
Y3087D01*
Y2982D01*
X43281Y2824D02*
X43071D01*
X42966Y2719D01*
X43071Y2614D01*
X43281D01*
Y2299D02*
Y2509D01*
X42966D01*
Y2299D01*
X43123Y2509D02*
Y2404D01*
X42966Y2194D02*
X43281D01*
Y2037D01*
X43228Y1985D01*
X43123D01*
X43071Y2037D01*
Y2194D01*
Y2090D02*
X42966Y1985D01*
X42592Y7285D02*
X42382D01*
X42277Y7180D01*
X42382Y7075D01*
X42592D01*
X42277Y6812D02*
Y6917D01*
X42329Y6970D01*
X42434D01*
X42487Y6917D01*
Y6812D01*
X42434Y6760D01*
X42382D01*
Y6970D01*
X42487Y6655D02*
X42277D01*
X42382D01*
X42434Y6603D01*
X42487Y6550D01*
Y6498D01*
X42277Y6340D02*
Y6183D01*
X42329Y6130D01*
X42382Y6183D01*
Y6288D01*
X42434Y6340D01*
X42487Y6288D01*
Y6130D01*
X42277Y6025D02*
Y5920D01*
Y5973D01*
X42487D01*
Y6025D01*
X42277Y5710D02*
Y5605D01*
X42329Y5553D01*
X42434D01*
X42487Y5605D01*
Y5710D01*
X42434Y5763D01*
X42329D01*
X42277Y5710D01*
Y5448D02*
X42487D01*
Y5291D01*
X42434Y5238D01*
X42277D01*
X42539Y4818D02*
X42592Y4766D01*
Y4661D01*
X42539Y4608D01*
X42487D01*
X42434Y4661D01*
Y4713D01*
Y4661D01*
X42382Y4608D01*
X42329D01*
X42277Y4661D01*
Y4766D01*
X42329Y4818D01*
D28*
X56520Y5840D02*
X58520D01*
Y6840D01*
X57020D02*
X58520D01*
X57020D02*
Y7840D01*
X58520D01*
Y8840D01*
X57020D02*
X58520D01*
X57020D02*
Y9840D01*
X58520D01*
Y10840D01*
X56020D02*
X58520D01*
Y11840D01*
X56020D02*
X58520D01*
D29*
X28880Y9940D02*
Y16510D01*
X27880Y9970D02*
Y16510D01*
X26160Y9950D02*
Y16510D01*
X25160Y9950D02*
Y16510D01*
D30*
X41400Y16170D02*
Y16570D01*
X41420Y16090D02*
Y16650D01*
X41440Y13430D02*
Y13510D01*
Y14150D02*
Y15490D01*
Y15990D02*
Y16750D01*
X41460Y13430D02*
Y13510D01*
Y14150D02*
Y15490D01*
Y15950D02*
Y16790D01*
X41480Y13430D02*
Y13510D01*
Y14150D02*
Y15490D01*
Y15910D02*
Y16850D01*
X41500Y13430D02*
Y13510D01*
Y14150D02*
Y15490D01*
Y15870D02*
Y16890D01*
X41520Y13430D02*
Y13510D01*
Y14150D02*
Y15490D01*
Y15850D02*
Y16910D01*
X41540Y13430D02*
Y13510D01*
Y14150D02*
Y15490D01*
Y15810D02*
Y16950D01*
X41560Y13430D02*
Y13510D01*
Y14150D02*
Y15490D01*
Y15790D02*
Y16970D01*
X41580Y13430D02*
Y13510D01*
Y14150D02*
Y15490D01*
Y15770D02*
Y16990D01*
X41600Y13430D02*
Y13510D01*
Y14150D02*
Y15490D01*
Y15750D02*
Y17010D01*
X41620Y13430D02*
Y13510D01*
Y14150D02*
Y15490D01*
Y15730D02*
Y17030D01*
X41640Y13430D02*
Y13510D01*
Y14150D02*
Y15490D01*
Y15710D02*
Y17050D01*
X41660Y13430D02*
Y13510D01*
Y14150D02*
Y15490D01*
Y15690D02*
Y17070D01*
X41680Y13430D02*
Y13510D01*
Y14150D02*
Y15490D01*
Y15690D02*
Y17070D01*
X41700Y13430D02*
Y13510D01*
Y14150D02*
Y15490D01*
Y15670D02*
Y17090D01*
X41720Y13430D02*
Y13510D01*
Y14150D02*
Y15490D01*
Y15670D02*
Y17110D01*
X41740Y13430D02*
Y13510D01*
Y14150D02*
Y15490D01*
Y15650D02*
Y16230D01*
Y16490D02*
Y17110D01*
X41760Y13430D02*
Y13510D01*
Y14150D02*
Y15490D01*
Y15630D02*
Y16170D01*
Y16550D02*
Y17130D01*
X41780Y13430D02*
Y13510D01*
Y14150D02*
Y15490D01*
Y15630D02*
Y16130D01*
Y16590D02*
Y17130D01*
X41800Y13430D02*
Y13510D01*
Y15050D02*
Y15490D01*
Y15630D02*
Y16090D01*
Y16630D02*
Y17150D01*
X41820Y13430D02*
Y13510D01*
Y15050D02*
Y15490D01*
Y15610D02*
Y16070D01*
Y16650D02*
Y17150D01*
X41840Y8170D02*
Y8310D01*
Y8490D02*
Y8630D01*
Y8850D02*
Y9030D01*
Y9310D02*
Y9390D01*
Y9530D02*
Y9650D01*
Y9990D02*
Y10150D01*
Y10530D02*
Y10650D01*
Y10890D02*
Y11010D01*
Y11370D02*
Y11530D01*
Y12050D02*
Y12190D01*
Y12470D02*
Y12630D01*
Y13430D02*
Y13510D01*
Y15050D02*
Y15490D01*
Y15610D02*
Y16050D01*
Y16670D02*
Y17170D01*
X41860Y8170D02*
Y8310D01*
Y8490D02*
Y8630D01*
Y8810D02*
Y9070D01*
Y9290D02*
Y9430D01*
Y9490D02*
Y9690D01*
Y9930D02*
Y10190D01*
Y10510D02*
Y10670D01*
Y10870D02*
Y11010D01*
Y11330D02*
Y11590D01*
Y12050D02*
Y12190D01*
Y12430D02*
Y12690D01*
Y13430D02*
Y13510D01*
Y15050D02*
Y15490D01*
Y15610D02*
Y16030D01*
Y16710D02*
Y17170D01*
X41880Y8170D02*
Y8310D01*
Y8470D02*
Y8630D01*
Y8790D02*
Y9090D01*
Y9290D02*
Y9430D01*
Y9470D02*
Y9710D01*
Y9910D02*
Y10230D01*
Y10510D02*
Y10670D01*
Y10850D02*
Y11010D01*
Y11290D02*
Y11630D01*
Y12050D02*
Y12190D01*
Y12410D02*
Y12710D01*
Y13430D02*
Y13510D01*
Y15050D02*
Y15490D01*
Y15610D02*
Y16030D01*
Y16710D02*
Y17170D01*
X41900Y8170D02*
Y8310D01*
Y8470D02*
Y8630D01*
Y8730D02*
Y9150D01*
Y9290D02*
Y9750D01*
Y9870D02*
Y10270D01*
Y10490D02*
Y10690D01*
Y10850D02*
Y11030D01*
Y11250D02*
Y11670D01*
Y12050D02*
Y12190D01*
Y12370D02*
Y12750D01*
Y13430D02*
Y13510D01*
Y15050D02*
Y15490D01*
Y15610D02*
Y16030D01*
Y16730D02*
Y17170D01*
X41920Y8170D02*
Y8310D01*
Y8470D02*
Y8630D01*
Y8730D02*
Y9150D01*
Y9290D02*
Y9750D01*
Y9850D02*
Y10290D01*
Y10490D02*
Y10690D01*
Y10850D02*
Y11030D01*
Y11230D02*
Y11690D01*
Y12050D02*
Y12190D01*
Y12350D02*
Y12770D01*
Y13430D02*
Y13510D01*
Y15050D02*
Y15490D01*
Y15610D02*
Y16030D01*
Y16730D02*
Y17170D01*
X41940Y8170D02*
Y8310D01*
Y8470D02*
Y8630D01*
Y8730D02*
Y9150D01*
Y9290D02*
Y9770D01*
Y9850D02*
Y10290D01*
Y10490D02*
Y10690D01*
Y10850D02*
Y11050D01*
Y11230D02*
Y11710D01*
Y12050D02*
Y12190D01*
Y12330D02*
Y12770D01*
Y13430D02*
Y13510D01*
Y15050D02*
Y15490D01*
Y15610D02*
Y16030D01*
Y16750D02*
Y17170D01*
X41960Y8170D02*
Y8310D01*
Y8470D02*
Y8630D01*
Y8730D02*
Y9190D01*
Y9290D02*
Y9770D01*
Y9850D02*
Y10310D01*
Y10490D02*
Y10710D01*
Y10830D02*
Y11050D01*
Y11210D02*
Y11710D01*
Y12050D02*
Y12190D01*
Y12310D02*
Y12790D01*
Y13430D02*
Y13510D01*
Y15050D02*
Y15490D01*
Y15610D02*
Y16030D01*
Y16750D02*
Y17170D01*
X41980Y8170D02*
Y8310D01*
Y8470D02*
Y8630D01*
Y8750D02*
Y8870D01*
Y8990D02*
Y9190D01*
Y9290D02*
Y9510D01*
Y9590D02*
Y9770D01*
Y9870D02*
Y9990D01*
Y10110D02*
Y10310D01*
Y10470D02*
Y10710D01*
Y10830D02*
Y11050D01*
Y11210D02*
Y11690D01*
Y12050D02*
Y12190D01*
Y12310D02*
Y12510D01*
Y12610D02*
Y12810D01*
Y13430D02*
Y13510D01*
Y15050D02*
Y15490D01*
Y15590D02*
Y16030D01*
Y16750D02*
Y17170D01*
X42000Y8170D02*
Y8310D01*
Y8470D02*
Y8630D01*
Y8770D02*
Y8830D01*
Y9030D02*
Y9210D01*
Y9290D02*
Y9470D01*
Y9610D02*
Y9790D01*
Y9890D02*
Y9950D01*
Y10150D02*
Y10330D01*
Y10470D02*
Y10710D01*
Y10810D02*
Y11070D01*
Y11190D02*
Y11370D01*
Y11530D02*
Y11690D01*
Y12050D02*
Y12190D01*
Y12310D02*
Y12470D01*
Y12630D02*
Y12810D01*
Y13430D02*
Y13510D01*
Y15050D02*
Y15490D01*
Y15590D02*
Y16030D01*
Y16750D02*
Y17170D01*
X42020Y8170D02*
Y8310D01*
Y8470D02*
Y8630D01*
Y9050D02*
Y9210D01*
Y9290D02*
Y9450D01*
Y9630D02*
Y9790D01*
Y10170D02*
Y10330D01*
Y10450D02*
Y10710D01*
Y10810D02*
Y11070D01*
Y11190D02*
Y11350D01*
Y11570D02*
Y11670D01*
Y12050D02*
Y12190D01*
Y12290D02*
Y12470D01*
Y12650D02*
Y12830D01*
Y13430D02*
Y13510D01*
Y15050D02*
Y15490D01*
Y15610D02*
Y16030D01*
Y16750D02*
Y17170D01*
X42040Y8170D02*
Y8310D01*
Y8470D02*
Y8630D01*
Y9050D02*
Y9210D01*
Y9290D02*
Y9450D01*
Y9630D02*
Y9790D01*
Y10170D02*
Y10330D01*
Y10450D02*
Y10710D01*
Y10810D02*
Y11070D01*
Y11190D02*
Y11350D01*
Y11590D02*
Y11650D01*
Y12050D02*
Y12190D01*
Y12290D02*
Y12450D01*
Y12650D02*
Y12830D01*
Y13430D02*
Y13510D01*
Y15050D02*
Y15490D01*
Y15610D02*
Y16050D01*
Y16750D02*
Y17170D01*
X42060Y8170D02*
Y8310D01*
Y8470D02*
Y8630D01*
Y9050D02*
Y9210D01*
Y9290D02*
Y9450D01*
Y9630D02*
Y9790D01*
Y10190D02*
Y10330D01*
Y10450D02*
Y10730D01*
Y10810D02*
Y11070D01*
Y11170D02*
Y11330D01*
Y12050D02*
Y12190D01*
Y12290D02*
Y12450D01*
Y12670D02*
Y12830D01*
Y13430D02*
Y13510D01*
Y15050D02*
Y15490D01*
Y15610D02*
Y16090D01*
Y16750D02*
Y17170D01*
X42080Y8170D02*
Y8310D01*
Y8470D02*
Y8630D01*
Y9050D02*
Y9210D01*
Y9290D02*
Y9450D01*
Y9630D02*
Y9810D01*
Y10170D02*
Y10330D01*
Y10450D02*
Y10590D01*
Y10610D02*
Y10730D01*
Y10790D02*
Y11090D01*
Y11170D02*
Y11350D01*
Y12050D02*
Y12190D01*
Y12290D02*
Y12450D01*
Y12670D02*
Y12830D01*
Y13430D02*
Y13510D01*
Y15050D02*
Y15490D01*
Y15610D02*
Y16090D01*
X42100Y8170D02*
Y8310D01*
Y8470D02*
Y8630D01*
Y8730D02*
Y9210D01*
Y9290D02*
Y9450D01*
Y9630D02*
Y9810D01*
Y9850D02*
Y10350D01*
Y10430D02*
Y10590D01*
Y10610D02*
Y10750D01*
Y10790D02*
Y10910D01*
Y10950D02*
Y11090D01*
Y11170D02*
Y11350D01*
Y12050D02*
Y12190D01*
Y12290D02*
Y12450D01*
Y12670D02*
Y12830D01*
Y13430D02*
Y13510D01*
Y15050D02*
Y15490D01*
Y15610D02*
Y16130D01*
X42120Y8170D02*
Y8310D01*
Y8470D02*
Y8630D01*
Y8710D02*
Y9210D01*
Y9290D02*
Y9450D01*
Y9650D02*
Y9810D01*
Y9830D02*
Y10350D01*
Y10430D02*
Y10590D01*
Y10610D02*
Y10750D01*
Y10770D02*
Y10910D01*
Y10950D02*
Y11110D01*
Y11170D02*
Y11370D01*
Y12050D02*
Y12190D01*
Y12290D02*
Y12450D01*
Y12670D02*
Y12830D01*
Y13430D02*
Y13510D01*
Y15050D02*
Y15490D01*
Y15610D02*
Y16170D01*
X42140Y8170D02*
Y8310D01*
Y8470D02*
Y8630D01*
Y8710D02*
Y9210D01*
Y9290D02*
Y9450D01*
Y9630D02*
Y9810D01*
Y9830D02*
Y10350D01*
Y10430D02*
Y10570D01*
Y10610D02*
Y10750D01*
Y10770D02*
Y10910D01*
Y10950D02*
Y11110D01*
Y11190D02*
Y11390D01*
Y12050D02*
Y12190D01*
Y12290D02*
Y12450D01*
Y12670D02*
Y12830D01*
Y13430D02*
Y13510D01*
Y15050D02*
Y15490D01*
Y15610D02*
Y16210D01*
X42160Y8170D02*
Y8310D01*
Y8470D02*
Y8630D01*
Y8710D02*
Y9230D01*
Y9290D02*
Y9450D01*
Y9630D02*
Y9810D01*
Y9830D02*
Y10330D01*
Y10410D02*
Y10570D01*
Y10630D02*
Y10750D01*
Y10770D02*
Y10910D01*
Y10970D02*
Y11110D01*
Y11190D02*
Y11470D01*
Y12050D02*
Y12190D01*
Y12290D02*
Y12450D01*
Y12670D02*
Y12830D01*
Y13430D02*
Y13510D01*
Y15050D02*
Y15490D01*
Y15610D02*
Y16290D01*
X42180Y8170D02*
Y8310D01*
Y8470D02*
Y8630D01*
Y8710D02*
Y9210D01*
Y9290D02*
Y9450D01*
Y9630D02*
Y9790D01*
Y9830D02*
Y10330D01*
Y10410D02*
Y10550D01*
Y10630D02*
Y10910D01*
Y10970D02*
Y11110D01*
Y11190D02*
Y11530D01*
Y12050D02*
Y12190D01*
Y12290D02*
Y12450D01*
Y12670D02*
Y12830D01*
Y13430D02*
Y13510D01*
Y15050D02*
Y15490D01*
Y15630D02*
Y16350D01*
X42200Y8170D02*
Y8310D01*
Y8470D02*
Y8630D01*
Y8710D02*
Y8870D01*
Y9050D02*
Y9210D01*
Y9290D02*
Y9450D01*
Y9630D02*
Y9790D01*
Y9830D02*
Y9990D01*
Y10170D02*
Y10330D01*
Y10410D02*
Y10550D01*
Y10630D02*
Y10890D01*
Y10970D02*
Y11130D01*
Y11210D02*
Y11570D01*
Y12050D02*
Y12190D01*
Y12290D02*
Y12450D01*
Y12650D02*
Y12830D01*
Y13430D02*
Y13510D01*
Y15050D02*
Y15490D01*
Y15630D02*
Y16450D01*
X42220Y8170D02*
Y8330D01*
Y8470D02*
Y8630D01*
Y8710D02*
Y8870D01*
Y9050D02*
Y9210D01*
Y9290D02*
Y9450D01*
Y9610D02*
Y9790D01*
Y9830D02*
Y9990D01*
Y10170D02*
Y10330D01*
Y10390D02*
Y10550D01*
Y10650D02*
Y10890D01*
Y10970D02*
Y11130D01*
Y11230D02*
Y11610D01*
Y12050D02*
Y12190D01*
Y12290D02*
Y12470D01*
Y12650D02*
Y12830D01*
Y13430D02*
Y13510D01*
Y14230D02*
Y15490D01*
Y15650D02*
Y16510D01*
X42240Y8170D02*
Y8330D01*
Y8470D02*
Y8630D01*
Y8730D02*
Y8870D01*
Y9050D02*
Y9210D01*
Y9290D02*
Y9450D01*
Y9610D02*
Y9790D01*
Y9850D02*
Y9990D01*
Y10170D02*
Y10330D01*
Y10390D02*
Y10550D01*
Y10650D02*
Y10870D01*
Y10970D02*
Y11130D01*
Y11230D02*
Y11630D01*
Y12050D02*
Y12190D01*
Y12310D02*
Y12470D01*
Y12630D02*
Y12810D01*
Y13430D02*
Y13510D01*
Y14210D02*
Y15490D01*
Y15650D02*
Y16570D01*
X42260Y8170D02*
Y8350D01*
Y8430D02*
Y8630D01*
Y8730D02*
Y8890D01*
Y9010D02*
Y9190D01*
Y9290D02*
Y9470D01*
Y9590D02*
Y9770D01*
Y9850D02*
Y10030D01*
Y10130D02*
Y10310D01*
Y10390D02*
Y10550D01*
Y10650D02*
Y10870D01*
Y10990D02*
Y11150D01*
Y11270D02*
Y11650D01*
Y12050D02*
Y12190D01*
Y12310D02*
Y12510D01*
Y12610D02*
Y12810D01*
Y13430D02*
Y13510D01*
Y14210D02*
Y15490D01*
Y15670D02*
Y16670D01*
X42280Y8170D02*
Y8630D01*
Y8730D02*
Y8930D01*
Y8990D02*
Y9190D01*
Y9290D02*
Y9770D01*
Y9870D02*
Y10050D01*
Y10110D02*
Y10310D01*
Y10390D02*
Y10530D01*
Y10650D02*
Y10850D01*
Y10990D02*
Y11150D01*
Y11310D02*
Y11650D01*
Y11910D02*
Y12230D01*
Y12310D02*
Y12790D01*
Y13430D02*
Y13510D01*
Y14210D02*
Y15490D01*
Y15670D02*
Y16710D01*
X42300Y8170D02*
Y8630D01*
Y8750D02*
Y9170D01*
Y9290D02*
Y9750D01*
Y9870D02*
Y10290D01*
Y10370D02*
Y10530D01*
Y10670D02*
Y10850D01*
Y10990D02*
Y11150D01*
Y11370D02*
Y11670D01*
Y11890D02*
Y12250D01*
Y12330D02*
Y12770D01*
Y13430D02*
Y13510D01*
Y14210D02*
Y15490D01*
Y15710D02*
Y16770D01*
X42320Y8190D02*
Y8630D01*
Y8770D02*
Y9150D01*
Y9290D02*
Y9750D01*
Y9890D02*
Y10290D01*
Y10370D02*
Y10530D01*
Y10670D02*
Y10850D01*
Y11010D02*
Y11170D01*
Y11430D02*
Y11670D01*
Y11890D02*
Y12270D01*
Y12350D02*
Y12770D01*
Y13430D02*
Y13510D01*
Y14210D02*
Y15490D01*
Y15710D02*
Y16830D01*
X42340Y8190D02*
Y8630D01*
Y8770D02*
Y9150D01*
Y9290D02*
Y9730D01*
Y9890D02*
Y10270D01*
Y10350D02*
Y10510D01*
Y10670D02*
Y10850D01*
Y11010D02*
Y11170D01*
Y11470D02*
Y11690D01*
Y11890D02*
Y12290D01*
Y12370D02*
Y12750D01*
Y13430D02*
Y13510D01*
Y14210D02*
Y15490D01*
Y15730D02*
Y16850D01*
X42360Y8230D02*
Y8630D01*
Y8810D02*
Y9090D01*
Y9290D02*
Y9690D01*
Y9930D02*
Y10230D01*
Y10350D02*
Y10510D01*
Y10690D02*
Y10850D01*
Y11010D02*
Y11170D01*
Y11510D02*
Y11690D01*
Y11890D02*
Y12270D01*
Y12410D02*
Y12710D01*
Y13430D02*
Y13510D01*
Y14210D02*
Y15490D01*
Y15750D02*
Y16910D01*
X42380Y8230D02*
Y8450D01*
Y8510D02*
Y8630D01*
Y8830D02*
Y9070D01*
Y9290D02*
Y9670D01*
Y9950D02*
Y10190D01*
Y10350D02*
Y10490D01*
Y10690D02*
Y10830D01*
Y11010D02*
Y11170D01*
Y11510D02*
Y11690D01*
Y11910D02*
Y12270D01*
Y12430D02*
Y12690D01*
Y13430D02*
Y13510D01*
Y14210D02*
Y15490D01*
Y15770D02*
Y16910D01*
X42400Y8290D02*
Y8410D01*
Y8550D02*
Y8630D01*
Y8890D02*
Y9030D01*
Y9290D02*
Y9450D01*
Y9490D02*
Y9630D01*
Y10010D02*
Y10150D01*
Y10370D02*
Y10470D01*
Y10710D02*
Y10810D01*
Y11050D02*
Y11170D01*
Y11530D02*
Y11690D01*
Y12050D02*
Y12190D01*
Y12470D02*
Y12630D01*
Y13430D02*
Y13510D01*
Y14210D02*
Y15490D01*
Y15790D02*
Y16950D01*
X42420Y9290D02*
Y9450D01*
Y11510D02*
Y11690D01*
Y12050D02*
Y12190D01*
Y13430D02*
Y13510D01*
Y14210D02*
Y15490D01*
Y15830D02*
Y16970D01*
X42440Y9290D02*
Y9450D01*
Y11230D02*
Y11310D01*
Y11510D02*
Y11690D01*
Y12050D02*
Y12190D01*
Y13430D02*
Y13510D01*
Y14210D02*
Y15490D01*
Y15850D02*
Y16990D01*
X42460Y9290D02*
Y9450D01*
Y11230D02*
Y11370D01*
Y11470D02*
Y11670D01*
Y12030D02*
Y12190D01*
Y13430D02*
Y13510D01*
Y14210D02*
Y15490D01*
Y15910D02*
Y17010D01*
X42480Y9290D02*
Y9450D01*
Y11210D02*
Y11670D01*
Y12010D02*
Y12190D01*
Y13430D02*
Y13510D01*
Y14210D02*
Y15490D01*
Y15930D02*
Y17030D01*
X42500Y9290D02*
Y9450D01*
Y11210D02*
Y11650D01*
Y11990D02*
Y12190D01*
Y13430D02*
Y13510D01*
Y14210D02*
Y15490D01*
Y15990D02*
Y17050D01*
X42520Y9290D02*
Y9450D01*
Y11190D02*
Y11630D01*
Y11890D02*
Y12170D01*
Y13430D02*
Y13510D01*
Y14210D02*
Y15490D01*
Y16070D02*
Y17070D01*
X42540Y9290D02*
Y9450D01*
Y11190D02*
Y11630D01*
Y11890D02*
Y12150D01*
Y13430D02*
Y13510D01*
Y14210D02*
Y15490D01*
Y16130D02*
Y17070D01*
X42560Y9290D02*
Y9450D01*
Y11230D02*
Y11590D01*
Y11890D02*
Y12150D01*
Y13430D02*
Y13510D01*
Y14210D02*
Y15490D01*
Y16230D02*
Y17070D01*
X42580Y9290D02*
Y9450D01*
Y11270D02*
Y11570D01*
Y11890D02*
Y12130D01*
Y13430D02*
Y13510D01*
Y15050D02*
Y15490D01*
Y16290D02*
Y17090D01*
X42600Y9290D02*
Y9450D01*
Y11290D02*
Y11550D01*
Y11890D02*
Y12090D01*
Y13430D02*
Y13510D01*
Y15050D02*
Y15490D01*
Y16350D02*
Y17090D01*
X42620Y9290D02*
Y9450D01*
Y13430D02*
Y13510D01*
Y15050D02*
Y15490D01*
Y16450D02*
Y17110D01*
X42640Y13430D02*
Y13510D01*
Y15050D02*
Y15490D01*
Y16510D02*
Y17110D01*
X42660Y13430D02*
Y13510D01*
Y15050D02*
Y15490D01*
Y16570D02*
Y17110D01*
X42680Y13430D02*
Y13510D01*
Y15050D02*
Y15490D01*
Y16610D02*
Y17110D01*
X42700Y13430D02*
Y13510D01*
Y15050D02*
Y15490D01*
Y16650D02*
Y17110D01*
X42720Y13430D02*
Y13510D01*
Y15050D02*
Y15490D01*
Y15670D02*
Y16070D01*
Y16670D02*
Y17110D01*
X42740Y13430D02*
Y13510D01*
Y15050D02*
Y15490D01*
Y15670D02*
Y16090D01*
Y16690D02*
Y17110D01*
X42760Y13430D02*
Y13510D01*
Y15050D02*
Y15490D01*
Y15670D02*
Y16090D01*
Y16690D02*
Y17110D01*
X42780Y13430D02*
Y13510D01*
Y15050D02*
Y15490D01*
Y15670D02*
Y16090D01*
Y16710D02*
Y17110D01*
X42800Y13430D02*
Y13510D01*
Y15050D02*
Y15490D01*
Y15670D02*
Y16090D01*
Y16710D02*
Y17110D01*
X42820Y13430D02*
Y13510D01*
Y15050D02*
Y15490D01*
Y15670D02*
Y16090D01*
Y16710D02*
Y17110D01*
X42840Y13430D02*
Y13510D01*
Y15050D02*
Y15490D01*
Y15670D02*
Y16110D01*
Y16710D02*
Y17110D01*
X42860Y13430D02*
Y13510D01*
Y15050D02*
Y15490D01*
Y15670D02*
Y16110D01*
Y16690D02*
Y17110D01*
X42880Y13430D02*
Y13510D01*
Y15050D02*
Y15490D01*
Y15670D02*
Y16130D01*
Y16690D02*
Y17110D01*
X42900Y13430D02*
Y13510D01*
Y15050D02*
Y15490D01*
Y15670D02*
Y16150D01*
Y16670D02*
Y17110D01*
X42920Y13430D02*
Y13510D01*
Y15050D02*
Y15490D01*
Y15670D02*
Y16170D01*
Y16650D02*
Y17110D01*
X42940Y13430D02*
Y13510D01*
Y14150D02*
Y15490D01*
Y15690D02*
Y16190D01*
Y16630D02*
Y17110D01*
X42960Y13430D02*
Y13510D01*
Y14150D02*
Y15490D01*
Y15690D02*
Y16210D01*
Y16610D02*
Y17090D01*
X42980Y8590D02*
Y8830D01*
Y9050D02*
Y9290D01*
Y9510D02*
Y9710D01*
Y9910D02*
Y10030D01*
Y10090D02*
Y10310D01*
Y10490D02*
Y10690D01*
Y10890D02*
Y11050D01*
Y11150D02*
Y11370D01*
Y11630D02*
Y11870D01*
Y11990D02*
Y12150D01*
Y12310D02*
Y12470D01*
Y12610D02*
Y12770D01*
Y13430D02*
Y13510D01*
Y14150D02*
Y15490D01*
Y15710D02*
Y16290D01*
Y16550D02*
Y17090D01*
X43000Y8570D02*
Y8870D01*
Y9010D02*
Y9330D01*
Y9470D02*
Y9730D01*
Y9910D02*
Y10050D01*
Y10070D02*
Y10330D01*
Y10450D02*
Y10710D01*
Y10890D02*
Y11050D01*
Y11130D02*
Y11370D01*
Y11590D02*
Y11890D01*
Y11990D02*
Y12150D01*
Y12310D02*
Y12470D01*
Y12610D02*
Y12770D01*
Y13430D02*
Y13510D01*
Y14150D02*
Y15490D01*
Y15710D02*
Y16370D01*
Y16490D02*
Y17070D01*
X43020Y8550D02*
Y8890D01*
Y8990D02*
Y9350D01*
Y9470D02*
Y9750D01*
Y9910D02*
Y10330D01*
Y10450D02*
Y10710D01*
Y10890D02*
Y11050D01*
Y11110D02*
Y11390D01*
Y11570D02*
Y11930D01*
Y11990D02*
Y12150D01*
Y12310D02*
Y12470D01*
Y12610D02*
Y12770D01*
Y13430D02*
Y13510D01*
Y14150D02*
Y15490D01*
Y15710D02*
Y17070D01*
X43040Y8530D02*
Y8910D01*
Y8950D02*
Y9370D01*
Y9470D02*
Y9770D01*
Y9910D02*
Y10370D01*
Y10450D02*
Y10750D01*
Y10890D02*
Y11050D01*
Y11110D02*
Y11410D01*
Y11550D02*
Y11950D01*
Y11990D02*
Y12150D01*
Y12310D02*
Y12470D01*
Y12610D02*
Y12770D01*
Y13430D02*
Y13510D01*
Y14150D02*
Y15490D01*
Y15730D02*
Y17050D01*
X43060Y8510D02*
Y8910D01*
Y8950D02*
Y9390D01*
Y9490D02*
Y9770D01*
Y9910D02*
Y10370D01*
Y10450D02*
Y10750D01*
Y10890D02*
Y11050D01*
Y11130D02*
Y11410D01*
Y11530D02*
Y11930D01*
Y11990D02*
Y12150D01*
Y12310D02*
Y12470D01*
Y12610D02*
Y12770D01*
Y13430D02*
Y13510D01*
Y14150D02*
Y15490D01*
Y15730D02*
Y17050D01*
X43080Y8510D02*
Y8690D01*
Y8750D02*
Y8890D01*
Y8950D02*
Y9410D01*
Y9510D02*
Y9770D01*
Y9910D02*
Y10390D01*
Y10470D02*
Y10750D01*
Y10890D02*
Y11050D01*
Y11150D02*
Y11430D01*
Y11530D02*
Y11710D01*
Y11770D02*
Y11910D01*
Y11990D02*
Y12150D01*
Y12310D02*
Y12470D01*
Y12610D02*
Y12770D01*
Y13430D02*
Y13510D01*
Y14150D02*
Y15490D01*
Y15770D02*
Y17030D01*
X43100Y8490D02*
Y8650D01*
Y8790D02*
Y8890D01*
Y8970D02*
Y9110D01*
Y9210D02*
Y9410D01*
Y9510D02*
Y9570D01*
Y9610D02*
Y9770D01*
Y9910D02*
Y10130D01*
Y10210D02*
Y10390D01*
Y10490D02*
Y10550D01*
Y10590D02*
Y10750D01*
Y10890D02*
Y11050D01*
Y11150D02*
Y11210D01*
Y11250D02*
Y11430D01*
Y11530D02*
Y11690D01*
Y11810D02*
Y11910D01*
Y11990D02*
Y12150D01*
Y12310D02*
Y12470D01*
Y12610D02*
Y12770D01*
Y13430D02*
Y13510D01*
Y14150D02*
Y15490D01*
Y15770D02*
Y17010D01*
X43120Y8490D02*
Y8650D01*
Y8810D02*
Y8870D01*
Y8990D02*
Y9070D01*
Y9250D02*
Y9430D01*
Y9610D02*
Y9770D01*
Y9910D02*
Y10090D01*
Y10230D02*
Y10390D01*
Y10590D02*
Y10750D01*
Y10890D02*
Y11050D01*
Y11270D02*
Y11430D01*
Y11530D02*
Y11670D01*
Y11850D02*
Y11890D01*
Y11990D02*
Y12150D01*
Y12310D02*
Y12470D01*
Y12610D02*
Y12770D01*
Y13430D02*
Y13510D01*
Y14150D02*
Y15490D01*
Y15790D02*
Y17010D01*
X43140Y8490D02*
Y8650D01*
Y9270D02*
Y9430D01*
Y9610D02*
Y9770D01*
Y9910D02*
Y10070D01*
Y10230D02*
Y10390D01*
Y10590D02*
Y10750D01*
Y10890D02*
Y11050D01*
Y11270D02*
Y11430D01*
Y11530D02*
Y11690D01*
Y11990D02*
Y12150D01*
Y12310D02*
Y12470D01*
Y12610D02*
Y12770D01*
Y13430D02*
Y13510D01*
Y14150D02*
Y15490D01*
Y15810D02*
Y16970D01*
X43160Y8490D02*
Y8670D01*
Y9270D02*
Y9430D01*
Y9610D02*
Y9770D01*
Y9910D02*
Y10070D01*
Y10230D02*
Y10390D01*
Y10590D02*
Y10750D01*
Y10890D02*
Y11050D01*
Y11270D02*
Y11430D01*
Y11530D02*
Y11690D01*
Y11990D02*
Y12150D01*
Y12310D02*
Y12470D01*
Y12610D02*
Y12770D01*
Y13430D02*
Y13510D01*
Y14150D02*
Y15490D01*
Y15830D02*
Y16970D01*
X43180Y8490D02*
Y8730D01*
Y9290D02*
Y9450D01*
Y9610D02*
Y9770D01*
Y9910D02*
Y10070D01*
Y10230D02*
Y10390D01*
Y10590D02*
Y10750D01*
Y10890D02*
Y11050D01*
Y11270D02*
Y11430D01*
Y11530D02*
Y11770D01*
Y11990D02*
Y12150D01*
Y12310D02*
Y12470D01*
Y12610D02*
Y12770D01*
Y13430D02*
Y13510D01*
Y14150D02*
Y15490D01*
Y15850D02*
Y16930D01*
X43200Y8490D02*
Y8790D01*
Y9290D02*
Y9450D01*
Y9610D02*
Y9770D01*
Y9910D02*
Y10070D01*
Y10230D02*
Y10390D01*
Y10590D02*
Y10750D01*
Y10890D02*
Y11050D01*
Y11270D02*
Y11430D01*
Y11530D02*
Y11810D01*
Y11990D02*
Y12150D01*
Y12310D02*
Y12470D01*
Y12610D02*
Y12770D01*
Y13430D02*
Y13510D01*
Y14150D02*
Y15490D01*
Y15870D02*
Y16910D01*
X43220Y8510D02*
Y8830D01*
Y8950D02*
Y9450D01*
Y9610D02*
Y9770D01*
Y9910D02*
Y10070D01*
Y10230D02*
Y10390D01*
Y10590D02*
Y10750D01*
Y10890D02*
Y11050D01*
Y11270D02*
Y11430D01*
Y11530D02*
Y11850D01*
Y11990D02*
Y12150D01*
Y12310D02*
Y12470D01*
Y12610D02*
Y12770D01*
Y13430D02*
Y13510D01*
Y14150D02*
Y15490D01*
Y15890D02*
Y16890D01*
X43240Y8530D02*
Y8850D01*
Y8950D02*
Y9450D01*
Y9610D02*
Y9770D01*
Y9910D02*
Y10070D01*
Y10230D02*
Y10390D01*
Y10590D02*
Y10750D01*
Y10890D02*
Y11050D01*
Y11270D02*
Y11430D01*
Y11550D02*
Y11890D01*
Y11990D02*
Y12150D01*
Y12310D02*
Y12470D01*
Y12610D02*
Y12770D01*
Y13430D02*
Y13510D01*
Y14150D02*
Y15490D01*
Y15930D02*
Y16850D01*
X43260Y8530D02*
Y8870D01*
Y8950D02*
Y9450D01*
Y9610D02*
Y9770D01*
Y9910D02*
Y10070D01*
Y10230D02*
Y10390D01*
Y10590D02*
Y10750D01*
Y10890D02*
Y11050D01*
Y11270D02*
Y11430D01*
Y11570D02*
Y11890D01*
Y11990D02*
Y12150D01*
Y12310D02*
Y12470D01*
Y12610D02*
Y12770D01*
Y13430D02*
Y13510D01*
Y14150D02*
Y15490D01*
Y15970D02*
Y16810D01*
X43280Y8590D02*
Y8890D01*
Y8950D02*
Y9450D01*
Y9610D02*
Y9770D01*
Y9910D02*
Y10070D01*
Y10230D02*
Y10390D01*
Y10590D02*
Y10750D01*
Y10890D02*
Y11050D01*
Y11270D02*
Y11430D01*
Y11610D02*
Y11910D01*
Y11990D02*
Y12150D01*
Y12310D02*
Y12470D01*
Y12610D02*
Y12770D01*
Y13430D02*
Y13510D01*
Y14150D02*
Y15490D01*
Y16030D02*
Y16750D01*
X43300Y8630D02*
Y8890D01*
Y8950D02*
Y9450D01*
Y9610D02*
Y9770D01*
Y9910D02*
Y10070D01*
Y10230D02*
Y10390D01*
Y10590D02*
Y10750D01*
Y10890D02*
Y11050D01*
Y11270D02*
Y11430D01*
Y11650D02*
Y11930D01*
Y11990D02*
Y12150D01*
Y12310D02*
Y12470D01*
Y12610D02*
Y12770D01*
Y13430D02*
Y13510D01*
Y14150D02*
Y15490D01*
Y16070D02*
Y16710D01*
X43320Y8670D02*
Y8890D01*
Y8950D02*
Y9450D01*
Y9610D02*
Y9770D01*
Y9910D02*
Y10070D01*
Y10230D02*
Y10390D01*
Y10590D02*
Y10750D01*
Y10890D02*
Y11050D01*
Y11270D02*
Y11430D01*
Y11710D02*
Y11930D01*
Y11990D02*
Y12150D01*
Y12310D02*
Y12470D01*
Y12610D02*
Y12770D01*
Y13430D02*
Y13510D01*
Y16130D02*
Y16670D01*
X43340Y8730D02*
Y8890D01*
Y8950D02*
Y9090D01*
Y9270D02*
Y9430D01*
Y9610D02*
Y9770D01*
Y9910D02*
Y10070D01*
Y10230D02*
Y10390D01*
Y10590D02*
Y10750D01*
Y10890D02*
Y11050D01*
Y11270D02*
Y11430D01*
Y11750D02*
Y11930D01*
Y11990D02*
Y12150D01*
Y12310D02*
Y12470D01*
Y12610D02*
Y12770D01*
Y13430D02*
Y13510D01*
Y16270D02*
Y16290D01*
Y16310D02*
Y16510D01*
X43360Y8750D02*
Y8890D01*
Y8950D02*
Y9090D01*
Y9270D02*
Y9430D01*
Y9610D02*
Y9770D01*
Y9910D02*
Y10070D01*
Y10230D02*
Y10390D01*
Y10590D02*
Y10750D01*
Y10890D02*
Y11050D01*
Y11270D02*
Y11430D01*
Y11770D02*
Y11930D01*
Y11990D02*
Y12150D01*
Y12310D02*
Y12470D01*
Y12610D02*
Y12770D01*
Y13430D02*
Y13510D01*
X43380Y8570D02*
Y8590D01*
Y8750D02*
Y8890D01*
Y8950D02*
Y9110D01*
Y9250D02*
Y9410D01*
Y9610D02*
Y9770D01*
Y9910D02*
Y10070D01*
Y10230D02*
Y10390D01*
Y10590D02*
Y10750D01*
Y10890D02*
Y11050D01*
Y11270D02*
Y11430D01*
Y11590D02*
Y11610D01*
Y11770D02*
Y11930D01*
Y11990D02*
Y12150D01*
Y12290D02*
Y12470D01*
Y12610D02*
Y12770D01*
Y13430D02*
Y13510D01*
X43400Y8530D02*
Y8650D01*
Y8710D02*
Y8890D01*
Y8970D02*
Y9150D01*
Y9210D02*
Y9410D01*
Y9490D02*
Y9830D01*
Y9910D02*
Y10070D01*
Y10230D02*
Y10390D01*
Y10450D02*
Y10810D01*
Y10890D02*
Y11050D01*
Y11130D02*
Y11470D01*
Y11550D02*
Y11690D01*
Y11730D02*
Y11930D01*
Y11990D02*
Y12470D01*
Y12610D02*
Y12770D01*
Y13430D02*
Y13510D01*
Y14150D02*
Y14650D01*
Y14870D02*
Y15310D01*
Y15470D02*
Y15910D01*
Y16650D02*
Y17090D01*
X43420Y8510D02*
Y8890D01*
Y8970D02*
Y9410D01*
Y9490D02*
Y9850D01*
Y9910D02*
Y10070D01*
Y10230D02*
Y10390D01*
Y10450D02*
Y10830D01*
Y10890D02*
Y11050D01*
Y11130D02*
Y11490D01*
Y11530D02*
Y11910D01*
Y12010D02*
Y12470D01*
Y12610D02*
Y12770D01*
Y13430D02*
Y13510D01*
Y14150D02*
Y14650D01*
Y14870D02*
Y15310D01*
Y15470D02*
Y15910D01*
Y16650D02*
Y17090D01*
X43440Y8510D02*
Y8870D01*
Y8990D02*
Y9390D01*
Y9490D02*
Y9850D01*
Y9910D02*
Y10070D01*
Y10230D02*
Y10390D01*
Y10450D02*
Y10830D01*
Y10890D02*
Y11050D01*
Y11130D02*
Y11490D01*
Y11530D02*
Y11890D01*
Y12010D02*
Y12470D01*
Y12610D02*
Y12770D01*
Y13430D02*
Y13510D01*
Y14150D02*
Y14650D01*
Y14870D02*
Y15310D01*
Y15470D02*
Y15930D01*
Y16650D02*
Y17090D01*
X43460Y8510D02*
Y8870D01*
Y9010D02*
Y9370D01*
Y9490D02*
Y9850D01*
Y9910D02*
Y10070D01*
Y10230D02*
Y10390D01*
Y10450D02*
Y10830D01*
Y10890D02*
Y11050D01*
Y11130D02*
Y11490D01*
Y11530D02*
Y11890D01*
Y12030D02*
Y12470D01*
Y12610D02*
Y12770D01*
Y13430D02*
Y13510D01*
Y14150D02*
Y14650D01*
Y14870D02*
Y15310D01*
Y15490D02*
Y15930D01*
Y16650D02*
Y17090D01*
X43480Y8530D02*
Y8850D01*
Y9030D02*
Y9350D01*
Y9490D02*
Y9850D01*
Y9910D02*
Y10070D01*
Y10230D02*
Y10390D01*
Y10450D02*
Y10830D01*
Y10890D02*
Y11050D01*
Y11130D02*
Y11490D01*
Y11550D02*
Y11870D01*
Y12050D02*
Y12470D01*
Y12610D02*
Y12770D01*
Y13430D02*
Y13510D01*
Y14150D02*
Y14650D01*
Y14870D02*
Y15310D01*
Y15490D02*
Y15930D01*
Y16650D02*
Y17090D01*
X43500Y8570D02*
Y8810D01*
Y9050D02*
Y9310D01*
Y9490D02*
Y9850D01*
Y9910D02*
Y10070D01*
Y10230D02*
Y10390D01*
Y10450D02*
Y10810D01*
Y10890D02*
Y11050D01*
Y11130D02*
Y11490D01*
Y11590D02*
Y11830D01*
Y12070D02*
Y12290D01*
Y12350D02*
Y12470D01*
Y12610D02*
Y12770D01*
Y13430D02*
Y13510D01*
Y14150D02*
Y14650D01*
Y14870D02*
Y15310D01*
Y15510D02*
Y15930D01*
Y16650D02*
Y17090D01*
X43520Y8590D02*
Y8770D01*
Y9110D02*
Y9270D01*
Y9610D02*
Y9770D01*
Y9910D02*
Y10070D01*
Y10250D02*
Y10390D01*
Y10590D02*
Y10750D01*
Y10890D02*
Y11050D01*
Y11270D02*
Y11410D01*
Y11630D02*
Y11790D01*
Y12110D02*
Y12250D01*
Y12370D02*
Y12470D01*
Y12610D02*
Y12770D01*
Y13430D02*
Y13510D01*
Y14150D02*
Y14650D01*
Y14870D02*
Y15310D01*
Y15510D02*
Y15930D01*
Y16650D02*
Y17090D01*
X43540Y9610D02*
Y9770D01*
Y10590D02*
Y10730D01*
Y11270D02*
Y11410D01*
Y12610D02*
Y12770D01*
Y13430D02*
Y13510D01*
Y14150D02*
Y14650D01*
Y14870D02*
Y15310D01*
Y15510D02*
Y15930D01*
Y16650D02*
Y17090D01*
X43560Y9610D02*
Y9770D01*
Y10590D02*
Y10730D01*
Y11270D02*
Y11410D01*
Y12610D02*
Y12770D01*
Y13430D02*
Y13510D01*
Y14150D02*
Y14650D01*
Y14870D02*
Y15310D01*
Y15510D02*
Y15930D01*
Y16650D02*
Y17090D01*
X43580Y9610D02*
Y9770D01*
Y10590D02*
Y10730D01*
Y10910D02*
Y11010D01*
Y11270D02*
Y11390D01*
Y12610D02*
Y12770D01*
Y13430D02*
Y13510D01*
Y14150D02*
Y14650D01*
Y14870D02*
Y15310D01*
Y15510D02*
Y15930D01*
Y16650D02*
Y17090D01*
X43600Y9610D02*
Y9750D01*
Y10590D02*
Y10730D01*
Y10890D02*
Y11050D01*
Y11270D02*
Y11390D01*
Y12610D02*
Y12770D01*
Y13430D02*
Y13510D01*
Y14150D02*
Y14650D01*
Y14870D02*
Y15310D01*
Y15530D02*
Y15950D01*
Y16650D02*
Y17090D01*
X43620Y9610D02*
Y9750D01*
Y10590D02*
Y10730D01*
Y10870D02*
Y11070D01*
Y11270D02*
Y11390D01*
Y12610D02*
Y12770D01*
Y13430D02*
Y13510D01*
Y14150D02*
Y14650D01*
Y14870D02*
Y15310D01*
Y15530D02*
Y15950D01*
Y16650D02*
Y17090D01*
X43640Y9610D02*
Y9750D01*
Y10590D02*
Y10710D01*
Y10870D02*
Y11070D01*
Y11270D02*
Y11390D01*
Y12610D02*
Y12770D01*
Y13430D02*
Y13510D01*
Y14150D02*
Y14650D01*
Y14870D02*
Y15310D01*
Y15530D02*
Y15950D01*
Y16650D02*
Y17090D01*
X43660Y9610D02*
Y9730D01*
Y10590D02*
Y10710D01*
Y10870D02*
Y11070D01*
Y11270D02*
Y11370D01*
Y12610D02*
Y12770D01*
Y13430D02*
Y13510D01*
Y14150D02*
Y14650D01*
Y14870D02*
Y15310D01*
Y15530D02*
Y15950D01*
Y16650D02*
Y17090D01*
X43680Y9630D02*
Y9730D01*
Y10610D02*
Y10690D01*
Y10870D02*
Y11070D01*
Y11270D02*
Y11370D01*
Y12610D02*
Y12770D01*
Y13430D02*
Y13510D01*
Y14150D02*
Y14650D01*
Y14870D02*
Y15310D01*
Y15530D02*
Y15950D01*
Y16650D02*
Y17090D01*
X43700Y10890D02*
Y11050D01*
Y12610D02*
Y12770D01*
Y13430D02*
Y13510D01*
Y14150D02*
Y14650D01*
Y14870D02*
Y15310D01*
Y15530D02*
Y15950D01*
Y16650D02*
Y17090D01*
X43720Y10890D02*
Y11050D01*
Y12610D02*
Y12770D01*
Y13430D02*
Y13510D01*
Y14150D02*
Y14650D01*
Y14870D02*
Y15310D01*
Y15530D02*
Y15950D01*
Y16650D02*
Y17090D01*
X43740Y10930D02*
Y11010D01*
Y13430D02*
Y13510D01*
Y14150D02*
Y14650D01*
Y14870D02*
Y15310D01*
Y15530D02*
Y15950D01*
Y16650D02*
Y17090D01*
X43760Y13430D02*
Y13510D01*
Y14150D02*
Y14650D01*
Y14870D02*
Y15310D01*
Y15530D02*
Y15950D01*
Y16650D02*
Y17090D01*
X43780Y13430D02*
Y13510D01*
Y14150D02*
Y14650D01*
Y14870D02*
Y15310D01*
Y15550D02*
Y15970D01*
Y16650D02*
Y17090D01*
X43800Y13430D02*
Y13510D01*
Y14150D02*
Y14650D01*
Y14870D02*
Y15310D01*
Y15550D02*
Y15970D01*
Y16650D02*
Y17090D01*
X43820Y13430D02*
Y13510D01*
Y14150D02*
Y14650D01*
Y14870D02*
Y15310D01*
Y15550D02*
Y15970D01*
Y16650D02*
Y17090D01*
X43840Y13430D02*
Y13510D01*
Y14150D02*
Y14650D01*
Y14870D02*
Y15310D01*
Y15550D02*
Y15970D01*
Y16650D02*
Y17090D01*
X43860Y13430D02*
Y13510D01*
Y14150D02*
Y14650D01*
Y14870D02*
Y15310D01*
Y15550D02*
Y15970D01*
Y16650D02*
Y17090D01*
X43880Y13430D02*
Y13510D01*
Y14150D02*
Y14650D01*
Y14870D02*
Y15310D01*
Y15550D02*
Y15970D01*
Y16650D02*
Y17090D01*
X43900Y13430D02*
Y13510D01*
Y14870D02*
Y15310D01*
Y15550D02*
Y15970D01*
Y16650D02*
Y17090D01*
X43920Y13430D02*
Y13510D01*
Y14870D02*
Y15310D01*
Y15550D02*
Y15970D01*
Y16650D02*
Y17090D01*
X43940Y13430D02*
Y13510D01*
Y14870D02*
Y15310D01*
Y15550D02*
Y15990D01*
Y16650D02*
Y17090D01*
X43960Y13430D02*
Y13510D01*
Y14870D02*
Y15310D01*
Y15570D02*
Y15990D01*
Y16650D02*
Y17090D01*
X43980Y13430D02*
Y13510D01*
Y14870D02*
Y15310D01*
Y15570D02*
Y16010D01*
Y16650D02*
Y17090D01*
X44000Y13430D02*
Y13510D01*
Y14870D02*
Y15310D01*
Y15570D02*
Y16010D01*
Y16650D02*
Y17090D01*
X44020Y13430D02*
Y13510D01*
Y14870D02*
Y15310D01*
Y15570D02*
Y16030D01*
Y16650D02*
Y17090D01*
X44040Y13430D02*
Y13510D01*
Y14870D02*
Y15310D01*
Y15570D02*
Y16050D01*
Y16650D02*
Y17090D01*
X44060Y13430D02*
Y13510D01*
Y14870D02*
Y15310D01*
Y15570D02*
Y16070D01*
Y16650D02*
Y17090D01*
X44080Y13430D02*
Y13510D01*
Y14870D02*
Y15310D01*
Y15590D02*
Y16090D01*
Y16650D02*
Y17090D01*
X44100Y8690D02*
Y8830D01*
Y9010D02*
Y9150D01*
Y9310D02*
Y9330D01*
Y9350D02*
Y9510D01*
Y9910D02*
Y10050D01*
Y10150D02*
Y10250D01*
Y10350D02*
Y10530D01*
Y10790D02*
Y11010D01*
Y11350D02*
Y11510D01*
Y11790D02*
Y11970D01*
Y12170D02*
Y12330D01*
Y12630D02*
Y12770D01*
Y13430D02*
Y13510D01*
Y14870D02*
Y15310D01*
Y15610D02*
Y16130D01*
Y16650D02*
Y17090D01*
X44120Y8670D02*
Y8830D01*
Y8990D02*
Y9150D01*
Y9270D02*
Y9570D01*
Y9910D02*
Y10070D01*
Y10150D02*
Y10290D01*
Y10310D02*
Y10570D01*
Y10730D02*
Y11050D01*
Y11270D02*
Y11590D01*
Y11730D02*
Y12050D01*
Y12170D02*
Y12370D01*
Y12610D02*
Y12770D01*
Y13430D02*
Y13510D01*
Y14870D02*
Y15310D01*
Y15610D02*
Y17090D01*
X44140Y8670D02*
Y8830D01*
Y8990D02*
Y9150D01*
Y9250D02*
Y9590D01*
Y9890D02*
Y10070D01*
Y10150D02*
Y10590D01*
Y10710D02*
Y11070D01*
Y11250D02*
Y11610D01*
Y11690D02*
Y12050D01*
Y12190D02*
Y12390D01*
Y12610D02*
Y12770D01*
Y13430D02*
Y13510D01*
Y14870D02*
Y15310D01*
Y15610D02*
Y17090D01*
X44160Y8670D02*
Y8830D01*
Y8990D02*
Y9150D01*
Y9210D02*
Y9610D01*
Y9890D02*
Y10070D01*
Y10150D02*
Y10590D01*
Y10670D02*
Y11110D01*
Y11230D02*
Y11630D01*
Y11670D02*
Y12090D01*
Y12210D02*
Y12410D01*
Y12610D02*
Y12770D01*
Y13430D02*
Y13510D01*
Y14870D02*
Y15310D01*
Y15630D02*
Y17090D01*
X44180Y8670D02*
Y8830D01*
Y8990D02*
Y9150D01*
Y9210D02*
Y9630D01*
Y9890D02*
Y10070D01*
Y10150D02*
Y10610D01*
Y10670D02*
Y11110D01*
Y11230D02*
Y11630D01*
Y11670D02*
Y12090D01*
Y12210D02*
Y12410D01*
Y12610D02*
Y12770D01*
Y13430D02*
Y13510D01*
Y14870D02*
Y15310D01*
Y15650D02*
Y17090D01*
X44200Y8670D02*
Y8830D01*
Y8990D02*
Y9150D01*
Y9210D02*
Y9630D01*
Y9890D02*
Y10070D01*
Y10150D02*
Y10610D01*
Y10670D02*
Y11110D01*
Y11230D02*
Y11610D01*
Y11670D02*
Y12110D01*
Y12230D02*
Y12430D01*
Y12610D02*
Y12770D01*
Y13430D02*
Y13510D01*
Y14870D02*
Y15310D01*
Y15650D02*
Y17090D01*
X44220Y8670D02*
Y8830D01*
Y8990D02*
Y9150D01*
Y9230D02*
Y9350D01*
Y9450D02*
Y9650D01*
Y9890D02*
Y10070D01*
Y10150D02*
Y10330D01*
Y10450D02*
Y10610D01*
Y10690D02*
Y10830D01*
Y10870D02*
Y10910D01*
Y10930D02*
Y11150D01*
Y11210D02*
Y11370D01*
Y11490D02*
Y11590D01*
Y11670D02*
Y11830D01*
Y11870D02*
Y11890D01*
Y11930D02*
Y12130D01*
Y12250D02*
Y12450D01*
Y12610D02*
Y12770D01*
Y13430D02*
Y13510D01*
Y14870D02*
Y15310D01*
Y15670D02*
Y17090D01*
X44240Y8670D02*
Y8830D01*
Y8990D02*
Y9150D01*
Y9250D02*
Y9330D01*
Y9470D02*
Y9670D01*
Y9890D02*
Y10070D01*
Y10150D02*
Y10330D01*
Y10470D02*
Y10630D01*
Y10710D02*
Y10810D01*
Y10970D02*
Y11150D01*
Y11210D02*
Y11370D01*
Y11530D02*
Y11590D01*
Y11690D02*
Y11790D01*
Y11950D02*
Y12150D01*
Y12250D02*
Y12470D01*
Y12610D02*
Y12770D01*
Y13430D02*
Y13510D01*
Y14870D02*
Y15310D01*
Y15710D02*
Y17090D01*
X44260Y8670D02*
Y8830D01*
Y8990D02*
Y9150D01*
Y9490D02*
Y9670D01*
Y9890D02*
Y10070D01*
Y10150D02*
Y10310D01*
Y10470D02*
Y10610D01*
Y10990D02*
Y11150D01*
Y11210D02*
Y11370D01*
Y11990D02*
Y12150D01*
Y12270D02*
Y12470D01*
Y12610D02*
Y12770D01*
Y13430D02*
Y13510D01*
Y14870D02*
Y15310D01*
Y15750D02*
Y17090D01*
X44280Y8670D02*
Y8830D01*
Y8990D02*
Y9150D01*
Y9510D02*
Y9670D01*
Y9890D02*
Y10070D01*
Y10150D02*
Y10310D01*
Y10450D02*
Y10610D01*
Y11010D02*
Y11170D01*
Y11210D02*
Y11370D01*
Y11990D02*
Y12150D01*
Y12290D02*
Y12490D01*
Y12610D02*
Y12770D01*
Y13430D02*
Y13510D01*
Y14870D02*
Y15310D01*
Y15770D02*
Y17090D01*
X44300Y8670D02*
Y8830D01*
Y8990D02*
Y9150D01*
Y9510D02*
Y9670D01*
Y9890D02*
Y10070D01*
Y10150D02*
Y10310D01*
Y10410D02*
Y10610D01*
Y11010D02*
Y11170D01*
Y11210D02*
Y11410D01*
Y11990D02*
Y12150D01*
Y12310D02*
Y12490D01*
Y12610D02*
Y12770D01*
Y13430D02*
Y13510D01*
Y14870D02*
Y15310D01*
Y15770D02*
Y17090D01*
X44320Y8670D02*
Y8830D01*
Y8990D02*
Y9150D01*
Y9510D02*
Y9670D01*
Y9890D02*
Y10070D01*
Y10150D02*
Y10590D01*
Y11010D02*
Y11170D01*
Y11210D02*
Y11490D01*
Y11990D02*
Y12150D01*
Y12310D02*
Y12510D01*
Y12610D02*
Y12770D01*
Y13430D02*
Y13510D01*
Y14870D02*
Y15310D01*
Y15730D02*
Y17090D01*
X44340Y8670D02*
Y8830D01*
Y8990D02*
Y9150D01*
Y9510D02*
Y9670D01*
Y9890D02*
Y10070D01*
Y10150D02*
Y10590D01*
Y10690D02*
Y11170D01*
Y11230D02*
Y11530D01*
Y11690D02*
Y12150D01*
Y12330D02*
Y12510D01*
Y12610D02*
Y12770D01*
Y13430D02*
Y13510D01*
Y14870D02*
Y15310D01*
Y15690D02*
Y17090D01*
X44360Y8670D02*
Y8830D01*
Y8990D02*
Y9150D01*
Y9510D02*
Y9670D01*
Y9890D02*
Y10070D01*
Y10150D02*
Y10550D01*
Y10670D02*
Y11170D01*
Y11230D02*
Y11570D01*
Y11650D02*
Y12150D01*
Y12350D02*
Y12530D01*
Y12610D02*
Y12770D01*
Y13430D02*
Y13510D01*
Y14870D02*
Y15310D01*
Y15670D02*
Y17090D01*
X44380Y8670D02*
Y8830D01*
Y8990D02*
Y9150D01*
Y9510D02*
Y9670D01*
Y9890D02*
Y10070D01*
Y10150D02*
Y10530D01*
Y10670D02*
Y11170D01*
Y11250D02*
Y11590D01*
Y11650D02*
Y12170D01*
Y12350D02*
Y12770D01*
Y13430D02*
Y13510D01*
Y14870D02*
Y15310D01*
Y15650D02*
Y17090D01*
X44400Y8670D02*
Y8830D01*
Y8990D02*
Y9150D01*
Y9510D02*
Y9670D01*
Y9890D02*
Y10070D01*
Y10150D02*
Y10490D01*
Y10670D02*
Y11170D01*
Y11270D02*
Y11590D01*
Y11650D02*
Y12150D01*
Y12370D02*
Y12770D01*
Y13430D02*
Y13510D01*
Y14870D02*
Y15310D01*
Y15630D02*
Y17090D01*
X44420Y8670D02*
Y8830D01*
Y8990D02*
Y9150D01*
Y9510D02*
Y9670D01*
Y9910D02*
Y10070D01*
Y10150D02*
Y10330D01*
Y10670D02*
Y11170D01*
Y11330D02*
Y11610D01*
Y11650D02*
Y12150D01*
Y12370D02*
Y12770D01*
Y13430D02*
Y13510D01*
Y14870D02*
Y15310D01*
Y15610D02*
Y17090D01*
X44440Y8670D02*
Y8830D01*
Y8990D02*
Y9150D01*
Y9510D02*
Y9670D01*
Y9890D02*
Y10070D01*
Y10150D02*
Y10310D01*
Y10670D02*
Y11170D01*
Y11390D02*
Y11610D01*
Y11650D02*
Y12150D01*
Y12350D02*
Y12770D01*
Y13430D02*
Y13510D01*
Y14870D02*
Y15310D01*
Y15610D02*
Y16210D01*
Y16650D02*
Y17090D01*
X44460Y8670D02*
Y8830D01*
Y8990D02*
Y9150D01*
Y9510D02*
Y9670D01*
Y9890D02*
Y10070D01*
Y10150D02*
Y10310D01*
Y10670D02*
Y10810D01*
Y11010D02*
Y11170D01*
Y11430D02*
Y11610D01*
Y11650D02*
Y11790D01*
Y11990D02*
Y12150D01*
Y12310D02*
Y12770D01*
Y13430D02*
Y13510D01*
Y14870D02*
Y15310D01*
Y15590D02*
Y16070D01*
Y16650D02*
Y17090D01*
X44480Y8670D02*
Y8830D01*
Y8990D02*
Y9150D01*
Y9490D02*
Y9670D01*
Y9870D02*
Y10070D01*
Y10150D02*
Y10310D01*
Y10490D02*
Y10550D01*
Y10670D02*
Y10810D01*
Y10990D02*
Y11170D01*
Y11470D02*
Y11610D01*
Y11670D02*
Y11810D01*
Y11990D02*
Y12150D01*
Y12290D02*
Y12770D01*
Y13430D02*
Y13510D01*
Y14870D02*
Y15310D01*
Y15570D02*
Y16050D01*
Y16650D02*
Y17090D01*
X44500Y8690D02*
Y8830D01*
Y8970D02*
Y9150D01*
Y9250D02*
Y9310D01*
Y9470D02*
Y9670D01*
Y9730D02*
Y9770D01*
Y9830D02*
Y10070D01*
Y10150D02*
Y10330D01*
Y10450D02*
Y10570D01*
Y10670D02*
Y10830D01*
Y10990D02*
Y11150D01*
Y11470D02*
Y11610D01*
Y11670D02*
Y11830D01*
Y11970D02*
Y12150D01*
Y12290D02*
Y12770D01*
Y13430D02*
Y13510D01*
Y14870D02*
Y15310D01*
Y15570D02*
Y16030D01*
Y16650D02*
Y17090D01*
X44520Y8690D02*
Y9150D01*
Y9230D02*
Y9370D01*
Y9430D02*
Y9650D01*
Y9710D02*
Y10070D01*
Y10170D02*
Y10590D01*
Y10690D02*
Y10870D01*
Y10950D02*
Y11130D01*
Y11230D02*
Y11370D01*
Y11430D02*
Y11610D01*
Y11690D02*
Y11850D01*
Y11930D02*
Y12130D01*
Y12270D02*
Y12470D01*
Y12610D02*
Y12770D01*
Y13430D02*
Y13510D01*
Y14870D02*
Y15310D01*
Y15570D02*
Y16010D01*
Y16650D02*
Y17090D01*
X44540Y8690D02*
Y9150D01*
Y9230D02*
Y9630D01*
Y9710D02*
Y10070D01*
Y10170D02*
Y10590D01*
Y10710D02*
Y11130D01*
Y11230D02*
Y11610D01*
Y11690D02*
Y12110D01*
Y12250D02*
Y12450D01*
Y12610D02*
Y12770D01*
Y13430D02*
Y13510D01*
Y14870D02*
Y15310D01*
Y15550D02*
Y15990D01*
Y16650D02*
Y17090D01*
X44560Y8690D02*
Y9150D01*
Y9210D02*
Y9610D01*
Y9710D02*
Y10070D01*
Y10190D02*
Y10590D01*
Y10710D02*
Y11110D01*
Y11230D02*
Y11590D01*
Y11690D02*
Y12110D01*
Y12250D02*
Y12430D01*
Y12610D02*
Y12770D01*
Y13430D02*
Y13510D01*
Y14870D02*
Y15310D01*
Y15550D02*
Y15990D01*
Y16650D02*
Y17090D01*
X44580Y8710D02*
Y9150D01*
Y9210D02*
Y9610D01*
Y9710D02*
Y10070D01*
Y10190D02*
Y10570D01*
Y10730D02*
Y11090D01*
Y11230D02*
Y11590D01*
Y11710D02*
Y12090D01*
Y12250D02*
Y12410D01*
Y12610D02*
Y12770D01*
Y13430D02*
Y13510D01*
Y14870D02*
Y15310D01*
Y15530D02*
Y15970D01*
Y16650D02*
Y17090D01*
X44600Y8730D02*
Y9150D01*
Y9230D02*
Y9590D01*
Y9710D02*
Y9910D01*
Y9930D02*
Y10070D01*
Y10210D02*
Y10550D01*
Y10750D02*
Y11070D01*
Y11230D02*
Y11570D01*
Y11730D02*
Y12070D01*
Y12250D02*
Y12410D01*
Y12610D02*
Y12770D01*
Y13430D02*
Y13510D01*
Y14870D02*
Y15310D01*
Y15530D02*
Y15970D01*
Y16650D02*
Y17090D01*
X44620Y8750D02*
Y9150D01*
Y9270D02*
Y9550D01*
Y9690D02*
Y9870D01*
Y9930D02*
Y10070D01*
Y10230D02*
Y10510D01*
Y10770D02*
Y11030D01*
Y11270D02*
Y11530D01*
Y11770D02*
Y12030D01*
Y12250D02*
Y12410D01*
Y12610D02*
Y12770D01*
Y13430D02*
Y13510D01*
Y14870D02*
Y15310D01*
Y15530D02*
Y15970D01*
Y16650D02*
Y17090D01*
X44640Y8790D02*
Y8950D01*
Y8990D02*
Y9150D01*
Y9310D02*
Y9510D01*
Y9710D02*
Y9850D01*
Y9930D02*
Y10050D01*
Y10270D02*
Y10470D01*
Y10810D02*
Y11010D01*
Y11310D02*
Y11490D01*
Y11810D02*
Y11990D01*
Y12250D02*
Y12410D01*
Y12610D02*
Y12770D01*
Y13430D02*
Y13510D01*
Y14870D02*
Y15310D01*
Y15530D02*
Y15970D01*
Y16650D02*
Y17090D01*
X44660Y8990D02*
Y9150D01*
Y12250D02*
Y12410D01*
Y12610D02*
Y12770D01*
Y13430D02*
Y13510D01*
Y14870D02*
Y15310D01*
Y15530D02*
Y15970D01*
Y16650D02*
Y17090D01*
X44680Y8990D02*
Y9150D01*
Y12250D02*
Y12430D01*
Y12610D02*
Y12770D01*
Y13430D02*
Y13510D01*
Y14870D02*
Y15310D01*
Y15510D02*
Y15970D01*
Y16650D02*
Y17090D01*
X44700Y8990D02*
Y9150D01*
Y12250D02*
Y12450D01*
Y12610D02*
Y12770D01*
Y13430D02*
Y13510D01*
Y14870D02*
Y15310D01*
Y15510D02*
Y15970D01*
Y16650D02*
Y17090D01*
X44720Y8990D02*
Y9150D01*
Y12250D02*
Y12490D01*
Y12510D02*
Y12770D01*
Y13430D02*
Y13510D01*
Y14870D02*
Y15310D01*
Y15510D02*
Y15970D01*
Y16650D02*
Y17090D01*
X44740Y8990D02*
Y9150D01*
Y12270D02*
Y12770D01*
Y13430D02*
Y13510D01*
Y14870D02*
Y15310D01*
Y15510D02*
Y15970D01*
Y16650D02*
Y17090D01*
X44760Y8990D02*
Y9150D01*
Y12270D02*
Y12770D01*
Y13430D02*
Y13510D01*
Y14870D02*
Y15310D01*
Y15510D02*
Y15970D01*
Y16650D02*
Y17090D01*
X44780Y8990D02*
Y9150D01*
Y12310D02*
Y12770D01*
Y13430D02*
Y13510D01*
Y14870D02*
Y15310D01*
Y15510D02*
Y15970D01*
Y16650D02*
Y17090D01*
X44800Y8990D02*
Y9150D01*
Y12310D02*
Y12770D01*
Y13430D02*
Y13510D01*
Y14870D02*
Y15310D01*
Y15510D02*
Y15970D01*
Y16650D02*
Y17090D01*
X44820Y8990D02*
Y9150D01*
Y12350D02*
Y12770D01*
Y13430D02*
Y13510D01*
Y14870D02*
Y15310D01*
Y15530D02*
Y15990D01*
Y16650D02*
Y17090D01*
X44840Y8990D02*
Y9150D01*
Y12410D02*
Y12770D01*
Y13430D02*
Y13510D01*
Y14870D02*
Y15310D01*
Y15530D02*
Y15990D01*
Y16650D02*
Y17090D01*
X44860Y8990D02*
Y9150D01*
Y12490D02*
Y12770D01*
Y13430D02*
Y13510D01*
Y14870D02*
Y15310D01*
Y15530D02*
Y16010D01*
Y16650D02*
Y17090D01*
X44880Y13430D02*
Y13510D01*
Y14870D02*
Y15310D01*
Y15530D02*
Y16050D01*
Y16650D02*
Y17090D01*
X44900Y13430D02*
Y13510D01*
Y14870D02*
Y15310D01*
Y15530D02*
Y16070D01*
Y16650D02*
Y17090D01*
X44920Y13430D02*
Y13510D01*
Y14870D02*
Y15310D01*
Y15550D02*
Y16110D01*
Y16650D02*
Y17090D01*
X44940Y13430D02*
Y13510D01*
Y14870D02*
Y15310D01*
Y15550D02*
Y17090D01*
X44960Y13430D02*
Y13510D01*
Y14870D02*
Y15310D01*
Y15570D02*
Y17090D01*
X44980Y13430D02*
Y13510D01*
Y14870D02*
Y15310D01*
Y15570D02*
Y17090D01*
X45000Y13430D02*
Y13510D01*
Y14870D02*
Y15310D01*
Y15570D02*
Y17090D01*
X45020Y13430D02*
Y13510D01*
Y14870D02*
Y15310D01*
Y15590D02*
Y17090D01*
X45040Y13430D02*
Y13510D01*
Y14870D02*
Y15310D01*
Y15610D02*
Y17090D01*
X45060Y13430D02*
Y13510D01*
Y14870D02*
Y15310D01*
Y15610D02*
Y17090D01*
X45080Y13430D02*
Y13510D01*
Y14870D02*
Y15310D01*
Y15630D02*
Y17090D01*
X45100Y13430D02*
Y13510D01*
Y14870D02*
Y15310D01*
Y15650D02*
Y17090D01*
X45120Y13430D02*
Y13510D01*
Y14870D02*
Y15310D01*
Y15670D02*
Y17090D01*
X45140Y13430D02*
Y13510D01*
Y14870D02*
Y15310D01*
Y15690D02*
Y17090D01*
X45160Y13430D02*
Y13510D01*
Y14870D02*
Y15310D01*
Y15710D02*
Y17090D01*
X45180Y13430D02*
Y13510D01*
Y14870D02*
Y15310D01*
Y15730D02*
Y17090D01*
X45200Y13430D02*
Y13510D01*
Y14870D02*
Y15310D01*
Y15770D02*
Y17090D01*
X45220Y13430D02*
Y13510D01*
Y14870D02*
Y15310D01*
Y15810D02*
Y17090D01*
X45240Y13430D02*
Y13510D01*
Y14870D02*
Y15310D01*
Y15870D02*
Y17090D01*
X45260Y13430D02*
Y13510D01*
Y14870D02*
Y15310D01*
Y15930D02*
Y17090D01*
D31*
X44462Y7580D02*
X43950D01*
Y7324D01*
X44035Y7239D01*
X44121D01*
X44206Y7324D01*
Y7580D01*
Y7324D01*
X44291Y7239D01*
X44376D01*
X44462Y7324D01*
Y7580D01*
X43950Y7068D02*
X44291D01*
X44462Y6898D01*
X44291Y6727D01*
X43950D01*
X44206D01*
Y7068D01*
X44376Y6216D02*
X44462Y6301D01*
Y6471D01*
X44376Y6557D01*
X44035D01*
X43950Y6471D01*
Y6301D01*
X44035Y6216D01*
X44462Y6045D02*
X43950D01*
X44121D01*
X44462Y5704D01*
X44206Y5960D01*
X43950Y5704D01*
X44376Y5192D02*
X44462Y5278D01*
Y5448D01*
X44376Y5533D01*
X44291D01*
X44206Y5448D01*
Y5278D01*
X44121Y5192D01*
X44035D01*
X43950Y5278D01*
Y5448D01*
X44035Y5533D01*
X44376Y4681D02*
X44462Y4766D01*
Y4936D01*
X44376Y5022D01*
X44035D01*
X43950Y4936D01*
Y4766D01*
X44035Y4681D01*
X43950Y4510D02*
X44291D01*
X44462Y4340D01*
X44291Y4169D01*
X43950D01*
X44206D01*
Y4510D01*
X44462Y3998D02*
Y3657D01*
Y3828D01*
X43950D01*
X44462Y3487D02*
Y3146D01*
Y3316D01*
X43950D01*
X44462Y2634D02*
Y2975D01*
X43950D01*
Y2634D01*
X44206Y2975D02*
Y2805D01*
X43950Y2464D02*
X44462D01*
Y2208D01*
X44376Y2122D01*
X44206D01*
X44121Y2208D01*
Y2464D01*
Y2293D02*
X43950Y2122D01*
D32*
X26367Y1604D02*
X26236D01*
X26170Y1538D01*
Y1276D01*
X26236Y1210D01*
X26367D01*
X26432Y1276D01*
Y1538D01*
X26367Y1604D01*
X26564D02*
Y1276D01*
X26629Y1210D01*
X26760D01*
X26826Y1276D01*
Y1604D01*
X26957D02*
X27220D01*
X27088D01*
Y1210D01*
X27351Y1407D02*
X27613D01*
X27482Y1538D02*
Y1276D01*
X26367Y8604D02*
X26236D01*
X26170Y8538D01*
Y8276D01*
X26236Y8210D01*
X26367D01*
X26432Y8276D01*
Y8538D01*
X26367Y8604D01*
X26564D02*
Y8276D01*
X26629Y8210D01*
X26760D01*
X26826Y8276D01*
Y8604D01*
X26957D02*
X27220D01*
X27088D01*
Y8210D01*
X27351Y8407D02*
X27613D01*
X14170Y8604D02*
X14301D01*
X14236D01*
Y8210D01*
X14170D01*
X14301D01*
X14498D02*
Y8604D01*
X14760Y8210D01*
Y8604D01*
X14892Y8407D02*
X15154D01*
X14170Y1604D02*
X14301D01*
X14236D01*
Y1210D01*
X14170D01*
X14301D01*
X14498D02*
Y1604D01*
X14760Y1210D01*
Y1604D01*
X14892Y1407D02*
X15154D01*
X15023Y1538D02*
Y1276D01*
D33*
X890Y-315D02*
X1040Y-165D01*
X1190Y-315D01*
X2090Y-90D02*
X1940D01*
X2015D01*
Y-465D01*
X1940Y-540D01*
X1865D01*
X1790Y-465D01*
X2240Y-540D02*
Y-240D01*
X2390Y-90D01*
X2539Y-240D01*
Y-540D01*
Y-315D01*
X2240D01*
X2989Y-165D02*
X2914Y-90D01*
X2764D01*
X2689Y-165D01*
Y-465D01*
X2764Y-540D01*
X2914D01*
X2989Y-465D01*
X3139Y-90D02*
Y-540D01*
Y-390D01*
X3439Y-90D01*
X3214Y-315D01*
X3439Y-540D01*
X4039D02*
Y-90D01*
X4264D01*
X4339Y-165D01*
Y-315D01*
X4264Y-390D01*
X4039D01*
X4489Y-90D02*
Y-540D01*
X4639Y-390D01*
X4789Y-540D01*
Y-90D01*
X4939Y-540D02*
Y-90D01*
X5164D01*
X5239Y-165D01*
Y-315D01*
X5164Y-390D01*
X4939D01*
X5089D02*
X5239Y-540D01*
X6300Y8850D02*
X5925D01*
X5850Y8775D01*
Y8625D01*
X5925Y8550D01*
X6300D01*
X6225Y8100D02*
X6300Y8175D01*
Y8325D01*
X6225Y8400D01*
X6150D01*
X6075Y8325D01*
Y8175D01*
X6000Y8100D01*
X5925D01*
X5850Y8175D01*
Y8325D01*
X5925Y8400D01*
X6300Y7950D02*
X5850D01*
Y7725D01*
X5925Y7650D01*
X6000D01*
X6075Y7725D01*
Y7950D01*
Y7725D01*
X6150Y7650D01*
X6225D01*
X6300Y7725D01*
Y7950D01*
X5775Y7500D02*
Y7201D01*
X6225Y6751D02*
X6300Y6826D01*
Y6976D01*
X6225Y7051D01*
X5925D01*
X5850Y6976D01*
Y6826D01*
X5925Y6751D01*
X5850Y6151D02*
X6300D01*
Y5926D01*
X6225Y5851D01*
X6075D01*
X6000Y5926D01*
Y6151D01*
X6300Y5701D02*
X5850D01*
X6000Y5551D01*
X5850Y5401D01*
X6300D01*
X5850Y5251D02*
X6300D01*
Y5026D01*
X6225Y4951D01*
X6075D01*
X6000Y5026D01*
Y5251D01*
Y5101D02*
X5850Y4951D01*
X6030Y3460D02*
X6480D01*
Y3235D01*
X6405Y3160D01*
X6255D01*
X6180Y3235D01*
Y3460D01*
X6480Y3010D02*
Y2860D01*
Y2935D01*
X6030D01*
Y3010D01*
Y2860D01*
Y2635D02*
X6480D01*
X6030Y2335D01*
X6480D01*
X6030Y1736D02*
X6480D01*
Y1511D01*
X6405Y1436D01*
X6255D01*
X6180Y1511D01*
Y1736D01*
X6480Y1286D02*
X6030D01*
X6180Y1136D01*
X6030Y986D01*
X6480D01*
X6030Y836D02*
X6480D01*
Y611D01*
X6405Y536D01*
X6255D01*
X6180Y611D01*
Y836D01*
Y686D02*
X6030Y536D01*
M02*
