%FSLAX24Y24*%
%MOIN*%
G70*
G01*
G75*
G04 Layer_Physical_Order=2*
G04 Layer_Color=16711680*
G04:AMPARAMS|DCode=10|XSize=100mil|YSize=50mil|CornerRadius=12.5mil|HoleSize=0mil|Usage=FLASHONLY|Rotation=90.000|XOffset=0mil|YOffset=0mil|HoleType=Round|Shape=RoundedRectangle|*
%AMROUNDEDRECTD10*
21,1,0.1000,0.0250,0,0,90.0*
21,1,0.0750,0.0500,0,0,90.0*
1,1,0.0250,0.0125,0.0375*
1,1,0.0250,0.0125,-0.0375*
1,1,0.0250,-0.0125,-0.0375*
1,1,0.0250,-0.0125,0.0375*
%
%ADD10ROUNDEDRECTD10*%
%ADD11R,0.2000X0.1500*%
%ADD12R,0.1181X0.0457*%
%ADD13R,0.1181X0.0787*%
%ADD14R,0.3937X0.2756*%
%ADD15C,0.0197*%
%ADD16C,0.0100*%
%ADD17C,0.0200*%
%ADD18C,0.0100*%
%ADD19C,0.0200*%
%ADD20C,0.0591*%
%ADD21R,0.0591X0.0591*%
%ADD22O,0.0787X0.1575*%
%ADD23O,0.1575X0.0787*%
%ADD24O,0.0866X0.1732*%
%ADD25C,0.0600*%
%ADD26C,0.0787*%
G36*
X12681Y10357D02*
X12631Y10292D01*
X12590Y10194D01*
X12577Y10090D01*
X12590Y9986D01*
X12631Y9888D01*
X12695Y9805D01*
X12778Y9741D01*
X12876Y9700D01*
X12980Y9687D01*
X13084Y9700D01*
X13133Y9721D01*
X20662Y2192D01*
X20711Y2159D01*
X20770Y2147D01*
X30795D01*
X30808Y2097D01*
X30751Y2022D01*
X30710Y1924D01*
X30703Y1870D01*
X31497D01*
X31490Y1924D01*
X31449Y2022D01*
X31392Y2097D01*
X31405Y2147D01*
X34579D01*
X34632Y2112D01*
X34710Y2096D01*
X34788Y2112D01*
X34854Y2156D01*
X34898Y2222D01*
X34914Y2300D01*
X34898Y2378D01*
X34854Y2444D01*
X34788Y2488D01*
X34710Y2504D01*
X34632Y2488D01*
X34579Y2453D01*
X31361D01*
X31344Y2503D01*
X31385Y2535D01*
X31449Y2618D01*
X31490Y2716D01*
X31503Y2820D01*
X31490Y2924D01*
X31449Y3022D01*
X31385Y3105D01*
X31357Y3127D01*
X31374Y3177D01*
X37610D01*
X37669Y3189D01*
X37718Y3222D01*
X37947Y3451D01*
X37996Y3430D01*
X38100Y3417D01*
X38204Y3430D01*
X38302Y3471D01*
X38385Y3535D01*
X38437Y3602D01*
X38487Y3585D01*
Y3423D01*
X38253Y3189D01*
X38204Y3210D01*
X38100Y3223D01*
X37996Y3210D01*
X37898Y3169D01*
X37815Y3105D01*
X37751Y3022D01*
X37710Y2924D01*
X37697Y2820D01*
X37710Y2716D01*
X37751Y2618D01*
X37815Y2535D01*
X37898Y2471D01*
X37996Y2430D01*
X38100Y2417D01*
X38204Y2430D01*
X38302Y2471D01*
X38385Y2535D01*
X38449Y2618D01*
X38490Y2716D01*
X38503Y2820D01*
X38490Y2924D01*
X38470Y2973D01*
X38641Y3145D01*
X38687Y3125D01*
Y1623D01*
X38253Y1190D01*
X38204Y1210D01*
X38100Y1223D01*
X37996Y1210D01*
X37898Y1169D01*
X37815Y1105D01*
X37751Y1022D01*
X37710Y924D01*
X37697Y820D01*
X37710Y716D01*
X37751Y618D01*
X37815Y535D01*
X37898Y471D01*
X37996Y430D01*
X38100Y417D01*
X38204Y430D01*
X38302Y471D01*
X38385Y535D01*
X38449Y618D01*
X38490Y716D01*
X38503Y820D01*
X38490Y924D01*
X38470Y973D01*
X38841Y1345D01*
X38887Y1325D01*
Y823D01*
X38253Y190D01*
X38204Y210D01*
X38100Y223D01*
X37996Y210D01*
X37898Y169D01*
X37815Y105D01*
X37751Y22D01*
X37742Y0D01*
X31458D01*
X31449Y22D01*
X31385Y105D01*
X31344Y137D01*
X31361Y187D01*
X34589D01*
X34642Y152D01*
X34720Y136D01*
X34798Y152D01*
X34864Y196D01*
X34908Y262D01*
X34924Y340D01*
X34908Y418D01*
X34864Y484D01*
X34798Y528D01*
X34720Y544D01*
X34642Y528D01*
X34589Y493D01*
X31405D01*
X31392Y543D01*
X31449Y618D01*
X31490Y716D01*
X31503Y820D01*
X31490Y924D01*
X31449Y1022D01*
X31385Y1105D01*
X31302Y1169D01*
X31302Y1170D01*
X31307Y1221D01*
X31345Y1229D01*
X31372Y1247D01*
X34609D01*
X34662Y1212D01*
X34740Y1196D01*
X34818Y1212D01*
X34884Y1256D01*
X34928Y1322D01*
X34944Y1400D01*
X34928Y1478D01*
X34884Y1544D01*
X34818Y1588D01*
X34740Y1604D01*
X34662Y1588D01*
X34609Y1553D01*
X31456D01*
X31434Y1598D01*
X31449Y1618D01*
X31490Y1716D01*
X31497Y1770D01*
X30703D01*
X30710Y1716D01*
X30751Y1618D01*
X30785Y1573D01*
X30761Y1523D01*
X20763D01*
X12349Y9937D01*
X12370Y9986D01*
X12383Y10090D01*
X12370Y10194D01*
X12329Y10292D01*
X12279Y10357D01*
X12303Y10407D01*
X12657D01*
X12681Y10357D01*
D02*
G37*
G36*
X8328Y18655D02*
X7133Y17459D01*
X7084Y17480D01*
X6980Y17493D01*
X6876Y17480D01*
X6778Y17439D01*
X6695Y17375D01*
X6631Y17292D01*
X6590Y17194D01*
X6577Y17090D01*
X6590Y16986D01*
X6631Y16888D01*
X6695Y16805D01*
X6778Y16741D01*
X6876Y16700D01*
X6980Y16687D01*
X7084Y16700D01*
X7182Y16741D01*
X7265Y16805D01*
X7329Y16888D01*
X7370Y16986D01*
X7383Y17090D01*
X7370Y17194D01*
X7350Y17243D01*
X8563Y18457D01*
X9060D01*
X9081Y18407D01*
X8133Y17459D01*
X8084Y17480D01*
X7980Y17493D01*
X7876Y17480D01*
X7778Y17439D01*
X7695Y17375D01*
X7631Y17292D01*
X7590Y17194D01*
X7577Y17090D01*
X7590Y16986D01*
X7631Y16888D01*
X7695Y16805D01*
X7778Y16741D01*
X7876Y16700D01*
X7980Y16687D01*
X8084Y16700D01*
X8182Y16741D01*
X8265Y16805D01*
X8329Y16888D01*
X8370Y16986D01*
X8383Y17090D01*
X8370Y17194D01*
X8349Y17243D01*
X9273Y18167D01*
X10470D01*
X10491Y18117D01*
X9872Y17498D01*
X9853Y17471D01*
X9778Y17439D01*
X9695Y17375D01*
X9631Y17292D01*
X9590Y17194D01*
X9577Y17090D01*
X9590Y16986D01*
X9631Y16888D01*
X9695Y16805D01*
X9700Y16800D01*
X9684Y16753D01*
X9533D01*
X9349Y16937D01*
X9370Y16986D01*
X9383Y17090D01*
X9370Y17194D01*
X9329Y17292D01*
X9265Y17375D01*
X9182Y17439D01*
X9084Y17480D01*
X8980Y17493D01*
X8876Y17480D01*
X8778Y17439D01*
X8695Y17375D01*
X8631Y17292D01*
X8590Y17194D01*
X8577Y17090D01*
X8590Y16986D01*
X8631Y16888D01*
X8695Y16805D01*
X8778Y16741D01*
X8876Y16700D01*
X8980Y16687D01*
X9084Y16700D01*
X9133Y16720D01*
X9362Y16492D01*
X9411Y16459D01*
X9470Y16447D01*
X19764D01*
X20998Y15150D01*
X21012Y15082D01*
X21056Y15016D01*
X21122Y14972D01*
X21200Y14956D01*
X21278Y14972D01*
X21344Y15016D01*
X21388Y15082D01*
X21404Y15160D01*
X21388Y15238D01*
X21344Y15304D01*
X21278Y15348D01*
X21221Y15360D01*
X19941Y16705D01*
X19939Y16707D01*
X19938Y16708D01*
X19915Y16724D01*
X19892Y16740D01*
X19890Y16740D01*
X19889Y16741D01*
X19861Y16747D01*
X19834Y16753D01*
X19832Y16753D01*
X19830Y16753D01*
X18276D01*
X18260Y16800D01*
X18265Y16805D01*
X18329Y16888D01*
X18370Y16986D01*
X18383Y17090D01*
X18370Y17194D01*
X18329Y17292D01*
X18265Y17375D01*
X18182Y17439D01*
X18084Y17480D01*
X17980Y17493D01*
X17876Y17480D01*
X17778Y17439D01*
X17695Y17375D01*
X17631Y17292D01*
X17590Y17194D01*
X17577Y17090D01*
X17590Y16986D01*
X17631Y16888D01*
X17695Y16805D01*
X17700Y16800D01*
X17684Y16753D01*
X17276D01*
X17260Y16800D01*
X17265Y16805D01*
X17329Y16888D01*
X17370Y16986D01*
X17383Y17090D01*
X17370Y17194D01*
X17329Y17292D01*
X17265Y17375D01*
X17182Y17439D01*
X17084Y17480D01*
X16980Y17493D01*
X16876Y17480D01*
X16778Y17439D01*
X16695Y17375D01*
X16631Y17292D01*
X16590Y17194D01*
X16577Y17090D01*
X16590Y16986D01*
X16631Y16888D01*
X16695Y16805D01*
X16700Y16800D01*
X16684Y16753D01*
X16276D01*
X16260Y16800D01*
X16265Y16805D01*
X16329Y16888D01*
X16370Y16986D01*
X16377Y17040D01*
X15583D01*
X15590Y16986D01*
X15631Y16888D01*
X15695Y16805D01*
X15700Y16800D01*
X15684Y16753D01*
X15276D01*
X15260Y16800D01*
X15265Y16805D01*
X15329Y16888D01*
X15370Y16986D01*
X15383Y17090D01*
X15370Y17194D01*
X15329Y17292D01*
X15265Y17375D01*
X15182Y17439D01*
X15084Y17480D01*
X14980Y17493D01*
X14876Y17480D01*
X14778Y17439D01*
X14695Y17375D01*
X14631Y17292D01*
X14590Y17194D01*
X14577Y17090D01*
X14590Y16986D01*
X14631Y16888D01*
X14695Y16805D01*
X14700Y16800D01*
X14684Y16753D01*
X14276D01*
X14260Y16800D01*
X14265Y16805D01*
X14329Y16888D01*
X14370Y16986D01*
X14383Y17090D01*
X14370Y17194D01*
X14329Y17292D01*
X14265Y17375D01*
X14182Y17439D01*
X14084Y17480D01*
X13980Y17493D01*
X13876Y17480D01*
X13778Y17439D01*
X13695Y17375D01*
X13631Y17292D01*
X13590Y17194D01*
X13577Y17090D01*
X13590Y16986D01*
X13631Y16888D01*
X13695Y16805D01*
X13700Y16800D01*
X13684Y16753D01*
X13276D01*
X13260Y16800D01*
X13265Y16805D01*
X13329Y16888D01*
X13370Y16986D01*
X13383Y17090D01*
X13370Y17194D01*
X13329Y17292D01*
X13265Y17375D01*
X13182Y17439D01*
X13084Y17480D01*
X12980Y17493D01*
X12876Y17480D01*
X12778Y17439D01*
X12695Y17375D01*
X12631Y17292D01*
X12590Y17194D01*
X12577Y17090D01*
X12590Y16986D01*
X12631Y16888D01*
X12695Y16805D01*
X12700Y16800D01*
X12684Y16753D01*
X12276D01*
X12260Y16800D01*
X12265Y16805D01*
X12329Y16888D01*
X12370Y16986D01*
X12383Y17090D01*
X12370Y17194D01*
X12329Y17292D01*
X12265Y17375D01*
X12182Y17439D01*
X12084Y17480D01*
X11980Y17493D01*
X11876Y17480D01*
X11778Y17439D01*
X11695Y17375D01*
X11631Y17292D01*
X11590Y17194D01*
X11577Y17090D01*
X11590Y16986D01*
X11631Y16888D01*
X11695Y16805D01*
X11700Y16800D01*
X11684Y16753D01*
X11276D01*
X11260Y16800D01*
X11265Y16805D01*
X11329Y16888D01*
X11370Y16986D01*
X11377Y17040D01*
X10583D01*
X10590Y16986D01*
X10631Y16888D01*
X10695Y16805D01*
X10700Y16800D01*
X10684Y16753D01*
X10276D01*
X10260Y16800D01*
X10265Y16805D01*
X10329Y16888D01*
X10370Y16986D01*
X10383Y17090D01*
X10370Y17194D01*
X10329Y17292D01*
X10265Y17375D01*
X10248Y17389D01*
X10245Y17438D01*
X10693Y17887D01*
X23857D01*
X24742Y17002D01*
X24791Y16969D01*
X24850Y16957D01*
X25265D01*
Y16715D01*
X26055D01*
Y17467D01*
X27985D01*
Y16715D01*
X28775D01*
Y17467D01*
X30287D01*
X30582Y17172D01*
X30631Y17139D01*
X30690Y17127D01*
X30768D01*
X30793Y17077D01*
X30751Y17022D01*
X30710Y16924D01*
X30703Y16870D01*
X31497D01*
X31490Y16924D01*
X31449Y17022D01*
X31407Y17077D01*
X31432Y17127D01*
X37768D01*
X37793Y17077D01*
X37751Y17022D01*
X37710Y16924D01*
X37703Y16870D01*
X38497D01*
X38490Y16924D01*
X38449Y17022D01*
X38407Y17077D01*
X38432Y17127D01*
X50177D01*
X50842Y16462D01*
X50891Y16429D01*
X50950Y16417D01*
X52737D01*
X53755Y15399D01*
X53723Y15360D01*
X53683Y15387D01*
X53595Y15404D01*
X53345D01*
X53257Y15387D01*
X53183Y15337D01*
X53133Y15263D01*
X53116Y15175D01*
Y14617D01*
X53076Y14601D01*
X53066Y14601D01*
X52721Y14945D01*
X52708Y15008D01*
X52664Y15074D01*
X52598Y15118D01*
X52520Y15134D01*
X52442Y15118D01*
X52376Y15074D01*
X52332Y15008D01*
X52316Y14930D01*
X52332Y14852D01*
X52376Y14786D01*
X52442Y14742D01*
X52505Y14729D01*
X52807Y14427D01*
Y14353D01*
X52757Y14337D01*
X52683Y14387D01*
X52595Y14404D01*
X52345D01*
X52257Y14387D01*
X52183Y14337D01*
X52133Y14263D01*
X52116Y14175D01*
Y13425D01*
X52133Y13337D01*
X52183Y13263D01*
X52257Y13213D01*
X52345Y13196D01*
X52595D01*
X52683Y13213D01*
X52757Y13263D01*
X52807Y13247D01*
Y5270D01*
X52764Y5230D01*
X52757Y5231D01*
X52683Y5281D01*
X52595Y5298D01*
X52345D01*
X52257Y5281D01*
X52183Y5231D01*
X52133Y5156D01*
X52116Y5069D01*
Y4319D01*
X52133Y4231D01*
X52183Y4156D01*
X52257Y4107D01*
X52345Y4089D01*
X52595D01*
X52683Y4107D01*
X52757Y4156D01*
X52807Y4231D01*
X52824Y4319D01*
Y4832D01*
X53068Y5076D01*
X53101Y5125D01*
X53111Y5174D01*
X53138Y5185D01*
X53163Y5186D01*
X53183Y5156D01*
X53257Y5107D01*
X53345Y5089D01*
X53595D01*
X53683Y5107D01*
X53757Y5156D01*
X53807Y5231D01*
X53824Y5319D01*
Y6069D01*
X53807Y6156D01*
X53757Y6231D01*
X53683Y6281D01*
X53595Y6298D01*
X53345D01*
X53257Y6281D01*
X53183Y6231D01*
X53163Y6201D01*
X53113Y6216D01*
Y14277D01*
X53163Y14292D01*
X53183Y14263D01*
X53257Y14213D01*
X53345Y14196D01*
X53595D01*
X53683Y14213D01*
X53757Y14263D01*
X53807Y14337D01*
X53824Y14425D01*
Y15175D01*
X53807Y15263D01*
X53780Y15303D01*
X53819Y15335D01*
X54755Y14399D01*
X54723Y14360D01*
X54683Y14387D01*
X54595Y14404D01*
X54345D01*
X54257Y14387D01*
X54183Y14337D01*
X54133Y14263D01*
X54116Y14175D01*
Y13425D01*
X54133Y13337D01*
X54183Y13263D01*
X54257Y13213D01*
X54345Y13196D01*
X54595D01*
X54683Y13213D01*
X54757Y13263D01*
X54787Y13307D01*
X54837Y13292D01*
Y5277D01*
X54788Y5228D01*
X54757Y5231D01*
X54683Y5281D01*
X54595Y5298D01*
X54345D01*
X54257Y5281D01*
X54183Y5231D01*
X54133Y5156D01*
X54116Y5069D01*
Y4319D01*
X54133Y4231D01*
X54183Y4156D01*
X54257Y4107D01*
X54345Y4089D01*
X54595D01*
X54683Y4107D01*
X54757Y4156D01*
X54807Y4231D01*
X54824Y4319D01*
Y4832D01*
X55098Y5106D01*
X55127Y5149D01*
X55156Y5156D01*
X55183Y5157D01*
X55183Y5156D01*
X55257Y5107D01*
X55345Y5089D01*
X55540D01*
Y4359D01*
X51686Y505D01*
X51578Y593D01*
X51454Y659D01*
X51320Y700D01*
X51181Y714D01*
X51042Y700D01*
X50908Y659D01*
X50785Y593D01*
X50676Y505D01*
X50588Y397D01*
X50522Y273D01*
X50481Y139D01*
X50467Y0D01*
X38562D01*
X38542Y46D01*
X39148Y652D01*
X39181Y701D01*
X39193Y760D01*
Y5600D01*
X39181Y5659D01*
X39148Y5708D01*
X38428Y6428D01*
X38379Y6461D01*
X38373Y6462D01*
X38361Y6516D01*
X38385Y6535D01*
X38449Y6618D01*
X38490Y6716D01*
X38497Y6770D01*
X37703D01*
X37710Y6716D01*
X37751Y6618D01*
X37815Y6535D01*
X37834Y6520D01*
X37817Y6473D01*
X31383D01*
X31366Y6520D01*
X31385Y6535D01*
X31449Y6618D01*
X31490Y6716D01*
X31497Y6770D01*
X30703D01*
X30710Y6716D01*
X30751Y6618D01*
X30815Y6535D01*
X30834Y6520D01*
X30817Y6473D01*
X21813D01*
X18349Y9937D01*
X18370Y9986D01*
X18383Y10090D01*
X18370Y10194D01*
X18329Y10292D01*
X18279Y10357D01*
X18303Y10407D01*
X18391D01*
X21636Y7162D01*
X21686Y7129D01*
X21744Y7117D01*
X30761D01*
X30785Y7067D01*
X30751Y7022D01*
X30710Y6924D01*
X30703Y6870D01*
X31497D01*
X31490Y6924D01*
X31449Y7022D01*
X31415Y7067D01*
X31439Y7117D01*
X37550D01*
X37609Y7129D01*
X37658Y7162D01*
X37947Y7451D01*
X37996Y7430D01*
X38100Y7417D01*
X38204Y7430D01*
X38302Y7471D01*
X38385Y7535D01*
X38449Y7618D01*
X38490Y7716D01*
X38503Y7820D01*
X38490Y7924D01*
X38449Y8022D01*
X38385Y8105D01*
X38302Y8169D01*
X38204Y8210D01*
X38100Y8223D01*
X37996Y8210D01*
X37898Y8169D01*
X37815Y8105D01*
X37751Y8022D01*
X37710Y7924D01*
X37697Y7820D01*
X37710Y7716D01*
X37731Y7667D01*
X37487Y7423D01*
X31330D01*
X31305Y7468D01*
X31305Y7473D01*
X31385Y7535D01*
X31449Y7618D01*
X31490Y7716D01*
X31503Y7820D01*
X31490Y7924D01*
X31449Y8022D01*
X31385Y8105D01*
X31357Y8127D01*
X31374Y8177D01*
X37610D01*
X37669Y8189D01*
X37718Y8222D01*
X37947Y8450D01*
X37996Y8430D01*
X38100Y8417D01*
X38204Y8430D01*
X38302Y8471D01*
X38385Y8535D01*
X38449Y8618D01*
X38490Y8716D01*
X38503Y8820D01*
X38490Y8924D01*
X38449Y9022D01*
X38385Y9105D01*
X38302Y9169D01*
X38204Y9210D01*
X38100Y9223D01*
X37996Y9210D01*
X37898Y9169D01*
X37815Y9105D01*
X37751Y9022D01*
X37710Y8924D01*
X37697Y8820D01*
X37710Y8716D01*
X37731Y8667D01*
X37547Y8483D01*
X31396D01*
X31380Y8530D01*
X31385Y8535D01*
X31449Y8618D01*
X31490Y8716D01*
X31503Y8820D01*
X31490Y8924D01*
X31449Y9022D01*
X31385Y9105D01*
X31366Y9120D01*
X31383Y9167D01*
X33340D01*
X33399Y9179D01*
X33448Y9212D01*
X33903Y9667D01*
X37730D01*
X37751Y9618D01*
X37815Y9535D01*
X37898Y9471D01*
X37996Y9430D01*
X38100Y9417D01*
X38204Y9430D01*
X38302Y9471D01*
X38385Y9535D01*
X38449Y9618D01*
X38490Y9716D01*
X38503Y9820D01*
X38490Y9924D01*
X38449Y10022D01*
X38385Y10105D01*
X38344Y10137D01*
X38361Y10187D01*
X42630D01*
X42689Y10199D01*
X42738Y10232D01*
X48203Y15697D01*
X51279D01*
X51332Y15662D01*
X51410Y15646D01*
X51488Y15662D01*
X51554Y15706D01*
X51598Y15772D01*
X51614Y15850D01*
X51598Y15928D01*
X51554Y15994D01*
X51488Y16038D01*
X51410Y16054D01*
X51332Y16038D01*
X51279Y16003D01*
X50685D01*
X50670Y16053D01*
X50674Y16056D01*
X50718Y16122D01*
X50734Y16200D01*
X50718Y16278D01*
X50674Y16344D01*
X50608Y16388D01*
X50530Y16404D01*
X50452Y16388D01*
X50399Y16353D01*
X48315D01*
X48295Y16399D01*
X48473Y16577D01*
X49799D01*
X49852Y16542D01*
X49930Y16526D01*
X50008Y16542D01*
X50074Y16586D01*
X50118Y16652D01*
X50134Y16730D01*
X50118Y16808D01*
X50074Y16874D01*
X50008Y16918D01*
X49930Y16934D01*
X49852Y16918D01*
X49799Y16883D01*
X48410D01*
X48351Y16871D01*
X48302Y16838D01*
X47774Y16310D01*
X47735Y16342D01*
X47768Y16392D01*
X47784Y16470D01*
X47768Y16548D01*
X47724Y16614D01*
X47658Y16658D01*
X47580Y16674D01*
X47502Y16658D01*
X47436Y16614D01*
X47392Y16548D01*
X47379Y16485D01*
X44357Y13463D01*
X38374D01*
X38357Y13513D01*
X38385Y13535D01*
X38449Y13618D01*
X38490Y13716D01*
X38503Y13820D01*
X38490Y13924D01*
X38449Y14022D01*
X38385Y14105D01*
X38302Y14169D01*
X38204Y14210D01*
X38100Y14223D01*
X37996Y14210D01*
X37898Y14169D01*
X37815Y14105D01*
X37751Y14022D01*
X37710Y13924D01*
X37697Y13820D01*
X37710Y13716D01*
X37751Y13618D01*
X37815Y13535D01*
X37843Y13513D01*
X37826Y13463D01*
X31374D01*
X31357Y13513D01*
X31385Y13535D01*
X31449Y13618D01*
X31490Y13716D01*
X31503Y13820D01*
X31490Y13924D01*
X31449Y14022D01*
X31385Y14105D01*
X31302Y14169D01*
X31204Y14210D01*
X31100Y14223D01*
X30996Y14210D01*
X30898Y14169D01*
X30815Y14105D01*
X30751Y14022D01*
X30710Y13924D01*
X30697Y13820D01*
X30710Y13716D01*
X30751Y13618D01*
X30815Y13535D01*
X30843Y13513D01*
X30826Y13463D01*
X30410D01*
X30361Y13453D01*
X30351Y13451D01*
X30302Y13418D01*
X28767Y11883D01*
X25062D01*
X23997Y12948D01*
X23947Y12981D01*
X23889Y12993D01*
X4094D01*
X4035Y12981D01*
X3985Y12948D01*
X1730Y10693D01*
X430D01*
X371Y10681D01*
X322Y10648D01*
X133Y10460D01*
X84Y10480D01*
X0Y10491D01*
Y16689D01*
X84Y16700D01*
X182Y16741D01*
X265Y16805D01*
X329Y16888D01*
X370Y16986D01*
X383Y17090D01*
X370Y17194D01*
X329Y17292D01*
X265Y17375D01*
X182Y17439D01*
X84Y17480D01*
X0Y17491D01*
Y17987D01*
X139Y18001D01*
X273Y18041D01*
X397Y18107D01*
X505Y18196D01*
X593Y18304D01*
X659Y18428D01*
X700Y18562D01*
X714Y18701D01*
X8309D01*
X8328Y18655D01*
D02*
G37*
G36*
X43912Y12121D02*
X43274Y11483D01*
X38396D01*
X38380Y11530D01*
X38385Y11535D01*
X38449Y11618D01*
X38490Y11716D01*
X38497Y11770D01*
X37703D01*
X37710Y11716D01*
X37751Y11618D01*
X37815Y11535D01*
X37820Y11530D01*
X37804Y11483D01*
X31396D01*
X31380Y11530D01*
X31385Y11535D01*
X31449Y11618D01*
X31490Y11716D01*
X31497Y11770D01*
X30703D01*
X30710Y11716D01*
X30751Y11618D01*
X30815Y11535D01*
X30820Y11530D01*
X30804Y11483D01*
X30005D01*
X29985Y11529D01*
X30623Y12167D01*
X30817D01*
X30834Y12120D01*
X30815Y12105D01*
X30751Y12022D01*
X30710Y11924D01*
X30703Y11870D01*
X31497D01*
X31490Y11924D01*
X31449Y12022D01*
X31385Y12105D01*
X31366Y12120D01*
X31383Y12167D01*
X37817D01*
X37834Y12120D01*
X37815Y12105D01*
X37751Y12022D01*
X37710Y11924D01*
X37703Y11870D01*
X38497D01*
X38490Y11924D01*
X38449Y12022D01*
X38385Y12105D01*
X38366Y12120D01*
X38383Y12167D01*
X43893D01*
X43912Y12121D01*
D02*
G37*
G36*
X16681Y10357D02*
X16631Y10292D01*
X16590Y10194D01*
X16577Y10090D01*
X16590Y9986D01*
X16631Y9888D01*
X16695Y9805D01*
X16778Y9741D01*
X16876Y9700D01*
X16980Y9687D01*
X17084Y9700D01*
X17133Y9721D01*
X21662Y5192D01*
X21711Y5159D01*
X21770Y5147D01*
X30795D01*
X30808Y5097D01*
X30751Y5022D01*
X30710Y4924D01*
X30697Y4820D01*
X30710Y4716D01*
X30751Y4618D01*
X30815Y4535D01*
X30856Y4503D01*
X30839Y4453D01*
X20833D01*
X15350Y9937D01*
X15370Y9986D01*
X15383Y10090D01*
X15370Y10194D01*
X15329Y10292D01*
X15279Y10357D01*
X15303Y10407D01*
X15657D01*
X15681Y10357D01*
X15631Y10292D01*
X15590Y10194D01*
X15583Y10140D01*
X16377D01*
X16370Y10194D01*
X16329Y10292D01*
X16279Y10357D01*
X16303Y10407D01*
X16657D01*
X16681Y10357D01*
D02*
G37*
G36*
X5115Y12441D02*
X3133Y10460D01*
X3084Y10480D01*
X2980Y10493D01*
X2876Y10480D01*
X2778Y10439D01*
X2695Y10375D01*
X2631Y10292D01*
X2590Y10194D01*
X2577Y10090D01*
X2590Y9986D01*
X2631Y9888D01*
X2695Y9805D01*
X2778Y9741D01*
X2876Y9700D01*
X2980Y9687D01*
X3084Y9700D01*
X3182Y9741D01*
X3265Y9805D01*
X3329Y9888D01*
X3370Y9986D01*
X3383Y10090D01*
X3370Y10194D01*
X3350Y10243D01*
X5393Y12287D01*
X5895D01*
X5915Y12241D01*
X4133Y10460D01*
X4084Y10480D01*
X3980Y10493D01*
X3876Y10480D01*
X3778Y10439D01*
X3695Y10375D01*
X3631Y10292D01*
X3590Y10194D01*
X3577Y10090D01*
X3590Y9986D01*
X3631Y9888D01*
X3695Y9805D01*
X3778Y9741D01*
X3876Y9700D01*
X3980Y9687D01*
X4084Y9700D01*
X4182Y9741D01*
X4265Y9805D01*
X4329Y9888D01*
X4370Y9986D01*
X4383Y10090D01*
X4370Y10194D01*
X4349Y10243D01*
X6193Y12087D01*
X9695D01*
X9715Y12041D01*
X8133Y10460D01*
X8084Y10480D01*
X7980Y10493D01*
X7876Y10480D01*
X7778Y10439D01*
X7695Y10375D01*
X7631Y10292D01*
X7590Y10194D01*
X7577Y10090D01*
X7590Y9986D01*
X7631Y9888D01*
X7695Y9805D01*
X7778Y9741D01*
X7876Y9700D01*
X7980Y9687D01*
X8084Y9700D01*
X8182Y9741D01*
X8265Y9805D01*
X8329Y9888D01*
X8370Y9986D01*
X8383Y10090D01*
X8370Y10194D01*
X8349Y10243D01*
X9983Y11877D01*
X17542D01*
X17552Y11827D01*
X17473Y11794D01*
X17366Y11712D01*
X17284Y11605D01*
X17232Y11480D01*
X17214Y11346D01*
X17232Y11212D01*
X17284Y11087D01*
X17366Y10980D01*
X17391Y10960D01*
X17375Y10913D01*
X9650D01*
X9591Y10901D01*
X9542Y10868D01*
X9133Y10460D01*
X9084Y10480D01*
X8980Y10493D01*
X8876Y10480D01*
X8778Y10439D01*
X8695Y10375D01*
X8631Y10292D01*
X8590Y10194D01*
X8577Y10090D01*
X8590Y9986D01*
X8631Y9888D01*
X8695Y9805D01*
X8778Y9741D01*
X8876Y9700D01*
X8980Y9687D01*
X9084Y9700D01*
X9182Y9741D01*
X9265Y9805D01*
X9329Y9888D01*
X9370Y9986D01*
X9383Y10090D01*
X9370Y10194D01*
X9349Y10243D01*
X9713Y10607D01*
X10215D01*
X10235Y10561D01*
X10133Y10460D01*
X10084Y10480D01*
X9980Y10493D01*
X9876Y10480D01*
X9778Y10439D01*
X9695Y10375D01*
X9631Y10292D01*
X9590Y10194D01*
X9577Y10090D01*
X9590Y9986D01*
X9631Y9888D01*
X9695Y9805D01*
X9778Y9741D01*
X9876Y9700D01*
X9980Y9687D01*
X10084Y9700D01*
X10182Y9741D01*
X10265Y9805D01*
X10329Y9888D01*
X10370Y9986D01*
X10383Y10090D01*
X10370Y10194D01*
X10350Y10243D01*
X10513Y10407D01*
X10657D01*
X10681Y10357D01*
X10631Y10292D01*
X10590Y10194D01*
X10583Y10140D01*
X11377D01*
X11370Y10194D01*
X11329Y10292D01*
X11279Y10357D01*
X11303Y10407D01*
X11657D01*
X11681Y10357D01*
X11631Y10292D01*
X11590Y10194D01*
X11577Y10090D01*
X11590Y9986D01*
X11631Y9888D01*
X11695Y9805D01*
X11778Y9741D01*
X11876Y9700D01*
X11980Y9687D01*
X12084Y9700D01*
X12133Y9721D01*
X20592Y1262D01*
X20641Y1229D01*
X20700Y1217D01*
X30870D01*
X30895Y1172D01*
X30895Y1167D01*
X30815Y1105D01*
X30751Y1022D01*
X30710Y924D01*
X30697Y820D01*
X30710Y716D01*
X30751Y618D01*
X30808Y543D01*
X30795Y493D01*
X14793D01*
X5350Y9937D01*
X5370Y9986D01*
X5383Y10090D01*
X5370Y10194D01*
X5329Y10292D01*
X5265Y10375D01*
X5182Y10439D01*
X5084Y10480D01*
X4980Y10493D01*
X4876Y10480D01*
X4778Y10439D01*
X4695Y10375D01*
X4631Y10292D01*
X4590Y10194D01*
X4577Y10090D01*
X4590Y9986D01*
X4631Y9888D01*
X4695Y9805D01*
X4778Y9741D01*
X4876Y9700D01*
X4980Y9687D01*
X5084Y9700D01*
X5133Y9721D01*
X14622Y232D01*
X14671Y199D01*
X14730Y187D01*
X30839D01*
X30856Y137D01*
X30815Y105D01*
X30751Y22D01*
X30742Y0D01*
X714D01*
X700Y139D01*
X659Y273D01*
X593Y397D01*
X505Y505D01*
X397Y593D01*
X273Y659D01*
X139Y700D01*
X0Y714D01*
Y4767D01*
X4080D01*
X4139Y4779D01*
X4188Y4812D01*
X4221Y4861D01*
X4233Y4920D01*
Y8759D01*
X4221Y8817D01*
X4188Y8867D01*
X4139Y8900D01*
X4080Y8912D01*
X0D01*
Y9689D01*
X84Y9700D01*
X182Y9741D01*
X265Y9805D01*
X329Y9888D01*
X370Y9986D01*
X383Y10090D01*
X370Y10194D01*
X349Y10243D01*
X493Y10387D01*
X641D01*
X665Y10337D01*
X631Y10292D01*
X590Y10194D01*
X583Y10140D01*
X1377D01*
X1370Y10194D01*
X1329Y10292D01*
X1295Y10337D01*
X1319Y10387D01*
X1641D01*
X1665Y10337D01*
X1631Y10292D01*
X1590Y10194D01*
X1577Y10090D01*
X1590Y9986D01*
X1631Y9888D01*
X1695Y9805D01*
X1778Y9741D01*
X1876Y9700D01*
X1980Y9687D01*
X2084Y9700D01*
X2182Y9741D01*
X2265Y9805D01*
X2329Y9888D01*
X2370Y9986D01*
X2383Y10090D01*
X2370Y10194D01*
X2350Y10243D01*
X4593Y12487D01*
X5095D01*
X5115Y12441D01*
D02*
G37*
G36*
X29692Y18172D02*
X29741Y18139D01*
X29751Y18137D01*
X29800Y18127D01*
X30768D01*
X30793Y18077D01*
X30751Y18022D01*
X30710Y17924D01*
X30697Y17820D01*
X30710Y17716D01*
X30751Y17618D01*
X30815Y17535D01*
X30882Y17483D01*
X30865Y17433D01*
X30753D01*
X30458Y17728D01*
X30409Y17761D01*
X30350Y17773D01*
X28668D01*
X28652Y17820D01*
X28662Y17828D01*
X28725Y17911D01*
X28765Y18007D01*
X28772Y18060D01*
X27988D01*
X27995Y18007D01*
X28035Y17911D01*
X28098Y17828D01*
X28108Y17820D01*
X28092Y17773D01*
X25948D01*
X25932Y17820D01*
X25942Y17828D01*
X26005Y17911D01*
X26045Y18007D01*
X26052Y18060D01*
X25268D01*
X25275Y18007D01*
X25315Y17911D01*
X25378Y17828D01*
X25388Y17820D01*
X25372Y17773D01*
X25233D01*
X24599Y18407D01*
X24620Y18457D01*
X25381D01*
X25398Y18407D01*
X25378Y18392D01*
X25315Y18309D01*
X25275Y18213D01*
X25268Y18160D01*
X26052D01*
X26045Y18213D01*
X26005Y18309D01*
X25942Y18392D01*
X25922Y18407D01*
X25939Y18457D01*
X28101D01*
X28118Y18407D01*
X28098Y18392D01*
X28035Y18309D01*
X27995Y18213D01*
X27988Y18160D01*
X28772D01*
X28765Y18213D01*
X28725Y18309D01*
X28662Y18392D01*
X28642Y18407D01*
X28659Y18457D01*
X29407D01*
X29692Y18172D01*
D02*
G37*
%LPC*%
G36*
X38150Y7217D02*
Y6870D01*
X38497D01*
X38490Y6924D01*
X38449Y7022D01*
X38385Y7105D01*
X38302Y7169D01*
X38204Y7210D01*
X38150Y7217D01*
D02*
G37*
G36*
X7480Y9468D02*
X7351Y9451D01*
X7231Y9401D01*
X7128Y9322D01*
X7049Y9219D01*
X6999Y9099D01*
X6982Y8970D01*
X6999Y8841D01*
X7049Y8721D01*
X7128Y8618D01*
X7231Y8539D01*
X7351Y8489D01*
X7480Y8472D01*
X7609Y8489D01*
X7729Y8539D01*
X7832Y8618D01*
X7911Y8721D01*
X7961Y8841D01*
X7978Y8970D01*
X7961Y9099D01*
X7911Y9219D01*
X7832Y9322D01*
X7729Y9401D01*
X7609Y9451D01*
X7480Y9468D01*
D02*
G37*
G36*
X6980Y10493D02*
X6876Y10480D01*
X6778Y10439D01*
X6695Y10375D01*
X6631Y10292D01*
X6590Y10194D01*
X6577Y10090D01*
X6590Y9986D01*
X6631Y9888D01*
X6695Y9805D01*
X6778Y9741D01*
X6876Y9700D01*
X6980Y9687D01*
X7084Y9700D01*
X7182Y9741D01*
X7265Y9805D01*
X7329Y9888D01*
X7370Y9986D01*
X7383Y10090D01*
X7370Y10194D01*
X7329Y10292D01*
X7265Y10375D01*
X7182Y10439D01*
X7084Y10480D01*
X6980Y10493D01*
D02*
G37*
G36*
X9980Y9468D02*
X9851Y9451D01*
X9731Y9401D01*
X9628Y9322D01*
X9549Y9219D01*
X9499Y9099D01*
X9482Y8970D01*
X9499Y8841D01*
X9549Y8721D01*
X9628Y8618D01*
X9731Y8539D01*
X9851Y8489D01*
X9980Y8472D01*
X10109Y8489D01*
X10229Y8539D01*
X10332Y8618D01*
X10411Y8721D01*
X10461Y8841D01*
X10478Y8970D01*
X10461Y9099D01*
X10411Y9219D01*
X10332Y9322D01*
X10229Y9401D01*
X10109Y9451D01*
X9980Y9468D01*
D02*
G37*
G36*
X48595Y5298D02*
X48520D01*
Y4744D01*
X48824D01*
Y5069D01*
X48807Y5156D01*
X48757Y5231D01*
X48683Y5281D01*
X48595Y5298D01*
D02*
G37*
G36*
X48420D02*
X48345D01*
X48257Y5281D01*
X48183Y5231D01*
X48133Y5156D01*
X48116Y5069D01*
Y4744D01*
X48420D01*
Y5298D01*
D02*
G37*
G36*
X38050Y7217D02*
X37996Y7210D01*
X37898Y7169D01*
X37815Y7105D01*
X37751Y7022D01*
X37710Y6924D01*
X37703Y6870D01*
X38050D01*
Y7217D01*
D02*
G37*
G36*
X46070Y12804D02*
X45992Y12788D01*
X45926Y12744D01*
X45882Y12678D01*
X45866Y12600D01*
X45882Y12522D01*
X45926Y12456D01*
X45933Y12451D01*
X49268Y9116D01*
Y6283D01*
X49257Y6281D01*
X49183Y6231D01*
X49133Y6156D01*
X49116Y6069D01*
Y5319D01*
X49133Y5231D01*
X49183Y5156D01*
X49257Y5107D01*
X49345Y5089D01*
X49595D01*
X49683Y5107D01*
X49757Y5156D01*
X49807Y5231D01*
X49824Y5319D01*
Y6069D01*
X49807Y6156D01*
X49757Y6231D01*
X49683Y6281D01*
X49672Y6283D01*
Y9192D01*
X49674Y9200D01*
X49658Y9278D01*
X49614Y9344D01*
X49607Y9349D01*
X46219Y12737D01*
X46214Y12744D01*
X46148Y12788D01*
X46070Y12804D01*
D02*
G37*
G36*
X6377Y10040D02*
X6030D01*
Y9693D01*
X6084Y9700D01*
X6182Y9741D01*
X6265Y9805D01*
X6329Y9888D01*
X6370Y9986D01*
X6377Y10040D01*
D02*
G37*
G36*
X2727Y650D02*
X1892D01*
X1902Y571D01*
X1952Y451D01*
X2031Y348D01*
X2134Y269D01*
X2254Y219D01*
X2383Y202D01*
X2727D01*
Y650D01*
D02*
G37*
G36*
X11377Y10040D02*
X11030D01*
Y9693D01*
X11084Y9700D01*
X11182Y9741D01*
X11265Y9805D01*
X11329Y9888D01*
X11370Y9986D01*
X11377Y10040D01*
D02*
G37*
G36*
X10930D02*
X10583D01*
X10590Y9986D01*
X10631Y9888D01*
X10695Y9805D01*
X10778Y9741D01*
X10876Y9700D01*
X10930Y9693D01*
Y10040D01*
D02*
G37*
G36*
X1377D02*
X1030D01*
Y9693D01*
X1084Y9700D01*
X1182Y9741D01*
X1265Y9805D01*
X1329Y9888D01*
X1370Y9986D01*
X1377Y10040D01*
D02*
G37*
G36*
X930D02*
X583D01*
X590Y9986D01*
X631Y9888D01*
X695Y9805D01*
X778Y9741D01*
X876Y9700D01*
X930Y9693D01*
Y10040D01*
D02*
G37*
G36*
X3662Y650D02*
X2827D01*
Y202D01*
X3171D01*
X3300Y219D01*
X3420Y269D01*
X3523Y348D01*
X3602Y451D01*
X3652Y571D01*
X3662Y650D01*
D02*
G37*
G36*
X5930Y10040D02*
X5583D01*
X5590Y9986D01*
X5631Y9888D01*
X5695Y9805D01*
X5778Y9741D01*
X5876Y9700D01*
X5930Y9693D01*
Y10040D01*
D02*
G37*
G36*
X5705Y1955D02*
X5360D01*
Y1610D01*
X5705D01*
Y1955D01*
D02*
G37*
G36*
X5260D02*
X4915D01*
Y1610D01*
X5260D01*
Y1955D01*
D02*
G37*
G36*
X1936Y2540D02*
X1488D01*
Y1705D01*
X1567Y1715D01*
X1687Y1765D01*
X1791Y1844D01*
X1870Y1947D01*
X1919Y2067D01*
X1936Y2196D01*
Y2540D01*
D02*
G37*
G36*
X1388D02*
X940D01*
Y2196D01*
X957Y2067D01*
X1007Y1947D01*
X1086Y1844D01*
X1189Y1765D01*
X1310Y1715D01*
X1388Y1705D01*
Y2540D01*
D02*
G37*
G36*
X5705Y1510D02*
X5360D01*
Y1165D01*
X5705D01*
Y1510D01*
D02*
G37*
G36*
X5260D02*
X4915D01*
Y1165D01*
X5260D01*
Y1510D01*
D02*
G37*
G36*
X38497Y1770D02*
X38150D01*
Y1423D01*
X38204Y1430D01*
X38302Y1471D01*
X38385Y1535D01*
X38449Y1618D01*
X38490Y1716D01*
X38497Y1770D01*
D02*
G37*
G36*
X38050D02*
X37703D01*
X37710Y1716D01*
X37751Y1618D01*
X37815Y1535D01*
X37898Y1471D01*
X37996Y1430D01*
X38050Y1423D01*
Y1770D01*
D02*
G37*
G36*
Y2217D02*
X37996Y2210D01*
X37898Y2169D01*
X37815Y2105D01*
X37751Y2022D01*
X37710Y1924D01*
X37703Y1870D01*
X38050D01*
Y2217D01*
D02*
G37*
G36*
X2727Y1198D02*
X2383D01*
X2254Y1181D01*
X2134Y1131D01*
X2031Y1052D01*
X1952Y949D01*
X1902Y829D01*
X1892Y750D01*
X2727D01*
Y1198D01*
D02*
G37*
G36*
X1488Y3475D02*
Y2640D01*
X1936D01*
Y2984D01*
X1919Y3113D01*
X1870Y3233D01*
X1791Y3336D01*
X1687Y3415D01*
X1567Y3465D01*
X1488Y3475D01*
D02*
G37*
G36*
X48824Y4644D02*
X48520D01*
Y4089D01*
X48595D01*
X48683Y4107D01*
X48757Y4156D01*
X48807Y4231D01*
X48824Y4319D01*
Y4644D01*
D02*
G37*
G36*
X48420D02*
X48116D01*
Y4319D01*
X48133Y4231D01*
X48183Y4156D01*
X48257Y4107D01*
X48345Y4089D01*
X48420D01*
Y4644D01*
D02*
G37*
G36*
X3919Y3561D02*
X3780Y3542D01*
X3650Y3489D01*
X3539Y3403D01*
X3453Y3292D01*
X3399Y3162D01*
X3381Y3023D01*
Y2157D01*
X3399Y2018D01*
X3453Y1888D01*
X3539Y1777D01*
X3650Y1691D01*
X3780Y1638D01*
X3919Y1619D01*
X4058Y1638D01*
X4188Y1691D01*
X4299Y1777D01*
X4384Y1888D01*
X4438Y2018D01*
X4456Y2157D01*
Y2386D01*
X4954D01*
X4965Y2361D01*
X5028Y2278D01*
X5111Y2215D01*
X5207Y2175D01*
X5310Y2161D01*
X5413Y2175D01*
X5509Y2215D01*
X5592Y2278D01*
X5655Y2361D01*
X5695Y2457D01*
X5709Y2560D01*
X5695Y2663D01*
X5655Y2759D01*
X5592Y2842D01*
X5509Y2905D01*
X5413Y2945D01*
X5310Y2959D01*
X5207Y2945D01*
X5111Y2905D01*
X5028Y2842D01*
X4991Y2794D01*
X4456D01*
Y3023D01*
X4438Y3162D01*
X4384Y3292D01*
X4299Y3403D01*
X4188Y3489D01*
X4058Y3542D01*
X3919Y3561D01*
D02*
G37*
G36*
X38150Y2217D02*
Y1870D01*
X38497D01*
X38490Y1924D01*
X38449Y2022D01*
X38385Y2105D01*
X38302Y2169D01*
X38204Y2210D01*
X38150Y2217D01*
D02*
G37*
G36*
X3171Y1198D02*
X2827D01*
Y750D01*
X3662D01*
X3652Y829D01*
X3602Y949D01*
X3523Y1052D01*
X3420Y1131D01*
X3300Y1181D01*
X3171Y1198D01*
D02*
G37*
G36*
X1388Y3475D02*
X1310Y3465D01*
X1189Y3415D01*
X1086Y3336D01*
X1007Y3233D01*
X957Y3113D01*
X940Y2984D01*
Y2640D01*
X1388D01*
Y3475D01*
D02*
G37*
G36*
X15930Y10040D02*
X15583D01*
X15590Y9986D01*
X15631Y9888D01*
X15695Y9805D01*
X15778Y9741D01*
X15876Y9700D01*
X15930Y9693D01*
Y10040D01*
D02*
G37*
G36*
X930Y17040D02*
X583D01*
X590Y16986D01*
X631Y16888D01*
X695Y16805D01*
X778Y16741D01*
X876Y16700D01*
X930Y16693D01*
Y17040D01*
D02*
G37*
G36*
X4980Y17493D02*
X4876Y17480D01*
X4778Y17439D01*
X4695Y17375D01*
X4631Y17292D01*
X4590Y17194D01*
X4577Y17090D01*
X4590Y16986D01*
X4631Y16888D01*
X4695Y16805D01*
X4778Y16741D01*
X4876Y16700D01*
X4980Y16687D01*
X5084Y16700D01*
X5182Y16741D01*
X5265Y16805D01*
X5329Y16888D01*
X5370Y16986D01*
X5383Y17090D01*
X5370Y17194D01*
X5329Y17292D01*
X5265Y17375D01*
X5182Y17439D01*
X5084Y17480D01*
X4980Y17493D01*
D02*
G37*
G36*
X5930Y17040D02*
X5583D01*
X5590Y16986D01*
X5631Y16888D01*
X5695Y16805D01*
X5778Y16741D01*
X5876Y16700D01*
X5930Y16693D01*
Y17040D01*
D02*
G37*
G36*
X1377D02*
X1030D01*
Y16693D01*
X1084Y16700D01*
X1182Y16741D01*
X1265Y16805D01*
X1329Y16888D01*
X1370Y16986D01*
X1377Y17040D01*
D02*
G37*
G36*
X1980Y17493D02*
X1876Y17480D01*
X1778Y17439D01*
X1695Y17375D01*
X1631Y17292D01*
X1590Y17194D01*
X1577Y17090D01*
X1590Y16986D01*
X1631Y16888D01*
X1695Y16805D01*
X1778Y16741D01*
X1876Y16700D01*
X1980Y16687D01*
X2084Y16700D01*
X2182Y16741D01*
X2265Y16805D01*
X2329Y16888D01*
X2370Y16986D01*
X2383Y17090D01*
X2370Y17194D01*
X2329Y17292D01*
X2265Y17375D01*
X2182Y17439D01*
X2084Y17480D01*
X1980Y17493D01*
D02*
G37*
G36*
X38497Y16770D02*
X38150D01*
Y16423D01*
X38204Y16430D01*
X38302Y16471D01*
X38385Y16535D01*
X38449Y16618D01*
X38490Y16716D01*
X38497Y16770D01*
D02*
G37*
G36*
X3980Y17493D02*
X3876Y17480D01*
X3778Y17439D01*
X3695Y17375D01*
X3631Y17292D01*
X3590Y17194D01*
X3577Y17090D01*
X3590Y16986D01*
X3631Y16888D01*
X3695Y16805D01*
X3778Y16741D01*
X3876Y16700D01*
X3980Y16687D01*
X4084Y16700D01*
X4182Y16741D01*
X4265Y16805D01*
X4329Y16888D01*
X4370Y16986D01*
X4383Y17090D01*
X4370Y17194D01*
X4329Y17292D01*
X4265Y17375D01*
X4182Y17439D01*
X4084Y17480D01*
X3980Y17493D01*
D02*
G37*
G36*
X2980D02*
X2876Y17480D01*
X2778Y17439D01*
X2695Y17375D01*
X2631Y17292D01*
X2590Y17194D01*
X2577Y17090D01*
X2590Y16986D01*
X2631Y16888D01*
X2695Y16805D01*
X2778Y16741D01*
X2876Y16700D01*
X2980Y16687D01*
X3084Y16700D01*
X3182Y16741D01*
X3265Y16805D01*
X3329Y16888D01*
X3370Y16986D01*
X3383Y17090D01*
X3370Y17194D01*
X3329Y17292D01*
X3265Y17375D01*
X3182Y17439D01*
X3084Y17480D01*
X2980Y17493D01*
D02*
G37*
G36*
X6377Y17040D02*
X6030D01*
Y16693D01*
X6084Y16700D01*
X6182Y16741D01*
X6265Y16805D01*
X6329Y16888D01*
X6370Y16986D01*
X6377Y17040D01*
D02*
G37*
G36*
X11030Y17487D02*
Y17140D01*
X11377D01*
X11370Y17194D01*
X11329Y17292D01*
X11265Y17375D01*
X11182Y17439D01*
X11084Y17480D01*
X11030Y17487D01*
D02*
G37*
G36*
X10930D02*
X10876Y17480D01*
X10778Y17439D01*
X10695Y17375D01*
X10631Y17292D01*
X10590Y17194D01*
X10583Y17140D01*
X10930D01*
Y17487D01*
D02*
G37*
G36*
X16030D02*
Y17140D01*
X16377D01*
X16370Y17194D01*
X16329Y17292D01*
X16265Y17375D01*
X16182Y17439D01*
X16084Y17480D01*
X16030Y17487D01*
D02*
G37*
G36*
X15930D02*
X15876Y17480D01*
X15778Y17439D01*
X15695Y17375D01*
X15631Y17292D01*
X15590Y17194D01*
X15583Y17140D01*
X15930D01*
Y17487D01*
D02*
G37*
G36*
X1030D02*
Y17140D01*
X1377D01*
X1370Y17194D01*
X1329Y17292D01*
X1265Y17375D01*
X1182Y17439D01*
X1084Y17480D01*
X1030Y17487D01*
D02*
G37*
G36*
X930D02*
X876Y17480D01*
X778Y17439D01*
X695Y17375D01*
X631Y17292D01*
X590Y17194D01*
X583Y17140D01*
X930D01*
Y17487D01*
D02*
G37*
G36*
X6030D02*
Y17140D01*
X6377D01*
X6370Y17194D01*
X6329Y17292D01*
X6265Y17375D01*
X6182Y17439D01*
X6084Y17480D01*
X6030Y17487D01*
D02*
G37*
G36*
X5930D02*
X5876Y17480D01*
X5778Y17439D01*
X5695Y17375D01*
X5631Y17292D01*
X5590Y17194D01*
X5583Y17140D01*
X5930D01*
Y17487D01*
D02*
G37*
G36*
X48420Y14404D02*
X48345D01*
X48257Y14387D01*
X48183Y14337D01*
X48133Y14263D01*
X48116Y14175D01*
Y13850D01*
X48420D01*
Y14404D01*
D02*
G37*
G36*
X48824Y13750D02*
X48520D01*
Y13196D01*
X48595D01*
X48683Y13213D01*
X48757Y13263D01*
X48807Y13337D01*
X48824Y13425D01*
Y13750D01*
D02*
G37*
G36*
X49595Y15404D02*
X49345D01*
X49257Y15387D01*
X49183Y15337D01*
X49133Y15263D01*
X49116Y15175D01*
Y14425D01*
X49133Y14337D01*
X49183Y14263D01*
X49257Y14213D01*
X49345Y14196D01*
X49595D01*
X49683Y14213D01*
X49757Y14263D01*
X49807Y14337D01*
X49824Y14425D01*
Y15175D01*
X49807Y15263D01*
X49757Y15337D01*
X49683Y15387D01*
X49595Y15404D01*
D02*
G37*
G36*
X48595Y14404D02*
X48520D01*
Y13850D01*
X48824D01*
Y14175D01*
X48807Y14263D01*
X48757Y14337D01*
X48683Y14387D01*
X48595Y14404D01*
D02*
G37*
G36*
X5930Y10487D02*
X5876Y10480D01*
X5778Y10439D01*
X5695Y10375D01*
X5631Y10292D01*
X5590Y10194D01*
X5583Y10140D01*
X5930D01*
Y10487D01*
D02*
G37*
G36*
X16377Y10040D02*
X16030D01*
Y9693D01*
X16084Y9700D01*
X16182Y9741D01*
X16265Y9805D01*
X16329Y9888D01*
X16370Y9986D01*
X16377Y10040D01*
D02*
G37*
G36*
X48420Y13750D02*
X48116D01*
Y13425D01*
X48133Y13337D01*
X48183Y13263D01*
X48257Y13213D01*
X48345Y13196D01*
X48420D01*
Y13750D01*
D02*
G37*
G36*
X6030Y10487D02*
Y10140D01*
X6377D01*
X6370Y10194D01*
X6329Y10292D01*
X6265Y10375D01*
X6182Y10439D01*
X6084Y10480D01*
X6030Y10487D01*
D02*
G37*
G36*
X31100Y15223D02*
X30996Y15210D01*
X30898Y15169D01*
X30815Y15105D01*
X30751Y15022D01*
X30710Y14924D01*
X30697Y14820D01*
X30710Y14716D01*
X30751Y14618D01*
X30815Y14535D01*
X30898Y14471D01*
X30996Y14430D01*
X31100Y14417D01*
X31204Y14430D01*
X31302Y14471D01*
X31385Y14535D01*
X31449Y14618D01*
X31490Y14716D01*
X31503Y14820D01*
X31490Y14924D01*
X31449Y15022D01*
X31385Y15105D01*
X31302Y15169D01*
X31204Y15210D01*
X31100Y15223D01*
D02*
G37*
G36*
X31050Y16770D02*
X30703D01*
X30710Y16716D01*
X30751Y16618D01*
X30815Y16535D01*
X30898Y16471D01*
X30996Y16430D01*
X31050Y16423D01*
Y16770D01*
D02*
G37*
G36*
X38100Y16223D02*
X37996Y16210D01*
X37898Y16169D01*
X37815Y16105D01*
X37751Y16022D01*
X37710Y15924D01*
X37697Y15820D01*
X37710Y15716D01*
X37751Y15618D01*
X37815Y15535D01*
X37898Y15471D01*
X37996Y15430D01*
X38100Y15417D01*
X38204Y15430D01*
X38302Y15471D01*
X38385Y15535D01*
X38449Y15618D01*
X38490Y15716D01*
X38503Y15820D01*
X38490Y15924D01*
X38449Y16022D01*
X38385Y16105D01*
X38302Y16169D01*
X38204Y16210D01*
X38100Y16223D01*
D02*
G37*
G36*
X38050Y16770D02*
X37703D01*
X37710Y16716D01*
X37751Y16618D01*
X37815Y16535D01*
X37898Y16471D01*
X37996Y16430D01*
X38050Y16423D01*
Y16770D01*
D02*
G37*
G36*
X31497D02*
X31150D01*
Y16423D01*
X31204Y16430D01*
X31302Y16471D01*
X31385Y16535D01*
X31449Y16618D01*
X31490Y16716D01*
X31497Y16770D01*
D02*
G37*
G36*
X51595Y15404D02*
X51345D01*
X51257Y15387D01*
X51183Y15337D01*
X51133Y15263D01*
X51116Y15175D01*
Y14667D01*
X51076Y14651D01*
X51066Y14651D01*
X50721Y14995D01*
X50708Y15058D01*
X50664Y15124D01*
X50598Y15168D01*
X50520Y15184D01*
X50442Y15168D01*
X50376Y15124D01*
X50332Y15058D01*
X50316Y14980D01*
X50332Y14902D01*
X50376Y14836D01*
X50442Y14792D01*
X50505Y14779D01*
X50807Y14477D01*
Y14353D01*
X50757Y14337D01*
X50683Y14387D01*
X50595Y14404D01*
X50345D01*
X50257Y14387D01*
X50183Y14337D01*
X50133Y14263D01*
X50116Y14175D01*
Y13425D01*
X50133Y13337D01*
X50183Y13263D01*
X50257Y13213D01*
X50345Y13196D01*
X50595D01*
X50683Y13213D01*
X50757Y13263D01*
X50807Y13247D01*
Y5270D01*
X50764Y5230D01*
X50757Y5231D01*
X50683Y5281D01*
X50595Y5298D01*
X50345D01*
X50257Y5281D01*
X50183Y5231D01*
X50133Y5156D01*
X50116Y5069D01*
Y4319D01*
X50133Y4231D01*
X50183Y4156D01*
X50257Y4107D01*
X50345Y4089D01*
X50595D01*
X50683Y4107D01*
X50757Y4156D01*
X50807Y4231D01*
X50824Y4319D01*
Y4832D01*
X51068Y5076D01*
X51101Y5125D01*
X51111Y5174D01*
X51138Y5185D01*
X51163Y5186D01*
X51183Y5156D01*
X51257Y5107D01*
X51345Y5089D01*
X51595D01*
X51683Y5107D01*
X51757Y5156D01*
X51807Y5231D01*
X51824Y5319D01*
Y6069D01*
X51807Y6156D01*
X51757Y6231D01*
X51683Y6281D01*
X51673Y6283D01*
Y13815D01*
X51708Y13868D01*
X51724Y13946D01*
X51708Y14024D01*
X51664Y14090D01*
X51598Y14135D01*
X51591Y14136D01*
X51545Y14145D01*
X51545Y14165D01*
X51582Y14196D01*
X51595D01*
X51683Y14213D01*
X51757Y14263D01*
X51807Y14337D01*
X51824Y14425D01*
Y15175D01*
X51807Y15263D01*
X51757Y15337D01*
X51683Y15387D01*
X51595Y15404D01*
D02*
G37*
G36*
X38100Y15223D02*
X37996Y15210D01*
X37898Y15169D01*
X37815Y15105D01*
X37751Y15022D01*
X37710Y14924D01*
X37697Y14820D01*
X37710Y14716D01*
X37751Y14618D01*
X37815Y14535D01*
X37898Y14471D01*
X37996Y14430D01*
X38100Y14417D01*
X38204Y14430D01*
X38302Y14471D01*
X38385Y14535D01*
X38449Y14618D01*
X38490Y14716D01*
X38503Y14820D01*
X38490Y14924D01*
X38449Y15022D01*
X38385Y15105D01*
X38302Y15169D01*
X38204Y15210D01*
X38100Y15223D01*
D02*
G37*
G36*
X31100Y16223D02*
X30996Y16210D01*
X30898Y16169D01*
X30815Y16105D01*
X30751Y16022D01*
X30710Y15924D01*
X30697Y15820D01*
X30710Y15716D01*
X30751Y15618D01*
X30815Y15535D01*
X30898Y15471D01*
X30996Y15430D01*
X31100Y15417D01*
X31204Y15430D01*
X31302Y15471D01*
X31385Y15535D01*
X31449Y15618D01*
X31490Y15716D01*
X31503Y15820D01*
X31490Y15924D01*
X31449Y16022D01*
X31385Y16105D01*
X31302Y16169D01*
X31204Y16210D01*
X31100Y16223D01*
D02*
G37*
G36*
X17732Y16352D02*
X17598Y16334D01*
X17473Y16283D01*
X17366Y16200D01*
X17284Y16093D01*
X17232Y15968D01*
X17214Y15834D01*
X17232Y15700D01*
X17284Y15575D01*
X17366Y15468D01*
X17473Y15386D01*
X17598Y15334D01*
X17732Y15316D01*
X17866Y15334D01*
X17991Y15386D01*
X18098Y15468D01*
X18180Y15575D01*
X18232Y15700D01*
X18250Y15834D01*
X18232Y15968D01*
X18180Y16093D01*
X18098Y16200D01*
X17991Y16283D01*
X17866Y16334D01*
X17732Y16352D01*
D02*
G37*
%LPD*%
D10*
X48470Y13800D02*
D03*
X50470D02*
D03*
X52470D02*
D03*
X54470D02*
D03*
X49470Y14800D02*
D03*
X51470D02*
D03*
X53470D02*
D03*
X55470D02*
D03*
Y5694D02*
D03*
X54470Y4694D02*
D03*
X52470D02*
D03*
X50470D02*
D03*
X48470D02*
D03*
X53470Y5694D02*
D03*
X51470D02*
D03*
X49470D02*
D03*
D15*
Y9200D01*
X46070Y12600D02*
X49470Y9200D01*
D16*
X50470Y4694D02*
X50960Y5184D01*
Y14540D01*
X50520Y14980D02*
X50960Y14540D01*
X52470Y4694D02*
X52960Y5184D01*
Y14490D01*
X52520Y14930D02*
X52960Y14490D01*
X51470Y5694D02*
X51520Y5744D01*
Y13946D01*
X44420Y13310D02*
X47580Y16470D01*
X30410Y13310D02*
X44420D01*
X28830Y11730D02*
X30410Y13310D01*
X24999Y11730D02*
X28830D01*
X23889Y12840D02*
X24999Y11730D01*
X4094Y12840D02*
X23889D01*
X1794Y10540D02*
X4094Y12840D01*
X430Y10540D02*
X1794D01*
X-20Y10090D02*
X430Y10540D01*
X48410Y16730D02*
X49930D01*
X44000Y12320D02*
X48410Y16730D01*
X30560Y12320D02*
X44000D01*
X29770Y11530D02*
X30560Y12320D01*
X24916Y11530D02*
X29770D01*
X23806Y12640D02*
X24916Y11530D01*
X4530Y12640D02*
X23806D01*
X1980Y10090D02*
X4530Y12640D01*
X48207Y16200D02*
X50530D01*
X43337Y11330D02*
X48207Y16200D01*
X24833Y11330D02*
X43337D01*
X23723Y12440D02*
X24833Y11330D01*
X5330Y12440D02*
X23723D01*
X2980Y10090D02*
X5330Y12440D01*
X48140Y15850D02*
X51410D01*
X42630Y10340D02*
X48140Y15850D01*
X25540Y10340D02*
X42630D01*
X23640Y12240D02*
X25540Y10340D01*
X6130Y12240D02*
X23640D01*
X3980Y10090D02*
X6130Y12240D01*
X14730Y340D02*
X34720D01*
X4980Y10090D02*
X14730Y340D01*
X31316Y1400D02*
X34740D01*
X31286Y1370D02*
X31316Y1400D01*
X20700Y1370D02*
X31286D01*
X11980Y10090D02*
X20700Y1370D01*
X20770Y2300D02*
X34710D01*
X12980Y10090D02*
X20770Y2300D01*
X18840Y10740D02*
Y11610D01*
X18420Y12030D02*
X18840Y11610D01*
X9920Y12030D02*
X18420D01*
X7980Y10090D02*
X9920Y12030D01*
X18454Y10560D02*
X21744Y7270D01*
X37550D01*
X9980Y10090D02*
X10450Y10560D01*
X18454D01*
X18537Y10760D02*
X20177Y9120D01*
X9650Y10760D02*
X18537D01*
X8980Y10090D02*
X9650Y10760D01*
X37550Y7270D02*
X38100Y7820D01*
X37610Y8330D02*
X38100Y8820D01*
X30690Y8330D02*
X37610D01*
X29900Y9120D02*
X30690Y8330D01*
X20177Y9120D02*
X29900D01*
X18840Y10740D02*
X20260Y9320D01*
X33340D01*
X33840Y9820D01*
X38100D01*
X37610Y3330D02*
X38100Y3820D01*
X20740Y3330D02*
X37610D01*
X13980Y10090D02*
X20740Y3330D01*
X38100Y2820D02*
X38640Y3360D01*
Y4020D01*
X38360Y4300D02*
X38640Y4020D01*
X20770Y4300D02*
X38360D01*
X14980Y10090D02*
X20770Y4300D01*
X38100Y820D02*
X38840Y1560D01*
Y4800D01*
X38340Y5300D02*
X38840Y4800D01*
X38320Y6320D02*
X39040Y5600D01*
Y760D02*
Y5600D01*
X38100Y-180D02*
X39040Y760D01*
X21770Y5300D02*
X38340D01*
X16980Y10090D02*
X21770Y5300D01*
X17980Y10090D02*
X21750Y6320D01*
X38320D01*
X19830Y16600D02*
X21200Y15160D01*
X9470Y16600D02*
X19830D01*
X8980Y17090D02*
X9470Y16600D01*
X24850Y17110D02*
X25660D01*
X23920Y18040D02*
X24850Y17110D01*
X10630Y18040D02*
X23920D01*
X9980Y17390D02*
X10630Y18040D01*
X9980Y17090D02*
Y17390D01*
X30350Y17620D02*
X30690Y17280D01*
X25170Y17620D02*
X30350D01*
X24470Y18320D02*
X25170Y17620D01*
X9210Y18320D02*
X24470D01*
X7980Y17090D02*
X9210Y18320D01*
X54470Y4694D02*
X54990Y5214D01*
Y14380D01*
X52800Y16570D02*
X54990Y14380D01*
X50950Y16570D02*
X52800D01*
X50240Y17280D02*
X50950Y16570D01*
X30690Y17280D02*
X50240D01*
X50900Y17300D02*
X52970D01*
X49920Y18280D02*
X50900Y17300D01*
X29800Y18280D02*
X49920D01*
X29470Y18610D02*
X29800Y18280D01*
X8500Y18610D02*
X29470D01*
X6980Y17090D02*
X8500Y18610D01*
X52970Y17300D02*
X55470Y14800D01*
D17*
X3919Y2590D02*
X5280D01*
D19*
X4821Y7992D02*
D03*
X49470Y9200D02*
D03*
X46070Y12600D02*
D03*
X50520Y14980D02*
D03*
X52520Y14930D02*
D03*
X51520Y13946D02*
D03*
X53450Y5690D02*
D03*
X47580Y16470D02*
D03*
X49930Y16730D02*
D03*
X50530Y16200D02*
D03*
X51410Y15850D02*
D03*
X34720Y340D02*
D03*
X34740Y1400D02*
D03*
X34710Y2300D02*
D03*
X21200Y15160D02*
D03*
D20*
X28380Y18110D02*
D03*
X25660D02*
D03*
X5310Y2560D02*
D03*
D21*
X28380Y17110D02*
D03*
X25660D02*
D03*
X5310Y1560D02*
D03*
D22*
X1438Y2590D02*
D03*
D23*
X2777Y700D02*
D03*
D24*
X3919Y2590D02*
D03*
D25*
X51181Y18701D02*
D03*
Y0D02*
D03*
X0D02*
D03*
Y18701D02*
D03*
X-772Y11346D02*
D03*
Y15834D02*
D03*
X17732D02*
D03*
Y11346D02*
D03*
X-1020Y10090D02*
D03*
X-20D02*
D03*
X11980D02*
D03*
X12980D02*
D03*
X13980D02*
D03*
X14980D02*
D03*
X15980D02*
D03*
X16980D02*
D03*
X17980D02*
D03*
Y17090D02*
D03*
X16980D02*
D03*
X15980D02*
D03*
X14980D02*
D03*
X13980D02*
D03*
X12980D02*
D03*
X11980D02*
D03*
X10980D02*
D03*
X9980D02*
D03*
X8980D02*
D03*
X7980D02*
D03*
X6980D02*
D03*
X5980D02*
D03*
X4980D02*
D03*
X3980D02*
D03*
X2980D02*
D03*
X1980D02*
D03*
X980D02*
D03*
X-20D02*
D03*
X-1020D02*
D03*
X980Y10090D02*
D03*
X1980D02*
D03*
X2980D02*
D03*
X3980D02*
D03*
X4980D02*
D03*
X5980D02*
D03*
X6980D02*
D03*
X7980D02*
D03*
X8980D02*
D03*
X9980D02*
D03*
X10980D02*
D03*
X38100Y16820D02*
D03*
X31100Y5820D02*
D03*
Y7820D02*
D03*
X38100Y4820D02*
D03*
Y5820D02*
D03*
Y10820D02*
D03*
Y12820D02*
D03*
Y13820D02*
D03*
Y14820D02*
D03*
Y15820D02*
D03*
Y17820D02*
D03*
Y18820D02*
D03*
X31100Y9820D02*
D03*
Y10820D02*
D03*
Y11820D02*
D03*
Y12820D02*
D03*
Y13820D02*
D03*
Y15820D02*
D03*
Y18820D02*
D03*
Y17820D02*
D03*
Y6820D02*
D03*
Y8820D02*
D03*
Y14820D02*
D03*
Y16820D02*
D03*
X38100Y11820D02*
D03*
Y9820D02*
D03*
Y8820D02*
D03*
Y7820D02*
D03*
Y6820D02*
D03*
Y3820D02*
D03*
Y2820D02*
D03*
Y1820D02*
D03*
Y820D02*
D03*
Y-180D02*
D03*
X31100D02*
D03*
Y820D02*
D03*
Y1820D02*
D03*
Y2820D02*
D03*
Y3820D02*
D03*
Y4820D02*
D03*
D26*
X9980Y8970D02*
D03*
X7480D02*
D03*
X20140Y10260D02*
D03*
X22640D02*
D03*
M02*
